<svg version="1.1" viewBox="0.0 0.0 753.9632545931759 363.8923884514436" fill="none" stroke="none" stroke-linecap="square" stroke-miterlimit="10" xmlns:xlink="http://www.w3.org/1999/xlink" xmlns="http://www.w3.org/2000/svg"><clipPath id="p.0"><path d="m0 0l753.96326 0l0 363.8924l-753.96326 0l0 -363.8924z" clip-rule="nonzero"/></clipPath><g clip-path="url(#p.0)"><path fill="#000000" fill-opacity="0.0" d="m0 0l753.96326 0l0 363.8924l-753.96326 0z" fill-rule="evenodd"/><path fill="#b9ff00" fill-opacity="0.514" d="m0 178.29921l0 0c0 -98.47193 79.82728 -178.29921 178.29921 -178.29921l0 0c47.287888 0 92.63899 18.785042 126.076584 52.22263c33.43759 33.437588 52.222626 78.7887 52.222626 126.076584l0 0c0 98.47194 -79.82727 178.29921 -178.29921 178.29921l0 0c-98.47193 0 -178.29921 -79.82727 -178.29921 -178.29921z" fill-rule="evenodd"/><path stroke="#000000" stroke-width="1.0" stroke-linejoin="round" stroke-linecap="butt" d="m0 178.29921l0 0c0 -98.47193 79.82728 -178.29921 178.29921 -178.29921l0 0c47.287888 0 92.63899 18.785042 126.076584 52.22263c33.43759 33.437588 52.222626 78.7887 52.222626 126.076584l0 0c0 98.47194 -79.82727 178.29921 -178.29921 178.29921l0 0c-98.47193 0 -178.29921 -79.82727 -178.29921 -178.29921z" fill-rule="evenodd"/><path fill="#000000" d="m129.74843 132.01984l12.6875 0q4.28125 0 6.53125 0.65625q3.03125 0.890625 5.1875 3.171875q2.15625 2.265625 3.28125 5.5625q1.125 3.28125 1.125 8.109375q0 4.25 -1.0625 7.3125q-1.28125 3.75 -3.671875 6.078125q-1.8125 1.75 -4.875 2.734375q-2.296875 0.734375 -6.140625 0.734375l-13.0625 0l0 -34.359375zm6.9375 5.8125l0 22.75l5.1875 0q2.90625 0 4.1875 -0.328125q1.6875 -0.421875 2.796875 -1.421875q1.125 -1.015625 1.828125 -3.3125q0.703125 -2.3125 0.703125 -6.296875q0 -3.984375 -0.703125 -6.109375q-0.703125 -2.140625 -1.96875 -3.328125q-1.265625 -1.203125 -3.21875 -1.625q-1.453125 -0.328125 -5.6875 -0.328125l-3.125 0zm32.632812 11.25l-5.984375 -1.078125q1.015625 -3.609375 3.46875 -5.34375q2.46875 -1.734375 7.3125 -1.734375q4.40625 0 6.5625 1.046875q2.15625 1.03125 3.03125 2.640625q0.890625 1.609375 0.890625 5.890625l-0.078125 7.6875q0 3.28125 0.3125 4.84375q0.328125 1.5625 1.1875 3.34375l-6.515625 0q-0.25 -0.65625 -0.625 -1.953125q-0.171875 -0.578125 -0.234375 -0.765625q-1.6875 1.640625 -3.609375 2.46875q-1.921875 0.8125 -4.109375 0.8125q-3.84375 0 -6.0625 -2.078125q-2.203125 -2.09375 -2.203125 -5.28125q0 -2.109375 1.0 -3.765625q1.015625 -1.65625 2.828125 -2.53125q1.8125 -0.875 5.234375 -1.53125q4.625 -0.875 6.40625 -1.625l0 -0.65625q0 -1.890625 -0.9375 -2.703125q-0.9375 -0.8125 -3.546875 -0.8125q-1.75 0 -2.734375 0.703125q-0.984375 0.6875 -1.59375 2.421875zm8.8125 5.34375q-1.265625 0.421875 -4.015625 1.015625q-2.734375 0.578125 -3.578125 1.140625q-1.296875 0.90625 -1.296875 2.3125q0 1.390625 1.03125 2.40625q1.03125 1.0 2.625 1.0q1.78125 0 3.40625 -1.171875q1.1875 -0.890625 1.5625 -2.1875q0.265625 -0.84375 0.265625 -3.203125l0 -1.3125zm24.367188 -12.9375l0 5.25l-4.5 0l0 10.03125q0 3.046875 0.125 3.546875q0.140625 0.5 0.59375 0.828125q0.453125 0.328125 1.109375 0.328125q0.921875 0 2.65625 -0.625l0.5625 5.109375q-2.296875 0.984375 -5.203125 0.984375q-1.78125 0 -3.21875 -0.59375q-1.421875 -0.609375 -2.09375 -1.546875q-0.671875 -0.953125 -0.921875 -2.578125q-0.21875 -1.140625 -0.21875 -4.640625l0 -10.84375l-3.015625 0l0 -5.25l3.015625 0l0 -4.953125l6.609375 -3.84375l0 8.796875l4.5 0zm9.5 7.59375l-5.984375 -1.078125q1.015625 -3.609375 3.46875 -5.34375q2.46875 -1.734375 7.3125 -1.734375q4.40625 0 6.5625 1.046875q2.15625 1.03125 3.03125 2.640625q0.890625 1.609375 0.890625 5.890625l-0.078125 7.6875q0 3.28125 0.3125 4.84375q0.328125 1.5625 1.1875 3.34375l-6.515625 0q-0.25 -0.65625 -0.625 -1.953125q-0.171875 -0.578125 -0.234375 -0.765625q-1.6875 1.640625 -3.609375 2.46875q-1.921875 0.8125 -4.109375 0.8125q-3.84375 0 -6.0625 -2.078125q-2.203125 -2.09375 -2.203125 -5.28125q0 -2.109375 1.0 -3.765625q1.015625 -1.65625 2.828125 -2.53125q1.8125 -0.875 5.234375 -1.53125q4.625 -0.875 6.40625 -1.625l0 -0.65625q0 -1.890625 -0.9375 -2.703125q-0.9375 -0.8125 -3.546875 -0.8125q-1.75 0 -2.734375 0.703125q-0.984375 0.6875 -1.59375 2.421875zm8.8125 5.34375q-1.265625 0.421875 -4.015625 1.015625q-2.734375 0.578125 -3.578125 1.140625q-1.296875 0.90625 -1.296875 2.3125q0 1.390625 1.03125 2.40625q1.03125 1.0 2.625 1.0q1.78125 0 3.40625 -1.171875q1.1875 -0.890625 1.5625 -2.1875q0.265625 -0.84375 0.265625 -3.203125l0 -1.3125z" fill-rule="nonzero"/><path fill="#000000" d="m66.654686 213.19171l6.75 -0.65625q0.609375 3.40625 2.46875 5.0q1.875 1.59375 5.03125 1.59375q3.359375 0 5.046875 -1.421875q1.703125 -1.421875 1.703125 -3.3125q0 -1.21875 -0.71875 -2.078125q-0.703125 -0.859375 -2.484375 -1.484375q-1.21875 -0.421875 -5.5625 -1.5q-5.578125 -1.390625 -7.828125 -3.40625q-3.15625 -2.828125 -3.15625 -6.90625q0 -2.625 1.484375 -4.90625q1.484375 -2.296875 4.28125 -3.484375q2.8125 -1.203125 6.765625 -1.203125q6.46875 0 9.734375 2.84375q3.28125 2.828125 3.4375 7.5625l-6.9375 0.3125q-0.4375 -2.65625 -1.90625 -3.8125q-1.46875 -1.15625 -4.390625 -1.15625q-3.03125 0 -4.734375 1.234375q-1.109375 0.796875 -1.109375 2.140625q0 1.21875 1.03125 2.078125q1.3125 1.109375 6.375 2.3125q5.0625 1.1875 7.484375 2.46875q2.4375 1.265625 3.796875 3.484375q1.375 2.21875 1.375 5.46875q0 2.953125 -1.640625 5.53125q-1.640625 2.578125 -4.640625 3.84375q-3.0 1.25 -7.46875 1.25q-6.515625 0 -10.015625 -3.015625q-3.484375 -3.015625 -4.171875 -8.78125zm55.4375 -6.34375l-6.5 1.171875q-0.328125 -1.953125 -1.484375 -2.9375q-1.15625 -0.984375 -3.015625 -0.984375q-2.453125 0 -3.921875 1.703125q-1.46875 1.703125 -1.46875 5.6875q0 4.421875 1.484375 6.25q1.5 1.828125 4.0 1.828125q1.875 0 3.0625 -1.0625q1.203125 -1.0625 1.703125 -3.671875l6.46875 1.109375q-1.015625 4.453125 -3.875 6.734375q-2.859375 2.265625 -7.65625 2.265625q-5.46875 0 -8.71875 -3.4375q-3.234375 -3.453125 -3.234375 -9.546875q0 -6.171875 3.25 -9.59375q3.265625 -3.4375 8.8125 -3.4375q4.546875 0 7.234375 1.953125q2.6875 1.953125 3.859375 5.96875zm4.9921875 -10.734375l0 -6.09375l6.5781174 0l0 6.09375l-6.5781174 0zm0 28.265625l0 -24.890625l6.5781174 0l0 24.890625l-6.5781174 0zm27.74218 -7.921875l6.5625 1.09375q-1.265625 3.609375 -4.0 5.5q-2.71875 1.890625 -6.828125 1.890625q-6.484375 0 -9.609375 -4.25q-2.453125 -3.390625 -2.453125 -8.578125q0 -6.1875 3.234375 -9.6875q3.234375 -3.5 8.171875 -3.5q5.5625 0 8.765625 3.671875q3.21875 3.65625 3.078125 11.234375l-16.5 0q0.0625 2.921875 1.578125 4.5625q1.53125 1.625 3.8125 1.625q1.546875 0 2.59375 -0.84375q1.0625 -0.84375 1.59375 -2.71875zm0.375 -6.65625q-0.0625 -2.859375 -1.46875 -4.34375q-1.40625 -1.5 -3.421875 -1.5q-2.15625 0 -3.5625 1.578125q-1.40625 1.5625 -1.390625 4.265625l9.84375 0zm34.554688 14.578125l-6.59375 0l0 -12.703125q0 -4.03125 -0.421875 -5.21875q-0.421875 -1.1875 -1.375 -1.84375q-0.9375 -0.65625 -2.28125 -0.65625q-1.703125 0 -3.0625 0.9375q-1.359375 0.9375 -1.875 2.484375q-0.5 1.546875 -0.5 5.71875l0 11.28125l-6.578125 0l0 -24.890625l6.109375 0l0 3.65625q3.265625 -4.21875 8.203125 -4.21875q2.1875 0 3.984375 0.78125q1.8125 0.78125 2.734375 2.0q0.921875 1.21875 1.28125 2.765625q0.375 1.546875 0.375 4.4375l0 15.46875zm18.085938 -24.890625l0 5.25l-4.5 0l0 10.03125q0 3.046875 0.125 3.546875q0.140625 0.5 0.59375 0.828125q0.453125 0.328125 1.109375 0.328125q0.921875 0 2.65625 -0.625l0.5625 5.109375q-2.296875 0.984375 -5.203125 0.984375q-1.78125 0 -3.21875 -0.59375q-1.421875 -0.609375 -2.09375 -1.546875q-0.671875 -0.953125 -0.921875 -2.578125q-0.21875 -1.140625 -0.21875 -4.640625l0 -10.84375l-3.015625 0l0 -5.25l3.015625 0l0 -4.953125l6.609375 -3.84375l0 8.796875l4.5 0zm4.578125 -3.375l0 -6.09375l6.578125 0l0 6.09375l-6.578125 0zm0 28.265625l0 -24.890625l6.578125 0l0 24.890625l-6.578125 0zm11.0078125 -7.109375l6.609375 -1.0q0.421875 1.921875 1.703125 2.921875q1.296875 0.984375 3.625 0.984375q2.546875 0 3.84375 -0.9375q0.859375 -0.65625 0.859375 -1.75q0 -0.75 -0.46875 -1.25q-0.484375 -0.46875 -2.203125 -0.859375q-7.96875 -1.765625 -10.09375 -3.21875q-2.953125 -2.015625 -2.953125 -5.59375q0 -3.234375 2.546875 -5.4375q2.5625 -2.203125 7.921875 -2.203125q5.109375 0 7.59375 1.671875q2.484375 1.65625 3.421875 4.90625l-6.203125 1.15625q-0.40625 -1.453125 -1.515625 -2.21875q-1.109375 -0.78125 -3.171875 -0.78125q-2.609375 0 -3.734375 0.71875q-0.75 0.515625 -0.75 1.34375q0 0.703125 0.65625 1.1875q0.890625 0.65625 6.15625 1.859375q5.265625 1.1875 7.34375 2.921875q2.0625 1.765625 2.0625 4.90625q0 3.421875 -2.859375 5.890625q-2.859375 2.453125 -8.453125 2.453125q-5.09375 0 -8.0625 -2.0625q-2.953125 -2.0625 -3.875 -5.609375zm40.429703 -17.78125l0 5.25l-4.5 0l0 10.03125q0 3.046875 0.125 3.546875q0.140625 0.5 0.59375 0.828125q0.453125 0.328125 1.109375 0.328125q0.921875 0 2.65625 -0.625l0.5625 5.109375q-2.296875 0.984375 -5.203125 0.984375q-1.78125 0 -3.2187653 -0.59375q-1.421875 -0.609375 -2.09375 -1.546875q-0.671875 -0.953125 -0.921875 -2.578125q-0.21875 -1.140625 -0.21875 -4.640625l0 -10.84375l-3.015625 0l0 -5.25l3.015625 0l0 -4.953125l6.6093903 -3.84375l0 8.796875l4.5 0zm2.25 17.78125l6.609375 -1.0q0.421875 1.921875 1.703125 2.921875q1.296875 0.984375 3.625 0.984375q2.546875 0 3.84375 -0.9375q0.859375 -0.65625 0.859375 -1.75q0 -0.75 -0.46875 -1.25q-0.484375 -0.46875 -2.203125 -0.859375q-7.96875 -1.765625 -10.09375 -3.21875q-2.953125 -2.015625 -2.953125 -5.59375q0 -3.234375 2.546875 -5.4375q2.5625 -2.203125 7.921875 -2.203125q5.109375 0 7.59375 1.671875q2.484375 1.65625 3.421875 4.90625l-6.203125 1.15625q-0.40625 -1.453125 -1.515625 -2.21875q-1.109375 -0.78125 -3.171875 -0.78125q-2.609375 0 -3.734375 0.71875q-0.75 0.515625 -0.75 1.34375q0 0.703125 0.65625 1.1875q0.890625 0.65625 6.15625 1.859375q5.265625 1.1875 7.34375 2.921875q2.0625 1.765625 2.0625 4.90625q0 3.421875 -2.859375 5.890625q-2.859375 2.453125 -8.453125 2.453125q-5.09375 0 -8.0625 -2.0625q-2.953125 -2.0625 -3.875 -5.609375z" fill-rule="nonzero"/><path fill="#ff5500" fill-opacity="0.514" d="m390.71652 178.29921l0 0c0 -98.47193 79.8273 -178.29921 178.29922 -178.29921l0 0c47.287903 0 92.63898 18.785042 126.0766 52.22263c33.43756 33.437588 52.222595 78.7887 52.222595 126.076584l0 0c0 98.47194 -79.82727 178.29921 -178.2992 178.29921l0 0c-98.471924 0 -178.29922 -79.82727 -178.29922 -178.29921z" fill-rule="evenodd"/><path stroke="#000000" stroke-width="1.0" stroke-linejoin="round" stroke-linecap="butt" d="m390.71652 178.29921l0 0c0 -98.47193 79.8273 -178.29921 178.29922 -178.29921l0 0c47.287903 0 92.63898 18.785042 126.0766 52.22263c33.43756 33.437588 52.222595 78.7887 52.222595 126.076584l0 0c0 98.47194 -79.82727 178.29921 -178.2992 178.29921l0 0c-98.471924 0 -178.29922 -79.82727 -178.29922 -178.29921z" fill-rule="evenodd"/><path fill="#000000" d="m469.39465 155.19171l6.75 -0.65625q0.609375 3.40625 2.46875 5.0q1.875 1.59375 5.03125 1.59375q3.359375 0 5.046875 -1.421875q1.703125 -1.421875 1.703125 -3.3125q0 -1.21875 -0.71875 -2.078125q-0.703125 -0.859375 -2.484375 -1.484375q-1.21875 -0.421875 -5.5625 -1.5q-5.578125 -1.390625 -7.828125 -3.40625q-3.15625 -2.828125 -3.15625 -6.90625q0 -2.625 1.484375 -4.90625q1.484375 -2.296875 4.28125 -3.484375q2.8125 -1.203125 6.765625 -1.203125q6.46875 0 9.734375 2.84375q3.28125 2.828125 3.4375 7.5625l-6.9375 0.3125q-0.4375 -2.65625 -1.90625 -3.8125q-1.46875 -1.15625 -4.390625 -1.15625q-3.03125 0 -4.734375 1.234375q-1.109375 0.796875 -1.109375 2.140625q0 1.21875 1.03125 2.078125q1.3125 1.109375 6.375 2.3125q5.0625 1.1875 7.484375 2.46875q2.4375 1.265625 3.796875 3.484375q1.375 2.21875 1.375 5.46875q0 2.953125 -1.640625 5.53125q-1.640625 2.578125 -4.640625 3.84375q-3.0 1.25 -7.46875 1.25q-6.515625 0 -10.015625 -3.015625q-3.484375 -3.015625 -4.171875 -8.78125zm32.203125 -1.609375q0 -3.28125 1.609375 -6.34375q1.625 -3.078125 4.59375 -4.6875q2.96875 -1.625 6.625 -1.625q5.640625 0 9.25 3.671875q3.609375 3.65625 3.609375 9.265625q0 5.640625 -3.640625 9.359375q-3.640625 3.71875 -9.171875 3.71875q-3.421875 0 -6.53125 -1.546875q-3.109375 -1.546875 -4.734375 -4.53125q-1.609375 -3.0 -1.609375 -7.28125zm6.75 0.34375q0 3.703125 1.75 5.671875q1.765625 1.96875 4.34375 1.96875q2.578125 0 4.328125 -1.96875q1.75 -1.96875 1.75 -5.71875q0 -3.65625 -1.75 -5.625q-1.75 -1.96875 -4.328125 -1.96875q-2.578125 0 -4.34375 1.96875q-1.75 1.96875 -1.75 5.671875zm21.210938 -12.4375l3.65625 0l0 -1.875q0 -3.140625 0.671875 -4.6875q0.671875 -1.546875 2.453125 -2.515625q1.796875 -0.984375 4.546875 -0.984375q2.8125 0 5.5 0.84375l-0.890625 4.59375q-1.5625 -0.375 -3.015625 -0.375q-1.4375 0 -2.0625 0.671875q-0.609375 0.671875 -0.609375 2.5625l0 1.765625l4.921875 0l0 5.171875l-4.921875 0l0 19.71875l-6.59375 0l0 -19.71875l-3.65625 0l0 -5.171875zm30.28125 0l0 5.25l-4.5 0l0 10.03125q0 3.046875 0.125 3.546875q0.140625 0.5 0.59375 0.828125q0.453125 0.328125 1.109375 0.328125q0.921875 0 2.65625 -0.625l0.5625 5.109375q-2.296875 0.984375 -5.203125 0.984375q-1.78125 0 -3.21875 -0.59375q-1.421875 -0.609375 -2.09375 -1.546875q-0.671875 -0.953125 -0.921875 -2.578125q-0.21875 -1.140625 -0.21875 -4.640625l0 -10.84375l-3.015625 0l0 -5.25l3.015625 0l0 -4.953125l6.609375 -3.84375l0 8.796875l4.5 0zm9.21875 24.890625l-7.875 -24.890625l6.390625 0l4.671875 16.3125l4.28125 -16.3125l6.359375 0l4.140625 16.3125l4.765625 -16.3125l6.484375 0l-7.984375 24.890625l-6.328125 0l-4.296875 -16.015625l-4.21875 16.015625l-6.390625 0zm37.617188 -17.296875l-5.984375 -1.078125q1.015625 -3.609375 3.46875 -5.34375q2.46875 -1.734375 7.3125 -1.734375q4.40625 0 6.5625 1.046875q2.15625 1.03125 3.03125 2.640625q0.890625 1.609375 0.890625 5.890625l-0.078125 7.6875q0 3.28125 0.3125 4.84375q0.328125 1.5625 1.1875 3.34375l-6.515625 0q-0.25 -0.65625 -0.625 -1.953125q-0.171875 -0.578125 -0.234375 -0.765625q-1.6875 1.640625 -3.609375 2.46875q-1.921875 0.8125 -4.109375 0.8125q-3.84375 0 -6.0625 -2.078125q-2.203125 -2.09375 -2.203125 -5.28125q0 -2.109375 1.0 -3.765625q1.015625 -1.65625 2.828125 -2.53125q1.8125 -0.875 5.234375 -1.53125q4.625 -0.875 6.40625 -1.625l0 -0.65625q0 -1.890625 -0.9375 -2.703125q-0.9375 -0.8125 -3.546875 -0.8125q-1.75 0 -2.734375 0.703125q-0.984375 0.6875 -1.59375 2.421875zm8.8125 5.34375q-1.265625 0.421875 -4.015625 1.015625q-2.734375 0.578125 -3.578125 1.140625q-1.296875 0.90625 -1.296875 2.3125q0 1.390625 1.03125 2.40625q1.03125 1.0 2.625 1.0q1.78125 0 3.40625 -1.171875q1.1875 -0.890625 1.5625 -2.1875q0.265625 -0.84375 0.265625 -3.203125l0 -1.3125zm19.257812 11.953125l-6.578125 0l0 -24.890625l6.109375 0l0 3.53125q1.578125 -2.5 2.828125 -3.296875q1.25 -0.796875 2.84375 -0.796875q2.25 0 4.34375 1.234375l-2.046875 5.75q-1.65625 -1.078125 -3.09375 -1.078125q-1.375 0 -2.34375 0.765625q-0.953125 0.75 -1.515625 2.75q-0.546875 1.984375 -0.546875 8.34375l0 7.6875zm26.789062 -7.921875l6.5625 1.09375q-1.265625 3.609375 -4.0 5.5q-2.71875 1.890625 -6.828125 1.890625q-6.484375 0 -9.609375 -4.25q-2.453125 -3.390625 -2.453125 -8.578125q0 -6.1875 3.234375 -9.6875q3.234375 -3.5 8.171875 -3.5q5.5625 0 8.765625 3.671875q3.21875 3.65625 3.078125 11.234375l-16.5 0q0.0625 2.921875 1.578125 4.5625q1.53125 1.625 3.8125 1.625q1.546875 0 2.59375 -0.84375q1.0625 -0.84375 1.59375 -2.71875zm0.375 -6.65625q-0.0625 -2.859375 -1.46875 -4.34375q-1.40625 -1.5 -3.421875 -1.5q-2.15625 0 -3.5625 1.578125q-1.40625 1.5625 -1.390625 4.265625l9.84375 0z" fill-rule="nonzero"/><path fill="#000000" d="m456.47668 224.37921l0 -34.359375l25.46875 0l0 5.8125l-18.53125 0l0 7.609375l17.25 0l0 5.796875l-17.25 0l0 9.34375l19.1875 0l0 5.796875l-26.125 0zm54.609375 0l-6.59375 0l0 -12.703125q0 -4.03125 -0.421875 -5.21875q-0.421875 -1.1875 -1.375 -1.84375q-0.9375 -0.65625 -2.28125 -0.65625q-1.703125 0 -3.0625 0.9375q-1.359375 0.9375 -1.875 2.484375q-0.5 1.546875 -0.5 5.71875l0 11.28125l-6.578125 0l0 -24.890625l6.109375 0l0 3.65625q3.265625 -4.21875 8.203125 -4.21875q2.1875 0 3.984375 0.78125q1.8125 0.78125 2.734375 2.0q0.921875 1.21875 1.28125 2.765625q0.375 1.546875 0.375 4.4375l0 15.46875zm6.0703125 1.640625l7.515625 0.921875q0.1875 1.3125 0.875 1.796875q0.9375 0.703125 2.953125 0.703125q2.578125 0 3.859375 -0.765625q0.875 -0.515625 1.3125 -1.671875q0.3125 -0.8125 0.3125 -3.03125l0 -3.625q-2.953125 4.03125 -7.453125 4.03125q-5.015625 0 -7.953125 -4.25q-2.296875 -3.34375 -2.296875 -8.34375q0 -6.25 3.015625 -9.546875q3.015625 -3.3125 7.484375 -3.3125q4.625 0 7.625 4.046875l0 -3.484375l6.15625 0l0 22.328125q0 4.421875 -0.734375 6.59375q-0.71875 2.1875 -2.03125 3.421875q-1.3125 1.25 -3.5 1.953125q-2.1875 0.703125 -5.546875 0.703125q-6.328125 0 -8.984375 -2.171875q-2.640625 -2.171875 -2.640625 -5.5q0 -0.328125 0.03125 -0.796875zm5.875 -14.609375q0 3.96875 1.53125 5.8125q1.546875 1.828125 3.796875 1.828125q2.40625 0 4.0625 -1.875q1.671875 -1.890625 1.671875 -5.59375q0 -3.875 -1.59375 -5.75q-1.59375 -1.875 -4.03125 -1.875q-2.359375 0 -3.90625 1.84375q-1.53125 1.84375 -1.53125 5.609375zm24.054688 -15.296875l0 -6.09375l6.578125 0l0 6.09375l-6.578125 0zm0 28.265625l0 -24.890625l6.578125 0l0 24.890625l-6.578125 0zm35.976562 0l-6.59375 0l0 -12.703125q0 -4.03125 -0.421875 -5.21875q-0.421875 -1.1875 -1.375 -1.84375q-0.9375 -0.65625 -2.28125 -0.65625q-1.703125 0 -3.0625 0.9375q-1.359375 0.9375 -1.875 2.484375q-0.5 1.546875 -0.5 5.71875l0 11.28125l-6.578125 0l0 -24.890625l6.109375 0l0 3.65625q3.265625 -4.21875 8.203125 -4.21875q2.1875 0 3.984375 0.78125q1.8125 0.78125 2.734375 2.0q0.921875 1.21875 1.28125 2.765625q0.375 1.546875 0.375 4.4375l0 15.46875zm21.085938 -7.921875l6.5625 1.09375q-1.265625 3.609375 -4.0 5.5q-2.71875 1.890625 -6.828125 1.890625q-6.484375 0 -9.609375 -4.25q-2.453125 -3.390625 -2.453125 -8.578125q0 -6.1875 3.234375 -9.6875q3.234375 -3.5 8.171875 -3.5q5.5625 0 8.765625 3.671875q3.21875 3.65625 3.078125 11.234375l-16.5 0q0.0625 2.921875 1.578125 4.5625q1.53125 1.625 3.8125 1.625q1.546875 0 2.59375 -0.84375q1.0625 -0.84375 1.59375 -2.71875zm0.375 -6.65625q-0.0625 -2.859375 -1.46875 -4.34375q-1.40625 -1.5 -3.421875 -1.5q-2.15625 0 -3.5625 1.578125q-1.40625 1.5625 -1.390625 4.265625l9.84375 0zm26.320312 6.65625l6.5625 1.09375q-1.265625 3.609375 -4.0 5.5q-2.71875 1.890625 -6.828125 1.890625q-6.484375 0 -9.609375 -4.25q-2.453125 -3.390625 -2.453125 -8.578125q0 -6.1875 3.234375 -9.6875q3.234375 -3.5 8.171875 -3.5q5.5625 0 8.765625 3.671875q3.21875 3.65625 3.078125 11.234375l-16.5 0q0.0625 2.921875 1.578125 4.5625q1.53125 1.625 3.8125 1.625q1.546875 0 2.59375 -0.84375q1.0625 -0.84375 1.59375 -2.71875zm0.375 -6.65625q-0.0625 -2.859375 -1.46875 -4.34375q-1.40625 -1.5 -3.421875 -1.5q-2.15625 0 -3.5625 1.578125q-1.40625 1.5625 -1.390625 4.265625l9.84375 0zm18.210938 14.578125l-6.578125 0l0 -24.890625l6.109375 0l0 3.53125q1.578125 -2.5 2.828125 -3.296875q1.25 -0.796875 2.84375 -0.796875q2.25 0 4.34375 1.234375l-2.046875 5.75q-1.65625 -1.078125 -3.09375 -1.078125q-1.375 0 -2.34375 0.765625q-0.953125 0.75 -1.515625 2.75q-0.546875 1.984375 -0.546875 8.34375l0 7.6875zm10.0546875 -7.109375l6.609375 -1.0q0.421875 1.921875 1.703125 2.921875q1.296875 0.984375 3.625 0.984375q2.546875 0 3.84375 -0.9375q0.859375 -0.65625 0.859375 -1.75q0 -0.75 -0.46875 -1.25q-0.484375 -0.46875 -2.203125 -0.859375q-7.96875 -1.765625 -10.09375 -3.21875q-2.953125 -2.015625 -2.953125 -5.59375q0 -3.234375 2.546875 -5.4375q2.5625 -2.203125 7.921875 -2.203125q5.109375 0 7.59375 1.671875q2.484375 1.65625 3.421875 4.90625l-6.203125 1.15625q-0.40625 -1.453125 -1.515625 -2.21875q-1.109375 -0.78125 -3.171875 -0.78125q-2.609375 0 -3.734375 0.71875q-0.75 0.515625 -0.75 1.34375q0 0.703125 0.65625 1.1875q0.890625 0.65625 6.15625 1.859375q5.265625 1.1875 7.34375 2.921875q2.0625 1.765625 2.0625 4.90625q0 3.421875 -2.859375 5.890625q-2.859375 2.453125 -8.453125 2.453125q-5.09375 0 -8.0625 -2.0625q-2.953125 -2.0625 -3.875 -5.609375z" fill-rule="nonzero"/></g></svg>