<svg version="1.1" viewBox="0.0 0.0 863.2519685039371 328.8582677165354" fill="none" stroke="none" stroke-linecap="square" stroke-miterlimit="10" xmlns:xlink="http://www.w3.org/1999/xlink" xmlns="http://www.w3.org/2000/svg"><clipPath id="p.0"><path d="m0 0l863.25195 0l0 328.85828l-863.25195 0l0 -328.85828z" clip-rule="nonzero"/></clipPath><g clip-path="url(#p.0)"><path fill="#000000" fill-opacity="0.0" d="m0 0l863.25195 0l0 328.85828l-863.25195 0z" fill-rule="evenodd"/><path fill="#ffffff" d="m8.338583 7.1076117l556.2835 0l0 309.98425l-556.2835 0z" fill-rule="evenodd"/><path stroke="#000000" stroke-width="8.0" stroke-linejoin="round" stroke-linecap="butt" d="m8.338583 7.1076117l556.2835 0l0 309.98425l-556.2835 0z" fill-rule="evenodd"/><path fill="#000000" fill-opacity="0.0" d="m675.27686 112.6828l224.47241 0l0 117.5748l-224.47241 0z" fill-rule="evenodd"/><path fill="#000000" d="m696.98 133.95082l0 2.578125l-7.703125 0l0 4.8125l6.0625 0l0 2.484375l-6.0625 0l0 4.90625l7.703125 0l0 2.578125l-10.953125 0l0 -17.359375l10.953125 0zm2.6150513 17.359375l0 -12.3125l1.8125 0q0.578125 0 0.765625 0.546875l0.203125 0.96875q0.375 -0.390625 0.78125 -0.703125q0.421875 -0.3125 0.875 -0.53125q0.46875 -0.234375 0.984375 -0.34375q0.53125 -0.125 1.15625 -0.125q1.015625 0 1.796875 0.34375q0.78125 0.34375 1.296875 0.96875q0.515625 0.609375 0.78125 1.46875q0.28125 0.84375 0.28125 1.875l0 7.84375l-2.96875 0l0 -7.84375q0 -1.125 -0.53125 -1.734375q-0.515625 -0.625 -1.546875 -0.625q-0.78125 0 -1.453125 0.359375q-0.671875 0.34375 -1.265625 0.9375l0 8.90625l-2.96875 0zm19.383972 0l-2.6875 0l-4.890625 -12.3125l2.453125 0q0.328125 0 0.546875 0.15625q0.21875 0.15625 0.3125 0.390625l2.375 6.578125q0.203125 0.578125 0.34375 1.140625q0.140625 0.546875 0.234375 1.09375q0.109375 -0.546875 0.25 -1.09375q0.140625 -0.5625 0.359375 -1.140625l2.4375 -6.578125q0.078125 -0.234375 0.296875 -0.390625q0.21875 -0.15625 0.515625 -0.15625l2.34375 0l-4.890625 12.3125zm9.788452 -12.3125l0 12.3125l-2.953125 0l0 -12.3125l2.953125 0zm0.453125 -3.59375q0 0.390625 -0.15625 0.734375q-0.15625 0.328125 -0.421875 0.578125q-0.25 0.25 -0.609375 0.40625q-0.34375 0.140625 -0.734375 0.140625q-0.390625 0 -0.734375 -0.140625q-0.328125 -0.15625 -0.59375 -0.40625q-0.25 -0.25 -0.40625 -0.578125q-0.140625 -0.34375 -0.140625 -0.734375q0 -0.390625 0.140625 -0.734375q0.15625 -0.34375 0.40625 -0.59375q0.265625 -0.265625 0.59375 -0.40625q0.34375 -0.15625 0.734375 -0.15625q0.390625 0 0.734375 0.15625q0.359375 0.140625 0.609375 0.40625q0.265625 0.25 0.421875 0.59375q0.15625 0.34375 0.15625 0.734375zm2.8947144 15.90625l0 -12.3125l1.75 0q0.453125 0 0.625 0.171875q0.1875 0.171875 0.25 0.578125l0.171875 1.484375q0.671875 -1.140625 1.546875 -1.796875q0.890625 -0.671875 2.0 -0.671875q0.90625 0 1.515625 0.421875l-0.390625 2.21875q-0.03125 0.21875 -0.15625 0.3125q-0.125 0.09375 -0.328125 0.09375q-0.171875 0 -0.484375 -0.078125q-0.3125 -0.09375 -0.828125 -0.09375q-0.921875 0 -1.59375 0.515625q-0.65625 0.5 -1.109375 1.484375l0 7.671875l-2.96875 0zm15.069641 -12.5q1.375 0 2.5 0.453125q1.125 0.4375 1.90625 1.25q0.796875 0.8125 1.21875 2.0q0.4375 1.171875 0.4375 2.609375q0 1.46875 -0.4375 2.65625q-0.421875 1.171875 -1.21875 2.0q-0.78125 0.828125 -1.90625 1.28125q-1.125 0.4375 -2.5 0.4375q-1.390625 0 -2.515625 -0.4375q-1.125 -0.453125 -1.921875 -1.28125q-0.796875 -0.828125 -1.234375 -2.0q-0.4375 -1.1875 -0.4375 -2.65625q0 -1.4375 0.4375 -2.609375q0.4375 -1.1875 1.234375 -2.0q0.796875 -0.8125 1.921875 -1.25q1.125 -0.453125 2.515625 -0.453125zm0 10.40625q1.53125 0 2.265625 -1.03125q0.75 -1.03125 0.75 -3.03125q0 -1.984375 -0.75 -3.03125q-0.734375 -1.046875 -2.265625 -1.046875q-1.5625 0 -2.3125 1.046875q-0.734375 1.046875 -0.734375 3.03125q0 1.984375 0.734375 3.03125q0.75 1.03125 2.3125 1.03125zm8.378479 2.09375l0 -12.3125l1.8125 0q0.578125 0 0.765625 0.546875l0.203125 0.96875q0.375 -0.390625 0.78125 -0.703125q0.421875 -0.3125 0.875 -0.53125q0.46875 -0.234375 0.984375 -0.34375q0.53125 -0.125 1.15625 -0.125q1.015625 0 1.796875 0.34375q0.78125 0.34375 1.296875 0.96875q0.515625 0.609375 0.78125 1.46875q0.28125 0.84375 0.28125 1.875l0 7.84375l-2.96875 0l0 -7.84375q0 -1.125 -0.53125 -1.734375q-0.515625 -0.625 -1.546875 -0.625q-0.78125 0 -1.453125 0.359375q-0.671875 0.34375 -1.265625 0.9375l0 8.90625l-2.96875 0zm13.644104 0l0 -12.3125l1.8125 0q0.578125 0 0.765625 0.546875l0.1875 0.90625q0.328125 -0.359375 0.671875 -0.65625q0.359375 -0.296875 0.765625 -0.515625q0.40625 -0.21875 0.859375 -0.34375q0.46875 -0.125 1.015625 -0.125q1.15625 0 1.90625 0.625q0.75 0.625 1.125 1.671875q0.296875 -0.609375 0.71875 -1.046875q0.4375 -0.4375 0.953125 -0.703125q0.515625 -0.28125 1.09375 -0.40625q0.59375 -0.140625 1.171875 -0.140625q1.015625 0 1.8125 0.3125q0.796875 0.3125 1.328125 0.90625q0.546875 0.59375 0.828125 1.46875q0.28125 0.859375 0.28125 1.96875l0 7.84375l-2.96875 0l0 -7.84375q0 -1.171875 -0.515625 -1.765625q-0.515625 -0.59375 -1.5 -0.59375q-0.46875 0 -0.859375 0.15625q-0.390625 0.15625 -0.6875 0.453125q-0.28125 0.296875 -0.453125 0.75q-0.171875 0.4375 -0.171875 1.0l0 7.84375l-2.96875 0l0 -7.84375q0 -1.234375 -0.5 -1.796875q-0.5 -0.5625 -1.46875 -0.5625q-0.640625 0 -1.203125 0.328125q-0.546875 0.3125 -1.03125 0.859375l0 9.015625l-2.96875 0zm25.30188 -12.5q1.171875 0 2.140625 0.375q0.984375 0.359375 1.6875 1.078125q0.703125 0.71875 1.09375 1.765625q0.40625 1.03125 0.40625 2.359375q0 0.328125 -0.03125 0.5625q-0.03125 0.21875 -0.109375 0.34375q-0.078125 0.125 -0.21875 0.1875q-0.125 0.046875 -0.328125 0.046875l-7.609375 0q0.140625 1.890625 1.015625 2.78125q0.890625 0.890625 2.359375 0.890625q0.71875 0 1.234375 -0.171875q0.53125 -0.171875 0.921875 -0.375q0.390625 -0.203125 0.6875 -0.359375q0.296875 -0.171875 0.5625 -0.171875q0.1875 0 0.3125 0.078125q0.140625 0.0625 0.234375 0.1875l0.859375 1.078125q-0.484375 0.578125 -1.109375 0.96875q-0.609375 0.390625 -1.28125 0.625q-0.65625 0.234375 -1.34375 0.328125q-0.6875 0.109375 -1.34375 0.109375q-1.28125 0 -2.390625 -0.421875q-1.09375 -0.4375 -1.921875 -1.265625q-0.8125 -0.84375 -1.28125 -2.0625q-0.46875 -1.234375 -0.46875 -2.859375q0 -1.265625 0.40625 -2.375q0.421875 -1.109375 1.171875 -1.921875q0.765625 -0.828125 1.859375 -1.296875q1.109375 -0.484375 2.484375 -0.484375zm0.0625 2.125q-1.296875 0 -2.03125 0.734375q-0.734375 0.71875 -0.9375 2.0625l5.578125 0q0 -0.5625 -0.15625 -1.078125q-0.15625 -0.515625 -0.484375 -0.890625q-0.328125 -0.390625 -0.828125 -0.609375q-0.484375 -0.21875 -1.140625 -0.21875zm7.671875 10.375l0 -12.3125l1.8125 0q0.578125 0 0.765625 0.546875l0.203125 0.96875q0.375 -0.390625 0.78125 -0.703125q0.421875 -0.3125 0.875 -0.53125q0.46875 -0.234375 0.984375 -0.34375q0.53125 -0.125 1.15625 -0.125q1.015625 0 1.796875 0.34375q0.78125 0.34375 1.296875 0.96875q0.515625 0.609375 0.78125 1.46875q0.28125 0.84375 0.28125 1.875l0 7.84375l-2.96875 0l0 -7.84375q0 -1.125 -0.53125 -1.734375q-0.515625 -0.625 -1.546875 -0.625q-0.78125 0 -1.453125 0.359375q-0.671875 0.34375 -1.265625 0.9375l0 8.90625l-2.96875 0zm17.690918 0.1875q-1.59375 0 -2.46875 -0.90625q-0.859375 -0.90625 -0.859375 -2.5l0 -6.875l-1.234375 0q-0.25 0 -0.421875 -0.15625q-0.171875 -0.15625 -0.171875 -0.46875l0 -1.171875l1.984375 -0.328125l0.625 -3.359375q0.046875 -0.234375 0.21875 -0.359375q0.171875 -0.140625 0.4375 -0.140625l1.53125 0l0 3.875l3.25 0l0 2.109375l-3.25 0l0 6.671875q0 0.578125 0.28125 0.90625q0.296875 0.3125 0.78125 0.3125q0.265625 0 0.453125 -0.0625q0.1875 -0.0625 0.328125 -0.125q0.140625 -0.078125 0.25 -0.140625q0.109375 -0.078125 0.21875 -0.078125q0.125 0 0.203125 0.078125q0.09375 0.0625 0.1875 0.1875l0.890625 1.4375q-0.65625 0.546875 -1.5 0.828125q-0.828125 0.265625 -1.734375 0.265625z" fill-rule="nonzero"/><path fill="#000000" d="m688.1206 172.57895q0 2.484375 0.59375 4.875q0.609375 2.375 1.71875 4.484375q0.078125 0.15625 0.109375 0.28125q0.03125 0.140625 0.03125 0.25q0 0.234375 -0.125 0.375q-0.109375 0.15625 -0.28125 0.25l-1.3125 0.8125q-0.890625 -1.375 -1.515625 -2.765625q-0.625 -1.375 -1.03125 -2.765625q-0.390625 -1.40625 -0.578125 -2.84375q-0.1875 -1.453125 -0.1875 -2.953125q0 -1.5 0.1875 -2.9375q0.1875 -1.453125 0.578125 -2.84375q0.40625 -1.40625 1.03125 -2.78125q0.625 -1.375 1.515625 -2.75l1.3125 0.796875q0.171875 0.09375 0.28125 0.25q0.125 0.140625 0.125 0.375q0 0.21875 -0.15625 0.53125q-1.09375 2.109375 -1.703125 4.5q-0.59375 2.390625 -0.59375 4.859375zm8.090637 -4.78125l0 12.3125l-2.953125 0l0 -12.3125l2.953125 0zm0.453125 -3.59375q0 0.390625 -0.15625 0.734375q-0.15625 0.328125 -0.421875 0.578125q-0.25 0.25 -0.609375 0.40625q-0.34375 0.140625 -0.734375 0.140625q-0.390625 0 -0.734375 -0.140625q-0.328125 -0.15625 -0.59375 -0.40625q-0.25 -0.25 -0.40625 -0.578125q-0.140625 -0.34375 -0.140625 -0.734375q0 -0.390625 0.140625 -0.734375q0.15625 -0.34375 0.40625 -0.59375q0.265625 -0.265625 0.59375 -0.40625q0.34375 -0.15625 0.734375 -0.15625q0.390625 0 0.734375 0.15625q0.359375 0.140625 0.609375 0.40625q0.265625 0.25 0.421875 0.59375q0.15625 0.34375 0.15625 0.734375zm2.8947144 15.90625l0 -12.3125l1.8125 0q0.578125 0 0.765625 0.546875l0.203125 0.96875q0.375 -0.390625 0.78125 -0.703125q0.421875 -0.3125 0.875 -0.53125q0.46875 -0.234375 0.984375 -0.34375q0.53125 -0.125 1.15625 -0.125q1.015625 0 1.796875 0.34375q0.78125 0.34375 1.296875 0.96875q0.515625 0.609375 0.78125 1.46875q0.28125 0.84375 0.28125 1.875l0 7.84375l-2.96875 0l0 -7.84375q0 -1.125 -0.53125 -1.734375q-0.515625 -0.625 -1.546875 -0.625q-0.78125 0 -1.453125 0.359375q-0.671875 0.34375 -1.265625 0.9375l0 8.90625l-2.96875 0zm22.300293 -9.703125q-0.125 0.15625 -0.25 0.265625q-0.125 0.09375 -0.375 0.09375q-0.21875 0 -0.4375 -0.140625q-0.21875 -0.140625 -0.515625 -0.3125q-0.296875 -0.171875 -0.71875 -0.3125q-0.40625 -0.140625 -1.03125 -0.140625q-0.78125 0 -1.375 0.28125q-0.578125 0.28125 -0.96875 0.8125q-0.390625 0.53125 -0.578125 1.28125q-0.1875 0.75 -0.1875 1.6875q0 0.984375 0.203125 1.765625q0.21875 0.765625 0.609375 1.296875q0.390625 0.515625 0.953125 0.78125q0.5625 0.265625 1.28125 0.265625q0.703125 0 1.140625 -0.171875q0.4375 -0.171875 0.734375 -0.375q0.3125 -0.21875 0.53125 -0.390625q0.21875 -0.171875 0.5 -0.171875q0.359375 0 0.53125 0.265625l0.859375 1.078125q-0.5 0.578125 -1.078125 0.96875q-0.578125 0.390625 -1.203125 0.625q-0.609375 0.234375 -1.265625 0.328125q-0.65625 0.109375 -1.3125 0.109375q-1.140625 0 -2.15625 -0.421875q-1.0 -0.4375 -1.75 -1.25q-0.75 -0.8125 -1.1875 -2.0q-0.4375 -1.1875 -0.4375 -2.703125q0 -1.34375 0.390625 -2.5q0.390625 -1.171875 1.140625 -2.015625q0.765625 -0.84375 1.875 -1.3125q1.125 -0.484375 2.578125 -0.484375q1.375 0 2.40625 0.453125q1.046875 0.4375 1.875 1.265625l-0.78125 1.078125zm5.94812 -8.125l0 17.828125l-2.953125 0l0 -17.828125l2.953125 0zm2.6446533 16.203125q0 -0.375 0.140625 -0.703125q0.140625 -0.34375 0.375 -0.578125q0.25 -0.25 0.578125 -0.390625q0.34375 -0.140625 0.734375 -0.140625q0.375 0 0.703125 0.140625q0.34375 0.140625 0.578125 0.390625q0.234375 0.234375 0.375 0.578125q0.15625 0.328125 0.15625 0.703125q0 0.375 -0.15625 0.703125q-0.140625 0.328125 -0.375 0.578125q-0.234375 0.234375 -0.578125 0.375q-0.328125 0.140625 -0.703125 0.140625q-0.390625 0 -0.734375 -0.140625q-0.328125 -0.140625 -0.578125 -0.375q-0.234375 -0.25 -0.375 -0.578125q-0.140625 -0.328125 -0.140625 -0.703125zm13.453918 -10.6875l0 7.828125q0 1.125 0.515625 1.75q0.53125 0.609375 1.578125 0.609375q0.765625 0 1.4375 -0.34375q0.671875 -0.34375 1.265625 -0.9375l0 -8.90625l2.96875 0l0 12.3125l-1.8125 0q-0.578125 0 -0.765625 -0.546875l-0.203125 -0.984375q-0.375 0.390625 -0.78125 0.71875q-0.40625 0.3125 -0.875 0.53125q-0.46875 0.21875 -1.0 0.34375q-0.53125 0.125 -1.140625 0.125q-1.015625 0 -1.796875 -0.328125q-0.765625 -0.34375 -1.296875 -0.96875q-0.515625 -0.625 -0.796875 -1.484375q-0.265625 -0.859375 -0.265625 -1.890625l0 -7.828125l2.96875 0zm18.237854 2.40625q-0.125 0.1875 -0.25 0.265625q-0.125 0.078125 -0.34375 0.078125q-0.203125 0 -0.453125 -0.109375q-0.25 -0.125 -0.578125 -0.28125q-0.3125 -0.15625 -0.734375 -0.265625q-0.40625 -0.125 -0.96875 -0.125q-0.875 0 -1.390625 0.375q-0.5 0.375 -0.5 0.96875q0 0.390625 0.25 0.671875q0.265625 0.265625 0.6875 0.46875q0.4375 0.203125 0.96875 0.375q0.546875 0.15625 1.109375 0.34375q0.5625 0.1875 1.09375 0.4375q0.546875 0.25 0.96875 0.625q0.4375 0.375 0.6875 0.90625q0.265625 0.53125 0.265625 1.265625q0 0.890625 -0.328125 1.640625q-0.328125 0.75 -0.953125 1.296875q-0.625 0.546875 -1.546875 0.859375q-0.90625 0.296875 -2.09375 0.296875q-0.640625 0 -1.25 -0.109375q-0.609375 -0.109375 -1.171875 -0.3125q-0.546875 -0.203125 -1.03125 -0.484375q-0.46875 -0.28125 -0.828125 -0.59375l0.6875 -1.140625q0.125 -0.203125 0.3125 -0.3125q0.1875 -0.109375 0.453125 -0.109375q0.28125 0 0.515625 0.15625q0.25 0.15625 0.578125 0.34375q0.328125 0.171875 0.765625 0.328125q0.4375 0.15625 1.109375 0.15625q0.53125 0 0.90625 -0.125q0.375 -0.125 0.625 -0.328125q0.25 -0.203125 0.359375 -0.46875q0.109375 -0.265625 0.109375 -0.5625q0 -0.421875 -0.265625 -0.703125q-0.25 -0.28125 -0.671875 -0.484375q-0.421875 -0.203125 -0.96875 -0.359375q-0.546875 -0.171875 -1.125 -0.359375q-0.5625 -0.1875 -1.109375 -0.4375q-0.546875 -0.265625 -0.984375 -0.65625q-0.421875 -0.40625 -0.6875 -0.984375q-0.25 -0.578125 -0.25 -1.390625q0 -0.75 0.296875 -1.4375q0.3125 -0.6875 0.890625 -1.1875q0.578125 -0.515625 1.453125 -0.8125q0.875 -0.3125 2.015625 -0.3125q1.265625 0 2.3125 0.421875q1.046875 0.40625 1.734375 1.09375l-0.671875 1.078125zm8.269348 -2.59375q1.171875 0 2.140625 0.375q0.984375 0.359375 1.6875 1.078125q0.703125 0.71875 1.09375 1.765625q0.40625 1.03125 0.40625 2.359375q0 0.328125 -0.03125 0.5625q-0.03125 0.21875 -0.109375 0.34375q-0.078125 0.125 -0.21875 0.1875q-0.125 0.046875 -0.328125 0.046875l-7.609375 0q0.140625 1.890625 1.015625 2.78125q0.890625 0.890625 2.359375 0.890625q0.71875 0 1.234375 -0.171875q0.53125 -0.171875 0.921875 -0.375q0.390625 -0.203125 0.6875 -0.359375q0.296875 -0.171875 0.5625 -0.171875q0.1875 0 0.3125 0.078125q0.140625 0.0625 0.234375 0.1875l0.859375 1.078125q-0.484375 0.578125 -1.109375 0.96875q-0.609375 0.390625 -1.28125 0.625q-0.65625 0.234375 -1.34375 0.328125q-0.6875 0.109375 -1.34375 0.109375q-1.28125 0 -2.390625 -0.421875q-1.09375 -0.4375 -1.921875 -1.265625q-0.8125 -0.84375 -1.28125 -2.0625q-0.46875 -1.234375 -0.46875 -2.859375q0 -1.265625 0.40625 -2.375q0.421875 -1.109375 1.171875 -1.921875q0.765625 -0.828125 1.859375 -1.296875q1.109375 -0.484375 2.484375 -0.484375zm0.0625 2.125q-1.296875 0 -2.03125 0.734375q-0.734375 0.71875 -0.9375 2.0625l5.578125 0q0 -0.5625 -0.15625 -1.078125q-0.15625 -0.515625 -0.484375 -0.890625q-0.328125 -0.390625 -0.828125 -0.609375q-0.484375 -0.21875 -1.140625 -0.21875zm7.671814 10.375l0 -12.3125l1.75 0q0.453125 0 0.625 0.171875q0.1875 0.171875 0.25 0.578125l0.171875 1.484375q0.671875 -1.140625 1.546875 -1.796875q0.890625 -0.671875 2.0 -0.671875q0.90625 0 1.515625 0.421875l-0.390625 2.21875q-0.03125 0.21875 -0.15625 0.3125q-0.125 0.09375 -0.328125 0.09375q-0.171875 0 -0.484375 -0.078125q-0.3125 -0.09375 -0.828125 -0.09375q-0.921875 0 -1.59375 0.515625q-0.65625 0.5 -1.109375 1.484375l0 7.671875l-2.96875 0zm17.116577 -9.90625q-0.125 0.1875 -0.25 0.265625q-0.125 0.078125 -0.34375 0.078125q-0.203125 0 -0.453125 -0.109375q-0.25 -0.125 -0.578125 -0.28125q-0.3125 -0.15625 -0.734375 -0.265625q-0.40625 -0.125 -0.96875 -0.125q-0.875 0 -1.390625 0.375q-0.5 0.375 -0.5 0.96875q0 0.390625 0.25 0.671875q0.265625 0.265625 0.6875 0.46875q0.4375 0.203125 0.96875 0.375q0.546875 0.15625 1.109375 0.34375q0.5625 0.1875 1.09375 0.4375q0.546875 0.25 0.96875 0.625q0.4375 0.375 0.6875 0.90625q0.265625 0.53125 0.265625 1.265625q0 0.890625 -0.328125 1.640625q-0.328125 0.75 -0.953125 1.296875q-0.625 0.546875 -1.546875 0.859375q-0.90625 0.296875 -2.09375 0.296875q-0.640625 0 -1.25 -0.109375q-0.609375 -0.109375 -1.171875 -0.3125q-0.546875 -0.203125 -1.03125 -0.484375q-0.46875 -0.28125 -0.828125 -0.59375l0.6875 -1.140625q0.125 -0.203125 0.3125 -0.3125q0.1875 -0.109375 0.453125 -0.109375q0.28125 0 0.515625 0.15625q0.25 0.15625 0.578125 0.34375q0.328125 0.171875 0.765625 0.328125q0.4375 0.15625 1.109375 0.15625q0.53125 0 0.90625 -0.125q0.375 -0.125 0.625 -0.328125q0.25 -0.203125 0.359375 -0.46875q0.109375 -0.265625 0.109375 -0.5625q0 -0.421875 -0.265625 -0.703125q-0.25 -0.28125 -0.671875 -0.484375q-0.421875 -0.203125 -0.96875 -0.359375q-0.546875 -0.171875 -1.125 -0.359375q-0.5625 -0.1875 -1.109375 -0.4375q-0.546875 -0.265625 -0.984375 -0.65625q-0.421875 -0.40625 -0.6875 -0.984375q-0.25 -0.578125 -0.25 -1.390625q0 -0.75 0.296875 -1.4375q0.3125 -0.6875 0.890625 -1.1875q0.578125 -0.515625 1.453125 -0.8125q0.875 -0.3125 2.015625 -0.3125q1.265625 0 2.3125 0.421875q1.046875 0.40625 1.734375 1.09375l-0.671875 1.078125zm2.550537 8.078125q0 -0.328125 0.125 -0.625q0.140625 -0.296875 0.359375 -0.515625q0.234375 -0.21875 0.546875 -0.34375q0.328125 -0.125 0.71875 -0.125q0.453125 0 0.78125 0.15625q0.34375 0.15625 0.5625 0.4375q0.234375 0.28125 0.34375 0.65625q0.109375 0.359375 0.109375 0.765625q0 0.578125 -0.171875 1.21875q-0.171875 0.640625 -0.515625 1.265625q-0.328125 0.640625 -0.828125 1.234375q-0.484375 0.609375 -1.125 1.109375l-0.515625 -0.46875q-0.21875 -0.171875 -0.21875 -0.4375q0 -0.09375 0.0625 -0.21875q0.078125 -0.125 0.171875 -0.21875q0.125 -0.140625 0.3125 -0.359375q0.203125 -0.203125 0.390625 -0.484375q0.1875 -0.265625 0.34375 -0.578125q0.171875 -0.3125 0.25 -0.671875q-0.375 0 -0.6875 -0.140625q-0.3125 -0.140625 -0.53125 -0.375q-0.21875 -0.25 -0.359375 -0.5625q-0.125 -0.328125 -0.125 -0.71875z" fill-rule="nonzero"/><path fill="#000000" d="m685.855 212.92583l0 -16.328125l1.8125 0q0.296875 0 0.5 0.140625q0.203125 0.125 0.265625 0.40625l0.234375 1.140625q0.75 -0.859375 1.703125 -1.390625q0.96875 -0.53125 2.265625 -0.53125q1.015625 0 1.84375 0.421875q0.84375 0.421875 1.4375 1.21875q0.609375 0.796875 0.9375 1.96875q0.328125 1.171875 0.328125 2.6875q0 1.375 -0.375 2.5625q-0.359375 1.171875 -1.0625 2.03125q-0.6875 0.859375 -1.671875 1.359375q-0.96875 0.484375 -2.171875 0.484375q-1.046875 0 -1.78125 -0.3125q-0.71875 -0.328125 -1.296875 -0.890625l0 5.03125l-2.96875 0zm5.765625 -14.21875q-0.921875 0 -1.578125 0.390625q-0.65625 0.390625 -1.21875 1.09375l0 5.53125q0.5 0.625 1.09375 0.875q0.59375 0.234375 1.28125 0.234375q0.671875 0 1.21875 -0.25q0.546875 -0.25 0.921875 -0.765625q0.375 -0.515625 0.578125 -1.296875q0.21875 -0.796875 0.21875 -1.859375q0 -1.078125 -0.1875 -1.828125q-0.171875 -0.75 -0.5 -1.21875q-0.3125 -0.46875 -0.78125 -0.6875q-0.453125 -0.21875 -1.046875 -0.21875zm7.8064575 10.203125l0 -17.828125l2.96875 0l0 6.84375q0.71875 -0.6875 1.578125 -1.09375q0.875 -0.421875 2.03125 -0.421875q1.015625 0 1.796875 0.34375q0.78125 0.34375 1.296875 0.96875q0.515625 0.609375 0.78125 1.46875q0.28125 0.84375 0.28125 1.875l0 7.84375l-2.96875 0l0 -7.84375q0 -1.125 -0.53125 -1.734375q-0.515625 -0.625 -1.546875 -0.625q-0.78125 0 -1.453125 0.359375q-0.671875 0.34375 -1.265625 0.9375l0 8.90625l-2.96875 0zm17.587097 3.390625q-0.140625 0.3125 -0.34375 0.46875q-0.203125 0.15625 -0.640625 0.15625l-2.203125 0l2.296875 -4.921875l-4.984375 -11.40625l2.59375 0q0.359375 0 0.546875 0.171875q0.203125 0.171875 0.296875 0.375l2.625 6.390625q0.140625 0.3125 0.234375 0.65625q0.09375 0.328125 0.171875 0.65625q0.09375 -0.34375 0.203125 -0.65625q0.109375 -0.328125 0.25 -0.671875l2.46875 -6.375q0.09375 -0.234375 0.3125 -0.390625q0.234375 -0.15625 0.5 -0.15625l2.375 0l-6.703125 15.703125zm15.741577 -13.296875q-0.125 0.1875 -0.25 0.265625q-0.125 0.078125 -0.34375 0.078125q-0.203125 0 -0.453125 -0.109375q-0.25 -0.125 -0.578125 -0.28125q-0.3125 -0.15625 -0.734375 -0.265625q-0.40625 -0.125 -0.96875 -0.125q-0.875 0 -1.390625 0.375q-0.5 0.375 -0.5 0.96875q0 0.390625 0.25 0.671875q0.265625 0.265625 0.6875 0.46875q0.4375 0.203125 0.96875 0.375q0.546875 0.15625 1.109375 0.34375q0.5625 0.1875 1.09375 0.4375q0.546875 0.25 0.96875 0.625q0.4375 0.375 0.6875 0.90625q0.265625 0.53125 0.265625 1.265625q0 0.890625 -0.328125 1.640625q-0.328125 0.75 -0.953125 1.296875q-0.625 0.546875 -1.546875 0.859375q-0.90625 0.296875 -2.09375 0.296875q-0.640625 0 -1.25 -0.109375q-0.609375 -0.109375 -1.171875 -0.3125q-0.546875 -0.203125 -1.03125 -0.484375q-0.46875 -0.28125 -0.828125 -0.59375l0.6875 -1.140625q0.125 -0.203125 0.3125 -0.3125q0.1875 -0.109375 0.453125 -0.109375q0.28125 0 0.515625 0.15625q0.25 0.15625 0.578125 0.34375q0.328125 0.171875 0.765625 0.328125q0.4375 0.15625 1.109375 0.15625q0.53125 0 0.90625 -0.125q0.375 -0.125 0.625 -0.328125q0.25 -0.203125 0.359375 -0.46875q0.109375 -0.265625 0.109375 -0.5625q0 -0.421875 -0.265625 -0.703125q-0.25 -0.28125 -0.671875 -0.484375q-0.421875 -0.203125 -0.96875 -0.359375q-0.546875 -0.171875 -1.125 -0.359375q-0.5625 -0.1875 -1.109375 -0.4375q-0.546875 -0.265625 -0.984375 -0.65625q-0.421875 -0.40625 -0.6875 -0.984375q-0.25 -0.578125 -0.25 -1.390625q0 -0.75 0.296875 -1.4375q0.3125 -0.6875 0.890625 -1.1875q0.578125 -0.515625 1.453125 -0.8125q0.875 -0.3125 2.015625 -0.3125q1.265625 0 2.3125 0.421875q1.046875 0.40625 1.734375 1.09375l-0.671875 1.078125zm6.331787 -2.40625l0 12.3125l-2.953125 0l0 -12.3125l2.953125 0zm0.453125 -3.59375q0 0.390625 -0.15625 0.734375q-0.15625 0.328125 -0.421875 0.578125q-0.25 0.25 -0.609375 0.40625q-0.34375 0.140625 -0.734375 0.140625q-0.390625 0 -0.734375 -0.140625q-0.328125 -0.15625 -0.59375 -0.40625q-0.25 -0.25 -0.40625 -0.578125q-0.140625 -0.34375 -0.140625 -0.734375q0 -0.390625 0.140625 -0.734375q0.15625 -0.34375 0.40625 -0.59375q0.265625 -0.265625 0.59375 -0.40625q0.34375 -0.15625 0.734375 -0.15625q0.390625 0 0.734375 0.15625q0.359375 0.140625 0.609375 0.40625q0.265625 0.25 0.421875 0.59375q0.15625 0.34375 0.15625 0.734375zm11.550964 6.203125q-0.125 0.15625 -0.25 0.265625q-0.125 0.09375 -0.375 0.09375q-0.21875 0 -0.4375 -0.140625q-0.21875 -0.140625 -0.515625 -0.3125q-0.296875 -0.171875 -0.71875 -0.3125q-0.40625 -0.140625 -1.03125 -0.140625q-0.78125 0 -1.375 0.28125q-0.578125 0.28125 -0.96875 0.8125q-0.390625 0.53125 -0.578125 1.28125q-0.1875 0.75 -0.1875 1.6875q0 0.984375 0.203125 1.765625q0.21875 0.765625 0.609375 1.296875q0.390625 0.515625 0.953125 0.78125q0.5625 0.265625 1.28125 0.265625q0.703125 0 1.140625 -0.171875q0.4375 -0.171875 0.734375 -0.375q0.3125 -0.21875 0.53125 -0.390625q0.21875 -0.171875 0.5 -0.171875q0.359375 0 0.53125 0.265625l0.859375 1.078125q-0.5 0.578125 -1.078125 0.96875q-0.578125 0.390625 -1.203125 0.625q-0.609375 0.234375 -1.265625 0.328125q-0.65625 0.109375 -1.3125 0.109375q-1.140625 0 -2.15625 -0.421875q-1.0 -0.4375 -1.75 -1.25q-0.75 -0.8125 -1.1875 -2.0q-0.4375 -1.1875 -0.4375 -2.703125q0 -1.34375 0.390625 -2.5q0.390625 -1.171875 1.140625 -2.015625q0.765625 -0.84375 1.875 -1.3125q1.125 -0.484375 2.578125 -0.484375q1.375 0 2.40625 0.453125q1.046875 0.4375 1.875 1.265625l-0.78125 1.078125zm12.448059 9.703125l-1.328125 0q-0.421875 0 -0.671875 -0.125q-0.234375 -0.125 -0.359375 -0.515625l-0.265625 -0.875q-0.46875 0.421875 -0.921875 0.75q-0.4375 0.3125 -0.921875 0.53125q-0.484375 0.203125 -1.03125 0.3125q-0.53125 0.109375 -1.1875 0.109375q-0.78125 0 -1.4375 -0.203125q-0.65625 -0.21875 -1.140625 -0.625q-0.46875 -0.421875 -0.734375 -1.046875q-0.265625 -0.625 -0.265625 -1.453125q0 -0.703125 0.359375 -1.375q0.375 -0.6875 1.21875 -1.21875q0.859375 -0.546875 2.265625 -0.90625q1.421875 -0.375 3.53125 -0.421875l0 -0.71875q0 -1.234375 -0.53125 -1.828125q-0.515625 -0.59375 -1.515625 -0.59375q-0.71875 0 -1.203125 0.171875q-0.46875 0.171875 -0.828125 0.390625q-0.359375 0.203125 -0.65625 0.375q-0.296875 0.15625 -0.65625 0.15625q-0.296875 0 -0.515625 -0.15625q-0.21875 -0.15625 -0.34375 -0.375l-0.546875 -0.953125q2.125 -1.953125 5.125 -1.953125q1.078125 0 1.921875 0.359375q0.84375 0.359375 1.4375 0.984375q0.59375 0.625 0.890625 1.515625q0.3125 0.875 0.3125 1.90625l0 7.78125zm-5.765625 -1.84375q0.453125 0 0.84375 -0.078125q0.390625 -0.09375 0.71875 -0.265625q0.34375 -0.171875 0.65625 -0.40625q0.328125 -0.25 0.65625 -0.59375l0 -2.0625q-1.296875 0.046875 -2.171875 0.21875q-0.875 0.15625 -1.40625 0.40625q-0.515625 0.25 -0.75 0.59375q-0.21875 0.328125 -0.21875 0.734375q0 0.78125 0.46875 1.125q0.46875 0.328125 1.203125 0.328125zm11.829712 -15.984375l0 17.828125l-2.953125 0l0 -17.828125l2.953125 0zm6.4797974 5.515625l2.359375 0q0.328125 0 0.5625 0.15625q0.234375 0.15625 0.28125 0.390625l1.765625 6.578125q0.15625 0.546875 0.234375 1.0625q0.09375 0.515625 0.171875 1.03125q0.140625 -0.515625 0.28125 -1.03125q0.15625 -0.515625 0.328125 -1.0625l2.03125 -6.59375q0.078125 -0.25 0.296875 -0.40625q0.21875 -0.15625 0.5 -0.15625l1.3125 0q0.328125 0 0.53125 0.15625q0.21875 0.15625 0.296875 0.40625l2.015625 6.71875q0.15625 0.515625 0.28125 1.0q0.125 0.484375 0.25 0.984375q0.078125 -0.515625 0.171875 -1.03125q0.109375 -0.515625 0.265625 -1.078125l1.828125 -6.578125q0.0625 -0.234375 0.28125 -0.390625q0.234375 -0.15625 0.53125 -0.15625l2.25 0l-3.90625 12.3125l-2.390625 0q-0.375 0 -0.546875 -0.53125l-2.21875 -7.109375q-0.109375 -0.34375 -0.203125 -0.703125q-0.09375 -0.359375 -0.15625 -0.703125q-0.0625 0.359375 -0.15625 0.71875q-0.078125 0.34375 -0.1875 0.703125l-2.234375 7.09375q-0.171875 0.53125 -0.65625 0.53125l-2.265625 0l-3.90625 -12.3125zm25.749756 -0.1875q1.375 0 2.5 0.453125q1.125 0.4375 1.90625 1.25q0.796875 0.8125 1.21875 2.0q0.4375 1.171875 0.4375 2.609375q0 1.46875 -0.4375 2.65625q-0.421875 1.171875 -1.21875 2.0q-0.78125 0.828125 -1.90625 1.28125q-1.125 0.4375 -2.5 0.4375q-1.390625 0 -2.515625 -0.4375q-1.125 -0.453125 -1.921875 -1.28125q-0.796875 -0.828125 -1.234375 -2.0q-0.4375 -1.1875 -0.4375 -2.65625q0 -1.4375 0.4375 -2.609375q0.4375 -1.1875 1.234375 -2.0q0.796875 -0.8125 1.921875 -1.25q1.125 -0.453125 2.515625 -0.453125zm0 10.40625q1.53125 0 2.265625 -1.03125q0.75 -1.03125 0.75 -3.03125q0 -1.984375 -0.75 -3.03125q-0.734375 -1.046875 -2.265625 -1.046875q-1.5625 0 -2.3125 1.046875q-0.734375 1.046875 -0.734375 3.03125q0 1.984375 0.734375 3.03125q0.75 1.03125 2.3125 1.03125zm8.378479 2.09375l0 -12.3125l1.75 0q0.453125 0 0.625 0.171875q0.1875 0.171875 0.25 0.578125l0.171875 1.484375q0.671875 -1.140625 1.546875 -1.796875q0.890625 -0.671875 2.0 -0.671875q0.90625 0 1.515625 0.421875l-0.390625 2.21875q-0.03125 0.21875 -0.15625 0.3125q-0.125 0.09375 -0.328125 0.09375q-0.171875 0 -0.484375 -0.078125q-0.3125 -0.09375 -0.828125 -0.09375q-0.921875 0 -1.59375 0.515625q-0.65625 0.5 -1.109375 1.484375l0 7.671875l-2.96875 0zm12.960327 -17.828125l0 17.828125l-2.953125 0l0 -17.828125l2.953125 0zm12.019653 17.828125q-0.578125 0 -0.765625 -0.546875l-0.234375 -1.1875q-0.375 0.4375 -0.796875 0.796875q-0.421875 0.34375 -0.90625 0.59375q-0.484375 0.25 -1.046875 0.390625q-0.5625 0.140625 -1.203125 0.140625q-1.015625 0 -1.859375 -0.421875q-0.828125 -0.421875 -1.4375 -1.21875q-0.609375 -0.796875 -0.9375 -1.96875q-0.328125 -1.1875 -0.328125 -2.703125q0 -1.359375 0.359375 -2.53125q0.375 -1.1875 1.078125 -2.046875q0.703125 -0.859375 1.671875 -1.34375q0.96875 -0.5 2.1875 -0.5q1.03125 0 1.75 0.34375q0.734375 0.328125 1.3125 0.875l0 -6.5l2.96875 0l0 17.828125l-1.8125 0zm-3.953125 -2.171875q0.921875 0 1.5625 -0.375q0.65625 -0.390625 1.234375 -1.09375l0 -5.53125q-0.5 -0.609375 -1.09375 -0.859375q-0.59375 -0.25 -1.28125 -0.25q-0.671875 0 -1.21875 0.25q-0.546875 0.25 -0.921875 0.765625q-0.375 0.5 -0.578125 1.296875q-0.203125 0.78125 -0.203125 1.84375q0 1.078125 0.171875 1.828125q0.171875 0.75 0.484375 1.234375q0.328125 0.46875 0.796875 0.6875q0.46875 0.203125 1.046875 0.203125zm10.742615 -5.359375q0 -2.46875 -0.609375 -4.859375q-0.59375 -2.390625 -1.6875 -4.5q-0.15625 -0.3125 -0.15625 -0.53125q0 -0.234375 0.109375 -0.375q0.125 -0.15625 0.296875 -0.25l1.3125 -0.796875q0.890625 1.375 1.515625 2.75q0.625 1.375 1.015625 2.78125q0.40625 1.390625 0.578125 2.84375q0.1875 1.4375 0.1875 2.9375q0 1.5 -0.1875 2.953125q-0.171875 1.4375 -0.578125 2.84375q-0.390625 1.390625 -1.015625 2.765625q-0.625 1.390625 -1.515625 2.765625l-1.3125 -0.8125q-0.171875 -0.09375 -0.296875 -0.25q-0.109375 -0.140625 -0.109375 -0.375q0 -0.109375 0.015625 -0.25q0.03125 -0.125 0.125 -0.28125q1.109375 -2.109375 1.703125 -4.484375q0.609375 -2.390625 0.609375 -4.875z" fill-rule="nonzero"/><path fill="#000000" fill-opacity="0.0" d="m23.34664 11.638685l156.91339 0l0 77.5748l-156.91339 0z" fill-rule="evenodd"/><path fill="#000000" d="m36.19039 36.147434q0 2.484375 0.59375 4.875q0.609375 2.375 1.71875 4.484375q0.078125 0.15625 0.109375 0.28125q0.03125 0.140625 0.03125 0.25q0 0.234375 -0.125 0.375q-0.109375 0.15625 -0.28125 0.25l-1.3125 0.8125q-0.890625 -1.375 -1.515625 -2.765625q-0.625 -1.375 -1.03125 -2.765625q-0.390625 -1.40625 -0.578125 -2.84375q-0.1875 -1.453125 -0.1875 -2.953125q0 -1.5 0.1875 -2.9375q0.1875 -1.4531231 0.578125 -2.843748q0.40625 -1.40625 1.03125 -2.78125q0.625 -1.375 1.515625 -2.75l1.3125 0.796875q0.171875 0.09375 0.28125 0.25q0.125 0.140625 0.125 0.375q0 0.21875 -0.15625 0.53125q-1.09375 2.109375 -1.703125 4.5q-0.59375 2.390623 -0.59375 4.859373zm14.403183 -6.671873q-0.125 0.265625 -0.296875 0.375q-0.171875 0.109375 -0.421875 0.109375q-0.234375 0 -0.546875 -0.1875q-0.296875 -0.1875 -0.703125 -0.40625q-0.40625 -0.234375 -0.953125 -0.421875q-0.546875 -0.1875 -1.28125 -0.1875q-0.671875 0 -1.171875 0.171875q-0.5 0.15625 -0.84375 0.453125q-0.34375 0.28125 -0.515625 0.6875q-0.15625 0.390625 -0.15625 0.875q0 0.609375 0.34375 1.03125q0.34375 0.4062481 0.90625 0.6874981q0.5625 0.28125 1.28125 0.515625q0.71875 0.234375 1.46875 0.5q0.75 0.25 1.46875 0.59375q0.71875 0.328125 1.28125 0.859375q0.5625 0.515625 0.90625 1.28125q0.34375 0.75 0.34375 1.828125q0 1.171875 -0.40625 2.203125q-0.390625 1.03125 -1.171875 1.796875q-0.78125 0.75 -1.890625 1.1875q-1.109375 0.4375 -2.5625 0.4375q-0.828125 0 -1.625 -0.15625q-0.796875 -0.15625 -1.546875 -0.453125q-0.734375 -0.3125 -1.375 -0.734375q-0.640625 -0.421875 -1.140625 -0.9375l0.9375 -1.546875q0.125 -0.15625 0.3125 -0.265625q0.1875 -0.125 0.40625 -0.125q0.3125 0 0.65625 0.25q0.34375 0.234375 0.8125 0.546875q0.484375 0.296875 1.125 0.546875q0.640625 0.234375 1.546875 0.234375q1.375 0 2.125 -0.640625q0.765625 -0.65625 0.765625 -1.890625q0 -0.671875 -0.34375 -1.109375q-0.34375 -0.4375 -0.90625 -0.71875q-0.5625 -0.296875 -1.28125 -0.5q-0.71875 -0.21875 -1.46875 -0.453125q-0.75 -0.234375 -1.46875 -0.5625q-0.71875 -0.34375 -1.28125 -0.875q-0.5625 -0.546875 -0.90625 -1.359375q-0.34375 -0.8125 -0.34375 -1.9999981q0 -0.953125 0.375 -1.84375q0.390625 -0.90625 1.109375 -1.59375q0.734375 -0.703125 1.78125 -1.125q1.0625 -0.421875 2.40625 -0.421875q1.546875 0 2.84375 0.484375q1.296875 0.484375 2.203125 1.34375l-0.796875 1.515625zm8.672958 1.703125q1.375 0 2.5 0.453125q1.125 0.4374981 1.90625 1.2499981q0.796875 0.8125 1.21875 2.0q0.4375 1.171875 0.4375 2.609375q0 1.46875 -0.4375 2.65625q-0.421875 1.171875 -1.21875 2.0q-0.78125 0.828125 -1.90625 1.28125q-1.125 0.4375 -2.5 0.4375q-1.390625 0 -2.515625 -0.4375q-1.125 -0.453125 -1.921875 -1.28125q-0.796875 -0.828125 -1.234375 -2.0q-0.4375 -1.1875 -0.4375 -2.65625q0 -1.4375 0.4375 -2.609375q0.4375 -1.1875 1.234375 -2.0q0.796875 -0.8125 1.921875 -1.2499981q1.125 -0.453125 2.515625 -0.453125zm0 10.406248q1.53125 0 2.265625 -1.03125q0.75 -1.03125 0.75 -3.03125q0 -1.984375 -0.75 -3.03125q-0.734375 -1.046875 -2.265625 -1.046875q-1.5625 0 -2.3125 1.046875q-0.734375 1.046875 -0.734375 3.03125q0 1.984375 0.734375 3.03125q0.75 1.03125 2.3125 1.03125zm8.909714 2.09375l0 -10.078125l-1.0625 -0.171875q-0.34375 -0.0625 -0.5625 -0.234375q-0.203125 -0.1875 -0.203125 -0.5l0 -1.2187481l1.828125 0l0 -0.90625q0 -1.0625 0.3125 -1.90625q0.328125 -0.84375 0.921875 -1.421875q0.59375 -0.59375 1.4375 -0.90625q0.859375 -0.3125 1.921875 -0.3125q0.859375 0 1.59375 0.234375l-0.0625 1.484375q-0.03125 0.34375 -0.328125 0.4375q-0.296875 0.078125 -0.6875 0.078125q-0.53125 0 -0.953125 0.125q-0.40625 0.109375 -0.703125 0.390625q-0.28125 0.28125 -0.4375 0.75q-0.140625 0.453125 -0.140625 1.140625l0 0.8125l3.203125 0l0 2.109373l-3.109375 0l0 10.09375l-2.96875 0zm11.927689 0.1875q-1.59375 0 -2.46875 -0.90625q-0.859375 -0.90625 -0.859375 -2.5l0 -6.875l-1.234375 0q-0.25 0 -0.421875 -0.15625q-0.171875 -0.15625 -0.171875 -0.46875l0 -1.1718731l1.984375 -0.328125l0.625 -3.359375q0.046875 -0.234375 0.21875 -0.359375q0.171875 -0.140625 0.4375 -0.140625l1.53125 0l0 3.875l3.25 0l0 2.109373l-3.25 0l0 6.671875q0 0.578125 0.28125 0.90625q0.296875 0.3125 0.78125 0.3125q0.265625 0 0.453125 -0.0625q0.1875 -0.0625 0.328125 -0.125q0.140625 -0.078125 0.25 -0.140625q0.109375 -0.078125 0.21875 -0.078125q0.125 0 0.203125 0.078125q0.09375 0.0625 0.1875 0.1875l0.890625 1.4375q-0.65625 0.546875 -1.5 0.828125q-0.828125 0.265625 -1.734375 0.265625zm3.7411957 -12.499998l2.359375 0q0.328125 0 0.5625 0.15625q0.234375 0.15625 0.28125 0.390625l1.765625 6.578123q0.15625 0.546875 0.234375 1.0625q0.09375 0.515625 0.171875 1.03125q0.140625 -0.515625 0.28125 -1.03125q0.15625 -0.515625 0.328125 -1.0625l2.03125 -6.593748q0.078125 -0.25 0.296875 -0.40625q0.21875 -0.15625 0.5 -0.15625l1.3125 0q0.328125 0 0.53125 0.15625q0.21875 0.15625 0.296875 0.40625l2.015625 6.718748q0.15625 0.515625 0.28125 1.0q0.125 0.484375 0.25 0.984375q0.078125 -0.515625 0.171875 -1.03125q0.109375 -0.515625 0.265625 -1.078125l1.828125 -6.578123q0.0625 -0.234375 0.28125 -0.390625q0.234375 -0.15625 0.53125 -0.15625l2.25 0l-3.90625 12.312498l-2.390625 0q-0.375 0 -0.546875 -0.53125l-2.21875 -7.109375q-0.109375 -0.34375 -0.203125 -0.703125q-0.09375 -0.359375 -0.15625 -0.703125q-0.0625 0.359375 -0.15625 0.71875q-0.078125 0.34375 -0.1875 0.703125l-2.234375 7.09375q-0.171875 0.53125 -0.65625 0.53125l-2.265625 0l-3.90625 -12.312498zm30.14038 12.312498l-1.328125 0q-0.421875 0 -0.671875 -0.125q-0.234375 -0.125 -0.359375 -0.515625l-0.265625 -0.875q-0.46875 0.421875 -0.921875 0.75q-0.4375 0.3125 -0.921875 0.53125q-0.484375 0.203125 -1.03125 0.3125q-0.53125 0.109375 -1.1875 0.109375q-0.78125 0 -1.4375 -0.203125q-0.65625 -0.21875 -1.140625 -0.625q-0.46875 -0.421875 -0.734375 -1.046875q-0.265625 -0.625 -0.265625 -1.453125q0 -0.703125 0.359375 -1.375q0.375 -0.6875 1.21875 -1.21875q0.859375 -0.546875 2.265625 -0.90625q1.421875 -0.375 3.53125 -0.421875l0 -0.71875q0 -1.234375 -0.53125 -1.828125q-0.515625 -0.59375 -1.515625 -0.59375q-0.71875 0 -1.203125 0.171875q-0.46875 0.171875 -0.828125 0.390625q-0.359375 0.203125 -0.65625 0.375q-0.296875 0.15625 -0.65625 0.15625q-0.296875 0 -0.515625 -0.15625q-0.21875 -0.15625 -0.34375 -0.375l-0.546875 -0.953125q2.125 -1.9531231 5.125 -1.9531231q1.078125 0 1.921875 0.359375q0.84375 0.359375 1.4375 0.9843731q0.59375 0.625 0.890625 1.515625q0.3125 0.875 0.3125 1.90625l0 7.78125zm-5.765625 -1.84375q0.453125 0 0.84375 -0.078125q0.390625 -0.09375 0.71875 -0.265625q0.34375 -0.171875 0.65625 -0.40625q0.328125 -0.25 0.65625 -0.59375l0 -2.0625q-1.296875 0.046875 -2.171875 0.21875q-0.875 0.15625 -1.40625 0.40625q-0.515625 0.25 -0.75 0.59375q-0.21875 0.328125 -0.21875 0.734375q0 0.78125 0.46875 1.125q0.46875 0.328125 1.203125 0.328125zm8.673462 1.84375l0 -12.312498l1.75 0q0.453125 0 0.625 0.171875q0.1875 0.171875 0.25 0.5781231l0.171875 1.484375q0.671875 -1.140625 1.546875 -1.7968731q0.890625 -0.671875 2.0 -0.671875q0.90625 0 1.515625 0.421875l-0.390625 2.218748q-0.03125 0.21875 -0.15625 0.3125q-0.125 0.09375 -0.328125 0.09375q-0.171875 0 -0.484375 -0.078125q-0.3125 -0.09375 -0.828125 -0.09375q-0.921875 0 -1.59375 0.515625q-0.65625 0.5 -1.109375 1.484375l0 7.671875l-2.96875 0zm14.897804 -12.499998q1.171875 0 2.140625 0.375q0.984375 0.359375 1.6875 1.0781231q0.703125 0.71875 1.09375 1.765625q0.40625 1.03125 0.40625 2.359375q0 0.328125 -0.03125 0.5625q-0.03125 0.21875 -0.109375 0.34375q-0.078125 0.125 -0.21875 0.1875q-0.125 0.046875 -0.328125 0.046875l-7.609375 0q0.140625 1.890625 1.015625 2.78125q0.890625 0.890625 2.359375 0.890625q0.71875 0 1.234375 -0.171875q0.53125 -0.171875 0.921875 -0.375q0.390625 -0.203125 0.6875 -0.359375q0.296875 -0.171875 0.5625 -0.171875q0.1875 0 0.3125 0.078125q0.140625 0.0625 0.234375 0.1875l0.859375 1.078125q-0.484375 0.578125 -1.109375 0.96875q-0.609375 0.390625 -1.28125 0.625q-0.65625 0.234375 -1.34375 0.328125q-0.6875 0.109375 -1.34375 0.109375q-1.28125 0 -2.390625 -0.421875q-1.09375 -0.4375 -1.9218674 -1.265625q-0.8125 -0.84375 -1.28125 -2.0625q-0.46875 -1.234375 -0.46875 -2.859375q0 -1.265625 0.40625 -2.375q0.421875 -1.109375 1.171875 -1.921875q0.7656174 -0.828125 1.8593674 -1.2968731q1.109375 -0.484375 2.484375 -0.484375zm0.0625 2.124998q-1.296875 0 -2.03125 0.734375q-0.734375 0.71875 -0.9375 2.0625l5.578125 0q0 -0.5625 -0.15625 -1.078125q-0.15625 -0.515625 -0.484375 -0.890625q-0.328125 -0.390625 -0.828125 -0.609375q-0.484375 -0.21875 -1.140625 -0.21875zm9.021088 2.84375q0 -2.46875 -0.609375 -4.859373q-0.59375 -2.390625 -1.6875 -4.5q-0.15625 -0.3125 -0.15625 -0.53125q0 -0.234375 0.109375 -0.375q0.125 -0.15625 0.296875 -0.25l1.3125 -0.796875q0.890625 1.375 1.515625 2.75q0.625 1.375 1.015625 2.78125q0.40625 1.390625 0.578125 2.843748q0.1875 1.4375 0.1875 2.9375q0 1.5 -0.1875 2.953125q-0.171875 1.4375 -0.578125 2.84375q-0.390625 1.390625 -1.015625 2.765625q-0.625 1.390625 -1.515625 2.765625l-1.3125 -0.8125q-0.171875 -0.09375 -0.296875 -0.25q-0.109375 -0.140625 -0.109375 -0.375q0 -0.109375 0.015625 -0.25q0.03125 -0.125 0.125 -0.28125q1.109375 -2.109375 1.703125 -4.484375q0.609375 -2.390625 0.609375 -4.875z" fill-rule="nonzero"/><path fill="#000000" d="m43.393517 58.275562q-0.125 0.265625 -0.296875 0.375q-0.171875 0.109375 -0.421875 0.109375q-0.234375 0 -0.546875 -0.1875q-0.296875 -0.1875 -0.703125 -0.40625q-0.40625 -0.234375 -0.953125 -0.421875q-0.546875 -0.1875 -1.28125 -0.1875q-0.671875 0 -1.171875 0.171875q-0.5 0.15625 -0.84375 0.453125q-0.34375 0.28125 -0.515625 0.6875q-0.15625 0.390625 -0.15625 0.875q0 0.609375 0.34375 1.03125q0.34375 0.40625 0.90625 0.6875q0.5625 0.28125 1.28125 0.515625q0.71875 0.234375 1.46875 0.5q0.75 0.25 1.46875 0.59375q0.71875 0.328125 1.28125 0.859375q0.5625 0.5156288 0.90625 1.2812538q0.34375 0.75 0.34375 1.828125q0 1.171875 -0.40625 2.203125q-0.390625 1.03125 -1.171875 1.796875q-0.78125 0.75 -1.890625 1.1875q-1.109375 0.4375 -2.5625 0.4375q-0.828125 0 -1.625 -0.15625q-0.796875 -0.15625 -1.546875 -0.453125q-0.734375 -0.3125 -1.375 -0.734375q-0.640625 -0.421875 -1.140625 -0.9375l0.9375 -1.546875q0.125 -0.15625 0.3125 -0.265625q0.1875 -0.125 0.40625 -0.125q0.3125 0 0.65625 0.25q0.34375 0.234375 0.8125 0.546875q0.484375 0.296875 1.125 0.546875q0.640625 0.234375 1.546875 0.234375q1.375 0 2.125 -0.640625q0.765625 -0.65625 0.765625 -1.890625q0 -0.671875 -0.34375 -1.109375q-0.34375 -0.4375 -0.90625 -0.71875q-0.5625 -0.296875 -1.28125 -0.5q-0.71875 -0.21875 -1.46875 -0.453125q-0.75 -0.234375 -1.46875 -0.5625q-0.71875 -0.3437538 -1.28125 -0.8750038q-0.5625 -0.546875 -0.90625 -1.359375q-0.34375 -0.8125 -0.34375 -2.0q0 -0.953125 0.375 -1.84375q0.390625 -0.90625 1.109375 -1.59375q0.734375 -0.703125 1.78125 -1.125q1.0625 -0.421875 2.40625 -0.421875q1.546875 0 2.84375 0.484375q1.296875 0.484375 2.203125 1.34375l-0.796875 1.515625zm7.7823334 17.593754q-0.140625 0.3125 -0.34375 0.46875q-0.203125 0.15625 -0.640625 0.15625l-2.203125 0l2.296875 -4.921875l-4.984375 -11.406254l2.59375 0q0.359375 0 0.546875 0.171875q0.203125 0.171875 0.296875 0.375l2.625 6.390629q0.140625 0.3125 0.234375 0.65625q0.09375 0.328125 0.171875 0.65625q0.09375 -0.34375 0.203125 -0.65625q0.109375 -0.328125 0.25 -0.671875l2.46875 -6.375004q0.09375 -0.234375 0.3125 -0.390625q0.234375 -0.15625 0.5 -0.15625l2.375 0l-6.703125 15.703129zm15.741592 -13.296879q-0.125 0.1875 -0.25 0.265625q-0.125 0.078125 -0.34375 0.078125q-0.203125 0 -0.453125 -0.109375q-0.25 -0.125 -0.578125 -0.28125q-0.3125 -0.15625 -0.734375 -0.265625q-0.40625 -0.125 -0.96875 -0.125q-0.875 0 -1.390625 0.375q-0.5 0.375 -0.5 0.96875q0 0.390625 0.25 0.6718788q0.265625 0.265625 0.6875 0.46875q0.4375 0.203125 0.96875 0.375q0.546875 0.15625 1.109375 0.34375q0.5625 0.1875 1.09375 0.4375q0.546875 0.25 0.96875 0.625q0.4375 0.375 0.6875 0.90625q0.265625 0.53125 0.265625 1.265625q0 0.890625 -0.328125 1.640625q-0.328125 0.75 -0.953125 1.296875q-0.625 0.546875 -1.546875 0.859375q-0.90625 0.296875 -2.09375 0.296875q-0.640625 0 -1.25 -0.109375q-0.609375 -0.109375 -1.171875 -0.3125q-0.546875 -0.203125 -1.03125 -0.484375q-0.46875 -0.28125 -0.828125 -0.59375l0.6875 -1.140625q0.125 -0.203125 0.3125 -0.3125q0.1875 -0.109375 0.453125 -0.109375q0.28125 0 0.515625 0.15625q0.25 0.15625 0.578125 0.34375q0.328125 0.171875 0.765625 0.328125q0.4375 0.15625 1.109375 0.15625q0.53125 0 0.90625 -0.125q0.375 -0.125 0.625 -0.328125q0.25 -0.203125 0.359375 -0.46875q0.109375 -0.265625 0.109375 -0.5625q0 -0.421875 -0.265625 -0.703125q-0.25 -0.28125 -0.671875 -0.484375q-0.421875 -0.203125 -0.96875 -0.359375q-0.546875 -0.171875 -1.125 -0.359375q-0.5625 -0.1875 -1.109375 -0.4375q-0.546875 -0.265625 -0.984375 -0.65625q-0.421875 -0.40625 -0.6875 -0.984375q-0.25 -0.578125 -0.25 -1.3906288q0 -0.75 0.296875 -1.4375q0.3125 -0.6875 0.890625 -1.1875q0.578125 -0.515625 1.453125 -0.8125q0.875 -0.3125 2.015625 -0.3125q1.265625 0 2.3125 0.421875q1.046875 0.40625 1.734375 1.09375l-0.671875 1.078125zm7.2224426 10.093754q-1.59375 0 -2.46875 -0.90625q-0.859375 -0.90625 -0.859375 -2.5l0 -6.875004l-1.234375 0q-0.25 0 -0.421875 -0.15625q-0.171875 -0.15625 -0.171875 -0.46875l0 -1.171875l1.984375 -0.328125l0.625 -3.359375q0.046875 -0.234375 0.21875 -0.359375q0.171875 -0.140625 0.4375 -0.140625l1.53125 0l0 3.875l3.25 0l0 2.109375l-3.25 0l0 6.671879q0 0.578125 0.28125 0.90625q0.296875 0.3125 0.78125 0.3125q0.265625 0 0.453125 -0.0625q0.1875 -0.0625 0.328125 -0.125q0.140625 -0.078125 0.25 -0.140625q0.109375 -0.078125 0.21875 -0.078125q0.125 0 0.203125 0.078125q0.09375 0.0625 0.1875 0.1875l0.890625 1.4375q-0.65625 0.546875 -1.5 0.828125q-0.828125 0.265625 -1.734375 0.265625zm10.334946 -12.687504q1.171875 0 2.140625 0.375q0.984375 0.359375 1.6875 1.078125q0.703125 0.71875 1.09375 1.765625q0.40625 1.0312538 0.40625 2.3593788q0 0.328125 -0.03125 0.5625q-0.03125 0.21875 -0.109375 0.34375q-0.078125 0.125 -0.21875 0.1875q-0.125 0.046875 -0.328125 0.046875l-7.609375 0q0.140625 1.890625 1.015625 2.78125q0.890625 0.890625 2.359375 0.890625q0.71875 0 1.234375 -0.171875q0.53125 -0.171875 0.921875 -0.375q0.390625 -0.203125 0.6875 -0.359375q0.296875 -0.171875 0.5625 -0.171875q0.1875 0 0.3125 0.078125q0.140625 0.0625 0.234375 0.1875l0.859375 1.078125q-0.484375 0.578125 -1.109375 0.96875q-0.609375 0.390625 -1.28125 0.625q-0.65625 0.234375 -1.34375 0.328125q-0.6875 0.109375 -1.34375 0.109375q-1.28125 0 -2.390625 -0.421875q-1.09375 -0.4375 -1.921875 -1.265625q-0.8125 -0.84375 -1.28125 -2.0625q-0.46875 -1.234375 -0.46875 -2.859375q0 -1.265625 0.40625 -2.3750038q0.421875 -1.109375 1.171875 -1.921875q0.765625 -0.828125 1.859375 -1.296875q1.109375 -0.484375 2.484375 -0.484375zm0.0625 2.125q-1.296875 0 -2.03125 0.734375q-0.734375 0.71875 -0.9375 2.0625038l5.578125 0q0 -0.5625 -0.15625 -1.0781288q-0.15625 -0.515625 -0.484375 -0.890625q-0.328125 -0.390625 -0.828125 -0.609375q-0.484375 -0.21875 -1.140625 -0.21875zm7.6718445 10.375004l0 -12.312504l1.8125 0q0.578125 0 0.765625 0.546875l0.1875 0.90625q0.328125 -0.359375 0.671875 -0.65625q0.359375 -0.296875 0.765625 -0.515625q0.40625 -0.21875 0.859375 -0.34375q0.46875 -0.125 1.015625 -0.125q1.15625 0 1.90625 0.625q0.75 0.625 1.125 1.671875q0.296875 -0.609375 0.71875 -1.046875q0.4375 -0.4375 0.953125 -0.703125q0.515625 -0.28125 1.09375 -0.40625q0.59375 -0.140625 1.171875 -0.140625q1.015625 0 1.8125 0.3125q0.796875 0.3125 1.328125 0.90625q0.546875 0.59375 0.828125 1.46875q0.28125 0.859375 0.28125 1.9687538l0 7.84375l-2.96875 0l0 -7.84375q0 -1.1718788 -0.515625 -1.7656288q-0.515625 -0.59375 -1.5 -0.59375q-0.46875 0 -0.859375 0.15625q-0.390625 0.15625 -0.6875 0.453125q-0.28125 0.296875 -0.453125 0.75q-0.171875 0.4375038 -0.171875 1.0000038l0 7.84375l-2.96875 0l0 -7.84375q0 -1.2343788 -0.5 -1.7968788q-0.5 -0.5625 -1.46875 -0.5625q-0.640625 0 -1.203125 0.328125q-0.546875 0.3125 -1.03125 0.859375l0 9.015629l-2.96875 0z" fill-rule="nonzero"/><path fill="#000000" fill-opacity="0.0" d="m124.5803 137.19043l206.23624 -70.58267" fill-rule="evenodd"/><path stroke="#000000" stroke-width="1.0" stroke-linejoin="round" stroke-linecap="butt" d="m124.5803 137.19043l206.23624 -70.58267" fill-rule="evenodd"/><path fill="#000000" fill-opacity="0.0" d="m328.00595 65.23025l42.897644 197.92126" fill-rule="evenodd"/><path stroke="#000000" stroke-width="1.0" stroke-linejoin="round" stroke-linecap="butt" d="m328.00595 65.23025l42.897644 197.92126" fill-rule="evenodd"/><path fill="#000000" fill-opacity="0.0" d="m463.62308 159.3312l-96.8819 102.39371" fill-rule="evenodd"/><path stroke="#000000" stroke-width="1.0" stroke-linejoin="round" stroke-linecap="butt" d="m463.62308 159.3312l-96.8819 102.39371" fill-rule="evenodd"/><path fill="#000000" fill-opacity="0.0" d="m124.5803 246.51517l249.10239 15.24411" fill-rule="evenodd"/><path stroke="#000000" stroke-width="1.0" stroke-linejoin="round" stroke-linecap="butt" d="m124.5803 246.51517l249.10239 15.24411" fill-rule="evenodd"/><path fill="#000000" fill-opacity="0.0" d="m372.25568 263.1181l-243.52756 -124.53543" fill-rule="evenodd"/><path stroke="#000000" stroke-width="1.0" stroke-linejoin="round" stroke-linecap="butt" d="m372.25568 263.1181l-243.52756 -124.53543" fill-rule="evenodd"/><path fill="#ffffff" d="m35.995987 116.43459l0 0c0 -6.1142654 4.9565926 -11.070862 11.070866 -11.070862l149.48032 0c2.9361725 0 5.7520905 1.1663895 7.828293 3.2425766c2.0761871 2.0761948 3.242569 4.8921127 3.242569 7.828285l0 44.28347c0 6.114273 -4.9565887 11.070862 -11.070862 11.070862l-149.48032 0l0 0c-6.114273 0 -11.070866 -4.9565887 -11.070866 -11.070862z" fill-rule="evenodd"/><path stroke="#000000" stroke-width="3.0" stroke-linejoin="round" stroke-linecap="butt" d="m35.995987 116.43459l0 0c0 -6.1142654 4.9565926 -11.070862 11.070866 -11.070862l149.48032 0c2.9361725 0 5.7520905 1.1663895 7.828293 3.2425766c2.0761871 2.0761948 3.242569 4.8921127 3.242569 7.828285l0 44.28347c0 6.114273 -4.9565887 11.070862 -11.070862 11.070862l-149.48032 0l0 0c-6.114273 0 -11.070866 -4.9565887 -11.070866 -11.070862z" fill-rule="evenodd"/><path fill="#000000" d="m73.861694 143.56946q0.203125 0 0.359375 0.15625l0.90625 0.984375q-1.0625 1.234375 -2.5625 1.921875q-1.5 0.671875 -3.625 0.671875q-1.859375 0 -3.375 -0.640625q-1.515625 -0.640625 -2.59375 -1.796875q-1.0625 -1.15625 -1.65625 -2.765625q-0.578125 -1.625 -0.578125 -3.578125q0 -1.9375 0.625 -3.5625q0.640625 -1.625 1.78125 -2.78125q1.140625 -1.171875 2.71875 -1.8125q1.59375 -0.640625 3.515625 -0.640625q1.890625 0 3.265625 0.59375q1.375 0.578125 2.453125 1.59375l-0.765625 1.0625q-0.078125 0.125 -0.1875 0.203125q-0.109375 0.078125 -0.3125 0.078125q-0.15625 0 -0.328125 -0.109375q-0.171875 -0.125 -0.421875 -0.28125q-0.234375 -0.171875 -0.5625 -0.359375q-0.3125 -0.203125 -0.765625 -0.359375q-0.4375 -0.171875 -1.03125 -0.28125q-0.59375 -0.125 -1.359375 -0.125q-1.375 0 -2.53125 0.484375q-1.140625 0.46875 -1.96875 1.34375q-0.828125 0.875 -1.296875 2.140625q-0.453125 1.25 -0.453125 2.8125q0 1.609375 0.453125 2.875q0.46875 1.25 1.265625 2.125q0.796875 0.875 1.890625 1.328125q1.09375 0.453125 2.359375 0.453125q0.765625 0 1.375 -0.078125q0.609375 -0.09375 1.125 -0.28125q0.53125 -0.203125 0.984375 -0.5q0.453125 -0.296875 0.90625 -0.703125q0.203125 -0.171875 0.390625 -0.171875zm8.908859 -8.796875q1.328125 0 2.40625 0.453125q1.078125 0.4375 1.828125 1.25q0.75 0.8125 1.140625 1.96875q0.40625 1.15625 0.40625 2.59375q0 1.4375 -0.40625 2.59375q-0.390625 1.140625 -1.140625 1.96875q-0.75 0.8125 -1.828125 1.25q-1.078125 0.4375 -2.40625 0.4375q-1.328125 0 -2.40625 -0.4375q-1.078125 -0.4375 -1.828125 -1.25q-0.75 -0.828125 -1.171875 -1.96875q-0.40625 -1.15625 -0.40625 -2.59375q0 -1.4375 0.40625 -2.59375q0.421875 -1.15625 1.171875 -1.96875q0.75 -0.8125 1.828125 -1.25q1.078125 -0.453125 2.40625 -0.453125zm0 10.84375q1.796875 0 2.6875 -1.203125q0.890625 -1.203125 0.890625 -3.375q0 -2.171875 -0.890625 -3.375q-0.890625 -1.21875 -2.6875 -1.21875q-0.90625 0 -1.578125 0.3125q-0.671875 0.3125 -1.125 0.90625q-0.453125 0.578125 -0.671875 1.4375q-0.21875 0.859375 -0.21875 1.9375q0 1.09375 0.21875 1.953125q0.21875 0.84375 0.671875 1.421875q0.453125 0.578125 1.125 0.890625q0.671875 0.3125 1.578125 0.3125zm8.422226 1.5l0 -12.15625l1.28125 0q0.453125 0 0.5625 0.4375l0.15625 1.25q0.671875 -0.828125 1.5 -1.34375q0.84375 -0.53125 1.953125 -0.53125q1.234375 0 1.984375 0.6875q0.765625 0.671875 1.109375 1.84375q0.25 -0.65625 0.65625 -1.140625q0.421875 -0.484375 0.9375 -0.796875q0.515625 -0.3125 1.09375 -0.453125q0.59375 -0.140625 1.1875 -0.140625q0.953125 0 1.703125 0.3125q0.75 0.296875 1.265625 0.890625q0.53125 0.578125 0.8125 1.4375q0.28125 0.859375 0.28125 1.96875l0 7.734375l-2.140625 0l0 -7.734375q0 -1.4375 -0.625 -2.171875q-0.625 -0.734375 -1.8125 -0.734375q-0.53125 0 -1.0 0.1875q-0.46875 0.1875 -0.84375 0.546875q-0.359375 0.359375 -0.5625 0.90625q-0.203125 0.546875 -0.203125 1.265625l0 7.734375l-2.140625 0l0 -7.734375q0 -1.46875 -0.59375 -2.1875q-0.578125 -0.71875 -1.71875 -0.71875q-0.78125 0 -1.46875 0.421875q-0.671875 0.421875 -1.234375 1.15625l0 9.0625l-2.140625 0zm19.704132 4.109375l0 -16.265625l1.28125 0q0.453125 0 0.5625 0.4375l0.1875 1.453125q0.78125 -0.953125 1.78125 -1.53125q1.0 -0.578125 2.3125 -0.578125q1.046875 0 1.890625 0.40625q0.859375 0.40625 1.453125 1.1875q0.59375 0.78125 0.921875 1.953125q0.328125 1.15625 0.328125 2.671875q0 1.34375 -0.359375 2.5q-0.359375 1.15625 -1.03125 2.015625q-0.671875 0.84375 -1.65625 1.328125q-0.96875 0.484375 -2.203125 0.484375q-1.125 0 -1.921875 -0.375q-0.796875 -0.375 -1.40625 -1.0625l0 5.375l-2.140625 0zm5.40625 -14.75q-1.03125 0 -1.828125 0.484375q-0.78125 0.46875 -1.4375 1.34375l0 5.890625q0.578125 0.78125 1.28125 1.109375q0.703125 0.328125 1.578125 0.328125q1.6875 0 2.59375 -1.203125q0.921875 -1.21875 0.921875 -3.46875q0 -1.1875 -0.21875 -2.03125q-0.203125 -0.859375 -0.609375 -1.40625q-0.390625 -0.546875 -0.96875 -0.796875q-0.578125 -0.25 -1.3125 -0.25zm12.763718 -1.703125q1.328125 0 2.40625 0.453125q1.078125 0.4375 1.828125 1.25q0.75 0.8125 1.140625 1.96875q0.40625 1.15625 0.40625 2.59375q0 1.4375 -0.40625 2.59375q-0.390625 1.140625 -1.140625 1.96875q-0.75 0.8125 -1.828125 1.25q-1.078125 0.4375 -2.40625 0.4375q-1.328125 0 -2.40625 -0.4375q-1.078125 -0.4375 -1.828125 -1.25q-0.75 -0.828125 -1.171875 -1.96875q-0.40625 -1.15625 -0.40625 -2.59375q0 -1.4375 0.40625 -2.59375q0.421875 -1.15625 1.171875 -1.96875q0.75 -0.8125 1.828125 -1.25q1.078125 -0.453125 2.40625 -0.453125zm0 10.84375q1.796875 0 2.6875 -1.203125q0.890625 -1.203125 0.890625 -3.375q0 -2.171875 -0.890625 -3.375q-0.890625 -1.21875 -2.6875 -1.21875q-0.90625 0 -1.578125 0.3125q-0.671875 0.3125 -1.125 0.90625q-0.453125 0.578125 -0.671875 1.4375q-0.21875 0.859375 -0.21875 1.9375q0 1.09375 0.21875 1.953125q0.21875 0.84375 0.671875 1.421875q0.453125 0.578125 1.125 0.890625q0.671875 0.3125 1.578125 0.3125zm8.422226 1.5l0 -12.15625l1.28125 0q0.453125 0 0.5625 0.4375l0.171875 1.328125q0.796875 -0.875 1.765625 -1.40625q0.984375 -0.546875 2.265625 -0.546875q1.0 0 1.75 0.328125q0.765625 0.328125 1.28125 0.9375q0.515625 0.609375 0.78125 1.46875q0.265625 0.84375 0.265625 1.875l0 7.734375l-2.140625 0l0 -7.734375q0 -1.390625 -0.640625 -2.140625q-0.625 -0.765625 -1.921875 -0.765625q-0.9375 0 -1.765625 0.453125q-0.828125 0.453125 -1.515625 1.234375l0 8.953125l-2.140625 0zm18.1566 -12.34375q1.09375 0 2.015625 0.375q0.921875 0.359375 1.59375 1.046875q0.671875 0.6875 1.046875 1.703125q0.390625 1.015625 0.390625 2.3125q0 0.5 -0.109375 0.671875q-0.109375 0.15625 -0.40625 0.15625l-8.09375 0q0.03125 1.15625 0.3125 2.015625q0.28125 0.84375 0.78125 1.421875q0.515625 0.5625 1.203125 0.84375q0.703125 0.28125 1.5625 0.28125q0.8125 0 1.390625 -0.1875q0.578125 -0.1875 1.0 -0.390625q0.421875 -0.21875 0.703125 -0.40625q0.28125 -0.1875 0.484375 -0.1875q0.265625 0 0.40625 0.203125l0.609375 0.78125q-0.40625 0.484375 -0.953125 0.84375q-0.546875 0.34375 -1.1875 0.578125q-0.625 0.21875 -1.296875 0.328125q-0.671875 0.125 -1.328125 0.125q-1.265625 0 -2.328125 -0.421875q-1.0625 -0.4375 -1.84375 -1.25q-0.765625 -0.828125 -1.203125 -2.03125q-0.421875 -1.21875 -0.421875 -2.796875q0 -1.265625 0.390625 -2.359375q0.390625 -1.109375 1.109375 -1.921875q0.734375 -0.8125 1.796875 -1.265625q1.0625 -0.46875 2.375 -0.46875zm0.046875 1.5625q-1.546875 0 -2.4375 0.90625q-0.890625 0.890625 -1.09375 2.46875l6.609375 0q0 -0.734375 -0.203125 -1.359375q-0.203125 -0.625 -0.609375 -1.0625q-0.390625 -0.453125 -0.96875 -0.703125q-0.5625 -0.25 -1.296875 -0.25zm7.7167206 10.78125l0 -12.15625l1.28125 0q0.453125 0 0.5625 0.4375l0.171875 1.328125q0.796875 -0.875 1.765625 -1.40625q0.984375 -0.546875 2.265625 -0.546875q1.0 0 1.75 0.328125q0.765625 0.328125 1.28125 0.9375q0.515625 0.609375 0.78125 1.46875q0.265625 0.84375 0.265625 1.875l0 7.734375l-2.140625 0l0 -7.734375q0 -1.390625 -0.640625 -2.140625q-0.625 -0.765625 -1.921875 -0.765625q-0.9375 0 -1.765625 0.453125q-0.828125 0.453125 -1.515625 1.234375l0 8.953125l-2.140625 0zm17.031586 0.1875q-1.4375 0 -2.21875 -0.796875q-0.765625 -0.8125 -0.765625 -2.3125l0 -7.453125l-1.46875 0q-0.1875 0 -0.328125 -0.109375q-0.125 -0.109375 -0.125 -0.359375l0 -0.84375l1.984375 -0.25l0.5 -3.765625q0.015625 -0.171875 0.140625 -0.28125q0.140625 -0.125 0.34375 -0.125l1.078125 0l0 4.1875l3.484375 0l0 1.546875l-3.484375 0l0 7.296875q0 0.78125 0.375 1.15625q0.375 0.359375 0.96875 0.359375q0.328125 0 0.578125 -0.078125q0.25 -0.09375 0.421875 -0.203125q0.1875 -0.109375 0.3125 -0.203125q0.125 -0.09375 0.21875 -0.09375q0.171875 0 0.296875 0.203125l0.625 1.03125q-0.546875 0.515625 -1.328125 0.8125q-0.78125 0.28125 -1.609375 0.28125z" fill-rule="nonzero"/><path fill="#ffffff" d="m238.83815 42.338486l0 0c0 -6.114273 4.956604 -11.070868 11.070877 -11.070868l149.48032 0c2.9361572 0 5.752075 1.1663914 7.8282776 3.2425823c2.0762024 2.076191 3.2425842 4.892109 3.2425842 7.828285l0 44.283463c0 6.114273 -4.956604 11.070869 -11.070862 11.070869l-149.48032 0l0 0c-6.114273 0 -11.070877 -4.9565964 -11.070877 -11.070869z" fill-rule="evenodd"/><path stroke="#000000" stroke-width="3.0" stroke-linejoin="round" stroke-linecap="butt" d="m238.83815 42.338486l0 0c0 -6.114273 4.956604 -11.070868 11.070877 -11.070868l149.48032 0c2.9361572 0 5.752075 1.1663914 7.8282776 3.2425823c2.0762024 2.076191 3.2425842 4.892109 3.2425842 7.828285l0 44.283463c0 6.114273 -4.956604 11.070869 -11.070862 11.070869l-149.48032 0l0 0c-6.114273 0 -11.070877 -4.9565964 -11.070877 -11.070869z" fill-rule="evenodd"/><path fill="#000000" d="m276.70386 69.47334q0.203125 0 0.359375 0.15625l0.90625 0.984375q-1.0625 1.234375 -2.5625 1.921875q-1.5 0.671875 -3.625 0.671875q-1.859375 0 -3.375 -0.640625q-1.515625 -0.640625 -2.59375 -1.796875q-1.0625 -1.15625 -1.65625 -2.765625q-0.578125 -1.625 -0.578125 -3.578125q0 -1.9375 0.625 -3.5625q0.640625 -1.625 1.78125 -2.78125q1.140625 -1.171875 2.71875 -1.8125q1.59375 -0.640625 3.515625 -0.640625q1.890625 0 3.265625 0.59375q1.375 0.578125 2.453125 1.59375l-0.765625 1.0625q-0.078125 0.125 -0.1875 0.203125q-0.109375 0.078125 -0.3125 0.078125q-0.15625 0 -0.328125 -0.109375q-0.171875 -0.125 -0.421875 -0.28125q-0.234375 -0.171875 -0.5625 -0.359375q-0.3125 -0.203125 -0.765625 -0.359375q-0.4375 -0.171875 -1.03125 -0.28125q-0.59375 -0.125 -1.359375 -0.125q-1.375 0 -2.53125 0.484375q-1.140625 0.46875 -1.96875 1.34375q-0.828125 0.875 -1.296875 2.140625q-0.453125 1.25 -0.453125 2.8125q0 1.609375 0.453125 2.875q0.46875 1.25 1.265625 2.125q0.796875 0.875 1.890625 1.328125q1.09375 0.453125 2.359375 0.453125q0.765625 0 1.375 -0.078125q0.609375 -0.09375 1.125 -0.28125q0.53125 -0.203125 0.984375 -0.5q0.453125 -0.296875 0.90625 -0.703125q0.203125 -0.171875 0.390625 -0.171875zm8.9088745 -8.796875q1.328125 0 2.40625 0.453125q1.078125 0.4375 1.828125 1.25q0.75 0.8125 1.140625 1.96875q0.40625 1.15625 0.40625 2.59375q0 1.4375 -0.40625 2.59375q-0.390625 1.140625 -1.140625 1.96875q-0.75 0.8125 -1.828125 1.25q-1.078125 0.4375 -2.40625 0.4375q-1.328125 0 -2.40625 -0.4375q-1.078125 -0.4375 -1.828125 -1.25q-0.75 -0.828125 -1.171875 -1.96875q-0.40625 -1.15625 -0.40625 -2.59375q0 -1.4375 0.40625 -2.59375q0.421875 -1.15625 1.171875 -1.96875q0.75 -0.8125 1.828125 -1.25q1.078125 -0.453125 2.40625 -0.453125zm0 10.84375q1.796875 0 2.6875 -1.203125q0.890625 -1.203125 0.890625 -3.375q0 -2.171875 -0.890625 -3.375q-0.890625 -1.21875 -2.6875 -1.21875q-0.90625 0 -1.578125 0.3125q-0.671875 0.3125 -1.125 0.90625q-0.453125 0.578125 -0.671875 1.4375q-0.21875 0.859375 -0.21875 1.9375q0 1.09375 0.21875 1.953125q0.21875 0.84375 0.671875 1.421875q0.453125 0.578125 1.125 0.890625q0.671875 0.3125 1.578125 0.3125zm8.422211 1.5l0 -12.15625l1.28125 0q0.453125 0 0.5625 0.4375l0.15625 1.25q0.671875 -0.828125 1.5 -1.34375q0.84375 -0.53125 1.953125 -0.53125q1.234375 0 1.984375 0.6875q0.765625 0.671875 1.109375 1.84375q0.25 -0.65625 0.65625 -1.140625q0.421875 -0.484375 0.9375 -0.796875q0.515625 -0.3125 1.09375 -0.453125q0.59375 -0.140625 1.1875 -0.140625q0.953125 0 1.703125 0.3125q0.75 0.296875 1.265625 0.890625q0.53125 0.578125 0.8125 1.4375q0.28125 0.859375 0.28125 1.96875l0 7.734375l-2.140625 0l0 -7.734375q0 -1.4375 -0.625 -2.171875q-0.625 -0.734375 -1.8125 -0.734375q-0.53125 0 -1.0 0.1875q-0.46875 0.1875 -0.84375 0.546875q-0.359375 0.359375 -0.5625 0.90625q-0.203125 0.546875 -0.203125 1.265625l0 7.734375l-2.140625 0l0 -7.734375q0 -1.46875 -0.59375 -2.1875q-0.578125 -0.71875 -1.71875 -0.71875q-0.78125 0 -1.46875 0.421875q-0.671875 0.421875 -1.234375 1.15625l0 9.0625l-2.140625 0zm19.704132 4.109375l0 -16.265625l1.28125 0q0.453125 0 0.5625 0.4375l0.1875 1.453125q0.78125 -0.953125 1.78125 -1.53125q1.0 -0.578125 2.3125 -0.578125q1.046875 0 1.890625 0.40625q0.859375 0.40625 1.453125 1.1875q0.59375 0.78125 0.921875 1.953125q0.328125 1.15625 0.328125 2.671875q0 1.34375 -0.359375 2.5q-0.359375 1.15625 -1.03125 2.015625q-0.671875 0.84375 -1.65625 1.328125q-0.96875 0.484375 -2.203125 0.484375q-1.125 0 -1.921875 -0.375q-0.796875 -0.375 -1.40625 -1.0625l0 5.375l-2.140625 0zm5.40625 -14.75q-1.03125 0 -1.828125 0.484375q-0.78125 0.46875 -1.4375 1.34375l0 5.890625q0.578125 0.78125 1.28125 1.109375q0.703125 0.328125 1.578125 0.328125q1.6875 0 2.59375 -1.203125q0.921875 -1.21875 0.921875 -3.46875q0 -1.1875 -0.21875 -2.03125q-0.203125 -0.859375 -0.609375 -1.40625q-0.390625 -0.546875 -0.96875 -0.796875q-0.578125 -0.25 -1.3125 -0.25zm12.763733 -1.703125q1.328125 0 2.40625 0.453125q1.078125 0.4375 1.828125 1.25q0.75 0.8125 1.140625 1.96875q0.40625 1.15625 0.40625 2.59375q0 1.4375 -0.40625 2.59375q-0.390625 1.140625 -1.140625 1.96875q-0.75 0.8125 -1.828125 1.25q-1.078125 0.4375 -2.40625 0.4375q-1.328125 0 -2.40625 -0.4375q-1.078125 -0.4375 -1.828125 -1.25q-0.75 -0.828125 -1.171875 -1.96875q-0.40625 -1.15625 -0.40625 -2.59375q0 -1.4375 0.40625 -2.59375q0.421875 -1.15625 1.171875 -1.96875q0.75 -0.8125 1.828125 -1.25q1.078125 -0.453125 2.40625 -0.453125zm0 10.84375q1.796875 0 2.6875 -1.203125q0.890625 -1.203125 0.890625 -3.375q0 -2.171875 -0.890625 -3.375q-0.890625 -1.21875 -2.6875 -1.21875q-0.90625 0 -1.578125 0.3125q-0.671875 0.3125 -1.125 0.90625q-0.453125 0.578125 -0.671875 1.4375q-0.21875 0.859375 -0.21875 1.9375q0 1.09375 0.21875 1.953125q0.21875 0.84375 0.671875 1.421875q0.453125 0.578125 1.125 0.890625q0.671875 0.3125 1.578125 0.3125zm8.422211 1.5l0 -12.15625l1.28125 0q0.453125 0 0.5625 0.4375l0.171875 1.328125q0.796875 -0.875 1.765625 -1.40625q0.984375 -0.546875 2.265625 -0.546875q1.0 0 1.75 0.328125q0.765625 0.328125 1.28125 0.9375q0.515625 0.609375 0.78125 1.46875q0.265625 0.84375 0.265625 1.875l0 7.734375l-2.140625 0l0 -7.734375q0 -1.390625 -0.640625 -2.140625q-0.625 -0.765625 -1.921875 -0.765625q-0.9375 0 -1.765625 0.453125q-0.828125 0.453125 -1.515625 1.234375l0 8.953125l-2.140625 0zm18.156616 -12.34375q1.09375 0 2.015625 0.375q0.921875 0.359375 1.59375 1.046875q0.671875 0.6875 1.046875 1.703125q0.390625 1.015625 0.390625 2.3125q0 0.5 -0.109375 0.671875q-0.109375 0.15625 -0.40625 0.15625l-8.09375 0q0.03125 1.15625 0.3125 2.015625q0.28125 0.84375 0.78125 1.421875q0.515625 0.5625 1.203125 0.84375q0.703125 0.28125 1.5625 0.28125q0.8125 0 1.390625 -0.1875q0.578125 -0.1875 1.0 -0.390625q0.421875 -0.21875 0.703125 -0.40625q0.28125 -0.1875 0.484375 -0.1875q0.265625 0 0.40625 0.203125l0.609375 0.78125q-0.40625 0.484375 -0.953125 0.84375q-0.546875 0.34375 -1.1875 0.578125q-0.625 0.21875 -1.296875 0.328125q-0.671875 0.125 -1.328125 0.125q-1.265625 0 -2.328125 -0.421875q-1.0625 -0.4375 -1.84375 -1.25q-0.765625 -0.828125 -1.203125 -2.03125q-0.421875 -1.21875 -0.421875 -2.796875q0 -1.265625 0.390625 -2.359375q0.390625 -1.109375 1.109375 -1.921875q0.734375 -0.8125 1.796875 -1.265625q1.0625 -0.46875 2.375 -0.46875zm0.046875 1.5625q-1.546875 0 -2.4375 0.90625q-0.890625 0.890625 -1.09375 2.46875l6.609375 0q0 -0.734375 -0.203125 -1.359375q-0.203125 -0.625 -0.609375 -1.0625q-0.390625 -0.453125 -0.96875 -0.703125q-0.5625 -0.25 -1.296875 -0.25zm7.7167053 10.78125l0 -12.15625l1.28125 0q0.453125 0 0.5625 0.4375l0.171875 1.328125q0.796875 -0.875 1.765625 -1.40625q0.984375 -0.546875 2.265625 -0.546875q1.0 0 1.75 0.328125q0.765625 0.328125 1.28125 0.9375q0.515625 0.609375 0.78125 1.46875q0.265625 0.84375 0.265625 1.875l0 7.734375l-2.140625 0l0 -7.734375q0 -1.390625 -0.640625 -2.140625q-0.625 -0.765625 -1.921875 -0.765625q-0.9375 0 -1.765625 0.453125q-0.828125 0.453125 -1.515625 1.234375l0 8.953125l-2.140625 0zm17.031586 0.1875q-1.4375 0 -2.21875 -0.796875q-0.765625 -0.8125 -0.765625 -2.3125l0 -7.453125l-1.46875 0q-0.1875 0 -0.328125 -0.109375q-0.125 -0.109375 -0.125 -0.359375l0 -0.84375l1.984375 -0.25l0.5 -3.765625q0.015625 -0.171875 0.140625 -0.28125q0.140625 -0.125 0.34375 -0.125l1.078125 0l0 4.1875l3.484375 0l0 1.546875l-3.484375 0l0 7.296875q0 0.78125 0.375 1.15625q0.375 0.359375 0.96875 0.359375q0.328125 0 0.578125 -0.078125q0.25 -0.09375 0.421875 -0.203125q0.1875 -0.109375 0.3125 -0.203125q0.125 -0.09375 0.21875 -0.09375q0.171875 0 0.296875 0.203125l0.625 1.03125q-0.546875 0.515625 -1.328125 0.8125q-0.78125 0.28125 -1.609375 0.28125z" fill-rule="nonzero"/><path fill="#ffffff" d="m372.48553 131.78922l0 0c0 -6.114273 4.956604 -11.070869 11.070862 -11.070869l149.48035 0c2.9361572 0 5.752075 1.1663895 7.828247 3.2425842c2.076233 2.0761871 3.2426147 4.8921127 3.2426147 7.828285l0 44.283463c0 6.114273 -4.956604 11.070862 -11.070862 11.070862l-149.48035 0l0 0c-6.114258 0 -11.070862 -4.9565887 -11.070862 -11.070862z" fill-rule="evenodd"/><path stroke="#000000" stroke-width="3.0" stroke-linejoin="round" stroke-linecap="butt" d="m372.48553 131.78922l0 0c0 -6.114273 4.956604 -11.070869 11.070862 -11.070869l149.48035 0c2.9361572 0 5.752075 1.1663895 7.828247 3.2425842c2.076233 2.0761871 3.2426147 4.8921127 3.2426147 7.828285l0 44.283463c0 6.114273 -4.956604 11.070862 -11.070862 11.070862l-149.48035 0l0 0c-6.114258 0 -11.070862 -4.9565887 -11.070862 -11.070862z" fill-rule="evenodd"/><path fill="#000000" d="m410.35126 158.92407q0.203125 0 0.359375 0.15625l0.90625 0.984375q-1.0625 1.234375 -2.5625 1.921875q-1.5 0.671875 -3.625 0.671875q-1.859375 0 -3.375 -0.640625q-1.515625 -0.640625 -2.59375 -1.796875q-1.0625 -1.15625 -1.65625 -2.765625q-0.578125 -1.625 -0.578125 -3.578125q0 -1.9375 0.625 -3.5625q0.640625 -1.625 1.78125 -2.78125q1.140625 -1.171875 2.71875 -1.8125q1.59375 -0.640625 3.515625 -0.640625q1.890625 0 3.265625 0.59375q1.375 0.578125 2.453125 1.59375l-0.765625 1.0625q-0.078125 0.125 -0.1875 0.203125q-0.109375 0.078125 -0.3125 0.078125q-0.15625 0 -0.328125 -0.109375q-0.171875 -0.125 -0.421875 -0.28125q-0.234375 -0.171875 -0.5625 -0.359375q-0.3125 -0.203125 -0.765625 -0.359375q-0.4375 -0.171875 -1.03125 -0.28125q-0.59375 -0.125 -1.359375 -0.125q-1.375 0 -2.53125 0.484375q-1.140625 0.46875 -1.96875 1.34375q-0.828125 0.875 -1.296875 2.140625q-0.453125 1.25 -0.453125 2.8125q0 1.609375 0.453125 2.875q0.46875 1.25 1.265625 2.125q0.796875 0.875 1.890625 1.328125q1.09375 0.453125 2.359375 0.453125q0.765625 0 1.375 -0.078125q0.609375 -0.09375 1.125 -0.28125q0.53125 -0.203125 0.984375 -0.5q0.453125 -0.296875 0.90625 -0.703125q0.203125 -0.171875 0.390625 -0.171875zm8.908844 -8.796875q1.328125 0 2.40625 0.453125q1.078125 0.4375 1.828125 1.25q0.75 0.8125 1.140625 1.96875q0.40625 1.15625 0.40625 2.59375q0 1.4375 -0.40625 2.59375q-0.390625 1.140625 -1.140625 1.96875q-0.75 0.8125 -1.828125 1.25q-1.078125 0.4375 -2.40625 0.4375q-1.328125 0 -2.40625 -0.4375q-1.078125 -0.4375 -1.828125 -1.25q-0.75 -0.828125 -1.171875 -1.96875q-0.40625 -1.15625 -0.40625 -2.59375q0 -1.4375 0.40625 -2.59375q0.421875 -1.15625 1.171875 -1.96875q0.75 -0.8125 1.828125 -1.25q1.078125 -0.453125 2.40625 -0.453125zm0 10.84375q1.796875 0 2.6875 -1.203125q0.890625 -1.203125 0.890625 -3.375q0 -2.171875 -0.890625 -3.375q-0.890625 -1.21875 -2.6875 -1.21875q-0.90625 0 -1.578125 0.3125q-0.671875 0.3125 -1.125 0.90625q-0.453125 0.578125 -0.671875 1.4375q-0.21875 0.859375 -0.21875 1.9375q0 1.09375 0.21875 1.953125q0.21875 0.84375 0.671875 1.421875q0.453125 0.578125 1.125 0.890625q0.671875 0.3125 1.578125 0.3125zm8.422241 1.5l0 -12.15625l1.28125 0q0.453125 0 0.5625 0.4375l0.15625 1.25q0.671875 -0.828125 1.5 -1.34375q0.84375 -0.53125 1.953125 -0.53125q1.234375 0 1.984375 0.6875q0.765625 0.671875 1.109375 1.84375q0.25 -0.65625 0.65625 -1.140625q0.421875 -0.484375 0.9375 -0.796875q0.515625 -0.3125 1.09375 -0.453125q0.59375 -0.140625 1.1875 -0.140625q0.953125 0 1.703125 0.3125q0.75 0.296875 1.265625 0.890625q0.53125 0.578125 0.8125 1.4375q0.28125 0.859375 0.28125 1.96875l0 7.734375l-2.140625 0l0 -7.734375q0 -1.4375 -0.625 -2.171875q-0.625 -0.734375 -1.8125 -0.734375q-0.53125 0 -1.0 0.1875q-0.46875 0.1875 -0.84375 0.546875q-0.359375 0.359375 -0.5625 0.90625q-0.203125 0.546875 -0.203125 1.265625l0 7.734375l-2.140625 0l0 -7.734375q0 -1.46875 -0.59375 -2.1875q-0.578125 -0.71875 -1.71875 -0.71875q-0.78125 0 -1.46875 0.421875q-0.671875 0.421875 -1.234375 1.15625l0 9.0625l-2.140625 0zm19.704132 4.109375l0 -16.265625l1.28125 0q0.453125 0 0.5625 0.4375l0.1875 1.453125q0.78125 -0.953125 1.78125 -1.53125q1.0 -0.578125 2.3125 -0.578125q1.046875 0 1.890625 0.40625q0.859375 0.40625 1.453125 1.1875q0.59375 0.78125 0.921875 1.953125q0.328125 1.15625 0.328125 2.671875q0 1.34375 -0.359375 2.5q-0.359375 1.15625 -1.03125 2.015625q-0.671875 0.84375 -1.65625 1.328125q-0.96875 0.484375 -2.203125 0.484375q-1.125 0 -1.921875 -0.375q-0.796875 -0.375 -1.40625 -1.0625l0 5.375l-2.140625 0zm5.40625 -14.75q-1.03125 0 -1.828125 0.484375q-0.78125 0.46875 -1.4375 1.34375l0 5.890625q0.578125 0.78125 1.28125 1.109375q0.703125 0.328125 1.578125 0.328125q1.6875 0 2.59375 -1.203125q0.921875 -1.21875 0.921875 -3.46875q0 -1.1875 -0.21875 -2.03125q-0.203125 -0.859375 -0.609375 -1.40625q-0.390625 -0.546875 -0.96875 -0.796875q-0.578125 -0.25 -1.3125 -0.25zm12.763702 -1.703125q1.328125 0 2.40625 0.453125q1.078125 0.4375 1.828125 1.25q0.75 0.8125 1.140625 1.96875q0.40625 1.15625 0.40625 2.59375q0 1.4375 -0.40625 2.59375q-0.390625 1.140625 -1.140625 1.96875q-0.75 0.8125 -1.828125 1.25q-1.078125 0.4375 -2.40625 0.4375q-1.328125 0 -2.40625 -0.4375q-1.078125 -0.4375 -1.828125 -1.25q-0.75 -0.828125 -1.171875 -1.96875q-0.40625 -1.15625 -0.40625 -2.59375q0 -1.4375 0.40625 -2.59375q0.421875 -1.15625 1.171875 -1.96875q0.75 -0.8125 1.828125 -1.25q1.078125 -0.453125 2.40625 -0.453125zm0 10.84375q1.796875 0 2.6875 -1.203125q0.890625 -1.203125 0.890625 -3.375q0 -2.171875 -0.890625 -3.375q-0.890625 -1.21875 -2.6875 -1.21875q-0.90625 0 -1.578125 0.3125q-0.671875 0.3125 -1.125 0.90625q-0.453125 0.578125 -0.671875 1.4375q-0.21875 0.859375 -0.21875 1.9375q0 1.09375 0.21875 1.953125q0.21875 0.84375 0.671875 1.421875q0.453125 0.578125 1.125 0.890625q0.671875 0.3125 1.578125 0.3125zm8.422241 1.5l0 -12.15625l1.28125 0q0.453125 0 0.5625 0.4375l0.171875 1.328125q0.796875 -0.875 1.765625 -1.40625q0.984375 -0.546875 2.265625 -0.546875q1.0 0 1.75 0.328125q0.765625 0.328125 1.28125 0.9375q0.515625 0.609375 0.78125 1.46875q0.265625 0.84375 0.265625 1.875l0 7.734375l-2.140625 0l0 -7.734375q0 -1.390625 -0.640625 -2.140625q-0.625 -0.765625 -1.921875 -0.765625q-0.9375 0 -1.765625 0.453125q-0.828125 0.453125 -1.515625 1.234375l0 8.953125l-2.140625 0zm18.156586 -12.34375q1.09375 0 2.015625 0.375q0.921875 0.359375 1.59375 1.046875q0.671875 0.6875 1.046875 1.703125q0.390625 1.015625 0.390625 2.3125q0 0.5 -0.109375 0.671875q-0.109375 0.15625 -0.40625 0.15625l-8.09375 0q0.03125 1.15625 0.3125 2.015625q0.28125 0.84375 0.78125 1.421875q0.515625 0.5625 1.203125 0.84375q0.703125 0.28125 1.5625 0.28125q0.8125 0 1.390625 -0.1875q0.578125 -0.1875 1.0 -0.390625q0.421875 -0.21875 0.703125 -0.40625q0.28125 -0.1875 0.484375 -0.1875q0.265625 0 0.40625 0.203125l0.609375 0.78125q-0.40625 0.484375 -0.953125 0.84375q-0.546875 0.34375 -1.1875 0.578125q-0.625 0.21875 -1.296875 0.328125q-0.671875 0.125 -1.328125 0.125q-1.265625 0 -2.328125 -0.421875q-1.0625 -0.4375 -1.84375 -1.25q-0.765625 -0.828125 -1.203125 -2.03125q-0.421875 -1.21875 -0.421875 -2.796875q0 -1.265625 0.390625 -2.359375q0.390625 -1.109375 1.109375 -1.921875q0.734375 -0.8125 1.796875 -1.265625q1.0625 -0.46875 2.375 -0.46875zm0.046875 1.5625q-1.546875 0 -2.4375 0.90625q-0.890625 0.890625 -1.09375 2.46875l6.609375 0q0 -0.734375 -0.203125 -1.359375q-0.203125 -0.625 -0.609375 -1.0625q-0.390625 -0.453125 -0.96875 -0.703125q-0.5625 -0.25 -1.296875 -0.25zm7.716736 10.78125l0 -12.15625l1.28125 0q0.453125 0 0.5625 0.4375l0.171875 1.328125q0.796875 -0.875 1.765625 -1.40625q0.984375 -0.546875 2.265625 -0.546875q1.0 0 1.75 0.328125q0.765625 0.328125 1.28125 0.9375q0.515625 0.609375 0.78125 1.46875q0.265625 0.84375 0.265625 1.875l0 7.734375l-2.140625 0l0 -7.734375q0 -1.390625 -0.640625 -2.140625q-0.625 -0.765625 -1.921875 -0.765625q-0.9375 0 -1.765625 0.453125q-0.828125 0.453125 -1.515625 1.234375l0 8.953125l-2.140625 0zm17.031616 0.1875q-1.4375 0 -2.21875 -0.796875q-0.765625 -0.8125 -0.765625 -2.3125l0 -7.453125l-1.46875 0q-0.1875 0 -0.328125 -0.109375q-0.125 -0.109375 -0.125 -0.359375l0 -0.84375l1.984375 -0.25l0.5 -3.765625q0.015625 -0.171875 0.140625 -0.28125q0.140625 -0.125 0.34375 -0.125l1.078125 0l0 4.1875l3.484375 0l0 1.546875l-3.484375 0l0 7.296875q0 0.78125 0.375 1.15625q0.375 0.359375 0.96875 0.359375q0.328125 0 0.578125 -0.078125q0.25 -0.09375 0.421875 -0.203125q0.1875 -0.109375 0.3125 -0.203125q0.125 -0.09375 0.21875 -0.09375q0.171875 0 0.296875 0.203125l0.625 1.03125q-0.546875 0.515625 -1.328125 0.8125q-0.78125 0.28125 -1.609375 0.28125z" fill-rule="nonzero"/><path fill="#b6d7a8" d="m35.995987 221.23994l0 0c0 -6.114273 4.9565926 -11.070877 11.070866 -11.070877l149.48032 0c2.9361725 0 5.7520905 1.1663971 7.828293 3.2425842c2.0761871 2.0762024 3.242569 4.8921204 3.242569 7.828293l0 44.283463c0 6.114258 -4.9565887 11.070862 -11.070862 11.070862l-149.48032 0l0 0c-6.114273 0 -11.070866 -4.956604 -11.070866 -11.070862z" fill-rule="evenodd"/><path stroke="#000000" stroke-width="3.0" stroke-linejoin="round" stroke-linecap="butt" d="m35.995987 221.23994l0 0c0 -6.114273 4.9565926 -11.070877 11.070866 -11.070877l149.48032 0c2.9361725 0 5.7520905 1.1663971 7.828293 3.2425842c2.0761871 2.0762024 3.242569 4.8921204 3.242569 7.828293l0 44.283463c0 6.114258 -4.9565887 11.070862 -11.070862 11.070862l-149.48032 0l0 0c-6.114273 0 -11.070866 -4.956604 -11.070866 -11.070862z" fill-rule="evenodd"/><path fill="#000000" d="m115.14577 231.20293q0.171875 0.296875 0.296875 0.609375q0.125 0.3125 0.25 0.640625q0.109375 -0.328125 0.234375 -0.640625q0.140625 -0.3125 0.3125 -0.625l5.8125 -10.5625q0.15625 -0.28125 0.328125 -0.34375q0.171875 -0.0625 0.484375 -0.0625l1.71875 0l0 17.203125l-2.046875 0l0 -12.640625q0 -0.25 0.015625 -0.53125q0.015625 -0.296875 0.03125 -0.59375l-5.890625 10.75q-0.296875 0.546875 -0.84375 0.546875l-0.328125 0q-0.546875 0 -0.84375 -0.546875l-6.015625 -10.78125q0.03125 0.3125 0.046875 0.609375q0.015625 0.296875 0.015625 0.546875l0 12.640625l-2.03125 0l0 -17.203125l1.703125 0q0.3125 0 0.484375 0.0625q0.171875 0.0625 0.328125 0.34375l5.9375 10.578125l0 0zm15.955154 4.265625l7.4375 0l0 1.953125l-9.765625 0l0 -17.203125l2.328125 0l0 15.25z" fill-rule="nonzero"/><path fill="#000000" d="m73.861694 262.8748q0.203125 0 0.359375 0.15625l0.90625 0.984375q-1.0625 1.234375 -2.5625 1.921875q-1.5 0.671875 -3.625 0.671875q-1.859375 0 -3.375 -0.640625q-1.515625 -0.640625 -2.59375 -1.796875q-1.0625 -1.15625 -1.65625 -2.765625q-0.578125 -1.625 -0.578125 -3.578125q0 -1.9374847 0.625 -3.5624847q0.640625 -1.625 1.78125 -2.78125q1.140625 -1.171875 2.71875 -1.8125q1.59375 -0.640625 3.515625 -0.640625q1.890625 0 3.265625 0.59375q1.375 0.578125 2.453125 1.59375l-0.765625 1.0625q-0.078125 0.125 -0.1875 0.203125q-0.109375 0.078125 -0.3125 0.078125q-0.15625 0 -0.328125 -0.109375q-0.171875 -0.125 -0.421875 -0.28125q-0.234375 -0.171875 -0.5625 -0.359375q-0.3125 -0.203125 -0.765625 -0.359375q-0.4375 -0.171875 -1.03125 -0.28125q-0.59375 -0.125 -1.359375 -0.125q-1.375 0 -2.53125 0.484375q-1.140625 0.46875 -1.96875 1.34375q-0.828125 0.875 -1.296875 2.140625q-0.453125 1.2499847 -0.453125 2.8124847q0 1.609375 0.453125 2.875q0.46875 1.25 1.265625 2.125q0.796875 0.875 1.890625 1.328125q1.09375 0.453125 2.359375 0.453125q0.765625 0 1.375 -0.078125q0.609375 -0.09375 1.125 -0.28125q0.53125 -0.203125 0.984375 -0.5q0.453125 -0.296875 0.90625 -0.703125q0.203125 -0.171875 0.390625 -0.171875zm8.908859 -8.79686q1.328125 0 2.40625 0.453125q1.078125 0.4375 1.828125 1.25q0.75 0.81248474 1.140625 1.9687347q0.40625 1.15625 0.40625 2.59375q0 1.4375 -0.40625 2.59375q-0.390625 1.140625 -1.140625 1.96875q-0.75 0.8125 -1.828125 1.25q-1.078125 0.4375 -2.40625 0.4375q-1.328125 0 -2.40625 -0.4375q-1.078125 -0.4375 -1.828125 -1.25q-0.75 -0.828125 -1.171875 -1.96875q-0.40625 -1.15625 -0.40625 -2.59375q0 -1.4375 0.40625 -2.59375q0.421875 -1.15625 1.171875 -1.9687347q0.75 -0.8125 1.828125 -1.25q1.078125 -0.453125 2.40625 -0.453125zm0 10.843735q1.796875 0 2.6875 -1.203125q0.890625 -1.203125 0.890625 -3.375q0 -2.171875 -0.890625 -3.375q-0.890625 -1.2187347 -2.6875 -1.2187347q-0.90625 0 -1.578125 0.31248474q-0.671875 0.3125 -1.125 0.90625q-0.453125 0.578125 -0.671875 1.4375q-0.21875 0.859375 -0.21875 1.9375q0 1.09375 0.21875 1.953125q0.21875 0.84375 0.671875 1.421875q0.453125 0.578125 1.125 0.890625q0.671875 0.3125 1.578125 0.3125zm8.422226 1.5l0 -12.156235l1.28125 0q0.453125 0 0.5625 0.4375l0.15625 1.25q0.671875 -0.828125 1.5 -1.34375q0.84375 -0.53125 1.953125 -0.53125q1.234375 0 1.984375 0.6875q0.765625 0.671875 1.109375 1.8437347q0.25 -0.65623474 0.65625 -1.1406097q0.421875 -0.484375 0.9375 -0.796875q0.515625 -0.3125 1.09375 -0.453125q0.59375 -0.140625 1.1875 -0.140625q0.953125 0 1.703125 0.3125q0.75 0.296875 1.265625 0.890625q0.53125 0.578125 0.8125 1.4374847q0.28125 0.859375 0.28125 1.96875l0 7.734375l-2.140625 0l0 -7.734375q0 -1.4375 -0.625 -2.171875q-0.625 -0.73435974 -1.8125 -0.73435974q-0.53125 0 -1.0 0.1875q-0.46875 0.18748474 -0.84375 0.54685974q-0.359375 0.359375 -0.5625 0.90625q-0.203125 0.546875 -0.203125 1.265625l0 7.734375l-2.140625 0l0 -7.734375q0 -1.46875 -0.59375 -2.1875q-0.578125 -0.71873474 -1.71875 -0.71873474q-0.78125 0 -1.46875 0.42185974q-0.671875 0.421875 -1.234375 1.15625l0 9.0625l-2.140625 0zm19.704132 4.109375l0 -16.26561l1.28125 0q0.453125 0 0.5625 0.4375l0.1875 1.4531097q0.78125 -0.95310974 1.78125 -1.5312347q1.0 -0.578125 2.3125 -0.578125q1.046875 0 1.890625 0.40625q0.859375 0.40625 1.453125 1.1875q0.59375 0.78123474 0.921875 1.9531097q0.328125 1.15625 0.328125 2.671875q0 1.34375 -0.359375 2.5q-0.359375 1.15625 -1.03125 2.015625q-0.671875 0.84375 -1.65625 1.328125q-0.96875 0.484375 -2.203125 0.484375q-1.125 0 -1.921875 -0.375q-0.796875 -0.375 -1.40625 -1.0625l0 5.375l-2.140625 0zm5.40625 -14.749985q-1.03125 0 -1.828125 0.48435974q-0.78125 0.46875 -1.4375 1.34375l0 5.890625q0.578125 0.78125 1.28125 1.109375q0.703125 0.328125 1.578125 0.328125q1.6875 0 2.59375 -1.203125q0.921875 -1.21875 0.921875 -3.46875q0 -1.1875 -0.21875 -2.03125q-0.203125 -0.859375 -0.609375 -1.40625q-0.390625 -0.546875 -0.96875 -0.796875q-0.578125 -0.24998474 -1.3125 -0.24998474zm12.763718 -1.703125q1.328125 0 2.40625 0.453125q1.078125 0.4375 1.828125 1.25q0.75 0.81248474 1.140625 1.9687347q0.40625 1.15625 0.40625 2.59375q0 1.4375 -0.40625 2.59375q-0.390625 1.140625 -1.140625 1.96875q-0.75 0.8125 -1.828125 1.25q-1.078125 0.4375 -2.40625 0.4375q-1.328125 0 -2.40625 -0.4375q-1.078125 -0.4375 -1.828125 -1.25q-0.75 -0.828125 -1.171875 -1.96875q-0.40625 -1.15625 -0.40625 -2.59375q0 -1.4375 0.40625 -2.59375q0.421875 -1.15625 1.171875 -1.9687347q0.75 -0.8125 1.828125 -1.25q1.078125 -0.453125 2.40625 -0.453125zm0 10.843735q1.796875 0 2.6875 -1.203125q0.890625 -1.203125 0.890625 -3.375q0 -2.171875 -0.890625 -3.375q-0.890625 -1.2187347 -2.6875 -1.2187347q-0.90625 0 -1.578125 0.31248474q-0.671875 0.3125 -1.125 0.90625q-0.453125 0.578125 -0.671875 1.4375q-0.21875 0.859375 -0.21875 1.9375q0 1.09375 0.21875 1.953125q0.21875 0.84375 0.671875 1.421875q0.453125 0.578125 1.125 0.890625q0.671875 0.3125 1.578125 0.3125zm8.422226 1.5l0 -12.156235l1.28125 0q0.453125 0 0.5625 0.4375l0.171875 1.3281097q0.796875 -0.87498474 1.765625 -1.4062347q0.984375 -0.546875 2.265625 -0.546875q1.0 0 1.75 0.328125q0.765625 0.328125 1.28125 0.9375q0.515625 0.609375 0.78125 1.4687347q0.265625 0.84375 0.265625 1.875l0 7.734375l-2.140625 0l0 -7.734375q0 -1.390625 -0.640625 -2.140625q-0.625 -0.76560974 -1.921875 -0.76560974q-0.9375 0 -1.765625 0.45310974q-0.828125 0.453125 -1.515625 1.234375l0 8.953125l-2.140625 0zm18.1566 -12.343735q1.09375 0 2.015625 0.375q0.921875 0.359375 1.59375 1.046875q0.671875 0.68748474 1.046875 1.7031097q0.390625 1.015625 0.390625 2.3125q0 0.5 -0.109375 0.671875q-0.109375 0.15625 -0.40625 0.15625l-8.09375 0q0.03125 1.15625 0.3125 2.015625q0.28125 0.84375 0.78125 1.421875q0.515625 0.5625 1.203125 0.84375q0.703125 0.28125 1.5625 0.28125q0.8125 0 1.390625 -0.1875q0.578125 -0.1875 1.0 -0.390625q0.421875 -0.21875 0.703125 -0.40625q0.28125 -0.1875 0.484375 -0.1875q0.265625 0 0.40625 0.203125l0.609375 0.78125q-0.40625 0.484375 -0.953125 0.84375q-0.546875 0.34375 -1.1875 0.578125q-0.625 0.21875 -1.296875 0.328125q-0.671875 0.125 -1.328125 0.125q-1.265625 0 -2.328125 -0.421875q-1.0625 -0.4375 -1.84375 -1.25q-0.765625 -0.828125 -1.203125 -2.03125q-0.421875 -1.21875 -0.421875 -2.796875q0 -1.265625 0.390625 -2.359375q0.390625 -1.109375 1.109375 -1.9218597q0.734375 -0.8125 1.796875 -1.265625q1.0625 -0.46875 2.375 -0.46875zm0.046875 1.5625q-1.546875 0 -2.4375 0.90623474q-0.890625 0.890625 -1.09375 2.46875l6.609375 0q0 -0.734375 -0.203125 -1.359375q-0.203125 -0.625 -0.609375 -1.0625q-0.390625 -0.453125 -0.96875 -0.70310974q-0.5625 -0.25 -1.296875 -0.25zm7.7167206 10.781235l0 -12.156235l1.28125 0q0.453125 0 0.5625 0.4375l0.171875 1.3281097q0.796875 -0.87498474 1.765625 -1.4062347q0.984375 -0.546875 2.265625 -0.546875q1.0 0 1.75 0.328125q0.765625 0.328125 1.28125 0.9375q0.515625 0.609375 0.78125 1.4687347q0.265625 0.84375 0.265625 1.875l0 7.734375l-2.140625 0l0 -7.734375q0 -1.390625 -0.640625 -2.140625q-0.625 -0.76560974 -1.921875 -0.76560974q-0.9375 0 -1.765625 0.45310974q-0.828125 0.453125 -1.515625 1.234375l0 8.953125l-2.140625 0zm17.031586 0.1875q-1.4375 0 -2.21875 -0.796875q-0.765625 -0.8125 -0.765625 -2.3125l0 -7.453125l-1.46875 0q-0.1875 0 -0.328125 -0.10935974q-0.125 -0.109375 -0.125 -0.359375l0 -0.84375l1.984375 -0.25l0.5 -3.765625q0.015625 -0.171875 0.140625 -0.28125q0.140625 -0.125 0.34375 -0.125l1.078125 0l0 4.1875l3.484375 0l0 1.5468597l-3.484375 0l0 7.296875q0 0.78125 0.375 1.15625q0.375 0.359375 0.96875 0.359375q0.328125 0 0.578125 -0.078125q0.25 -0.09375 0.421875 -0.203125q0.1875 -0.109375 0.3125 -0.203125q0.125 -0.09375 0.21875 -0.09375q0.171875 0 0.296875 0.203125l0.625 1.03125q-0.546875 0.515625 -1.328125 0.8125q-0.78125 0.28125 -1.609375 0.28125z" fill-rule="nonzero"/><path fill="#b6d7a8" d="m286.68076 238.65976l0 0c0 -6.114273 4.956604 -11.070862 11.070862 -11.070862l149.48032 0c2.9361877 0 5.7521057 1.1663818 7.8282776 3.242569c2.0762024 2.0762024 3.2425842 4.8921204 3.2425842 7.828293l0 44.283478c0 6.114258 -4.9565735 11.070862 -11.070862 11.070862l-149.48032 0l0 0c-6.114258 0 -11.070862 -4.956604 -11.070862 -11.070862z" fill-rule="evenodd"/><path stroke="#000000" stroke-width="3.0" stroke-linejoin="round" stroke-linecap="butt" d="m286.68076 238.65976l0 0c0 -6.114273 4.956604 -11.070862 11.070862 -11.070862l149.48032 0c2.9361877 0 5.7521057 1.1663818 7.8282776 3.242569c2.0762024 2.0762024 3.2425842 4.8921204 3.2425842 7.828293l0 44.283478c0 6.114258 -4.9565735 11.070862 -11.070862 11.070862l-149.48032 0l0 0c-6.114258 0 -11.070862 -4.956604 -11.070862 -11.070862z" fill-rule="evenodd"/><path fill="#000000" d="m365.83054 248.62274q0.171875 0.296875 0.296875 0.609375q0.125 0.3125 0.25 0.640625q0.109375 -0.328125 0.234375 -0.640625q0.140625 -0.3125 0.3125 -0.625l5.8125 -10.5625q0.15625 -0.28125 0.328125 -0.34375q0.171875 -0.0625 0.484375 -0.0625l1.71875 0l0 17.203125l-2.046875 0l0 -12.640625q0 -0.25 0.015625 -0.53125q0.015625 -0.296875 0.03125 -0.59375l-5.890625 10.75q-0.296875 0.546875 -0.84375 0.546875l-0.328125 0q-0.546875 0 -0.84375 -0.546875l-6.015625 -10.78125q0.03125 0.3125 0.046875 0.609375q0.015625 0.296875 0.015625 0.546875l0 12.640625l-2.03125 0l0 -17.203125l1.703125 0q0.3125 0 0.484375 0.0625q0.171875 0.0625 0.328125 0.34375l5.9375 10.578125l0 0zm15.95517 4.265625l7.4375 0l0 1.953125l-9.765625 0l0 -17.203125l2.328125 0l0 15.25z" fill-rule="nonzero"/><path fill="#000000" d="m324.54648 280.29462q0.203125 0 0.359375 0.15625l0.90625 0.984375q-1.0625 1.234375 -2.5625 1.921875q-1.5 0.671875 -3.625 0.671875q-1.859375 0 -3.375 -0.640625q-1.515625 -0.640625 -2.59375 -1.796875q-1.0625 -1.15625 -1.65625 -2.765625q-0.578125 -1.625 -0.578125 -3.578125q0 -1.9375 0.625 -3.5625q0.640625 -1.625 1.78125 -2.78125q1.140625 -1.171875 2.71875 -1.8125q1.59375 -0.640625 3.515625 -0.640625q1.890625 0 3.265625 0.59375q1.375 0.578125 2.453125 1.59375l-0.765625 1.0625q-0.078125 0.125 -0.1875 0.203125q-0.109375 0.078125 -0.3125 0.078125q-0.15625 0 -0.328125 -0.109375q-0.171875 -0.125 -0.421875 -0.28125q-0.234375 -0.171875 -0.5625 -0.359375q-0.3125 -0.203125 -0.765625 -0.359375q-0.4375 -0.171875 -1.03125 -0.28125q-0.59375 -0.125 -1.359375 -0.125q-1.375 0 -2.53125 0.484375q-1.140625 0.46875 -1.96875 1.34375q-0.828125 0.875 -1.296875 2.140625q-0.453125 1.25 -0.453125 2.8125q0 1.609375 0.453125 2.875q0.46875 1.25 1.265625 2.125q0.796875 0.875 1.890625 1.328125q1.09375 0.453125 2.359375 0.453125q0.765625 0 1.375 -0.078125q0.609375 -0.09375 1.125 -0.28125q0.53125 -0.203125 0.984375 -0.5q0.453125 -0.296875 0.90625 -0.703125q0.203125 -0.171875 0.390625 -0.171875zm8.908844 -8.796875q1.328125 0 2.40625 0.453125q1.078125 0.4375 1.828125 1.25q0.75 0.8125 1.140625 1.96875q0.40625 1.15625 0.40625 2.59375q0 1.4375 -0.40625 2.59375q-0.390625 1.140625 -1.140625 1.96875q-0.75 0.8125 -1.828125 1.25q-1.078125 0.4375 -2.40625 0.4375q-1.328125 0 -2.40625 -0.4375q-1.078125 -0.4375 -1.828125 -1.25q-0.75 -0.828125 -1.171875 -1.96875q-0.40625 -1.15625 -0.40625 -2.59375q0 -1.4375 0.40625 -2.59375q0.421875 -1.15625 1.171875 -1.96875q0.75 -0.8125 1.828125 -1.25q1.078125 -0.453125 2.40625 -0.453125zm0 10.84375q1.796875 0 2.6875 -1.203125q0.890625 -1.203125 0.890625 -3.375q0 -2.171875 -0.890625 -3.375q-0.890625 -1.21875 -2.6875 -1.21875q-0.90625 0 -1.578125 0.3125q-0.671875 0.3125 -1.125 0.90625q-0.453125 0.578125 -0.671875 1.4375q-0.21875 0.859375 -0.21875 1.9375q0 1.09375 0.21875 1.953125q0.21875 0.84375 0.671875 1.421875q0.453125 0.578125 1.125 0.890625q0.671875 0.3125 1.578125 0.3125zm8.422241 1.5l0 -12.15625l1.28125 0q0.453125 0 0.5625 0.4375l0.15625 1.25q0.671875 -0.828125 1.5 -1.34375q0.84375 -0.53125 1.953125 -0.53125q1.234375 0 1.984375 0.6875q0.765625 0.671875 1.109375 1.84375q0.25 -0.65625 0.65625 -1.140625q0.421875 -0.484375 0.9375 -0.796875q0.515625 -0.3125 1.09375 -0.453125q0.59375 -0.140625 1.1875 -0.140625q0.953125 0 1.703125 0.3125q0.75 0.296875 1.265625 0.890625q0.53125 0.578125 0.8125 1.4375q0.28125 0.859375 0.28125 1.96875l0 7.734375l-2.140625 0l0 -7.734375q0 -1.4375 -0.625 -2.171875q-0.625 -0.734375 -1.8125 -0.734375q-0.53125 0 -1.0 0.1875q-0.46875 0.1875 -0.84375 0.546875q-0.359375 0.359375 -0.5625 0.90625q-0.203125 0.546875 -0.203125 1.265625l0 7.734375l-2.140625 0l0 -7.734375q0 -1.46875 -0.59375 -2.1875q-0.578125 -0.71875 -1.71875 -0.71875q-0.78125 0 -1.46875 0.421875q-0.671875 0.421875 -1.234375 1.15625l0 9.0625l-2.140625 0zm19.704132 4.109375l0 -16.265625l1.28125 0q0.453125 0 0.5625 0.4375l0.1875 1.453125q0.78125 -0.953125 1.78125 -1.53125q1.0 -0.578125 2.3125 -0.578125q1.046875 0 1.890625 0.40625q0.859375 0.40625 1.453125 1.1875q0.59375 0.78125 0.921875 1.953125q0.328125 1.15625 0.328125 2.671875q0 1.34375 -0.359375 2.5q-0.359375 1.15625 -1.03125 2.015625q-0.671875 0.84375 -1.65625 1.328125q-0.96875 0.484375 -2.203125 0.484375q-1.125 0 -1.921875 -0.375q-0.796875 -0.375 -1.40625 -1.0625l0 5.375l-2.140625 0zm5.40625 -14.75q-1.03125 0 -1.828125 0.484375q-0.78125 0.46875 -1.4375 1.34375l0 5.890625q0.578125 0.78125 1.28125 1.109375q0.703125 0.328125 1.578125 0.328125q1.6875 0 2.59375 -1.203125q0.921875 -1.21875 0.921875 -3.46875q0 -1.1875 -0.21875 -2.03125q-0.203125 -0.859375 -0.609375 -1.40625q-0.390625 -0.546875 -0.96875 -0.796875q-0.578125 -0.25 -1.3125 -0.25zm12.763702 -1.703125q1.328125 0 2.40625 0.453125q1.078125 0.4375 1.828125 1.25q0.75 0.8125 1.140625 1.96875q0.40625 1.15625 0.40625 2.59375q0 1.4375 -0.40625 2.59375q-0.390625 1.140625 -1.140625 1.96875q-0.75 0.8125 -1.828125 1.25q-1.078125 0.4375 -2.40625 0.4375q-1.328125 0 -2.40625 -0.4375q-1.078125 -0.4375 -1.828125 -1.25q-0.75 -0.828125 -1.171875 -1.96875q-0.40625 -1.15625 -0.40625 -2.59375q0 -1.4375 0.40625 -2.59375q0.421875 -1.15625 1.171875 -1.96875q0.75 -0.8125 1.828125 -1.25q1.078125 -0.453125 2.40625 -0.453125zm0 10.84375q1.796875 0 2.6875 -1.203125q0.890625 -1.203125 0.890625 -3.375q0 -2.171875 -0.890625 -3.375q-0.890625 -1.21875 -2.6875 -1.21875q-0.90625 0 -1.578125 0.3125q-0.671875 0.3125 -1.125 0.90625q-0.453125 0.578125 -0.671875 1.4375q-0.21875 0.859375 -0.21875 1.9375q0 1.09375 0.21875 1.953125q0.21875 0.84375 0.671875 1.421875q0.453125 0.578125 1.125 0.890625q0.671875 0.3125 1.578125 0.3125zm8.422241 1.5l0 -12.15625l1.28125 0q0.453125 0 0.5625 0.4375l0.171875 1.328125q0.796875 -0.875 1.765625 -1.40625q0.984375 -0.546875 2.265625 -0.546875q1.0 0 1.75 0.328125q0.765625 0.328125 1.28125 0.9375q0.515625 0.609375 0.78125 1.46875q0.265625 0.84375 0.265625 1.875l0 7.734375l-2.140625 0l0 -7.734375q0 -1.390625 -0.640625 -2.140625q-0.625 -0.765625 -1.921875 -0.765625q-0.9375 0 -1.765625 0.453125q-0.828125 0.453125 -1.515625 1.234375l0 8.953125l-2.140625 0zm18.156586 -12.34375q1.09375 0 2.015625 0.375q0.921875 0.359375 1.59375 1.046875q0.671875 0.6875 1.046875 1.703125q0.390625 1.015625 0.390625 2.3125q0 0.5 -0.109375 0.671875q-0.109375 0.15625 -0.40625 0.15625l-8.09375 0q0.03125 1.15625 0.3125 2.015625q0.28125 0.84375 0.78125 1.421875q0.515625 0.5625 1.203125 0.84375q0.703125 0.28125 1.5625 0.28125q0.8125 0 1.390625 -0.1875q0.578125 -0.1875 1.0 -0.390625q0.421875 -0.21875 0.703125 -0.40625q0.28125 -0.1875 0.484375 -0.1875q0.265625 0 0.40625 0.203125l0.609375 0.78125q-0.40625 0.484375 -0.953125 0.84375q-0.546875 0.34375 -1.1875 0.578125q-0.625 0.21875 -1.296875 0.328125q-0.671875 0.125 -1.328125 0.125q-1.265625 0 -2.328125 -0.421875q-1.0625 -0.4375 -1.84375 -1.25q-0.765625 -0.828125 -1.203125 -2.03125q-0.421875 -1.21875 -0.421875 -2.796875q0 -1.265625 0.390625 -2.359375q0.390625 -1.109375 1.109375 -1.921875q0.734375 -0.8125 1.796875 -1.265625q1.0625 -0.46875 2.375 -0.46875zm0.046875 1.5625q-1.546875 0 -2.4375 0.90625q-0.890625 0.890625 -1.09375 2.46875l6.609375 0q0 -0.734375 -0.203125 -1.359375q-0.203125 -0.625 -0.609375 -1.0625q-0.390625 -0.453125 -0.96875 -0.703125q-0.5625 -0.25 -1.296875 -0.25zm7.716736 10.78125l0 -12.15625l1.28125 0q0.453125 0 0.5625 0.4375l0.171875 1.328125q0.796875 -0.875 1.765625 -1.40625q0.984375 -0.546875 2.265625 -0.546875q1.0 0 1.75 0.328125q0.765625 0.328125 1.28125 0.9375q0.515625 0.609375 0.78125 1.46875q0.265625 0.84375 0.265625 1.875l0 7.734375l-2.140625 0l0 -7.734375q0 -1.390625 -0.640625 -2.140625q-0.625 -0.765625 -1.921875 -0.765625q-0.9375 0 -1.765625 0.453125q-0.828125 0.453125 -1.515625 1.234375l0 8.953125l-2.140625 0zm17.031586 0.1875q-1.4375 0 -2.21875 -0.796875q-0.765625 -0.8125 -0.765625 -2.3125l0 -7.453125l-1.46875 0q-0.1875 0 -0.328125 -0.109375q-0.125 -0.109375 -0.125 -0.359375l0 -0.84375l1.984375 -0.25l0.5 -3.765625q0.015625 -0.171875 0.140625 -0.28125q0.140625 -0.125 0.34375 -0.125l1.078125 0l0 4.1875l3.484375 0l0 1.546875l-3.484375 0l0 7.296875q0 0.78125 0.375 1.15625q0.375 0.359375 0.96875 0.359375q0.328125 0 0.578125 -0.078125q0.25 -0.09375 0.421875 -0.203125q0.1875 -0.109375 0.3125 -0.203125q0.125 -0.09375 0.21875 -0.09375q0.171875 0 0.296875 0.203125l0.625 1.03125q-0.546875 0.515625 -1.328125 0.8125q-0.78125 0.28125 -1.609375 0.28125z" fill-rule="nonzero"/><path fill="#000000" fill-opacity="0.0" d="m594.62445 52.92651l72.50391 0" fill-rule="evenodd"/><path stroke="#000000" stroke-width="3.0" stroke-linejoin="round" stroke-linecap="butt" d="m612.62445 52.92651l36.503906 0" fill-rule="evenodd"/><path fill="#000000" stroke="#000000" stroke-width="3.0" stroke-linecap="butt" d="m612.62445 47.971313l-13.614319 4.9551964l13.614319 4.9551964z" fill-rule="evenodd"/><path fill="#000000" stroke="#000000" stroke-width="3.0" stroke-linecap="butt" d="m649.12836 57.881706l13.614319 -4.9551964l-13.614319 -4.9551964z" fill-rule="evenodd"/><path fill="#000000" fill-opacity="0.0" d="m594.62445 86.8024l72.50391 0" fill-rule="evenodd"/><path stroke="#000000" stroke-width="3.0" stroke-linejoin="round" stroke-linecap="butt" d="m612.62445 86.8024l36.503906 0" fill-rule="evenodd"/><path fill="#000000" stroke="#000000" stroke-width="3.0" stroke-linecap="butt" d="m612.62445 81.847206l-13.614319 4.9551926l13.614319 4.9552z" fill-rule="evenodd"/><path fill="#000000" stroke="#000000" stroke-width="3.0" stroke-linecap="butt" d="m649.12836 91.7576l13.614319 -4.9552l-13.614319 -4.9551926z" fill-rule="evenodd"/><path fill="#000000" fill-opacity="0.0" d="m594.62445 120.67829l72.50391 0" fill-rule="evenodd"/><path stroke="#000000" stroke-width="3.0" stroke-linejoin="round" stroke-linecap="butt" d="m612.62445 120.67829l36.503906 0" fill-rule="evenodd"/><path fill="#000000" stroke="#000000" stroke-width="3.0" stroke-linecap="butt" d="m612.62445 115.7231l-13.614319 4.9551926l13.614319 4.9552z" fill-rule="evenodd"/><path fill="#000000" stroke="#000000" stroke-width="3.0" stroke-linecap="butt" d="m649.12836 125.63349l13.614319 -4.9552l-13.614319 -4.9551926z" fill-rule="evenodd"/><path fill="#000000" fill-opacity="0.0" d="m594.62445 154.55418l72.50391 0" fill-rule="evenodd"/><path stroke="#000000" stroke-width="3.0" stroke-linejoin="round" stroke-linecap="butt" d="m612.62445 154.55418l36.503906 0" fill-rule="evenodd"/><path fill="#000000" stroke="#000000" stroke-width="3.0" stroke-linecap="butt" d="m612.62445 149.59898l-13.614319 4.9552l13.614319 4.9552z" fill-rule="evenodd"/><path fill="#000000" stroke="#000000" stroke-width="3.0" stroke-linecap="butt" d="m649.12836 159.50938l13.614319 -4.9552l-13.614319 -4.9552z" fill-rule="evenodd"/><path fill="#000000" fill-opacity="0.0" d="m594.62445 290.05774l72.50391 0" fill-rule="evenodd"/><path stroke="#000000" stroke-width="3.0" stroke-linejoin="round" stroke-linecap="butt" d="m612.62445 290.05774l36.503906 0" fill-rule="evenodd"/><path fill="#000000" stroke="#000000" stroke-width="3.0" stroke-linecap="butt" d="m612.62445 285.10254l-13.614319 4.9552l13.614319 4.9552z" fill-rule="evenodd"/><path fill="#000000" stroke="#000000" stroke-width="3.0" stroke-linecap="butt" d="m649.12836 295.01294l13.614319 -4.9552l-13.614319 -4.9552z" fill-rule="evenodd"/><path fill="#000000" fill-opacity="0.0" d="m594.62445 188.43007l72.50391 0" fill-rule="evenodd"/><path stroke="#000000" stroke-width="3.0" stroke-linejoin="round" stroke-linecap="butt" d="m612.62445 188.43008l36.503906 0" fill-rule="evenodd"/><path fill="#000000" stroke="#000000" stroke-width="3.0" stroke-linecap="butt" d="m612.62445 183.47488l-13.614319 4.9552l13.614319 4.955185z" fill-rule="evenodd"/><path fill="#000000" stroke="#000000" stroke-width="3.0" stroke-linecap="butt" d="m649.12836 193.38527l13.614319 -4.955185l-13.614319 -4.9552z" fill-rule="evenodd"/><path fill="#000000" fill-opacity="0.0" d="m594.62445 222.30597l72.50391 0" fill-rule="evenodd"/><path stroke="#000000" stroke-width="3.0" stroke-linejoin="round" stroke-linecap="butt" d="m612.62445 222.30595l36.503906 0" fill-rule="evenodd"/><path fill="#000000" stroke="#000000" stroke-width="3.0" stroke-linecap="butt" d="m612.62445 217.35077l-13.614319 4.955185l13.614319 4.9552z" fill-rule="evenodd"/><path fill="#000000" stroke="#000000" stroke-width="3.0" stroke-linecap="butt" d="m649.12836 227.26115l13.614319 -4.9552l-13.614319 -4.955185z" fill-rule="evenodd"/><path fill="#000000" fill-opacity="0.0" d="m594.62445 256.18185l72.50391 0" fill-rule="evenodd"/><path stroke="#000000" stroke-width="3.0" stroke-linejoin="round" stroke-linecap="butt" d="m612.62445 256.18185l36.503906 0" fill-rule="evenodd"/><path fill="#000000" stroke="#000000" stroke-width="3.0" stroke-linecap="butt" d="m612.62445 251.22667l-13.614319 4.955185l13.614319 4.9552z" fill-rule="evenodd"/><path fill="#000000" stroke="#000000" stroke-width="3.0" stroke-linecap="butt" d="m649.12836 261.13705l13.614319 -4.9552l-13.614319 -4.955185z" fill-rule="evenodd"/><path fill="#000000" fill-opacity="0.0" d="m121.80701 171.78893l0 38.393707" fill-rule="evenodd"/><path stroke="#000000" stroke-width="1.0" stroke-linejoin="round" stroke-linecap="butt" d="m121.80701 171.78893l0 38.393707" fill-rule="evenodd"/></g></svg>