<?xml version="1.0" encoding="UTF-8" standalone="no"?>
<!DOCTYPE svg PUBLIC "-//W3C//DTD SVG 1.1//EN"
 "http://www.w3.org/Graphics/SVG/1.1/DTD/svg11.dtd">
<!-- Generated by graphviz version 2.38.0 (20140413.2041)
 -->
<!-- Title: G Pages: 1 -->
<svg width="2397pt" height="332pt"
 viewBox="0.00 0.00 2397.42 332.00" xmlns="http://www.w3.org/2000/svg" xmlns:xlink="http://www.w3.org/1999/xlink">
<g id="graph0" class="graph" transform="scale(1 1) rotate(0) translate(4 328)">
<title>G</title>
<polygon fill="white" stroke="none" points="-4,4 -4,-328 2393.42,-328 2393.42,4 -4,4"/>
<!-- Engineering Challenges -->
<g id="node1" class="node"><title>Engineering Challenges</title>
<ellipse fill="none" stroke="#cd9b1d" cx="293.342" cy="-162" rx="94.4839" ry="18"/>
<text text-anchor="middle" x="293.342" y="-158.3" font-family="Times New Roman,serif" font-size="14.00">Engineering Challenges</text>
</g>
<!-- Components of an AI&#45;Enabled System -->
<g id="node2" class="node"><title>Components of an AI&#45;Enabled System</title>
<ellipse fill="none" stroke="#cd9b1d" cx="535.342" cy="-90" rx="151.373" ry="18"/>
<text text-anchor="middle" x="535.342" y="-86.3" font-family="Times New Roman,serif" font-size="14.00">Components of an AI&#45;Enabled System</text>
</g>
<!-- Engineering Challenges&#45;&gt;Components of an AI&#45;Enabled System -->
<g id="edge1" class="edge"><title>Engineering Challenges&#45;&gt;Components of an AI&#45;Enabled System</title>
<path fill="none" stroke="black" d="M342.898,-146.666C379.818,-135.986 430.562,-121.308 470.674,-109.706"/>
<polygon fill="black" stroke="black" points="471.732,-113.043 480.366,-106.902 469.787,-106.319 471.732,-113.043"/>
</g>
<!-- Introduction and Motivation -->
<g id="node3" class="node"><title>Introduction and Motivation</title>
<ellipse fill="none" stroke="#cd9b1d" cx="535.342" cy="-18" rx="112.38" ry="18"/>
<text text-anchor="middle" x="535.342" y="-14.3" font-family="Times New Roman,serif" font-size="14.00">Introduction and Motivation</text>
</g>
<!-- Components of an AI&#45;Enabled System&#45;&gt;Introduction and Motivation -->
<g id="edge2" class="edge"><title>Components of an AI&#45;Enabled System&#45;&gt;Introduction and Motivation</title>
<path fill="none" stroke="black" d="M535.342,-71.6966C535.342,-63.9827 535.342,-54.7125 535.342,-46.1124"/>
<polygon fill="black" stroke="black" points="538.842,-46.1043 535.342,-36.1043 531.842,-46.1044 538.842,-46.1043"/>
</g>
<!-- SE Bootcamp -->
<g id="node4" class="node"><title>SE Bootcamp</title>
<ellipse fill="none" stroke="#cd9b1d" cx="766.342" cy="-90" rx="61.99" ry="18"/>
<text text-anchor="middle" x="766.342" y="-86.3" font-family="Times New Roman,serif" font-size="14.00">SE Bootcamp</text>
</g>
<!-- SE Bootcamp&#45;&gt;Introduction and Motivation -->
<g id="edge3" class="edge"><title>SE Bootcamp&#45;&gt;Introduction and Motivation</title>
<path fill="none" stroke="black" d="M725.044,-76.4854C688.958,-65.5502 636.113,-49.5366 595.357,-37.1865"/>
<polygon fill="black" stroke="black" points="596.124,-33.7618 585.539,-34.2112 594.094,-40.4609 596.124,-33.7618"/>
</g>
<!-- Dealing with Mistakes -->
<g id="node5" class="node"><title>Dealing with Mistakes</title>
<ellipse fill="none" stroke="#458b74" cx="293.342" cy="-234" rx="89.8845" ry="18"/>
<text text-anchor="middle" x="293.342" y="-230.3" font-family="Times New Roman,serif" font-size="14.00">Dealing with Mistakes</text>
</g>
<!-- Dealing with Mistakes&#45;&gt;Engineering Challenges -->
<g id="edge4" class="edge"><title>Dealing with Mistakes&#45;&gt;Engineering Challenges</title>
<path fill="none" stroke="black" d="M293.342,-215.697C293.342,-207.983 293.342,-198.712 293.342,-190.112"/>
<polygon fill="black" stroke="black" points="296.842,-190.104 293.342,-180.104 289.842,-190.104 296.842,-190.104"/>
</g>
<!-- Tradeoffs among AI Techniques -->
<g id="node6" class="node"><title>Tradeoffs among AI Techniques</title>
<ellipse fill="none" stroke="purple" cx="535.342" cy="-162" rx="129.977" ry="18"/>
<text text-anchor="middle" x="535.342" y="-158.3" font-family="Times New Roman,serif" font-size="14.00">Tradeoffs among AI Techniques</text>
</g>
<!-- Tradeoffs among AI Techniques&#45;&gt;Components of an AI&#45;Enabled System -->
<g id="edge5" class="edge"><title>Tradeoffs among AI Techniques&#45;&gt;Components of an AI&#45;Enabled System</title>
<path fill="none" stroke="black" d="M535.342,-143.697C535.342,-135.983 535.342,-126.712 535.342,-118.112"/>
<polygon fill="black" stroke="black" points="538.842,-118.104 535.342,-108.104 531.842,-118.104 538.842,-118.104"/>
</g>
<!-- Software Architecture -->
<g id="node7" class="node"><title>Software Architecture</title>
<ellipse fill="none" stroke="purple" cx="90.342" cy="-162" rx="90.1842" ry="18"/>
<text text-anchor="middle" x="90.342" y="-158.3" font-family="Times New Roman,serif" font-size="14.00">Software Architecture</text>
</g>
<!-- Software Architecture&#45;&gt;Components of an AI&#45;Enabled System -->
<g id="edge6" class="edge"><title>Software Architecture&#45;&gt;Components of an AI&#45;Enabled System</title>
<path fill="none" stroke="black" d="M156.211,-149.649C167.588,-147.732 179.303,-145.786 190.342,-144 272.588,-130.692 366.002,-116.392 434.866,-106.003"/>
<polygon fill="black" stroke="black" points="435.477,-109.451 444.844,-104.499 434.434,-102.529 435.477,-109.451"/>
</g>
<!-- Data Provenance, Reproducability, and Explainability -->
<g id="node8" class="node"><title>Data Provenance, Reproducability, and Explainability</title>
<ellipse fill="none" stroke="purple" cx="2185.34" cy="-234" rx="204.164" ry="18"/>
<text text-anchor="middle" x="2185.34" y="-230.3" font-family="Times New Roman,serif" font-size="14.00">Data Provenance, Reproducability, and Explainability</text>
</g>
<!-- Managing Large Datasets -->
<g id="node9" class="node"><title>Managing Large Datasets</title>
<ellipse fill="none" stroke="purple" cx="2185.34" cy="-162" rx="102.082" ry="18"/>
<text text-anchor="middle" x="2185.34" y="-158.3" font-family="Times New Roman,serif" font-size="14.00">Managing Large Datasets</text>
</g>
<!-- Data Provenance, Reproducability, and Explainability&#45;&gt;Managing Large Datasets -->
<g id="edge7" class="edge"><title>Data Provenance, Reproducability, and Explainability&#45;&gt;Managing Large Datasets</title>
<path fill="none" stroke="black" d="M2179.43,-215.697C2178.63,-207.983 2178.4,-198.712 2178.75,-190.112"/>
<polygon fill="black" stroke="black" points="2182.24,-190.324 2179.45,-180.104 2175.26,-189.836 2182.24,-190.324"/>
</g>
<!-- Data Provenance, Reproducability, and Explainability&#45;&gt;Managing Large Datasets -->
<g id="edge29" class="edge"><title>Data Provenance, Reproducability, and Explainability&#45;&gt;Managing Large Datasets</title>
<path fill="none" stroke="black" d="M2191.26,-215.697C2192.05,-207.983 2192.28,-198.712 2191.94,-190.112"/>
<polygon fill="black" stroke="black" points="2195.43,-189.836 2191.24,-180.104 2188.44,-190.324 2195.43,-189.836"/>
</g>
<!-- Scalability and distributed systems -->
<g id="node10" class="node"><title>Scalability and distributed systems</title>
<ellipse fill="none" stroke="purple" cx="2026.34" cy="-90" rx="135.676" ry="18"/>
<text text-anchor="middle" x="2026.34" y="-86.3" font-family="Times New Roman,serif" font-size="14.00">Scalability and distributed systems</text>
</g>
<!-- Managing Large Datasets&#45;&gt;Scalability and distributed systems -->
<g id="edge8" class="edge"><title>Managing Large Datasets&#45;&gt;Scalability and distributed systems</title>
<path fill="none" stroke="black" d="M2149.26,-145.116C2126.69,-135.181 2097.39,-122.281 2073.06,-111.568"/>
<polygon fill="black" stroke="black" points="2074.22,-108.255 2063.66,-107.429 2071.4,-114.662 2074.22,-108.255"/>
</g>
<!-- Configuration Management and Operations at Scale -->
<g id="node11" class="node"><title>Configuration Management and Operations at Scale</title>
<ellipse fill="none" stroke="purple" cx="1867.34" cy="-162" rx="197.665" ry="18"/>
<text text-anchor="middle" x="1867.34" y="-158.3" font-family="Times New Roman,serif" font-size="14.00">Configuration Management and Operations at Scale</text>
</g>
<!-- Configuration Management and Operations at Scale&#45;&gt;Scalability and distributed systems -->
<g id="edge9" class="edge"><title>Configuration Management and Operations at Scale&#45;&gt;Scalability and distributed systems</title>
<path fill="none" stroke="black" d="M1905.43,-144.233C1927.81,-134.378 1956.28,-121.847 1979.96,-111.419"/>
<polygon fill="black" stroke="black" points="1981.37,-114.621 1989.12,-107.388 1978.55,-108.214 1981.37,-114.621"/>
</g>
<!-- Model Quality -->
<g id="node12" class="node"><title>Model Quality</title>
<ellipse fill="none" stroke="blue" cx="1375.34" cy="-90" rx="62.2891" ry="18"/>
<text text-anchor="middle" x="1375.34" y="-86.3" font-family="Times New Roman,serif" font-size="14.00">Model Quality</text>
</g>
<!-- Data Quality -->
<g id="node13" class="node"><title>Data Quality</title>
<ellipse fill="none" stroke="blue" cx="1557.34" cy="-162" rx="55.7903" ry="18"/>
<text text-anchor="middle" x="1557.34" y="-158.3" font-family="Times New Roman,serif" font-size="14.00">Data Quality</text>
</g>
<!-- Test and Deployment Automation -->
<g id="node14" class="node"><title>Test and Deployment Automation</title>
<ellipse fill="none" stroke="blue" cx="1657.34" cy="-234" rx="133.776" ry="18"/>
<text text-anchor="middle" x="1657.34" y="-230.3" font-family="Times New Roman,serif" font-size="14.00">Test and Deployment Automation</text>
</g>
<!-- Test and Deployment Automation&#45;&gt;Components of an AI&#45;Enabled System -->
<g id="edge10" class="edge"><title>Test and Deployment Automation&#45;&gt;Components of an AI&#45;Enabled System</title>
<path fill="none" stroke="black" d="M1656.03,-215.882C1653.42,-195.026 1645.63,-160.534 1622.34,-144 1580.32,-114.161 746.746,-111.725 695.342,-108 680.601,-106.932 665.118,-105.579 649.83,-104.105"/>
<polygon fill="black" stroke="black" points="650.117,-100.616 639.822,-103.12 649.432,-107.583 650.117,-100.616"/>
</g>
<!-- Test and Deployment Automation&#45;&gt;Data Quality -->
<g id="edge11" class="edge"><title>Test and Deployment Automation&#45;&gt;Data Quality</title>
<path fill="none" stroke="black" d="M1633.39,-216.233C1619.77,-206.699 1602.57,-194.659 1587.97,-184.443"/>
<polygon fill="black" stroke="black" points="1589.93,-181.538 1579.73,-178.671 1585.91,-187.273 1589.93,-181.538"/>
</g>
<!-- Experimentation -->
<g id="node15" class="node"><title>Experimentation</title>
<ellipse fill="none" stroke="blue" cx="1375.34" cy="-162" rx="69.5877" ry="18"/>
<text text-anchor="middle" x="1375.34" y="-158.3" font-family="Times New Roman,serif" font-size="14.00">Experimentation</text>
</g>
<!-- Experimentation&#45;&gt;Model Quality -->
<g id="edge12" class="edge"><title>Experimentation&#45;&gt;Model Quality</title>
<path fill="none" stroke="black" d="M1375.34,-143.697C1375.34,-135.983 1375.34,-126.712 1375.34,-118.112"/>
<polygon fill="black" stroke="black" points="1378.84,-118.104 1375.34,-108.104 1371.84,-118.104 1378.84,-118.104"/>
</g>
<!-- Ethics + Fairness -->
<g id="node16" class="node"><title>Ethics + Fairness</title>
<ellipse fill="none" stroke="blue" cx="1302.34" cy="-234" rx="73.387" ry="18"/>
<text text-anchor="middle" x="1302.34" y="-230.3" font-family="Times New Roman,serif" font-size="14.00">Ethics + Fairness</text>
</g>
<!-- Ethics + Fairness&#45;&gt;Experimentation -->
<g id="edge13" class="edge"><title>Ethics + Fairness&#45;&gt;Experimentation</title>
<path fill="none" stroke="black" d="M1319.64,-216.411C1328.92,-207.519 1340.5,-196.411 1350.7,-186.631"/>
<polygon fill="black" stroke="black" points="1353.37,-188.917 1358.17,-179.47 1348.53,-183.865 1353.37,-188.917"/>
</g>
<!-- Safety -->
<g id="node17" class="node"><title>Safety</title>
<ellipse fill="none" stroke="blue" cx="359.342" cy="-306" rx="33.5952" ry="18"/>
<text text-anchor="middle" x="359.342" y="-302.3" font-family="Times New Roman,serif" font-size="14.00">Safety</text>
</g>
<!-- Safety&#45;&gt;Dealing with Mistakes -->
<g id="edge14" class="edge"><title>Safety&#45;&gt;Dealing with Mistakes</title>
<path fill="none" stroke="black" d="M344.694,-289.465C336.342,-280.606 325.689,-269.308 316.254,-259.301"/>
<polygon fill="black" stroke="black" points="318.741,-256.837 309.335,-251.962 313.648,-261.639 318.741,-256.837"/>
</g>
<!-- Security, Adversarial Learning, and Feedback Loops -->
<g id="node18" class="node"><title>Security, Adversarial Learning, and Feedback Loops</title>
<ellipse fill="none" stroke="blue" cx="1085.34" cy="-162" rx="202.264" ry="18"/>
<text text-anchor="middle" x="1085.34" y="-158.3" font-family="Times New Roman,serif" font-size="14.00">Security, Adversarial Learning, and Feedback Loops</text>
</g>
<!-- Security, Adversarial Learning, and Feedback Loops&#45;&gt;Model Quality -->
<g id="edge15" class="edge"><title>Security, Adversarial Learning, and Feedback Loops&#45;&gt;Model Quality</title>
<path fill="none" stroke="black" d="M1151.87,-144.941C1202.46,-132.731 1271.27,-116.121 1319.12,-104.572"/>
<polygon fill="black" stroke="black" points="1320.1,-107.936 1328.99,-102.187 1318.45,-101.131 1320.1,-107.936"/>
</g>
<!-- Process and Team Reflections -->
<g id="node19" class="node"><title>Process and Team Reflections</title>
<ellipse fill="none" stroke="black" cx="2001.34" cy="-306" rx="122.379" ry="18"/>
<text text-anchor="middle" x="2001.34" y="-302.3" font-family="Times New Roman,serif" font-size="14.00">Process and Team Reflections</text>
</g>
<!-- Startup -->
<g id="node20" class="node"><title>Startup</title>
<ellipse fill="none" stroke="black" cx="2178.34" cy="-306" rx="37.0935" ry="18"/>
<text text-anchor="middle" x="2178.34" y="-302.3" font-family="Times New Roman,serif" font-size="14.00">Startup</text>
</g>
<!-- Usability -->
<g id="node21" class="node"><title>Usability</title>
<ellipse fill="none" stroke="black" cx="2275.34" cy="-306" rx="42.4939" ry="18"/>
<text text-anchor="middle" x="2275.34" y="-302.3" font-family="Times New Roman,serif" font-size="14.00">Usability</text>
</g>
<!-- Symbolic AI -->
<g id="node22" class="node"><title>Symbolic AI</title>
<ellipse fill="none" stroke="black" cx="535.342" cy="-234" rx="57.3905" ry="18"/>
<text text-anchor="middle" x="535.342" y="-230.3" font-family="Times New Roman,serif" font-size="14.00">Symbolic AI</text>
</g>
<!-- Symbolic AI&#45;&gt;Tradeoffs among AI Techniques -->
<g id="edge16" class="edge"><title>Symbolic AI&#45;&gt;Tradeoffs among AI Techniques</title>
<path fill="none" stroke="black" d="M535.342,-215.697C535.342,-207.983 535.342,-198.712 535.342,-190.112"/>
<polygon fill="black" stroke="black" points="538.842,-190.104 535.342,-180.104 531.842,-190.104 538.842,-190.104"/>
</g>
<!-- HW: Case Study -->
<g id="node23" class="node"><title>HW: Case Study</title>
<ellipse fill="#ff7f24" stroke="#ff7f24" cx="293.342" cy="-90" rx="72.2875" ry="18"/>
<text text-anchor="middle" x="293.342" y="-86.3" font-family="Times New Roman,serif" font-size="14.00">HW: Case Study</text>
</g>
<!-- HW: Case Study&#45;&gt;Introduction and Motivation -->
<g id="edge17" class="edge"><title>HW: Case Study&#45;&gt;Introduction and Motivation</title>
<path fill="none" stroke="black" d="M338.576,-75.9157C376.572,-64.9253 431.244,-49.1109 473.321,-36.9399"/>
<polygon fill="black" stroke="black" points="474.549,-40.2282 483.183,-34.0873 472.604,-33.5039 474.549,-40.2282"/>
</g>
<!-- HW: Modeling Basics -->
<g id="node24" class="node"><title>HW: Modeling Basics</title>
<ellipse fill="#ff7f24" stroke="#ff7f24" cx="774.342" cy="-162" rx="90.9839" ry="18"/>
<text text-anchor="middle" x="774.342" y="-158.3" font-family="Times New Roman,serif" font-size="14.00">HW: Modeling Basics</text>
</g>
<!-- HW: Modeling Basics&#45;&gt;Components of an AI&#45;Enabled System -->
<g id="edge18" class="edge"><title>HW: Modeling Basics&#45;&gt;Components of an AI&#45;Enabled System</title>
<path fill="none" stroke="black" d="M725.689,-146.75C689.326,-136.1 639.266,-121.438 599.61,-109.823"/>
<polygon fill="black" stroke="black" points="600.348,-106.392 589.767,-106.94 598.38,-113.11 600.348,-106.392"/>
</g>
<!-- HW: AI Tradeoffs -->
<g id="node25" class="node"><title>HW: AI Tradeoffs</title>
<ellipse fill="#ff7f24" stroke="#ff7f24" cx="731.342" cy="-234" rx="77.9862" ry="18"/>
<text text-anchor="middle" x="731.342" y="-230.3" font-family="Times New Roman,serif" font-size="14.00">HW: AI Tradeoffs</text>
</g>
<!-- HW: AI Tradeoffs&#45;&gt;Tradeoffs among AI Techniques -->
<g id="edge19" class="edge"><title>HW: AI Tradeoffs&#45;&gt;Tradeoffs among AI Techniques</title>
<path fill="none" stroke="black" d="M690.731,-218.496C661.465,-208.044 621.657,-193.827 589.66,-182.399"/>
<polygon fill="black" stroke="black" points="590.596,-179.017 580.001,-178.95 588.242,-185.609 590.596,-179.017"/>
</g>
<!-- HW: AI Tradeoffs&#45;&gt;HW: Modeling Basics -->
<g id="edge20" class="edge"><title>HW: AI Tradeoffs&#45;&gt;HW: Modeling Basics</title>
<path fill="none" stroke="black" d="M741.751,-216.055C746.747,-207.922 752.843,-197.998 758.406,-188.943"/>
<polygon fill="black" stroke="black" points="761.478,-190.628 763.73,-180.275 755.514,-186.964 761.478,-190.628"/>
</g>
<!-- HW: Architecture -->
<g id="node26" class="node"><title>HW: Architecture</title>
<ellipse fill="#ff7f24" stroke="#ff7f24" cx="90.342" cy="-234" rx="74.9875" ry="18"/>
<text text-anchor="middle" x="90.342" y="-230.3" font-family="Times New Roman,serif" font-size="14.00">HW: Architecture</text>
</g>
<!-- HW: Architecture&#45;&gt;Software Architecture -->
<g id="edge21" class="edge"><title>HW: Architecture&#45;&gt;Software Architecture</title>
<path fill="none" stroke="black" d="M90.342,-215.697C90.342,-207.983 90.342,-198.712 90.342,-190.112"/>
<polygon fill="black" stroke="black" points="93.8421,-190.104 90.342,-180.104 86.8421,-190.104 93.8421,-190.104"/>
</g>
<!-- HW: Requirements -->
<g id="node27" class="node"><title>HW: Requirements</title>
<ellipse fill="#ff7f24" stroke="#ff7f24" cx="227.342" cy="-306" rx="79.8859" ry="18"/>
<text text-anchor="middle" x="227.342" y="-302.3" font-family="Times New Roman,serif" font-size="14.00">HW: Requirements</text>
</g>
<!-- HW: Requirements&#45;&gt;Dealing with Mistakes -->
<g id="edge22" class="edge"><title>HW: Requirements&#45;&gt;Dealing with Mistakes</title>
<path fill="none" stroke="black" d="M243.319,-288.055C251.507,-279.371 261.62,-268.644 270.606,-259.114"/>
<polygon fill="black" stroke="black" points="273.199,-261.466 277.512,-251.789 268.106,-256.664 273.199,-261.466"/>
</g>
<!-- HW: Quality -->
<g id="node28" class="node"><title>HW: Quality</title>
<ellipse fill="#ff7f24" stroke="#ff7f24" cx="1449.34" cy="-234" rx="55.7903" ry="18"/>
<text text-anchor="middle" x="1449.34" y="-230.3" font-family="Times New Roman,serif" font-size="14.00">HW: Quality</text>
</g>
<!-- HW: Quality&#45;&gt;Model Quality -->
<g id="edge23" class="edge"><title>HW: Quality&#45;&gt;Model Quality</title>
<path fill="none" stroke="black" d="M1455.34,-215.798C1460.81,-196.991 1466.36,-166.531 1454.34,-144 1446.63,-129.535 1433.02,-118.32 1419.25,-110.008"/>
<polygon fill="black" stroke="black" points="1420.67,-106.793 1410.23,-104.961 1417.25,-112.9 1420.67,-106.793"/>
</g>
<!-- HW: Quality&#45;&gt;Data Quality -->
<g id="edge24" class="edge"><title>HW: Quality&#45;&gt;Data Quality</title>
<path fill="none" stroke="black" d="M1473.04,-217.638C1488.38,-207.699 1508.53,-194.637 1525.29,-183.776"/>
<polygon fill="black" stroke="black" points="1527.21,-186.702 1533.7,-178.326 1523.4,-180.828 1527.21,-186.702"/>
</g>
<!-- HW: Quality&#45;&gt;Experimentation -->
<g id="edge26" class="edge"><title>HW: Quality&#45;&gt;Experimentation</title>
<path fill="none" stroke="black" d="M1432.18,-216.765C1422.7,-207.795 1410.75,-196.49 1400.25,-186.564"/>
<polygon fill="black" stroke="black" points="1402.6,-183.963 1392.93,-179.633 1397.79,-189.048 1402.6,-183.963"/>
</g>
<!-- HW: Quality&#45;&gt;HW: Modeling Basics -->
<g id="edge25" class="edge"><title>HW: Quality&#45;&gt;HW: Modeling Basics</title>
<path fill="none" stroke="black" d="M1409.37,-221.305C1401.15,-219.252 1392.51,-217.345 1384.34,-216 1160.13,-179.094 1099.95,-207.074 874.342,-180 865.985,-178.997 857.262,-177.776 848.602,-176.453"/>
<polygon fill="black" stroke="black" points="848.913,-172.959 838.491,-174.861 847.824,-179.874 848.913,-172.959"/>
</g>
<!-- HW: Test Automation -->
<g id="node29" class="node"><title>HW: Test Automation</title>
<ellipse fill="#ff7f24" stroke="#ff7f24" cx="1770.34" cy="-306" rx="90.9839" ry="18"/>
<text text-anchor="middle" x="1770.34" y="-302.3" font-family="Times New Roman,serif" font-size="14.00">HW: Test Automation</text>
</g>
<!-- HW: Test Automation&#45;&gt;Data Provenance, Reproducability, and Explainability -->
<g id="edge28" class="edge"><title>HW: Test Automation&#45;&gt;Data Provenance, Reproducability, and Explainability</title>
<path fill="none" stroke="black" d="M1836.77,-293.691C1847.98,-291.788 1859.49,-289.835 1870.34,-288 1942.08,-275.867 2023.02,-262.25 2084.89,-251.857"/>
<polygon fill="black" stroke="black" points="2085.76,-255.26 2095.04,-250.152 2084.6,-248.357 2085.76,-255.26"/>
</g>
<!-- HW: Test Automation&#45;&gt;Configuration Management and Operations at Scale -->
<g id="edge30" class="edge"><title>HW: Test Automation&#45;&gt;Configuration Management and Operations at Scale</title>
<path fill="none" stroke="black" d="M1782.04,-287.871C1798.94,-263.137 1830.29,-217.242 1849.91,-188.512"/>
<polygon fill="black" stroke="black" points="1852.85,-190.421 1855.6,-180.189 1847.07,-186.472 1852.85,-190.421"/>
</g>
<!-- HW: Test Automation&#45;&gt;Test and Deployment Automation -->
<g id="edge27" class="edge"><title>HW: Test Automation&#45;&gt;Test and Deployment Automation</title>
<path fill="none" stroke="black" d="M1743.85,-288.588C1728.77,-279.246 1709.67,-267.414 1693.25,-257.247"/>
<polygon fill="black" stroke="black" points="1694.8,-254.086 1684.45,-251.795 1691.11,-260.037 1694.8,-254.086"/>
</g>
<!-- HW: Test Automation&#45;&gt;HW: Quality -->
<g id="edge31" class="edge"><title>HW: Test Automation&#45;&gt;HW: Quality</title>
<path fill="none" stroke="black" d="M1707.54,-292.939C1655.6,-282.737 1579.97,-267.364 1514.34,-252 1509.94,-250.97 1505.39,-249.863 1500.82,-248.725"/>
<polygon fill="black" stroke="black" points="1501.43,-245.267 1490.87,-246.203 1499.71,-252.053 1501.43,-245.267"/>
</g>
<!-- HW: Fairness -->
<g id="node30" class="node"><title>HW: Fairness</title>
<ellipse fill="#ff7f24" stroke="#ff7f24" cx="1375.34" cy="-306" rx="60.3893" ry="18"/>
<text text-anchor="middle" x="1375.34" y="-302.3" font-family="Times New Roman,serif" font-size="14.00">HW: Fairness</text>
</g>
<!-- HW: Fairness&#45;&gt;Ethics + Fairness -->
<g id="edge32" class="edge"><title>HW: Fairness&#45;&gt;Ethics + Fairness</title>
<path fill="none" stroke="black" d="M1358.04,-288.411C1348.84,-279.583 1337.35,-268.572 1327.21,-258.844"/>
<polygon fill="black" stroke="black" points="1329.41,-256.108 1319.77,-251.713 1324.57,-261.16 1329.41,-256.108"/>
</g>
<!-- HW: Fairness&#45;&gt;HW: Quality -->
<g id="edge33" class="edge"><title>HW: Fairness&#45;&gt;HW: Quality</title>
<path fill="none" stroke="black" d="M1392.88,-288.411C1402.44,-279.367 1414.42,-268.03 1424.89,-258.13"/>
<polygon fill="black" stroke="black" points="1427.33,-260.643 1432.19,-251.228 1422.52,-255.558 1427.33,-260.643"/>
</g>
<!-- HW: Feedback Loop -->
<g id="node31" class="node"><title>HW: Feedback Loop</title>
<ellipse fill="#ff7f24" stroke="#ff7f24" cx="1173.34" cy="-306" rx="88.2844" ry="18"/>
<text text-anchor="middle" x="1173.34" y="-302.3" font-family="Times New Roman,serif" font-size="14.00">HW: Feedback Loop</text>
</g>
<!-- HW: Feedback Loop&#45;&gt;Security, Adversarial Learning, and Feedback Loops -->
<g id="edge34" class="edge"><title>HW: Feedback Loop&#45;&gt;Security, Adversarial Learning, and Feedback Loops</title>
<path fill="none" stroke="black" d="M1162.73,-287.871C1147.46,-263.244 1119.2,-217.638 1101.38,-188.885"/>
<polygon fill="black" stroke="black" points="1104.24,-186.846 1095.99,-180.189 1098.29,-190.533 1104.24,-186.846"/>
</g>
<!-- HW: Feedback Loop&#45;&gt;HW: Quality -->
<g id="edge35" class="edge"><title>HW: Feedback Loop&#45;&gt;HW: Quality</title>
<path fill="none" stroke="black" d="M1227.15,-291.638C1269.81,-281.007 1330.93,-265.694 1384.34,-252 1388.65,-250.895 1393.12,-249.741 1397.61,-248.579"/>
<polygon fill="black" stroke="black" points="1398.6,-251.937 1407.4,-246.034 1396.84,-245.162 1398.6,-251.937"/>
</g>
</g>
</svg>
