<?xml version="1.0" encoding="UTF-8" standalone="no"?>
<!DOCTYPE svg PUBLIC "-//W3C//DTD SVG 1.1//EN"
 "http://www.w3.org/Graphics/SVG/1.1/DTD/svg11.dtd">
<!-- Generated by graphviz version 2.38.0 (20140413.2041)
 -->
<!-- Title: G Pages: 1 -->
<svg width="2426pt" height="332pt"
 viewBox="0.00 0.00 2426.09 332.00" xmlns="http://www.w3.org/2000/svg" xmlns:xlink="http://www.w3.org/1999/xlink">
<g id="graph0" class="graph" transform="scale(1 1) rotate(0) translate(4 328)">
<title>G</title>
<polygon fill="white" stroke="none" points="-4,4 -4,-328 2422.09,-328 2422.09,4 -4,4"/>
<!-- Engineering Challenges -->
<g id="node1" class="node"><title>Engineering Challenges</title>
<ellipse fill="none" stroke="#cd9b1d" cx="293.342" cy="-162" rx="94.4839" ry="18"/>
<text text-anchor="middle" x="293.342" y="-158.3" font-family="Times New Roman,serif" font-size="14.00">Engineering Challenges</text>
</g>
<!-- Components of an AI&#45;Enabled System -->
<g id="node2" class="node"><title>Components of an AI&#45;Enabled System</title>
<ellipse fill="none" stroke="#cd9b1d" cx="535.342" cy="-90" rx="151.373" ry="18"/>
<text text-anchor="middle" x="535.342" y="-86.3" font-family="Times New Roman,serif" font-size="14.00">Components of an AI&#45;Enabled System</text>
</g>
<!-- Engineering Challenges&#45;&gt;Components of an AI&#45;Enabled System -->
<g id="edge1" class="edge"><title>Engineering Challenges&#45;&gt;Components of an AI&#45;Enabled System</title>
<path fill="none" stroke="black" d="M342.898,-146.666C379.818,-135.986 430.562,-121.308 470.674,-109.706"/>
<polygon fill="black" stroke="black" points="471.732,-113.043 480.366,-106.902 469.787,-106.319 471.732,-113.043"/>
</g>
<!-- Introduction and Motivation -->
<g id="node3" class="node"><title>Introduction and Motivation</title>
<ellipse fill="none" stroke="#cd9b1d" cx="293.342" cy="-18" rx="112.38" ry="18"/>
<text text-anchor="middle" x="293.342" y="-14.3" font-family="Times New Roman,serif" font-size="14.00">Introduction and Motivation</text>
</g>
<!-- Components of an AI&#45;Enabled System&#45;&gt;Introduction and Motivation -->
<g id="edge2" class="edge"><title>Components of an AI&#45;Enabled System&#45;&gt;Introduction and Motivation</title>
<path fill="none" stroke="black" d="M480.731,-73.2034C443.333,-62.3859 393.681,-48.0237 354.883,-36.8011"/>
<polygon fill="black" stroke="black" points="355.846,-33.4362 345.267,-34.0196 353.901,-40.1605 355.846,-33.4362"/>
</g>
<!-- SE Bootcamp -->
<g id="node4" class="node"><title>SE Bootcamp</title>
<ellipse fill="none" stroke="#cd9b1d" cx="141.342" cy="-90" rx="61.99" ry="18"/>
<text text-anchor="middle" x="141.342" y="-86.3" font-family="Times New Roman,serif" font-size="14.00">SE Bootcamp</text>
</g>
<!-- SE Bootcamp&#45;&gt;Introduction and Motivation -->
<g id="edge3" class="edge"><title>SE Bootcamp&#45;&gt;Introduction and Motivation</title>
<path fill="none" stroke="black" d="M172.836,-74.496C194.792,-64.385 224.398,-50.7506 248.77,-39.5266"/>
<polygon fill="black" stroke="black" points="250.55,-42.5603 258.169,-35.1982 247.622,-36.2022 250.55,-42.5603"/>
</g>
<!-- Dealing with Mistakes -->
<g id="node5" class="node"><title>Dealing with Mistakes</title>
<ellipse fill="none" stroke="#458b74" cx="293.342" cy="-234" rx="89.8845" ry="18"/>
<text text-anchor="middle" x="293.342" y="-230.3" font-family="Times New Roman,serif" font-size="14.00">Dealing with Mistakes</text>
</g>
<!-- Dealing with Mistakes&#45;&gt;Engineering Challenges -->
<g id="edge4" class="edge"><title>Dealing with Mistakes&#45;&gt;Engineering Challenges</title>
<path fill="none" stroke="black" d="M293.342,-215.697C293.342,-207.983 293.342,-198.712 293.342,-190.112"/>
<polygon fill="black" stroke="black" points="296.842,-190.104 293.342,-180.104 289.842,-190.104 296.842,-190.104"/>
</g>
<!-- Tradeoffs among AI Techniques -->
<g id="node6" class="node"><title>Tradeoffs among AI Techniques</title>
<ellipse fill="none" stroke="purple" cx="535.342" cy="-162" rx="129.977" ry="18"/>
<text text-anchor="middle" x="535.342" y="-158.3" font-family="Times New Roman,serif" font-size="14.00">Tradeoffs among AI Techniques</text>
</g>
<!-- Tradeoffs among AI Techniques&#45;&gt;Components of an AI&#45;Enabled System -->
<g id="edge5" class="edge"><title>Tradeoffs among AI Techniques&#45;&gt;Components of an AI&#45;Enabled System</title>
<path fill="none" stroke="black" d="M535.342,-143.697C535.342,-135.983 535.342,-126.712 535.342,-118.112"/>
<polygon fill="black" stroke="black" points="538.842,-118.104 535.342,-108.104 531.842,-118.104 538.842,-118.104"/>
</g>
<!-- Software Architecture -->
<g id="node7" class="node"><title>Software Architecture</title>
<ellipse fill="none" stroke="purple" cx="90.342" cy="-162" rx="90.1842" ry="18"/>
<text text-anchor="middle" x="90.342" y="-158.3" font-family="Times New Roman,serif" font-size="14.00">Software Architecture</text>
</g>
<!-- Software Architecture&#45;&gt;Components of an AI&#45;Enabled System -->
<g id="edge6" class="edge"><title>Software Architecture&#45;&gt;Components of an AI&#45;Enabled System</title>
<path fill="none" stroke="black" d="M156.211,-149.649C167.588,-147.732 179.303,-145.786 190.342,-144 272.588,-130.692 366.002,-116.392 434.866,-106.003"/>
<polygon fill="black" stroke="black" points="435.477,-109.451 444.844,-104.499 434.434,-102.529 435.477,-109.451"/>
</g>
<!-- Data Provenance, Reproducability, and Explainability -->
<g id="node8" class="node"><title>Data Provenance, Reproducability, and Explainability</title>
<ellipse fill="none" stroke="purple" cx="2047.34" cy="-234" rx="204.164" ry="18"/>
<text text-anchor="middle" x="2047.34" y="-230.3" font-family="Times New Roman,serif" font-size="14.00">Data Provenance, Reproducability, and Explainability</text>
</g>
<!-- Managing Large Datasets -->
<g id="node9" class="node"><title>Managing Large Datasets</title>
<ellipse fill="none" stroke="purple" cx="2047.34" cy="-162" rx="102.082" ry="18"/>
<text text-anchor="middle" x="2047.34" y="-158.3" font-family="Times New Roman,serif" font-size="14.00">Managing Large Datasets</text>
</g>
<!-- Data Provenance, Reproducability, and Explainability&#45;&gt;Managing Large Datasets -->
<g id="edge7" class="edge"><title>Data Provenance, Reproducability, and Explainability&#45;&gt;Managing Large Datasets</title>
<path fill="none" stroke="black" d="M2041.43,-215.697C2040.63,-207.983 2040.4,-198.712 2040.75,-190.112"/>
<polygon fill="black" stroke="black" points="2044.24,-190.324 2041.45,-180.104 2037.26,-189.836 2044.24,-190.324"/>
</g>
<!-- Data Provenance, Reproducability, and Explainability&#45;&gt;Managing Large Datasets -->
<g id="edge29" class="edge"><title>Data Provenance, Reproducability, and Explainability&#45;&gt;Managing Large Datasets</title>
<path fill="none" stroke="black" d="M2053.26,-215.697C2054.05,-207.983 2054.28,-198.712 2053.94,-190.112"/>
<polygon fill="black" stroke="black" points="2057.43,-189.836 2053.24,-180.104 2050.44,-190.324 2057.43,-189.836"/>
</g>
<!-- Scalability and distributed systems -->
<g id="node10" class="node"><title>Scalability and distributed systems</title>
<ellipse fill="none" stroke="purple" cx="1922.34" cy="-90" rx="135.676" ry="18"/>
<text text-anchor="middle" x="1922.34" y="-86.3" font-family="Times New Roman,serif" font-size="14.00">Scalability and distributed systems</text>
</g>
<!-- Managing Large Datasets&#45;&gt;Scalability and distributed systems -->
<g id="edge8" class="edge"><title>Managing Large Datasets&#45;&gt;Scalability and distributed systems</title>
<path fill="none" stroke="black" d="M2018.04,-144.588C2001.04,-135.073 1979.44,-122.975 1961.06,-112.683"/>
<polygon fill="black" stroke="black" points="1962.77,-109.628 1952.33,-107.795 1959.35,-115.735 1962.77,-109.628"/>
</g>
<!-- Configuration Management and Operations at Scale -->
<g id="node11" class="node"><title>Configuration Management and Operations at Scale</title>
<ellipse fill="none" stroke="purple" cx="1627.34" cy="-234" rx="197.665" ry="18"/>
<text text-anchor="middle" x="1627.34" y="-230.3" font-family="Times New Roman,serif" font-size="14.00">Configuration Management and Operations at Scale</text>
</g>
<!-- Configuration Management and Operations at Scale&#45;&gt;Scalability and distributed systems -->
<g id="edge9" class="edge"><title>Configuration Management and Operations at Scale&#45;&gt;Scalability and distributed systems</title>
<path fill="none" stroke="black" d="M1662.34,-216.153C1716.38,-190.142 1820.01,-140.257 1878.81,-111.955"/>
<polygon fill="black" stroke="black" points="1880.35,-115.096 1887.85,-107.605 1877.32,-108.789 1880.35,-115.096"/>
</g>
<!-- Model Quality -->
<g id="node12" class="node"><title>Model Quality</title>
<ellipse fill="none" stroke="blue" cx="1051.34" cy="-90" rx="62.2891" ry="18"/>
<text text-anchor="middle" x="1051.34" y="-86.3" font-family="Times New Roman,serif" font-size="14.00">Model Quality</text>
</g>
<!-- Data Quality -->
<g id="node13" class="node"><title>Data Quality</title>
<ellipse fill="none" stroke="blue" cx="1135.34" cy="-162" rx="55.7903" ry="18"/>
<text text-anchor="middle" x="1135.34" y="-158.3" font-family="Times New Roman,serif" font-size="14.00">Data Quality</text>
</g>
<!-- Test and Deployment Automation -->
<g id="node14" class="node"><title>Test and Deployment Automation</title>
<ellipse fill="none" stroke="blue" cx="1239.34" cy="-234" rx="133.776" ry="18"/>
<text text-anchor="middle" x="1239.34" y="-230.3" font-family="Times New Roman,serif" font-size="14.00">Test and Deployment Automation</text>
</g>
<!-- Test and Deployment Automation&#45;&gt;Components of an AI&#45;Enabled System -->
<g id="edge10" class="edge"><title>Test and Deployment Automation&#45;&gt;Components of an AI&#45;Enabled System</title>
<path fill="none" stroke="black" d="M1237.14,-215.977C1233.46,-195.219 1223.98,-160.828 1200.34,-144 1159.9,-115.207 875.287,-101.207 691.744,-95.1016"/>
<polygon fill="black" stroke="black" points="691.827,-91.6025 681.718,-94.7726 691.597,-98.5988 691.827,-91.6025"/>
</g>
<!-- Test and Deployment Automation&#45;&gt;Data Quality -->
<g id="edge11" class="edge"><title>Test and Deployment Automation&#45;&gt;Data Quality</title>
<path fill="none" stroke="black" d="M1214.43,-216.233C1200.17,-206.631 1182.12,-194.488 1166.88,-184.225"/>
<polygon fill="black" stroke="black" points="1168.52,-181.114 1158.27,-178.434 1164.61,-186.921 1168.52,-181.114"/>
</g>
<!-- Experimentation -->
<g id="node15" class="node"><title>Experimentation</title>
<ellipse fill="none" stroke="blue" cx="953.342" cy="-162" rx="69.5877" ry="18"/>
<text text-anchor="middle" x="953.342" y="-158.3" font-family="Times New Roman,serif" font-size="14.00">Experimentation</text>
</g>
<!-- Experimentation&#45;&gt;Model Quality -->
<g id="edge12" class="edge"><title>Experimentation&#45;&gt;Model Quality</title>
<path fill="none" stroke="black" d="M976.071,-144.765C989.401,-135.244 1006.41,-123.093 1020.89,-112.752"/>
<polygon fill="black" stroke="black" points="1022.97,-115.566 1029.07,-106.906 1018.9,-109.87 1022.97,-115.566"/>
</g>
<!-- Ethics + Fairness -->
<g id="node16" class="node"><title>Ethics + Fairness</title>
<ellipse fill="none" stroke="blue" cx="884.342" cy="-234" rx="73.387" ry="18"/>
<text text-anchor="middle" x="884.342" y="-230.3" font-family="Times New Roman,serif" font-size="14.00">Ethics + Fairness</text>
</g>
<!-- Ethics + Fairness&#45;&gt;Experimentation -->
<g id="edge13" class="edge"><title>Ethics + Fairness&#45;&gt;Experimentation</title>
<path fill="none" stroke="black" d="M900.694,-216.411C909.247,-207.734 919.881,-196.946 929.348,-187.342"/>
<polygon fill="black" stroke="black" points="932.101,-189.535 936.628,-179.956 927.115,-184.621 932.101,-189.535"/>
</g>
<!-- Safety -->
<g id="node17" class="node"><title>Safety</title>
<ellipse fill="none" stroke="blue" cx="359.342" cy="-306" rx="33.5952" ry="18"/>
<text text-anchor="middle" x="359.342" y="-302.3" font-family="Times New Roman,serif" font-size="14.00">Safety</text>
</g>
<!-- Safety&#45;&gt;Dealing with Mistakes -->
<g id="edge14" class="edge"><title>Safety&#45;&gt;Dealing with Mistakes</title>
<path fill="none" stroke="black" d="M344.694,-289.465C336.342,-280.606 325.689,-269.308 316.254,-259.301"/>
<polygon fill="black" stroke="black" points="318.741,-256.837 309.335,-251.962 313.648,-261.639 318.741,-256.837"/>
</g>
<!-- Security, Adversarial Learning, and Feedback Loops -->
<g id="node18" class="node"><title>Security, Adversarial Learning, and Feedback Loops</title>
<ellipse fill="none" stroke="blue" cx="1449.34" cy="-162" rx="202.264" ry="18"/>
<text text-anchor="middle" x="1449.34" y="-158.3" font-family="Times New Roman,serif" font-size="14.00">Security, Adversarial Learning, and Feedback Loops</text>
</g>
<!-- Security, Adversarial Learning, and Feedback Loops&#45;&gt;Model Quality -->
<g id="edge15" class="edge"><title>Security, Adversarial Learning, and Feedback Loops&#45;&gt;Model Quality</title>
<path fill="none" stroke="black" d="M1362.49,-145.725C1287.22,-132.485 1180.15,-113.655 1113.27,-101.892"/>
<polygon fill="black" stroke="black" points="1113.75,-98.4233 1103.3,-100.138 1112.54,-105.317 1113.75,-98.4233"/>
</g>
<!-- Process and Team Reflections -->
<g id="node19" class="node"><title>Process and Team Reflections</title>
<ellipse fill="none" stroke="black" cx="1585.34" cy="-306" rx="122.379" ry="18"/>
<text text-anchor="middle" x="1585.34" y="-302.3" font-family="Times New Roman,serif" font-size="14.00">Process and Team Reflections</text>
</g>
<!-- Startup -->
<g id="node20" class="node"><title>Startup</title>
<ellipse fill="none" stroke="black" cx="1876.34" cy="-306" rx="37.0935" ry="18"/>
<text text-anchor="middle" x="1876.34" y="-302.3" font-family="Times New Roman,serif" font-size="14.00">Startup</text>
</g>
<!-- Usability -->
<g id="node21" class="node"><title>Usability</title>
<ellipse fill="none" stroke="black" cx="2200.34" cy="-306" rx="42.4939" ry="18"/>
<text text-anchor="middle" x="2200.34" y="-302.3" font-family="Times New Roman,serif" font-size="14.00">Usability</text>
</g>
<!-- Symbolic AI -->
<g id="node22" class="node"><title>Symbolic AI</title>
<ellipse fill="none" stroke="black" cx="535.342" cy="-234" rx="57.3905" ry="18"/>
<text text-anchor="middle" x="535.342" y="-230.3" font-family="Times New Roman,serif" font-size="14.00">Symbolic AI</text>
</g>
<!-- Symbolic AI&#45;&gt;Tradeoffs among AI Techniques -->
<g id="edge16" class="edge"><title>Symbolic AI&#45;&gt;Tradeoffs among AI Techniques</title>
<path fill="none" stroke="black" d="M535.342,-215.697C535.342,-207.983 535.342,-198.712 535.342,-190.112"/>
<polygon fill="black" stroke="black" points="538.842,-190.104 535.342,-180.104 531.842,-190.104 538.842,-190.104"/>
</g>
<!-- HW: Case Study -->
<g id="node23" class="node"><title>HW: Case Study</title>
<ellipse fill="#ff7f24" stroke="#ff7f24" cx="293.342" cy="-90" rx="72.2875" ry="18"/>
<text text-anchor="middle" x="293.342" y="-86.3" font-family="Times New Roman,serif" font-size="14.00">HW: Case Study</text>
</g>
<!-- HW: Case Study&#45;&gt;Introduction and Motivation -->
<g id="edge17" class="edge"><title>HW: Case Study&#45;&gt;Introduction and Motivation</title>
<path fill="none" stroke="black" d="M293.342,-71.6966C293.342,-63.9827 293.342,-54.7125 293.342,-46.1124"/>
<polygon fill="black" stroke="black" points="296.842,-46.1043 293.342,-36.1043 289.842,-46.1044 296.842,-46.1043"/>
</g>
<!-- HW: Modeling Basics -->
<g id="node24" class="node"><title>HW: Modeling Basics</title>
<ellipse fill="#ff7f24" stroke="#ff7f24" cx="774.342" cy="-162" rx="90.9839" ry="18"/>
<text text-anchor="middle" x="774.342" y="-158.3" font-family="Times New Roman,serif" font-size="14.00">HW: Modeling Basics</text>
</g>
<!-- HW: Modeling Basics&#45;&gt;Components of an AI&#45;Enabled System -->
<g id="edge18" class="edge"><title>HW: Modeling Basics&#45;&gt;Components of an AI&#45;Enabled System</title>
<path fill="none" stroke="black" d="M725.689,-146.75C689.326,-136.1 639.266,-121.438 599.61,-109.823"/>
<polygon fill="black" stroke="black" points="600.348,-106.392 589.767,-106.94 598.38,-113.11 600.348,-106.392"/>
</g>
<!-- HW: AI Tradeoffs -->
<g id="node25" class="node"><title>HW: AI Tradeoffs</title>
<ellipse fill="#ff7f24" stroke="#ff7f24" cx="712.342" cy="-234" rx="77.9862" ry="18"/>
<text text-anchor="middle" x="712.342" y="-230.3" font-family="Times New Roman,serif" font-size="14.00">HW: AI Tradeoffs</text>
</g>
<!-- HW: AI Tradeoffs&#45;&gt;Tradeoffs among AI Techniques -->
<g id="edge19" class="edge"><title>HW: AI Tradeoffs&#45;&gt;Tradeoffs among AI Techniques</title>
<path fill="none" stroke="black" d="M674.805,-218.155C648.821,-207.879 613.946,-194.086 585.571,-182.865"/>
<polygon fill="black" stroke="black" points="586.807,-179.59 576.22,-179.167 584.232,-186.099 586.807,-179.59"/>
</g>
<!-- HW: AI Tradeoffs&#45;&gt;HW: Modeling Basics -->
<g id="edge20" class="edge"><title>HW: AI Tradeoffs&#45;&gt;HW: Modeling Basics</title>
<path fill="none" stroke="black" d="M727.35,-216.055C734.966,-207.457 744.355,-196.857 752.733,-187.397"/>
<polygon fill="black" stroke="black" points="755.461,-189.596 759.472,-179.789 750.221,-184.954 755.461,-189.596"/>
</g>
<!-- HW: Architecture -->
<g id="node26" class="node"><title>HW: Architecture</title>
<ellipse fill="#ff7f24" stroke="#ff7f24" cx="2343.34" cy="-306" rx="74.9875" ry="18"/>
<text text-anchor="middle" x="2343.34" y="-302.3" font-family="Times New Roman,serif" font-size="14.00">HW: Architecture</text>
</g>
<!-- Updating Models -->
<g id="node27" class="node"><title>Updating Models</title>
<ellipse fill="#ff7f24" stroke="#ff7f24" cx="2343.34" cy="-234" rx="73.387" ry="18"/>
<text text-anchor="middle" x="2343.34" y="-230.3" font-family="Times New Roman,serif" font-size="14.00">Updating Models</text>
</g>
<!-- HW: Architecture&#45;&gt;Updating Models -->
<g id="edge21" class="edge"><title>HW: Architecture&#45;&gt;Updating Models</title>
<path fill="none" stroke="black" d="M2343.34,-287.697C2343.34,-279.983 2343.34,-270.712 2343.34,-262.112"/>
<polygon fill="black" stroke="black" points="2346.84,-262.104 2343.34,-252.104 2339.84,-262.104 2346.84,-262.104"/>
</g>
<!-- HW: Requirements -->
<g id="node28" class="node"><title>HW: Requirements</title>
<ellipse fill="#ff7f24" stroke="#ff7f24" cx="227.342" cy="-306" rx="79.8859" ry="18"/>
<text text-anchor="middle" x="227.342" y="-302.3" font-family="Times New Roman,serif" font-size="14.00">HW: Requirements</text>
</g>
<!-- HW: Requirements&#45;&gt;Dealing with Mistakes -->
<g id="edge22" class="edge"><title>HW: Requirements&#45;&gt;Dealing with Mistakes</title>
<path fill="none" stroke="black" d="M243.319,-288.055C251.507,-279.371 261.62,-268.644 270.606,-259.114"/>
<polygon fill="black" stroke="black" points="273.199,-261.466 277.512,-251.789 268.106,-256.664 273.199,-261.466"/>
</g>
<!-- HW: Quality -->
<g id="node29" class="node"><title>HW: Quality</title>
<ellipse fill="#ff7f24" stroke="#ff7f24" cx="1031.34" cy="-234" rx="55.7903" ry="18"/>
<text text-anchor="middle" x="1031.34" y="-230.3" font-family="Times New Roman,serif" font-size="14.00">HW: Quality</text>
</g>
<!-- HW: Quality&#45;&gt;Model Quality -->
<g id="edge23" class="edge"><title>HW: Quality&#45;&gt;Model Quality</title>
<path fill="none" stroke="black" d="M1033.75,-215.871C1037.16,-191.67 1043.42,-147.211 1047.48,-118.393"/>
<polygon fill="black" stroke="black" points="1050.99,-118.58 1048.92,-108.189 1044.06,-117.603 1050.99,-118.58"/>
</g>
<!-- HW: Quality&#45;&gt;Data Quality -->
<g id="edge24" class="edge"><title>HW: Quality&#45;&gt;Data Quality</title>
<path fill="none" stroke="black" d="M1054.42,-217.465C1068.96,-207.677 1087.93,-194.912 1103.85,-184.2"/>
<polygon fill="black" stroke="black" points="1105.98,-186.979 1112.33,-178.492 1102.08,-181.172 1105.98,-186.979"/>
</g>
<!-- HW: Quality&#45;&gt;Experimentation -->
<g id="edge26" class="edge"><title>HW: Quality&#45;&gt;Experimentation</title>
<path fill="none" stroke="black" d="M1013.25,-216.765C1003.18,-207.73 990.477,-196.326 979.359,-186.349"/>
<polygon fill="black" stroke="black" points="981.385,-183.464 971.605,-179.39 976.71,-188.674 981.385,-183.464"/>
</g>
<!-- HW: Quality&#45;&gt;HW: Modeling Basics -->
<g id="edge25" class="edge"><title>HW: Quality&#45;&gt;HW: Modeling Basics</title>
<path fill="none" stroke="black" d="M990.05,-221.753C948.323,-210.388 883.366,-192.695 835.63,-179.693"/>
<polygon fill="black" stroke="black" points="836.288,-176.245 825.72,-176.994 834.449,-182.999 836.288,-176.245"/>
</g>
<!-- HW: Test Automation -->
<g id="node30" class="node"><title>HW: Test Automation</title>
<ellipse fill="#ff7f24" stroke="#ff7f24" cx="1297.34" cy="-306" rx="90.9839" ry="18"/>
<text text-anchor="middle" x="1297.34" y="-302.3" font-family="Times New Roman,serif" font-size="14.00">HW: Test Automation</text>
</g>
<!-- HW: Test Automation&#45;&gt;Data Provenance, Reproducability, and Explainability -->
<g id="edge28" class="edge"><title>HW: Test Automation&#45;&gt;Data Provenance, Reproducability, and Explainability</title>
<path fill="none" stroke="black" d="M1374.37,-296.368C1399.82,-293.594 1428.29,-290.575 1454.34,-288 1604.16,-273.195 1775.47,-258.08 1895.3,-247.8"/>
<polygon fill="black" stroke="black" points="1895.62,-251.286 1905.29,-246.945 1895.03,-244.311 1895.62,-251.286"/>
</g>
<!-- HW: Test Automation&#45;&gt;Configuration Management and Operations at Scale -->
<g id="edge30" class="edge"><title>HW: Test Automation&#45;&gt;Configuration Management and Operations at Scale</title>
<path fill="none" stroke="black" d="M1357.1,-292.324C1409.16,-281.281 1485.21,-265.149 1543.38,-252.81"/>
<polygon fill="black" stroke="black" points="1544.23,-256.207 1553.29,-250.709 1542.78,-249.36 1544.23,-256.207"/>
</g>
<!-- HW: Test Automation&#45;&gt;Test and Deployment Automation -->
<g id="edge27" class="edge"><title>HW: Test Automation&#45;&gt;Test and Deployment Automation</title>
<path fill="none" stroke="black" d="M1283.3,-288.055C1276.35,-279.668 1267.82,-269.376 1260.14,-260.096"/>
<polygon fill="black" stroke="black" points="1262.73,-257.742 1253.66,-252.275 1257.34,-262.209 1262.73,-257.742"/>
</g>
<!-- HW: Test Automation&#45;&gt;HW: Quality -->
<g id="edge31" class="edge"><title>HW: Test Automation&#45;&gt;HW: Quality</title>
<path fill="none" stroke="black" d="M1245.11,-291.254C1198.31,-278.938 1130.04,-260.973 1083.32,-248.678"/>
<polygon fill="black" stroke="black" points="1083.96,-245.228 1073.4,-246.068 1082.18,-251.998 1083.96,-245.228"/>
</g>
<!-- HW: Fairness -->
<g id="node31" class="node"><title>HW: Fairness</title>
<ellipse fill="#ff7f24" stroke="#ff7f24" cx="891.342" cy="-306" rx="60.3893" ry="18"/>
<text text-anchor="middle" x="891.342" y="-302.3" font-family="Times New Roman,serif" font-size="14.00">HW: Fairness</text>
</g>
<!-- HW: Fairness&#45;&gt;Ethics + Fairness -->
<g id="edge32" class="edge"><title>HW: Fairness&#45;&gt;Ethics + Fairness</title>
<path fill="none" stroke="black" d="M889.612,-287.697C888.84,-279.983 887.913,-270.712 887.053,-262.112"/>
<polygon fill="black" stroke="black" points="890.53,-261.706 886.052,-252.104 883.565,-262.403 890.53,-261.706"/>
</g>
<!-- HW: Fairness&#45;&gt;HW: Quality -->
<g id="edge33" class="edge"><title>HW: Fairness&#45;&gt;HW: Quality</title>
<path fill="none" stroke="black" d="M921.032,-290.155C942.055,-279.644 970.436,-265.453 993.145,-254.099"/>
<polygon fill="black" stroke="black" points="994.795,-257.186 1002.17,-249.584 991.665,-250.925 994.795,-257.186"/>
</g>
<!-- HW: Feedback Loop -->
<g id="node32" class="node"><title>HW: Feedback Loop</title>
<ellipse fill="#ff7f24" stroke="#ff7f24" cx="1072.34" cy="-306" rx="88.2844" ry="18"/>
<text text-anchor="middle" x="1072.34" y="-302.3" font-family="Times New Roman,serif" font-size="14.00">HW: Feedback Loop</text>
</g>
<!-- HW: Feedback Loop&#45;&gt;Security, Adversarial Learning, and Feedback Loops -->
<g id="edge34" class="edge"><title>HW: Feedback Loop&#45;&gt;Security, Adversarial Learning, and Feedback Loops</title>
<path fill="none" stroke="black" d="M1140.86,-294.597C1229,-281.023 1372.07,-258.261 1382.34,-252 1406.83,-237.073 1425.43,-209.576 1436.75,-189.081"/>
<polygon fill="black" stroke="black" points="1439.85,-190.703 1441.43,-180.227 1433.66,-187.431 1439.85,-190.703"/>
</g>
<!-- HW: Feedback Loop&#45;&gt;HW: Quality -->
<g id="edge35" class="edge"><title>HW: Feedback Loop&#45;&gt;HW: Quality</title>
<path fill="none" stroke="black" d="M1062.42,-288.055C1057.58,-279.801 1051.67,-269.701 1046.3,-260.538"/>
<polygon fill="black" stroke="black" points="1049.25,-258.649 1041.18,-251.789 1043.21,-262.187 1049.25,-258.649"/>
</g>
</g>
</svg>
