<svg version="1.1" viewBox="0.0 0.0 460.3280839895013 441.25984251968504" fill="none" stroke="none" stroke-linecap="square" stroke-miterlimit="10" xmlns:xlink="http://www.w3.org/1999/xlink" xmlns="http://www.w3.org/2000/svg"><clipPath id="p.0"><path d="m0 0l460.3281 0l0 441.25986l-460.3281 0l0 -441.25986z" clip-rule="nonzero"/></clipPath><g clip-path="url(#p.0)"><path fill="#000000" fill-opacity="0.0" d="m0 0l460.3281 0l0 441.25986l-460.3281 0z" fill-rule="evenodd"/><path fill="#000000" fill-opacity="0.0" d="m81.72179 47.262466l18.330704 101.79527" fill-rule="evenodd"/><path stroke="#000000" stroke-width="2.0" stroke-linejoin="round" stroke-linecap="butt" stroke-dasharray="8.0,6.0" d="m81.72179 47.262466l18.330704 101.79527" fill-rule="evenodd"/><path fill="#000000" fill-opacity="0.0" d="m99.46982 149.05774l58.614166 79.40158" fill-rule="evenodd"/><path stroke="#000000" stroke-width="2.0" stroke-linejoin="round" stroke-linecap="butt" stroke-dasharray="8.0,6.0" d="m99.46982 149.05774l58.614166 79.40158" fill-rule="evenodd"/><path fill="#000000" fill-opacity="0.0" d="m180.75066 76.874016l0 75.937004" fill-rule="evenodd"/><path stroke="#000000" stroke-width="1.0" stroke-linejoin="round" stroke-linecap="butt" stroke-dasharray="1.0,3.0" d="m180.75066 76.874016l0 75.937004" fill-rule="evenodd"/><path fill="#000000" fill-opacity="0.0" d="m181.88452 150.54593l-81.60631 0" fill-rule="evenodd"/><path stroke="#000000" stroke-width="1.0" stroke-linejoin="round" stroke-linecap="butt" stroke-dasharray="1.0,3.0" d="m181.88452 150.54593l-81.60631 0" fill-rule="evenodd"/><path fill="#000000" fill-opacity="0.0" d="m36.929134 397.46457l0 -386.83466" fill-rule="evenodd"/><path stroke="#000000" stroke-width="4.0" stroke-linejoin="round" stroke-linecap="butt" d="m36.929134 397.46457l0 -362.83466" fill-rule="evenodd"/><path fill="#000000" stroke="#000000" stroke-width="4.0" stroke-linecap="butt" d="m43.536064 34.62992l-6.60693 -18.152391l-6.60693 18.152391z" fill-rule="evenodd"/><path fill="#000000" fill-opacity="0.0" d="m36.929134 396.4462l418.4252 0" fill-rule="evenodd"/><path stroke="#000000" stroke-width="4.0" stroke-linejoin="round" stroke-linecap="butt" d="m36.929134 396.4462l394.4252 0" fill-rule="evenodd"/><path fill="#000000" stroke="#000000" stroke-width="4.0" stroke-linecap="butt" d="m431.35434 403.05313l18.152374 -6.6069336l-18.152374 -6.6069336z" fill-rule="evenodd"/><path fill="#000000" fill-opacity="0.0" d="m166.6588 398.76904l200.53542 0l0 42.015747l-200.53542 0z" fill-rule="evenodd"/><path fill="#000000" d="m186.62755 421.00153l1.765625 0.453125q-0.5625 2.171875 -2.0 3.328125q-1.4375 1.140625 -3.53125 1.140625q-2.15625 0 -3.515625 -0.875q-1.34375 -0.890625 -2.0625 -2.546875q-0.703125 -1.671875 -0.703125 -3.59375q0 -2.078125 0.796875 -3.625q0.796875 -1.5625 2.265625 -2.359375q1.484375 -0.8125 3.25 -0.8125q2.0 0 3.359375 1.015625q1.375 1.015625 1.90625 2.875l-1.734375 0.40625q-0.46875 -1.453125 -1.359375 -2.109375q-0.875 -0.671875 -2.203125 -0.671875q-1.546875 0 -2.578125 0.734375q-1.03125 0.734375 -1.453125 1.984375q-0.421875 1.234375 -0.421875 2.5625q0 1.703125 0.5 2.96875q0.5 1.265625 1.546875 1.90625q1.046875 0.625 2.265625 0.625q1.484375 0 2.515625 -0.859375q1.03125 -0.859375 1.390625 -2.546875zm3.1291962 -0.15625q0 -2.6875 1.484375 -3.96875q1.25 -1.078125 3.046875 -1.078125q2.0 0 3.265625 1.3125q1.265625 1.296875 1.265625 3.609375q0 1.859375 -0.5625 2.9375q-0.5625 1.0625 -1.640625 1.65625q-1.0625 0.59375 -2.328125 0.59375q-2.03125 0 -3.28125 -1.296875q-1.25 -1.3125 -1.25 -3.765625zm1.6875 0q0 1.859375 0.796875 2.796875q0.8125 0.921875 2.046875 0.921875q1.21875 0 2.03125 -0.921875q0.8125 -0.9375 0.8125 -2.84375q0 -1.796875 -0.8125 -2.71875q-0.8125 -0.921875 -2.03125 -0.921875q-1.234375 0 -2.046875 0.921875q-0.796875 0.90625 -0.796875 2.765625zm8.641342 1.953125l1.625 -0.25q0.125 0.96875 0.75 1.5q0.625 0.515625 1.75 0.515625q1.125 0 1.671875 -0.453125q0.546875 -0.46875 0.546875 -1.09375q0 -0.546875 -0.484375 -0.875q-0.328125 -0.21875 -1.671875 -0.546875q-1.8125 -0.46875 -2.515625 -0.796875q-0.6875 -0.328125 -1.046875 -0.90625q-0.359375 -0.59375 -0.359375 -1.3125q0 -0.640625 0.296875 -1.1875q0.296875 -0.5625 0.8125 -0.921875q0.375 -0.28125 1.03125 -0.46875q0.671875 -0.203125 1.421875 -0.203125q1.140625 0 2.0 0.328125q0.859375 0.328125 1.265625 0.890625q0.421875 0.5625 0.578125 1.5l-1.609375 0.21875q-0.109375 -0.75 -0.640625 -1.171875q-0.515625 -0.421875 -1.46875 -0.421875q-1.140625 0 -1.625 0.375q-0.46875 0.375 -0.46875 0.875q0 0.3125 0.1875 0.578125q0.203125 0.265625 0.640625 0.4375q0.234375 0.09375 1.4375 0.421875q1.75 0.453125 2.4375 0.75q0.6875 0.296875 1.078125 0.859375q0.390625 0.5625 0.390625 1.40625q0 0.828125 -0.484375 1.546875q-0.46875 0.71875 -1.375 1.125q-0.90625 0.390625 -2.046875 0.390625q-1.875 0 -2.875 -0.78125q-0.984375 -0.78125 -1.25 -2.328125zm13.5625 1.421875l0.234375 1.453125q-0.6875 0.140625 -1.234375 0.140625q-0.890625 0 -1.390625 -0.28125q-0.484375 -0.28125 -0.6875 -0.734375q-0.203125 -0.46875 -0.203125 -1.9375l0 -5.578125l-1.203125 0l0 -1.265625l1.203125 0l0 -2.390625l1.625 -0.984375l0 3.375l1.65625 0l0 1.265625l-1.65625 0l0 5.671875q0 0.6875 0.078125 0.890625q0.09375 0.203125 0.28125 0.328125q0.203125 0.109375 0.578125 0.109375q0.265625 0 0.71875 -0.0625zm6.7884827 5.171875l0 -13.375l1.484375 0l0 1.25q0.53125 -0.734375 1.1875 -1.09375q0.671875 -0.375 1.625 -0.375q1.234375 0 2.171875 0.640625q0.953125 0.625 1.4375 1.796875q0.484375 1.15625 0.484375 2.546875q0 1.484375 -0.53125 2.671875q-0.53125 1.1875 -1.546875 1.828125q-1.015625 0.625 -2.140625 0.625q-0.8125 0 -1.46875 -0.34375q-0.65625 -0.34375 -1.0625 -0.875l0 4.703125l-1.640625 0zm1.484375 -8.484375q0 1.859375 0.75 2.765625q0.765625 0.890625 1.828125 0.890625q1.09375 0 1.875 -0.921875q0.78125 -0.9375 0.78125 -2.875q0 -1.84375 -0.765625 -2.765625q-0.75 -0.921875 -1.8125 -0.921875q-1.046875 0 -1.859375 0.984375q-0.796875 0.96875 -0.796875 2.84375zm15.516342 1.671875l1.6875 0.203125q-0.40625 1.484375 -1.484375 2.3125q-1.078125 0.8125 -2.765625 0.8125q-2.125 0 -3.375 -1.296875q-1.234375 -1.3125 -1.234375 -3.671875q0 -2.453125 1.25 -3.796875q1.265625 -1.34375 3.265625 -1.34375q1.9375 0 3.15625 1.328125q1.234375 1.3125 1.234375 3.703125q0 0.15625 0 0.4375l-7.21875 0q0.09375 1.59375 0.90625 2.453125q0.8125 0.84375 2.015625 0.84375q0.90625 0 1.546875 -0.46875q0.640625 -0.484375 1.015625 -1.515625zm-5.390625 -2.65625l5.40625 0q-0.109375 -1.21875 -0.625 -1.828125q-0.78125 -0.953125 -2.03125 -0.953125q-1.125 0 -1.90625 0.765625q-0.765625 0.75 -0.84375 2.015625zm9.125717 5.765625l0 -9.671875l1.46875 0l0 1.46875q0.5625 -1.03125 1.03125 -1.359375q0.484375 -0.328125 1.0625 -0.328125q0.828125 0 1.6875 0.53125l-0.5625 1.515625q-0.609375 -0.359375 -1.203125 -0.359375q-0.546875 0 -0.96875 0.328125q-0.421875 0.328125 -0.609375 0.890625q-0.28125 0.875 -0.28125 1.921875l0 5.0625l-1.625 0zm11.411606 3.703125l0 -13.375l1.484375 0l0 1.25q0.53125 -0.734375 1.1875 -1.09375q0.671875 -0.375 1.625 -0.375q1.234375 0 2.171875 0.640625q0.953125 0.625 1.4375 1.796875q0.484375 1.15625 0.484375 2.546875q0 1.484375 -0.53125 2.671875q-0.53125 1.1875 -1.546875 1.828125q-1.015625 0.625 -2.140625 0.625q-0.8125 0 -1.46875 -0.34375q-0.65625 -0.34375 -1.0625 -0.875l0 4.703125l-1.640625 0zm1.484375 -8.484375q0 1.859375 0.75 2.765625q0.765625 0.890625 1.828125 0.890625q1.09375 0 1.875 -0.921875q0.78125 -0.9375 0.78125 -2.875q0 -1.84375 -0.765625 -2.765625q-0.75 -0.921875 -1.8125 -0.921875q-1.046875 0 -1.859375 0.984375q-0.796875 0.96875 -0.796875 2.84375zm8.875702 4.78125l0 -9.671875l1.46875 0l0 1.46875q0.5625 -1.03125 1.03125 -1.359375q0.484375 -0.328125 1.0625 -0.328125q0.828125 0 1.6875 0.53125l-0.5625 1.515625q-0.609375 -0.359375 -1.203125 -0.359375q-0.546875 0 -0.96875 0.328125q-0.421875 0.328125 -0.609375 0.890625q-0.28125 0.875 -0.28125 1.921875l0 5.0625l-1.625 0zm12.853302 -3.109375l1.6875 0.203125q-0.40625 1.484375 -1.484375 2.3125q-1.078125 0.8125 -2.765625 0.8125q-2.125 0 -3.375 -1.296875q-1.234375 -1.3125 -1.234375 -3.671875q0 -2.453125 1.25 -3.796875q1.265625 -1.34375 3.265625 -1.34375q1.9375 0 3.15625 1.328125q1.234375 1.3125 1.234375 3.703125q0 0.15625 0 0.4375l-7.21875 0q0.09375 1.59375 0.90625 2.453125q0.8125 0.84375 2.015625 0.84375q0.90625 0 1.546875 -0.46875q0.640625 -0.484375 1.015625 -1.515625zm-5.390625 -2.65625l5.40625 0q-0.109375 -1.21875 -0.625 -1.828125q-0.78125 -0.953125 -2.03125 -0.953125q-1.125 0 -1.90625 0.765625q-0.765625 0.75 -0.84375 2.015625zm15.406982 5.765625l0 -1.21875q-0.90625 1.4375 -2.703125 1.4375q-1.15625 0 -2.125 -0.640625q-0.96875 -0.640625 -1.5 -1.78125q-0.53125 -1.140625 -0.53125 -2.625q0 -1.453125 0.484375 -2.625q0.484375 -1.1875 1.4375 -1.8125q0.96875 -0.625 2.171875 -0.625q0.875 0 1.546875 0.375q0.6875 0.359375 1.109375 0.953125l0 -4.796875l1.640625 0l0 13.359375l-1.53125 0zm-5.171875 -4.828125q0 1.859375 0.78125 2.78125q0.78125 0.921875 1.84375 0.921875q1.078125 0 1.828125 -0.875q0.75 -0.890625 0.75 -2.6875q0 -1.984375 -0.765625 -2.90625q-0.765625 -0.9375 -1.890625 -0.9375q-1.078125 0 -1.8125 0.890625q-0.734375 0.890625 -0.734375 2.8125zm9.281952 -6.640625l0 -1.890625l1.640625 0l0 1.890625l-1.640625 0zm0 11.46875l0 -9.671875l1.640625 0l0 9.671875l-1.640625 0zm10.457336 -3.546875l1.609375 0.21875q-0.265625 1.65625 -1.359375 2.609375q-1.078125 0.9375 -2.671875 0.9375q-1.984375 0 -3.1875 -1.296875q-1.203125 -1.296875 -1.203125 -3.71875q0 -1.578125 0.515625 -2.75q0.515625 -1.171875 1.578125 -1.75q1.0625 -0.59375 2.3125 -0.59375q1.578125 0 2.578125 0.796875q1.0 0.796875 1.28125 2.265625l-1.59375 0.234375q-0.234375 -0.96875 -0.8125 -1.453125q-0.578125 -0.5 -1.390625 -0.5q-1.234375 0 -2.015625 0.890625q-0.78125 0.890625 -0.78125 2.8125q0 1.953125 0.75 2.84375q0.75 0.875 1.953125 0.875q0.96875 0 1.609375 -0.59375q0.65625 -0.59375 0.828125 -1.828125zm6.59375 2.078125l0.234375 1.453125q-0.6875 0.140625 -1.234375 0.140625q-0.890625 0 -1.390625 -0.28125q-0.484375 -0.28125 -0.6875 -0.734375q-0.203125 -0.46875 -0.203125 -1.9375l0 -5.578125l-1.203125 0l0 -1.265625l1.203125 0l0 -2.390625l1.625 -0.984375l0 3.375l1.65625 0l0 1.265625l-1.65625 0l0 5.671875q0 0.6875 0.078125 0.890625q0.09375 0.203125 0.28125 0.328125q0.203125 0.109375 0.578125 0.109375q0.265625 0 0.71875 -0.0625zm1.6051636 -10.0l0 -1.890625l1.640625 0l0 1.890625l-1.640625 0zm0 11.46875l0 -9.671875l1.640625 0l0 9.671875l-1.640625 0zm3.5354614 -4.84375q0 -2.6875 1.484375 -3.96875q1.25 -1.078125 3.046875 -1.078125q2.0 0 3.265625 1.3125q1.265625 1.296875 1.265625 3.609375q0 1.859375 -0.5625 2.9375q-0.5625 1.0625 -1.640625 1.65625q-1.0625 0.59375 -2.328125 0.59375q-2.03125 0 -3.28125 -1.296875q-1.25 -1.3125 -1.25 -3.765625zm1.6875 0q0 1.859375 0.796875 2.796875q0.8125 0.921875 2.046875 0.921875q1.21875 0 2.03125 -0.921875q0.8125 -0.9375 0.8125 -2.84375q0 -1.796875 -0.8125 -2.71875q-0.8125 -0.921875 -2.03125 -0.921875q-1.234375 0 -2.046875 0.921875q-0.796875 0.90625 -0.796875 2.765625zm9.297577 4.84375l0 -9.671875l1.46875 0l0 1.375q1.0625 -1.59375 3.078125 -1.59375q0.875 0 1.609375 0.3125q0.734375 0.3125 1.09375 0.828125q0.375 0.5 0.515625 1.203125q0.09375 0.453125 0.09375 1.59375l0 5.953125l-1.640625 0l0 -5.890625q0 -1.0 -0.203125 -1.484375q-0.1875 -0.5 -0.671875 -0.796875q-0.484375 -0.296875 -1.140625 -0.296875q-1.046875 0 -1.8125 0.671875q-0.75 0.65625 -0.75 2.515625l0 5.28125l-1.640625 0z" fill-rule="nonzero"/><path fill="#000000" fill-opacity="0.0" d="m-5.086614 288.31497l0 -200.53545l42.015747 0l0 200.53545z" fill-rule="evenodd"/><path fill="#000000" d="m21.833384 277.87747l-13.359375 0l0 -5.046875q0 -1.328125 0.125 -2.03125q0.171875 -0.96875 0.640625 -1.640625q0.453125 -0.671875 1.28125 -1.078125q0.828125 -0.40625 1.828125 -0.40625q1.703125 0 2.890625 1.09375q1.171875 1.078125 1.171875 3.921875l0 3.421875l5.421875 0l0 1.765625zm-7.0 -1.765625l0 -3.453125q0 -1.71875 -0.640625 -2.4375q-0.640625 -0.71875 -1.796875 -0.71875q-0.84375 0 -1.4375 0.421875q-0.59375 0.421875 -0.78125 1.125q-0.125 0.4375 -0.125 1.640625l0 3.421875l4.78125 0zm7.0 -10.459198l-9.671875 0l0 -1.46875l1.46875 0q-1.03125 -0.5625 -1.359375 -1.03125q-0.328125 -0.484375 -0.328125 -1.0625q0 -0.828125 0.53125 -1.6875l1.515625 0.5625q-0.359375 0.609375 -0.359375 1.203125q0 0.546875 0.328125 0.96875q0.328125 0.421875 0.890625 0.609375q0.875 0.28125 1.921875 0.28125l5.0625 0l0 1.625zm-3.109375 -12.853317l0.203125 -1.6875q1.484375 0.40625 2.3125 1.484375q0.8125 1.078125 0.8125 2.765625q0 2.1250153 -1.296875 3.3750153q-1.3125 1.234375 -3.671875 1.234375q-2.453125 0 -3.796875 -1.25q-1.34375 -1.265625 -1.34375 -3.2656403q0 -1.9375 1.328125 -3.15625q1.3125 -1.234375 3.703125 -1.234375q0.15625 0 0.4375 0l0 7.2187653q1.59375 -0.09375 2.453125 -0.90625q0.84375 -0.8125 0.84375 -2.0156403q0 -0.90625 -0.46875 -1.546875q-0.484375 -0.640625 -1.515625 -1.015625zm-2.65625 5.3906403l0 -5.4062653q-1.21875 0.109375 -1.828125 0.625q-0.953125 0.78125 -0.953125 2.03125q0 1.1250153 0.765625 1.9062653q0.75 0.765625 2.015625 0.84375zm5.765625 -15.406982l-1.21875 0q1.4375 0.90625 1.4375 2.703125q0 1.15625 -0.640625 2.125q-0.640625 0.96875 -1.78125 1.5q-1.140625 0.53125 -2.625 0.53125q-1.453125 0 -2.625 -0.484375q-1.1875 -0.484375 -1.8125 -1.4375q-0.625 -0.96875 -0.625 -2.171875q0 -0.875 0.375 -1.546875q0.359375 -0.6875 0.953125 -1.109375l-4.796875 0l0 -1.640625l13.359375 0l0 1.53125zm-4.828125 5.171875q1.859375 0 2.78125 -0.78125q0.921875 -0.78125 0.921875 -1.84375q0 -1.078125 -0.875 -1.828125q-0.890625 -0.75 -2.6875 -0.75q-1.984375 0 -2.90625 0.765625q-0.9375 0.765625 -0.9375 1.890625q0 1.078125 0.890625 1.8125q0.890625 0.734375 2.8125 0.734375zm-6.640625 -9.281967l-1.890625 0l0 -1.640625l1.890625 0l0 1.640625zm11.46875 0l-9.671875 0l0 -1.640625l9.671875 0l0 1.640625zm-3.546875 -10.457321l0.21875 -1.609375q1.65625 0.265625 2.609375 1.359375q0.9375 1.078125 0.9375 2.671875q0 1.984375 -1.296875 3.1875q-1.296875 1.203125 -3.71875 1.203125q-1.578125 0 -2.75 -0.515625q-1.171875 -0.515625 -1.75 -1.578125q-0.59375 -1.0625 -0.59375 -2.3125q0 -1.578125 0.796875 -2.578125q0.796875 -1.0 2.265625 -1.28125l0.234375 1.59375q-0.96875 0.234375 -1.453125 0.8125q-0.5 0.578125 -0.5 1.390625q0 1.234375 0.890625 2.015625q0.890625 0.78125 2.8125 0.78125q1.953125 0 2.84375 -0.75q0.875 -0.75 0.875 -1.953125q0 -0.96875 -0.59375 -1.609375q-0.59375 -0.65625 -1.828125 -0.828125zm2.078125 -6.59375l1.453125 -0.234375q0.140625 0.6875 0.140625 1.234375q0 0.890625 -0.28125 1.390625q-0.28125 0.484375 -0.734375 0.6875q-0.46875 0.203125 -1.9375 0.203125l-5.578125 0l0 1.203125l-1.265625 0l0 -1.203125l-2.390625 0l-0.984375 -1.625l3.375 0l0 -1.65625l1.265625 0l0 1.65625l5.671875 0q0.6875 0 0.890625 -0.078125q0.203125 -0.09375 0.328125 -0.28125q0.109375 -0.203125 0.109375 -0.578125q0 -0.265625 -0.0625 -0.71875zm-10.0 -1.6051788l-1.890625 0l0 -1.640625l1.890625 0l0 1.640625zm11.46875 0l-9.671875 0l0 -1.640625l9.671875 0l0 1.640625zm-4.84375 -3.5354462q-2.6875 0 -3.96875 -1.484375q-1.078125 -1.25 -1.078125 -3.046875q0 -2.0 1.3125 -3.265625q1.296875 -1.265625 3.609375 -1.265625q1.859375 0 2.9375 0.5625q1.0625 0.5625 1.65625 1.640625q0.59375 1.0625 0.59375 2.328125q0 2.03125 -1.296875 3.28125q-1.3125 1.25 -3.765625 1.25zm0 -1.6875q1.859375 0 2.796875 -0.796875q0.921875 -0.8125 0.921875 -2.046875q0 -1.21875 -0.921875 -2.03125q-0.9375 -0.8125 -2.84375 -0.8125q-1.796875 0 -2.71875 0.8125q-0.921875 0.8125 -0.921875 2.03125q0 1.234375 0.921875 2.046875q0.90625 0.796875 2.765625 0.796875zm4.84375 -9.297592l-9.671875 0l0 -1.46875l1.375 0q-1.59375 -1.0625 -1.59375 -3.078125q0 -0.875 0.3125 -1.609375q0.3125 -0.734375 0.828125 -1.09375q0.5 -0.375 1.203125 -0.515625q0.453125 -0.09375 1.59375 -0.09375l5.953125 0l0 1.640625l-5.890625 0q-1.0 0 -1.484375 0.203125q-0.5 0.1875 -0.796875 0.671875q-0.296875 0.484375 -0.296875 1.140625q0 1.046875 0.671875 1.8125q0.65625 0.75 2.515625 0.75l5.28125 0l0 1.640625zm-3.109375 -22.184021l0.203125 -1.6875q1.484375 0.40625 2.3125 1.484375q0.8125 1.078125 0.8125 2.765625q0 2.125 -1.296875 3.375q-1.3125 1.234375 -3.671875 1.234375q-2.453125 0 -3.796875 -1.25q-1.34375 -1.265625 -1.34375 -3.265625q0 -1.9375 1.328125 -3.15625q1.3125 -1.234375 3.703125 -1.234375q0.15625 0 0.4375 0l0 7.21875q1.59375 -0.09375 2.453125 -0.90625q0.84375 -0.8125 0.84375 -2.015625q0 -0.90625 -0.46875 -1.546875q-0.484375 -0.640625 -1.515625 -1.015625zm-2.65625 5.390625l0 -5.40625q-1.21875 0.109375 -1.828125 0.625q-0.953125 0.78125 -0.953125 2.03125q0 1.125 0.765625 1.90625q0.75 0.765625 2.015625 0.84375zm5.765625 -9.125717l-9.671875 0l0 -1.46875l1.46875 0q-1.03125 -0.5625 -1.359375 -1.03125q-0.328125 -0.484375 -0.328125 -1.0625q0 -0.828125 0.53125 -1.6875l1.515625 0.5625q-0.359375 0.609375 -0.359375 1.203125q0 0.546875 0.328125 0.96875q0.328125 0.421875 0.890625 0.609375q0.875 0.28125 1.921875 0.28125l5.0625 0l0 1.625zm0 -6.212677l-9.671875 0l0 -1.46875l1.46875 0q-1.03125 -0.5625 -1.359375 -1.03125q-0.328125 -0.484375 -0.328125 -1.0625q0 -0.828125 0.53125 -1.6875l1.515625 0.5625q-0.359375 0.609375 -0.359375 1.203125q0 0.546875 0.328125 0.96875q0.328125 0.421875 0.890625 0.609375q0.875 0.28125 1.921875 0.28125l5.0625 0l0 1.625zm-4.84375 -5.618927q-2.6875 0 -3.96875 -1.484375q-1.078125 -1.25 -1.078125 -3.046875q0 -2.0 1.3125 -3.265625q1.296875 -1.265625 3.609375 -1.265625q1.859375 0 2.9375 0.5625q1.0625 0.5625 1.65625 1.640625q0.59375 1.0625 0.59375 2.328125q0 2.03125 -1.296875 3.28125q-1.3125 1.25 -3.765625 1.25zm0 -1.6875q1.859375 0 2.796875 -0.796875q0.921875 -0.8125 0.921875 -2.046875q0 -1.21875 -0.921875 -2.03125q-0.9375 -0.8125 -2.84375 -0.8125q-1.796875 0 -2.71875 0.8125q-0.921875 0.8125 -0.921875 2.03125q0 1.234375 0.921875 2.046875q0.90625 0.796875 2.765625 0.796875zm4.84375 -9.281967l-9.671875 0l0 -1.46875l1.46875 0q-1.03125 -0.5625 -1.359375 -1.03125q-0.328125 -0.484375 -0.328125 -1.0625q0 -0.828125 0.53125 -1.6875l1.515625 0.5625q-0.359375 0.609375 -0.359375 1.203125q0 0.546875 0.328125 0.96875q0.328125 0.421875 0.890625 0.609375q0.875 0.28125 1.921875 0.28125l5.0625 0l0 1.625z" fill-rule="nonzero"/><path fill="#000000" d="m67.46982 46.238846l0 0c0 -7.305813 5.922531 -13.228348 13.228348 -13.228348l0 0c3.5083694 0 6.8730545 1.3936958 9.353851 3.8744926c2.4807968 2.4807968 3.8744888 5.845478 3.8744888 9.353855l0 0c0 7.305813 -5.922531 13.228344 -13.22834 13.228344l0 0c-7.3058167 0 -13.228348 -5.922531 -13.228348 -13.228344z" fill-rule="evenodd"/><path stroke="#000000" stroke-width="1.0" stroke-linejoin="round" stroke-linecap="butt" d="m67.46982 46.238846l0 0c0 -7.305813 5.922531 -13.228348 13.228348 -13.228348l0 0c3.5083694 0 6.8730545 1.3936958 9.353851 3.8744926c2.4807968 2.4807968 3.8744888 5.845478 3.8744888 9.353855l0 0c0 7.305813 -5.922531 13.228344 -13.22834 13.228344l0 0c-7.3058167 0 -13.228348 -5.922531 -13.228348 -13.228344z" fill-rule="evenodd"/><path fill="#000000" d="m87.993065 150.15094l0 0c0 -7.3058167 5.9225388 -13.228348 13.228348 -13.228348l0 0c3.508377 0 6.873062 1.3937073 9.353859 3.8744965c2.4807892 2.4808044 3.8744888 5.8454742 3.8744888 9.353851l0 0c0 7.3058167 -5.922531 13.228348 -13.228348 13.228348l0 0c-7.305809 0 -13.228348 -5.922531 -13.228348 -13.228348z" fill-rule="evenodd"/><path stroke="#000000" stroke-width="1.0" stroke-linejoin="round" stroke-linecap="butt" d="m87.993065 150.15094l0 0c0 -7.3058167 5.9225388 -13.228348 13.228348 -13.228348l0 0c3.508377 0 6.873062 1.3937073 9.353859 3.8744965c2.4807892 2.4808044 3.8744888 5.8454742 3.8744888 9.353851l0 0c0 7.3058167 -5.922531 13.228348 -13.228348 13.228348l0 0c-7.305809 0 -13.228348 -5.922531 -13.228348 -13.228348z" fill-rule="evenodd"/><path fill="#cccccc" d="m166.6588 78.238846l0 0c0 -7.3058167 5.922531 -13.228348 13.228348 -13.228348l0 0c3.5083618 0 6.873047 1.3936996 9.353851 3.8744965c2.4807892 2.4807968 3.8744812 5.8454742 3.8744812 9.353851l0 0c0 7.3058167 -5.922531 13.228348 -13.2283325 13.228348l0 0c-7.3058167 0 -13.228348 -5.922531 -13.228348 -13.228348z" fill-rule="evenodd"/><path stroke="#000000" stroke-width="1.0" stroke-linejoin="round" stroke-linecap="butt" d="m166.6588 78.238846l0 0c0 -7.3058167 5.922531 -13.228348 13.228348 -13.228348l0 0c3.5083618 0 6.873047 1.3936996 9.353851 3.8744965c2.4807892 2.4807968 3.8744812 5.8454742 3.8744812 9.353851l0 0c0 7.3058167 -5.922531 13.228348 -13.2283325 13.228348l0 0c-7.3058167 0 -13.228348 -5.922531 -13.228348 -13.228348z" fill-rule="evenodd"/><path fill="#000000" d="m144.99213 227.60104l0 0c0 -7.3058014 5.922531 -13.228348 13.228348 -13.228348l0 0c3.508377 0 6.873062 1.3937073 9.353851 3.8744965c2.4807892 2.4808044 3.8744965 5.8454742 3.8744965 9.353851l0 0c0 7.3058167 -5.922531 13.228348 -13.228348 13.228348l0 0c-7.3058167 0 -13.228348 -5.922531 -13.228348 -13.228348z" fill-rule="evenodd"/><path stroke="#000000" stroke-width="1.0" stroke-linejoin="round" stroke-linecap="butt" d="m144.99213 227.60104l0 0c0 -7.3058014 5.922531 -13.228348 13.228348 -13.228348l0 0c3.508377 0 6.873062 1.3937073 9.353851 3.8744965c2.4807892 2.4808044 3.8744965 5.8454742 3.8744965 9.353851l0 0c0 7.3058167 -5.922531 13.228348 -13.228348 13.228348l0 0c-7.3058167 0 -13.228348 -5.922531 -13.228348 -13.228348z" fill-rule="evenodd"/><path fill="#000000" d="m380.88715 312.82416l0 0c0 -7.3058167 5.922516 -13.228363 13.2283325 -13.228363l0 0c3.5083923 0 6.8730774 1.3937073 9.353851 3.8745117c2.4808044 2.480774 3.8745117 5.845459 3.8745117 9.353851l0 0c0 7.3058167 -5.9225464 13.2283325 -13.228363 13.2283325l0 0c-7.3058167 0 -13.2283325 -5.922516 -13.2283325 -13.2283325z" fill-rule="evenodd"/><path stroke="#000000" stroke-width="1.0" stroke-linejoin="round" stroke-linecap="butt" d="m380.88715 312.82416l0 0c0 -7.3058167 5.922516 -13.228363 13.2283325 -13.228363l0 0c3.5083923 0 6.8730774 1.3937073 9.353851 3.8745117c2.4808044 2.480774 3.8745117 5.845459 3.8745117 9.353851l0 0c0 7.3058167 -5.9225464 13.2283325 -13.228363 13.2283325l0 0c-7.3058167 0 -13.2283325 -5.922516 -13.2283325 -13.2283325z" fill-rule="evenodd"/><path fill="#cccccc" d="m156.2021 178.26772l0 0c0 -7.3058167 5.922531 -13.228348 13.228348 -13.228348l0 0c3.508377 0 6.873047 1.393692 9.353851 3.8744965c2.4807892 2.4807892 3.8744965 5.8454742 3.8744965 9.353851l0 0c0 7.3058167 -5.922531 13.228348 -13.228348 13.228348l0 0c-7.3058167 0 -13.228348 -5.922531 -13.228348 -13.228348z" fill-rule="evenodd"/><path stroke="#000000" stroke-width="1.0" stroke-linejoin="round" stroke-linecap="butt" d="m156.2021 178.26772l0 0c0 -7.3058167 5.922531 -13.228348 13.228348 -13.228348l0 0c3.508377 0 6.873047 1.393692 9.353851 3.8744965c2.4807892 2.4807892 3.8744965 5.8454742 3.8744965 9.353851l0 0c0 7.3058167 -5.922531 13.228348 -13.228348 13.228348l0 0c-7.3058167 0 -13.228348 -5.922531 -13.228348 -13.228348z" fill-rule="evenodd"/><path fill="#cccccc" d="m274.67453 104.69554l0 0c0 -7.3058167 5.9225464 -13.228348 13.228363 -13.228348l0 0c3.5083618 0 6.873047 1.393692 9.353851 3.8744888c2.4808044 2.4807968 3.8744812 5.845482 3.8744812 9.353859l0 0c0 7.305809 -5.922516 13.22834 -13.2283325 13.22834l0 0c-7.3058167 0 -13.228363 -5.922531 -13.228363 -13.22834z" fill-rule="evenodd"/><path stroke="#000000" stroke-width="1.0" stroke-linejoin="round" stroke-linecap="butt" d="m274.67453 104.69554l0 0c0 -7.3058167 5.9225464 -13.228348 13.228363 -13.228348l0 0c3.5083618 0 6.873047 1.393692 9.353851 3.8744888c2.4808044 2.4807968 3.8744812 5.845482 3.8744812 9.353859l0 0c0 7.305809 -5.922516 13.22834 -13.2283325 13.22834l0 0c-7.3058167 0 -13.228363 -5.922531 -13.228363 -13.22834z" fill-rule="evenodd"/><path fill="#cccccc" d="m346.8714 204.04724l0 0c0 -7.3058167 5.922516 -13.228348 13.2283325 -13.228348l0 0c3.5083923 0 6.8730774 1.3937073 9.353851 3.8744965c2.4808044 2.4808044 3.8745117 5.8454742 3.8745117 9.353851l0 0c0 7.3058167 -5.9225464 13.228348 -13.228363 13.228348l0 0c-7.3058167 0 -13.2283325 -5.922531 -13.2283325 -13.228348z" fill-rule="evenodd"/><path stroke="#000000" stroke-width="1.0" stroke-linejoin="round" stroke-linecap="butt" d="m346.8714 204.04724l0 0c0 -7.3058167 5.922516 -13.228348 13.2283325 -13.228348l0 0c3.5083923 0 6.8730774 1.3937073 9.353851 3.8744965c2.4808044 2.4808044 3.8745117 5.8454742 3.8745117 9.353851l0 0c0 7.3058167 -5.9225464 13.228348 -13.228363 13.228348l0 0c-7.3058167 0 -13.2283325 -5.922531 -13.2283325 -13.228348z" fill-rule="evenodd"/><path fill="#000000" fill-opacity="0.0" d="m158.08398 228.45932l238.20474 83.49606" fill-rule="evenodd"/><path stroke="#000000" stroke-width="2.0" stroke-linejoin="round" stroke-linecap="butt" stroke-dasharray="8.0,6.0" d="m158.08398 228.45932l238.20474 83.49606" fill-rule="evenodd"/><path fill="#000000" fill-opacity="0.0" d="m228.39816 242.73534l113.95276 38.047226l-13.259857 39.874023l-113.95274 -38.04724z" fill-rule="evenodd"/><path fill="#000000" d="m229.80371 271.5855l4.2155914 -12.676849l4.787094 1.5983582q1.2597656 0.42062378 1.8872528 0.76190186q0.8646393 0.46990967 1.3540192 1.1274719q0.49430847 0.64276123 0.6183319 1.557251q0.12400818 0.9144592 -0.19154358 1.8633728q-0.53741455 1.6161194 -1.949585 2.3965454q-1.3924255 0.77056885 -4.089798 -0.1300354l-3.2457275 -1.0837097l-1.7108917 5.144867l-1.6747437 -0.5591736zm3.883606 -6.083191l3.2753906 1.0935974q1.6302643 0.54434204 2.5141754 0.1640625q0.88391113 -0.38027954 1.248764 -1.4774475q0.2662506 -0.80062866 0.053451538 -1.4976501q-0.21279907 -0.6970215 -0.8205719 -1.0976257q-0.37553406 -0.25717163 -1.5167236 -0.6382141l-3.2457428 -1.0837097l-1.5087433 4.5369873zm14.089066 10.832062q-1.1160278 0.4345398 -2.0198822 0.47869873q-0.8841095 0.03427124 -1.8029938 -0.27252197q-1.5117188 -0.50476074 -2.0803223 -1.5182495q-0.5686188 -1.0134888 -0.18896484 -2.1551514q0.22680664 -0.68203735 0.72047424 -1.126709q0.49858093 -0.45950317 1.0961456 -0.6223755q0.6173096 -0.17276001 1.2989349 -0.14285278q0.48406982 0.029846191 1.4572144 0.22296143q1.956192 0.4060669 2.9489746 0.39160156q0.123291016 -0.32122803 0.14794922 -0.39535522q0.31555176 -0.9489136 0.004058838 -1.4977112q-0.42025757 -0.7168579 -1.6059265 -1.1127319q-1.0967255 -0.36618042 -1.7436523 -0.15390015q-0.6469116 0.21231079 -1.2193451 1.091919l-1.4575043 -0.71725464q0.52796936 -0.8944702 1.1994476 -1.3291626q0.6764221 -0.44955444 1.6889496 -0.47387695q1.0125427 -0.024353027 2.1833801 0.36657715q1.1856537 0.39587402 1.8181915 0.92004395q0.6522827 0.51431274 0.85017395 1.0581055q0.21763611 0.533905 0.13902283 1.2160034q-0.059020996 0.42504883 -0.40415955 1.4629211l-0.6902771 2.0757446q-0.71984863 2.1647034 -0.8083954 2.7775574q-0.083618164 0.598053 0.020477295 1.2258606l-1.6154633 -0.5393982q-0.08924866 -0.5733948 0.06349182 -1.2307434zm1.0252838 -3.5288086q-0.9631195 0.073791504 -2.7315674 -0.2531128q-1.007721 -0.1882019 -1.467041 -0.14389038q-0.45933533 0.044311523 -0.79011536 0.29626465q-0.31596375 0.2569275 -0.45401 0.6720581q-0.20707703 0.6227112 0.12911987 1.196228q0.33621216 0.5734863 1.2402802 0.8753357q0.88923645 0.29690552 1.7140045 0.14401245q0.84451294 -0.16281128 1.3973846 -0.7359619q0.42944336 -0.449646 0.7696533 -1.4726868l0.19229126 -0.5782471zm2.4392395 5.9375l3.0519867 -9.177704l1.393158 0.46514893l-0.46347046 1.3937073q0.858963 -0.80041504 1.4071198 -0.9633179q0.5629883 -0.15795898 1.1113586 0.025115967q0.78549194 0.26226807 1.4329834 1.0385437l-1.0118103 1.2600403q-0.4645996 -0.5339966 -1.027771 -0.7220459q-0.5187378 -0.17318726 -1.0224304 0.0045776367q-0.5037079 0.17773438 -0.85905457 0.6521301q-0.5428772 0.74121094 -0.87323 1.7345886l-1.5974884 4.8038635l-1.5413513 -0.51464844zm13.172852 1.1201477l1.53656 0.72717285q-0.85375977 1.2798767 -2.1376953 1.7242432q-1.2790222 0.4295349 -2.8796387 -0.104888916q-2.015625 -0.67297363 -2.7920532 -2.299469q-0.75668335 -1.636383 -0.012176514 -3.8752136q0.7741089 -2.3277893 2.383789 -3.2070007q1.6245117 -0.8742676 3.5215454 -0.24087524q1.8377686 0.61361694 2.574707 2.2598572q0.75665283 1.6363525 0.0022888184 3.9048462q-0.049316406 0.1482544 -0.13806152 0.41516113l-6.847168 -2.2861938q-0.41397095 1.5420227 0.085510254 2.6148071q0.50442505 1.0579529 1.6456299 1.4389954q0.8595886 0.2869873 1.6151733 0.045074463q0.76049805 -0.25674438 1.4415894 -1.1165161zm-4.2749634 -4.2277527l5.1279907 1.7121582q0.28082275 -1.1911316 -0.015960693 -1.9326782q-0.4402771 -1.1518555 -1.625946 -1.5477295q-1.0670776 -0.3562622 -2.0497131 0.122802734q-0.9628906 0.46920776 -1.4363708 1.6454468zm10.708862 8.105591l-0.23623657 1.4530945q-0.69647217 -0.08428955 -1.21521 -0.2574768q-0.8447571 -0.28207397 -1.2302856 -0.7073059q-0.37069702 -0.42025757 -0.42037964 -0.9145813q-0.04473877 -0.50912476 0.4187317 -1.902832l1.7601929 -5.2931213l-1.1412048 -0.38104248l0.39938354 -1.2009583l1.1411743 0.38104248l0.75439453 -2.2684937l1.8519592 -0.4194336l-1.0650024 3.2025452l1.5710144 0.52453613l-0.39938354 1.2009583l-1.5709839 -0.52453613l-1.7897949 5.3821106q-0.21691895 0.65237427 -0.2069397 0.8698425q0.024841309 0.22244263 0.16323853 0.40045166q0.1581726 0.16812134 0.513855 0.28686523q0.25195312 0.08413696 0.70147705 0.16833496zm2.009552 -2.887207q0.848053 -2.5502014 2.6603088 -3.295868q1.5258789 -0.62716675 3.2302551 -0.05810547q1.8970337 0.63339233 2.6833496 2.279663q0.79125977 1.6314392 0.061523438 3.8258057q-0.58673096 1.7643738 -1.4604797 2.609253q-0.86880493 0.8300781 -2.0787964 1.052063q-1.1951599 0.2268982 -2.3956604 -0.17391968q-1.9266968 -0.64328 -2.7030945 -2.2697754q-0.7715149 -1.6413269 0.0025939941 -3.9691162zm1.6006165 0.5344238q-0.58673096 1.7643738 -0.12670898 2.906372q0.47979736 1.1320801 1.6506348 1.5230103q1.1560059 0.38598633 2.2175903 -0.23147583q1.0664978 -0.6322937 1.6680298 -2.4411316q0.5670166 -1.7050781 0.08721924 -2.8371887q-0.47976685 -1.1320801 -1.6357727 -1.5180664q-1.1708374 -0.39093018 -2.2324219 0.22653198q-1.0418396 0.60757446 -1.6285706 2.3719482zm12.577576 9.306091l2.6526184 -7.976776l-1.3783264 -0.46017456l0.39938354 -1.2009888l1.3783264 0.46020508l0.32540894 -0.97854614q0.30569458 -0.9192505 0.6215515 -1.3244629q0.424469 -0.5336609 1.1109314 -0.7162781q0.6864319 -0.1826477 1.7090759 0.15881348q0.6520996 0.2177124 1.4031067 0.6332092l-0.69073486 1.2848816q-0.44467163 -0.24731445 -0.8744812 -0.3908081q-0.71139526 -0.23754883 -1.1113586 -0.025146484q-0.39501953 0.1975708 -0.67111206 1.0278625l-0.28103638 0.8451233l1.7933044 0.5987549l-0.39938354 1.2009583l-1.7933044 -0.5987549l-2.6526184 7.976776l-1.5413513 -0.51464844zm4.5311584 1.5128784l3.052002 -9.177704l1.3931274 0.46514893l-0.46347046 1.3937073q0.8589783 -0.80041504 1.407135 -0.9633179q0.5629883 -0.15795898 1.1113586 0.025115967q0.78549194 0.26226807 1.4329834 1.0385437l-1.0118103 1.2600403q-0.4645996 -0.5339966 -1.027771 -0.7220459q-0.5187378 -0.17318726 -1.0224304 0.0045776367q-0.50372314 0.17773438 -0.8590698 0.6521301q-0.5428772 0.74121094 -0.87319946 1.7346191l-1.5975037 4.803833l-1.5413513 -0.51464844zm6.8581543 -2.816742q0.848053 -2.5502014 2.6603088 -3.2958984q1.5258789 -0.62716675 3.2302551 -0.05807495q1.8970642 0.63339233 2.6833801 2.279663q0.79122925 1.6314392 0.061523438 3.8257751q-0.58673096 1.7643738 -1.4604797 2.6092834q-0.86883545 0.8300781 -2.078827 1.0520325q-1.1951599 0.22692871 -2.39563 -0.17388916q-1.9266968 -0.64331055 -2.703125 -2.269806q-0.7714844 -1.6412964 0.0025939941 -3.9690857zm1.600647 0.5344238q-0.58673096 1.7643738 -0.12670898 2.9063416q0.47976685 1.1321106 1.6506042 1.5230408q1.1560059 0.3859558 2.2175903 -0.23150635q1.0665283 -0.6322632 1.6680298 -2.4411316q0.5670166 -1.7050781 0.087249756 -2.8371582q-0.47979736 -1.1321106 -1.6358032 -1.5180664q-1.1708374 -0.39093018 -2.2324219 0.22653198q-1.0418091 0.60757446 -1.62854 2.3719482zm7.2905273 7.5408325l3.052002 -9.177734l1.393158 0.46514893l-0.43389893 1.3047485q1.5107117 -1.1758423 3.4226074 -0.5374756q0.82995605 0.2770996 1.4279175 0.8062134q0.5979614 0.52911377 0.77612305 1.1322021q0.19793701 0.5932312 0.109436035 1.3049622q-0.05404663 0.45965576 -0.41400146 1.5420227l-1.8785095 5.6489563l-1.5561829 -0.5195923l1.8587952 -5.5896606q0.31558228 -0.9489136 0.27575684 -1.4728699q-0.020080566 -0.5338135 -0.38583374 -0.9689331q-0.3657837 -0.43511963 -0.98825073 -0.64294434q-0.99298096 -0.33154297 -1.9312134 0.0635376q-0.91845703 0.38519287 -1.5052185 2.1495667l-1.6665039 5.0114136l-1.5561829 -0.51956177zm13.699066 3.0254517l-0.23623657 1.453125q-0.69647217 -0.08428955 -1.21521 -0.25750732q-0.8447876 -0.28204346 -1.2302856 -0.7072754q-0.37069702 -0.4202881 -0.42037964 -0.9145813q-0.044769287 -0.5091553 0.41870117 -1.9028625l1.7601929 -5.2931213l-1.1411743 -0.38104248l0.39935303 -1.2009583l1.1412048 0.38104248l0.754364 -2.2684937l1.8519897 -0.4194336l-1.0650024 3.2025757l1.5710144 0.5245056l-0.39938354 1.2009888l-1.5710144 -0.52453613l-1.7897644 5.38208q-0.21694946 0.65237427 -0.2069397 0.86987305q0.024841309 0.22244263 0.16323853 0.40042114q0.15814209 0.16812134 0.513855 0.28689575q0.25195312 0.084106445 0.70147705 0.16830444z" fill-rule="nonzero"/><path fill="#000000" fill-opacity="0.0" d="m159.21523 228.75066l235.74803 0" fill-rule="evenodd"/><path stroke="#000000" stroke-width="1.0" stroke-linejoin="round" stroke-linecap="butt" stroke-dasharray="1.0,3.0" d="m159.21523 228.75066l235.74803 0" fill-rule="evenodd"/><path fill="#000000" fill-opacity="0.0" d="m394.96588 228.75066l0 80.47243" fill-rule="evenodd"/><path stroke="#000000" stroke-width="1.0" stroke-linejoin="round" stroke-linecap="butt" stroke-dasharray="1.0,3.0" d="m394.96588 228.75066l0 80.47243" fill-rule="evenodd"/><path fill="#000000" fill-opacity="0.0" d="m75.72535 129.14436l50.992126 0l0 42.015747l-50.992126 0z" fill-rule="evenodd"/><path fill="#ffffff" d="m94.968376 156.06436l5.125 -13.359375l1.90625 0l5.46875 13.359375l-2.015625 0l-1.546875 -4.046875l-5.59375 0l-1.46875 4.046875l-1.875 0zm3.859375 -5.484375l4.53125 0l-1.40625 -3.703125q-0.625 -1.6875 -0.9375 -2.765625q-0.265625 1.28125 -0.71875 2.546875l-1.46875 3.921875z" fill-rule="nonzero"/><path fill="#000000" fill-opacity="0.0" d="m163.61769 57.010498l26.456696 0l0 42.015747l-26.456696 0z" fill-rule="evenodd"/><path fill="#000000" d="m174.05519 83.9305l0 -13.359375l4.609375 0q1.546875 0 2.375 0.203125q1.140625 0.25 1.953125 0.953125q1.0625 0.890625 1.578125 2.28125q0.53125 1.390625 0.53125 3.171875q0 1.515625 -0.359375 2.703125q-0.359375 1.171875 -0.921875 1.9375q-0.546875 0.765625 -1.203125 1.21875q-0.65625 0.4375 -1.59375 0.671875q-0.9375 0.21875 -2.140625 0.21875l-4.828125 0zm1.765625 -1.578125l2.859375 0q1.3125 0 2.0625 -0.234375q0.75 -0.25 1.203125 -0.703125q0.625 -0.625 0.96875 -1.6875q0.359375 -1.0625 0.359375 -2.578125q0 -2.09375 -0.6875 -3.21875q-0.6875 -1.125 -1.671875 -1.5q-0.703125 -0.28125 -2.28125 -0.28125l-2.8125 0l0 10.203125z" fill-rule="nonzero"/><path fill="#000000" fill-opacity="0.0" d="m132.85876 205.74413l50.992126 0l0 42.015747l-50.992126 0z" fill-rule="evenodd"/><path fill="#ffffff" d="m153.49242 232.66412l0 -13.359375l5.015625 0q1.53125 0 2.453125 0.40625q0.921875 0.40625 1.4375 1.25q0.53125 0.84375 0.53125 1.765625q0 0.859375 -0.46875 1.625q-0.453125 0.75 -1.390625 1.203125q1.203125 0.359375 1.859375 1.21875q0.65625 0.859375 0.65625 2.015625q0 0.9375 -0.40625 1.75q-0.390625 0.796875 -0.984375 1.234375q-0.578125 0.4375 -1.453125 0.671875q-0.875 0.21875 -2.15625 0.21875l-5.09375 0zm1.78125 -7.75l2.875 0q1.1875 0 1.6875 -0.140625q0.671875 -0.203125 1.015625 -0.671875q0.34375 -0.46875 0.34375 -1.171875q0 -0.65625 -0.328125 -1.15625q-0.3125 -0.515625 -0.90625 -0.703125q-0.59375 -0.1875 -2.03125 -0.1875l-2.65625 0l0 4.03125zm0 6.171875l3.3125 0q0.859375 0 1.203125 -0.0625q0.609375 -0.109375 1.015625 -0.359375q0.421875 -0.265625 0.6875 -0.75q0.265625 -0.484375 0.265625 -1.125q0 -0.75 -0.390625 -1.296875q-0.375 -0.546875 -1.0625 -0.765625q-0.671875 -0.234375 -1.953125 -0.234375l-3.078125 0l0 4.59375z" fill-rule="nonzero"/><path fill="#000000" fill-opacity="0.0" d="m368.259 291.4773l50.992126 0l0 42.015747l-50.992126 0z" fill-rule="evenodd"/><path fill="#ffffff" d="m397.98734 313.7098l1.765625 0.453125q-0.5625 2.171875 -2.0 3.328125q-1.4375 1.140625 -3.53125 1.140625q-2.15625 0 -3.515625 -0.875q-1.34375 -0.890625 -2.0625 -2.546875q-0.703125 -1.671875 -0.703125 -3.59375q0 -2.078125 0.796875 -3.625q0.796875 -1.5625 2.265625 -2.359375q1.484375 -0.8125 3.25 -0.8125q2.0 0 3.359375 1.015625q1.375 1.015625 1.90625 2.875l-1.734375 0.40625q-0.46875 -1.453125 -1.359375 -2.109375q-0.875 -0.671875 -2.203125 -0.671875q-1.546875 0 -2.578125 0.734375q-1.03125 0.734375 -1.453125 1.984375q-0.421875 1.234375 -0.421875 2.5625q0 1.703125 0.5 2.96875q0.5 1.265625 1.546875 1.90625q1.046875 0.625 2.265625 0.625q1.484375 0 2.515625 -0.859375q1.03125 -0.859375 1.390625 -2.546875z" fill-rule="nonzero"/></g></svg>