<?xml version="1.0" encoding="UTF-8" standalone="no"?>
<svg
   xmlns:dc="http://purl.org/dc/elements/1.1/"
   xmlns:cc="http://creativecommons.org/ns#"
   xmlns:rdf="http://www.w3.org/1999/02/22-rdf-syntax-ns#"
   xmlns:svg="http://www.w3.org/2000/svg"
   xmlns="http://www.w3.org/2000/svg"
   version="1.1"
   id="svg3358"
   viewBox="0 0 371.28531 72.042211"
   height="20.331913mm"
   width="104.78497mm">
  <defs
     id="defs3360" />
  <metadata
     id="metadata3363">
    <rdf:RDF>
      <cc:Work
         rdf:about="">
        <dc:format>image/svg+xml</dc:format>
        <dc:type
           rdf:resource="http://purl.org/dc/dcmitype/StillImage" />
        <dc:title></dc:title>
      </cc:Work>
    </rdf:RDF>
  </metadata>
  <g
     transform="translate(-11.500208,-422.05539)"
     id="layer1">
    <g
       id="g12"
       transform="matrix(0.13333333,0,0,-0.13333333,3.912182,505.22312)">
      <path
         d="m 431.719,216.426 -374.8088,0 86.8908,407.332 366.316,0 -15.679,-82.332 -198.129,0 -15.442,-67.418 176.512,0 -21.379,-84.551 -172.602,0 -21.058,-86.551 209.129,0"
         style="fill:#841b2a;fill-opacity:1;fill-rule:nonzero;stroke:none"
         id="path14" />
      <path
         d="m 735.336,528.883 c -39.141,-0.711 -65.469,-16.07 -76.981,-45.61 -17.41,-44.73 -35.628,-112.339 -35.628,-145.39 0,-11.61 -8.051,-69.082 60.082,-69.082 71.027,0 92.347,78.871 103.839,138.91 12.829,67 27.079,122.602 -51.312,121.172 M 569.988,211.012 c -100.633,23.89 -92.652,69.98 -92.652,114.051 0,60.878 22.812,182.429 71.269,230.898 30.333,30.32 85.141,41.109 193.852,42.75 94.078,1.43 107.91,-9.738 146.922,-22.59 61.187,-20.16 56.269,-89.969 56.269,-89.969 l -16.46,-96.961 -124.012,0 252.294,-305.7496 -175.322,0 -104.05,131.8516 c 0,0 -124.012,-24.242 -208.11,-4.281"
         style="fill:#841b2a;fill-opacity:1;fill-rule:nonzero;stroke:none"
         id="path16" />
      <path
         d="m 1098.81,205.313 -139.689,162.5 46.109,210 150.59,0 c 0,0 -49.89,-232.809 -56.28,-257.77 -8.48,-33.148 26.64,-47.738 52.01,-47.738 36.96,0 54.26,17.168 57.98,24.937 14.71,30.653 68.88,280.571 68.88,280.571 l 149.65,-0.469 c 0,0 -44.85,-287.582 -86.93,-322.153 -39.91,-32.777 -65.57,-42.738 -118.32,-49.878"
         style="fill:#841b2a;fill-opacity:1;fill-rule:nonzero;stroke:none"
         id="path18" />
      <path
         d="m 1557.11,215.73 -149.92,0 80.39,362.083 152.01,0"
         style="fill:#841b2a;fill-opacity:1;fill-rule:nonzero;stroke:none"
         id="path20" />
      <path
         d="m 1771.13,215.313 -152.94,1.152 78.55,362.848 327.34,0 -19.81,-73.809 -168.6,0 -13.92,-62.43 143.7,0 -12.17,-73.441 -149.32,0"
         style="fill:#841b2a;fill-opacity:1;fill-rule:nonzero;stroke:none"
         id="path22" />
      <path
         d="m 2084.43,373.801 93.96,0 -15.39,123.148 z m 268.13,-157.16 -158.99,0 -7.48,78.089 -159.07,0 -51.32,-78.089 -102.61,0 256.55,363.929 179.75,0"
         style="fill:#841b2a;fill-opacity:1;fill-rule:nonzero;stroke:none"
         id="path24" />
      <path
         d="m 2775,216.641 -185.31,0 -63.76,109.941 -108.92,-109.941 -148.42,0 199.57,180.461 -120.95,182.449 193.73,0 60,-97.668 94.19,97.668 146.42,0 -194.83,-171.199"
         style="fill:#841b2a;fill-opacity:1;fill-rule:nonzero;stroke:none"
         id="path26" />
    </g>
  </g>
</svg>
