<svg version="1.1" viewBox="0.0 0.0 511.6981627296588 348.67979002624674" fill="none" stroke="none" stroke-linecap="square" stroke-miterlimit="10" xmlns:xlink="http://www.w3.org/1999/xlink" xmlns="http://www.w3.org/2000/svg"><clipPath id="p.0"><path d="m0 0l511.69815 0l0 348.67978l-511.69815 0l0 -348.67978z" clip-rule="nonzero"/></clipPath><g clip-path="url(#p.0)"><path fill="#000000" fill-opacity="0.0" d="m0 0l511.69815 0l0 348.67978l-511.69815 0z" fill-rule="evenodd"/><path fill="#cfe2f3" d="m25.889763 93.480316l0 0c0 -21.25644 17.23175 -38.48819 38.48819 -38.48819l0 0c10.207703 0 19.997322 4.0549927 27.215263 11.272926c7.2179337 7.2179413 11.272926 17.00756 11.272926 27.215263l0 0c0 21.25644 -17.23175 38.48819 -38.48819 38.48819l0 0c-21.25644 0 -38.48819 -17.23175 -38.48819 -38.48819z" fill-rule="evenodd"/><path stroke="#000000" stroke-width="1.0" stroke-linejoin="round" stroke-linecap="butt" d="m25.889763 93.480316l0 0c0 -21.25644 17.23175 -38.48819 38.48819 -38.48819l0 0c10.207703 0 19.997322 4.0549927 27.215263 11.272926c7.2179337 7.2179413 11.272926 17.00756 11.272926 27.215263l0 0c0 21.25644 -17.23175 38.48819 -38.48819 38.48819l0 0c-21.25644 0 -38.48819 -17.23175 -38.48819 -38.48819z" fill-rule="evenodd"/><path fill="#000000" d="m53.479515 94.04406q0 -5.703125 3.0625 -8.921875q3.0625 -3.234375 7.90625 -3.234375q3.171875 0 5.71875 1.515625q2.546875 1.515625 3.875 4.234375q1.34375 2.703125 1.34375 6.140625q0 3.484375 -1.40625 6.234375q-1.40625 2.75 -3.984375 4.171875q-2.578125 1.40625 -5.5625 1.40625q-3.234375 0 -5.78125 -1.5625q-2.546875 -1.5625 -3.859375 -4.265625q-1.3125 -2.703125 -1.3125 -5.71875zm3.125 0.046875q0 4.140625 2.21875 6.53125q2.234375 2.375 5.59375 2.375q3.421875 0 5.625 -2.40625q2.21875 -2.40625 2.21875 -6.828125q0 -2.796875 -0.953125 -4.875q-0.9375 -2.09375 -2.765625 -3.234375q-1.8125 -1.15625 -4.078125 -1.15625q-3.21875 0 -5.546875 2.21875q-2.3125 2.203125 -2.3125 7.375z" fill-rule="nonzero"/><path fill="#cfe2f3" d="m25.889763 249.70604l0 0c0 -21.25644 17.23175 -38.48819 38.48819 -38.48819l0 0c10.207703 0 19.997322 4.0549927 27.215263 11.272934c7.2179337 7.217926 11.272926 17.007553 11.272926 27.215256l0 0c0 21.256424 -17.23175 38.488174 -38.48819 38.488174l0 0c-21.25644 0 -38.48819 -17.23175 -38.48819 -38.488174z" fill-rule="evenodd"/><path stroke="#000000" stroke-width="1.0" stroke-linejoin="round" stroke-linecap="butt" d="m25.889763 249.70604l0 0c0 -21.25644 17.23175 -38.48819 38.48819 -38.48819l0 0c10.207703 0 19.997322 4.0549927 27.215263 11.272934c7.2179337 7.217926 11.272926 17.007553 11.272926 27.215256l0 0c0 21.256424 -17.23175 38.488174 -38.48819 38.488174l0 0c-21.25644 0 -38.48819 -17.23175 -38.48819 -38.488174z" fill-rule="evenodd"/><path fill="#000000" d="m53.846703 261.42603l8.859375 -11.937485l-7.8125 -10.96875l3.609375 0l4.15625 5.875q1.296875 1.828125 1.84375 2.8125q0.765625 -1.25 1.8125 -2.609375l4.609375 -6.078125l3.296875 0l-8.046875 10.796875l8.671875 12.10936l-3.75 0l-5.765625 -8.17186q-0.484375 -0.703125 -1.0 -1.53125q-0.765625 1.25 -1.09375 1.71875l-5.75 7.9843597l-3.640625 0z" fill-rule="nonzero"/><path fill="#000000" fill-opacity="0.0" d="m64.37795 211.21785l-27.212597 -90.519684" fill-rule="evenodd"/><path stroke="#000000" stroke-width="1.0" stroke-linejoin="round" stroke-linecap="butt" d="m64.37795 211.21785l-25.48521 -84.77372" fill-rule="evenodd"/><path fill="#000000" stroke="#000000" stroke-width="1.0" stroke-linecap="butt" d="m40.474545 125.9686l-2.8883095 -3.87043l-0.27529144 4.821495z" fill-rule="evenodd"/><path fill="#000000" fill-opacity="0.0" d="m64.37795 211.21785l27.2126 -90.519684" fill-rule="evenodd"/><path stroke="#000000" stroke-width="1.0" stroke-linejoin="round" stroke-linecap="butt" d="m64.37795 211.21785l25.485207 -84.77372" fill-rule="evenodd"/><path fill="#000000" stroke="#000000" stroke-width="1.0" stroke-linecap="butt" d="m91.44496 126.91966l-0.27529144 -4.821495l-2.8883057 3.87043z" fill-rule="evenodd"/><path fill="#000000" fill-opacity="0.0" d="m64.37795 54.992126l0 -54.992126" fill-rule="evenodd"/><path stroke="#000000" stroke-width="1.0" stroke-linejoin="round" stroke-linecap="butt" d="m64.37795 54.992126l0 -48.992126" fill-rule="evenodd"/><path fill="#000000" stroke="#000000" stroke-width="1.0" stroke-linecap="butt" d="m66.029686 5.9999995l-1.6517334 -4.5380974l-1.6517334 4.5380974z" fill-rule="evenodd"/><path fill="#cfe2f3" d="m182.74278 93.480316l0 0c0 -21.25644 17.23175 -38.48819 38.48819 -38.48819l0 0c10.207703 0 19.99733 4.0549927 27.215256 11.272926c7.2179413 7.2179413 11.272919 17.00756 11.272919 27.215263l0 0c0 21.25644 -17.231735 38.48819 -38.488174 38.48819l0 0c-21.25644 0 -38.48819 -17.23175 -38.48819 -38.48819z" fill-rule="evenodd"/><path stroke="#000000" stroke-width="1.0" stroke-linejoin="round" stroke-linecap="butt" d="m182.74278 93.480316l0 0c0 -21.25644 17.23175 -38.48819 38.48819 -38.48819l0 0c10.207703 0 19.99733 4.0549927 27.215256 11.272926c7.2179413 7.2179413 11.272919 17.00756 11.272919 27.215263l0 0c0 21.25644 -17.231735 38.48819 -38.488174 38.48819l0 0c-21.25644 0 -38.48819 -17.23175 -38.48819 -38.48819z" fill-rule="evenodd"/><path fill="#000000" d="m210.33253 94.04406q0 -5.703125 3.0625 -8.921875q3.0625 -3.234375 7.90625 -3.234375q3.171875 0 5.71875 1.515625q2.546875 1.515625 3.875 4.234375q1.34375 2.703125 1.34375 6.140625q0 3.484375 -1.40625 6.234375q-1.40625 2.75 -3.984375 4.171875q-2.578125 1.40625 -5.5625 1.40625q-3.234375 0 -5.78125 -1.5625q-2.546875 -1.5625 -3.859375 -4.265625q-1.3125 -2.703125 -1.3125 -5.71875zm3.125 0.046875q0 4.140625 2.21875 6.53125q2.234375 2.375 5.59375 2.375q3.421875 0 5.625 -2.40625q2.21875 -2.40625 2.21875 -6.828125q0 -2.796875 -0.953125 -4.875q-0.9375 -2.09375 -2.765625 -3.234375q-1.8125 -1.15625 -4.078125 -1.15625q-3.21875 0 -5.546875 2.21875q-2.3125 2.203125 -2.3125 7.375z" fill-rule="nonzero"/><path fill="#cfe2f3" d="m133.56693 249.70604l0 0c0 -21.25644 17.23175 -38.48819 38.48819 -38.48819l0 0c10.207703 0 19.99733 4.0549927 27.215256 11.272934c7.2179413 7.217926 11.272934 17.007553 11.272934 27.215256l0 0c0 21.256424 -17.23175 38.488174 -38.48819 38.488174l0 0c-21.25644 0 -38.48819 -17.23175 -38.48819 -38.488174z" fill-rule="evenodd"/><path stroke="#000000" stroke-width="1.0" stroke-linejoin="round" stroke-linecap="butt" d="m133.56693 249.70604l0 0c0 -21.25644 17.23175 -38.48819 38.48819 -38.48819l0 0c10.207703 0 19.99733 4.0549927 27.215256 11.272934c7.2179413 7.217926 11.272934 17.007553 11.272934 27.215256l0 0c0 21.256424 -17.23175 38.488174 -38.48819 38.488174l0 0c-21.25644 0 -38.48819 -17.23175 -38.48819 -38.488174z" fill-rule="evenodd"/><path fill="#000000" d="m161.52386 261.42603l8.859375 -11.937485l-7.8125 -10.96875l3.609375 0l4.15625 5.875q1.296875 1.828125 1.84375 2.8125q0.765625 -1.25 1.8125 -2.609375l4.609375 -6.078125l3.296875 0l-8.046875 10.796875l8.671875 12.10936l-3.75 0l-5.765625 -8.17186q-0.484375 -0.703125 -1.0 -1.53125q-0.765625 1.25 -1.09375 1.71875l-5.75 7.9843597l-3.640625 0z" fill-rule="nonzero"/><path fill="#000000" fill-opacity="0.0" d="m172.05511 211.21785l49.16536 -79.244095" fill-rule="evenodd"/><path stroke="#000000" stroke-width="1.0" stroke-linejoin="round" stroke-linecap="butt" d="m172.05511 211.21785l46.002136 -74.14566" fill-rule="evenodd"/><path fill="#000000" stroke="#000000" stroke-width="1.0" stroke-linecap="butt" d="m219.4608 137.943l0.98895264 -4.727005l-3.7960358 2.9853973z" fill-rule="evenodd"/><path fill="#000000" fill-opacity="0.0" d="m261.6614 211.21785l-40.440933 -79.244095" fill-rule="evenodd"/><path stroke="#000000" stroke-width="1.0" stroke-linejoin="round" stroke-linecap="butt" d="m261.6614 211.21785l-37.713577 -73.899796" fill-rule="evenodd"/><path fill="#000000" stroke="#000000" stroke-width="1.0" stroke-linecap="butt" d="m225.41907 136.56723l-3.5340729 -3.291336l0.591629 4.7929688z" fill-rule="evenodd"/><path fill="#000000" fill-opacity="0.0" d="m221.23097 54.992126l0 -54.992126" fill-rule="evenodd"/><path stroke="#000000" stroke-width="1.0" stroke-linejoin="round" stroke-linecap="butt" d="m221.23097 54.992126l0 -48.992126" fill-rule="evenodd"/><path fill="#000000" stroke="#000000" stroke-width="1.0" stroke-linecap="butt" d="m222.8827 5.9999995l-1.6517334 -4.5380974l-1.6517334 4.5380974z" fill-rule="evenodd"/><path fill="#cfe2f3" d="m223.17323 249.70604l0 0c0 -21.25644 17.23175 -38.48819 38.488174 -38.48819l0 0c10.207703 0 19.997345 4.0549927 27.215271 11.272934c7.217926 7.217926 11.272919 17.007553 11.272919 27.215256l0 0c0 21.256424 -17.23175 38.488174 -38.48819 38.488174l0 0c-21.256424 0 -38.488174 -17.23175 -38.488174 -38.488174z" fill-rule="evenodd"/><path stroke="#000000" stroke-width="1.0" stroke-linejoin="round" stroke-linecap="butt" d="m223.17323 249.70604l0 0c0 -21.25644 17.23175 -38.48819 38.488174 -38.48819l0 0c10.207703 0 19.997345 4.0549927 27.215271 11.272934c7.217926 7.217926 11.272919 17.007553 11.272919 27.215256l0 0c0 21.256424 -17.23175 38.488174 -38.48819 38.488174l0 0c-21.256424 0 -38.488174 -17.23175 -38.488174 -38.488174z" fill-rule="evenodd"/><path fill="#000000" d="m259.9114 261.42603l0 -9.70311l-8.82811 -13.203125l3.6875 0l4.5156097 6.90625q1.25 1.9375 2.328125 3.875q1.03125 -1.796875 2.5 -4.046875l4.4375 -6.734375l3.53125 0l-9.140625 13.203125l0 9.70311l-3.03125 0z" fill-rule="nonzero"/><path fill="#cfe2f3" d="m378.08398 93.480316l0 0c0 -21.25644 17.23175 -38.48819 38.48819 -38.48819l0 0c10.207703 0 19.997314 4.0549927 27.215271 11.272926c7.217926 7.2179413 11.272919 17.00756 11.272919 27.215263l0 0c0 21.25644 -17.23175 38.48819 -38.48819 38.48819l0 0c-21.25644 0 -38.48819 -17.23175 -38.48819 -38.48819z" fill-rule="evenodd"/><path stroke="#000000" stroke-width="1.0" stroke-linejoin="round" stroke-linecap="butt" d="m378.08398 93.480316l0 0c0 -21.25644 17.23175 -38.48819 38.48819 -38.48819l0 0c10.207703 0 19.997314 4.0549927 27.215271 11.272926c7.217926 7.2179413 11.272919 17.00756 11.272919 27.215263l0 0c0 21.25644 -17.23175 38.48819 -38.48819 38.48819l0 0c-21.25644 0 -38.48819 -17.23175 -38.48819 -38.48819z" fill-rule="evenodd"/><path fill="#000000" d="m405.67374 94.04406q0 -5.703125 3.0625 -8.921875q3.0625 -3.234375 7.90625 -3.234375q3.171875 0 5.71875 1.515625q2.546875 1.515625 3.875 4.234375q1.34375 2.703125 1.34375 6.140625q0 3.484375 -1.40625 6.234375q-1.40625 2.75 -3.984375 4.171875q-2.578125 1.40625 -5.5625 1.40625q-3.234375 0 -5.78125 -1.5625q-2.546875 -1.5625 -3.859375 -4.265625q-1.3125 -2.703125 -1.3125 -5.71875zm3.125 0.046875q0 4.140625 2.21875 6.53125q2.234375 2.375 5.59375 2.375q3.421875 0 5.625 -2.40625q2.21875 -2.40625 2.21875 -6.828125q0 -2.796875 -0.953125 -4.875q-0.9375 -2.09375 -2.765625 -3.234375q-1.8125 -1.15625 -4.078125 -1.15625q-3.21875 0 -5.546875 2.21875q-2.3125 2.203125 -2.3125 7.375z" fill-rule="nonzero"/><path fill="#cfe2f3" d="m330.69815 249.70604l0 0c0 -21.25644 17.23175 -38.48819 38.48819 -38.48819l0 0c10.207703 0 19.997345 4.0549927 27.215271 11.272934c7.217926 7.217926 11.272919 17.007553 11.272919 27.215256l0 0c0 21.256424 -17.23175 38.488174 -38.48819 38.488174l0 0c-21.25644 0 -38.48819 -17.23175 -38.48819 -38.488174z" fill-rule="evenodd"/><path stroke="#000000" stroke-width="1.0" stroke-linejoin="round" stroke-linecap="butt" d="m330.69815 249.70604l0 0c0 -21.25644 17.23175 -38.48819 38.48819 -38.48819l0 0c10.207703 0 19.997345 4.0549927 27.215271 11.272934c7.217926 7.217926 11.272919 17.007553 11.272919 27.215256l0 0c0 21.256424 -17.23175 38.488174 -38.48819 38.488174l0 0c-21.25644 0 -38.48819 -17.23175 -38.48819 -38.488174z" fill-rule="evenodd"/><path fill="#000000" d="m358.6551 261.42603l8.859375 -11.937485l-7.8125 -10.96875l3.609375 0l4.15625 5.875q1.296875 1.828125 1.84375 2.8125q0.765625 -1.25 1.8125 -2.609375l4.609375 -6.078125l3.296875 0l-8.046875 10.796875l8.671875 12.10936l-3.75 0l-5.765625 -8.17186q-0.484375 -0.703125 -1.0 -1.53125q-0.765625 1.25 -1.09375 1.71875l-5.75 7.9843597l-3.640625 0z" fill-rule="nonzero"/><path fill="#000000" fill-opacity="0.0" d="m416.57217 54.992126l0 -54.992126" fill-rule="evenodd"/><path stroke="#000000" stroke-width="1.0" stroke-linejoin="round" stroke-linecap="butt" d="m416.57217 54.992126l0 -48.992126" fill-rule="evenodd"/><path fill="#000000" stroke="#000000" stroke-width="1.0" stroke-linecap="butt" d="m418.2239 5.9999995l-1.6517334 -4.5380974l-1.6517334 4.5380974z" fill-rule="evenodd"/><path fill="#cfe2f3" d="m420.30447 249.70604l0 0c0 -21.25644 17.23175 -38.48819 38.48819 -38.48819l0 0c10.207703 0 19.997314 4.0549927 27.21524 11.272934c7.2179565 7.217926 11.272949 17.007553 11.272949 27.215256l0 0c0 21.256424 -17.23175 38.488174 -38.48819 38.488174l0 0c-21.25644 0 -38.48819 -17.23175 -38.48819 -38.488174z" fill-rule="evenodd"/><path stroke="#000000" stroke-width="1.0" stroke-linejoin="round" stroke-linecap="butt" d="m420.30447 249.70604l0 0c0 -21.25644 17.23175 -38.48819 38.48819 -38.48819l0 0c10.207703 0 19.997314 4.0549927 27.21524 11.272934c7.2179565 7.217926 11.272949 17.007553 11.272949 27.215256l0 0c0 21.256424 -17.23175 38.488174 -38.48819 38.488174l0 0c-21.25644 0 -38.48819 -17.23175 -38.48819 -38.488174z" fill-rule="evenodd"/><path fill="#000000" d="m457.04266 261.42603l0 -9.70311l-8.828125 -13.203125l3.6875 0l4.515625 6.90625q1.25 1.9375 2.328125 3.875q1.03125 -1.796875 2.5 -4.046875l4.4375 -6.734375l3.53125 0l-9.140625 13.203125l0 9.70311l-3.03125 0z" fill-rule="nonzero"/><path fill="#000000" fill-opacity="0.0" d="m400.60367 147.86351l47.93701 0l0 43.023636l-47.93701 0z" fill-rule="evenodd"/><path fill="#000000" d="m415.13492 175.66914q-0.015625 -0.421875 -0.015625 -0.625q0 -1.25 0.359375 -2.15625q0.25 -0.671875 0.828125 -1.359375q0.421875 -0.515625 1.515625 -1.46875q1.09375 -0.96875 1.421875 -1.546875q0.328125 -0.578125 0.328125 -1.25q0 -1.234375 -0.96875 -2.15625q-0.953125 -0.9375 -2.34375 -0.9375q-1.34375 0 -2.25 0.84375q-0.90625 0.84375 -1.1875 2.625l-2.15625 -0.25q0.28125 -2.40625 1.734375 -3.671875q1.453125 -1.28125 3.828125 -1.28125q2.515625 0 4.015625 1.375q1.5 1.359375 1.5 3.3125q0 1.125 -0.53125 2.078125q-0.515625 0.9375 -2.0625 2.296875q-1.03125 0.921875 -1.34375 1.359375q-0.3125 0.421875 -0.46875 0.984375q-0.15625 0.5625 -0.171875 1.828125l-2.03125 0zm-0.125 4.234375l0 -2.40625l2.40625 0l0 2.40625l-2.40625 0z" fill-rule="nonzero"/><path fill="#000000" fill-opacity="0.0" d="m24.0 298.43045l102.86614 0l0 43.02362l-102.86614 0z" fill-rule="evenodd"/><path fill="#000000" d="m34.15625 322.09546q0 -4.265625 2.296875 -6.6875q2.296875 -2.421875 5.9375 -2.421875q2.375 0 4.28125 1.140625q1.921875 1.125 2.921875 3.171875q1.0 2.03125 1.0 4.609375q0 2.609375 -1.0625 4.671875q-1.046875 2.0625 -2.984375 3.125q-1.9375 1.0625 -4.171875 1.0625q-2.421875 0 -4.34375 -1.171875q-1.90625 -1.171875 -2.890625 -3.203125q-0.984375 -2.03125 -0.984375 -4.296875zm2.34375 0.046875q0 3.09375 1.671875 4.890625q1.671875 1.78125 4.1875 1.78125q2.578125 0 4.234375 -1.796875q1.65625 -1.8125 1.65625 -5.125q0 -2.09375 -0.71875 -3.65625q-0.703125 -1.578125 -2.078125 -2.4375q-1.359375 -0.859375 -3.046875 -0.859375q-2.421875 0 -4.171875 1.65625q-1.734375 1.65625 -1.734375 5.546875zm34.523438 -1.78125l-11.34375 0l0 -1.96875l11.34375 0l0 1.96875zm0 5.21875l-11.34375 0l0 -1.96875l11.34375 0l0 1.96875zm8.105469 4.890625l6.640625 -8.953125l-5.859375 -8.234375l2.703125 0l3.125 4.40625q0.96875 1.375 1.375 2.109375q0.578125 -0.9375 1.359375 -1.953125l3.46875 -4.5625l2.46875 0l-6.03125 8.109375l6.5 9.078125l-2.8125 0l-4.328125 -6.125q-0.359375 -0.53125 -0.75 -1.15625q-0.578125 0.9375 -0.8125 1.296875l-4.3125 5.984375l-2.734375 0z" fill-rule="nonzero"/><path fill="#000000" fill-opacity="0.0" d="m137.7979 298.43045l166.92912 0l0 43.02362l-166.92912 0z" fill-rule="evenodd"/><path fill="#000000" d="m147.95415 322.09546q0 -4.265625 2.296875 -6.6875q2.296875 -2.421875 5.9375 -2.421875q2.375 0 4.28125 1.140625q1.921875 1.125 2.921875 3.171875q1.0 2.03125 1.0 4.609375q0 2.609375 -1.0625 4.671875q-1.046875 2.0625 -2.984375 3.125q-1.9375 1.0625 -4.171875 1.0625q-2.421875 0 -4.34375 -1.171875q-1.90625 -1.171875 -2.890625 -3.203125q-0.984375 -2.03125 -0.984375 -4.296875zm2.34375 0.046875q0 3.09375 1.671875 4.890625q1.671875 1.78125 4.1875 1.78125q2.578125 0 4.234375 -1.796875q1.65625 -1.8125 1.65625 -5.125q0 -2.09375 -0.71875 -3.65625q-0.703125 -1.578125 -2.078125 -2.4375q-1.359375 -0.859375 -3.046875 -0.859375q-2.421875 0 -4.171875 1.65625q-1.734375 1.65625 -1.734375 5.546875zm34.523438 -1.78125l-11.34375 0l0 -1.96875l11.34375 0l0 1.96875zm0 5.21875l-11.34375 0l0 -1.96875l11.34375 0l0 1.96875zm8.105469 4.890625l6.640625 -8.953125l-5.859375 -8.234375l2.703125 0l3.125 4.40625q0.96875 1.375 1.375 2.109375q0.578125 -0.9375 1.359375 -1.953125l3.46875 -4.5625l2.46875 0l-6.03125 8.109375l6.5 9.078125l-2.8125 0l-4.328125 -6.125q-0.359375 -0.53125 -0.75 -1.15625q-0.578125 0.9375 -0.8125 1.296875l-4.3125 5.984375l-2.734375 0zm33.972656 -2.03125q-1.046875 1.15625 -2.28125 1.75q-1.21875 0.578125 -2.65625 0.578125q-2.640625 0 -4.1875 -1.78125q-1.25 -1.453125 -1.25 -3.25q0 -1.59375 1.015625 -2.875q1.03125 -1.28125 3.078125 -2.265625q-1.15625 -1.328125 -1.546875 -2.15625q-0.390625 -0.84375 -0.390625 -1.609375q0 -1.546875 1.203125 -2.6875q1.21875 -1.140625 3.0625 -1.140625q1.765625 0 2.875 1.078125q1.125 1.078125 1.125 2.578125q0 2.453125 -3.25 4.1875l3.078125 3.921875q0.53125 -1.03125 0.828125 -2.390625l2.1875 0.46875q-0.5625 2.25 -1.515625 3.703125q1.171875 1.578125 2.671875 2.640625l-1.40625 1.6875q-1.28125 -0.828125 -2.640625 -2.4375zm-4.296875 -8.953125q1.375 -0.8125 1.78125 -1.421875q0.40625 -0.609375 0.40625 -1.34375q0 -0.875 -0.5625 -1.421875q-0.546875 -0.5625 -1.390625 -0.5625q-0.84375 0 -1.421875 0.546875q-0.5625 0.546875 -0.5625 1.34375q0 0.40625 0.203125 0.84375q0.203125 0.4375 0.609375 0.921875l0.9375 1.09375zm2.96875 7.296875l-3.859375 -4.796875q-1.71875 1.015625 -2.3125 1.890625q-0.59375 0.875 -0.59375 1.734375q0 1.03125 0.828125 2.15625q0.828125 1.125 2.359375 1.125q0.9375 0 1.953125 -0.578125q1.015625 -0.59375 1.625 -1.53125zm17.335938 1.65625q-1.046875 1.15625 -2.28125 1.75q-1.21875 0.578125 -2.65625 0.578125q-2.640625 0 -4.1875 -1.78125q-1.25 -1.453125 -1.25 -3.25q0 -1.59375 1.015625 -2.875q1.03125 -1.28125 3.078125 -2.265625q-1.15625 -1.328125 -1.546875 -2.15625q-0.390625 -0.84375 -0.390625 -1.609375q0 -1.546875 1.203125 -2.6875q1.21875 -1.140625 3.0625 -1.140625q1.765625 0 2.875 1.078125q1.125 1.078125 1.125 2.578125q0 2.453125 -3.25 4.1875l3.078125 3.921875q0.53125 -1.03125 0.828125 -2.390625l2.1875 0.46875q-0.5625 2.25 -1.515625 3.703125q1.171875 1.578125 2.671875 2.640625l-1.40625 1.6875q-1.28125 -0.828125 -2.640625 -2.4375zm-4.296875 -8.953125q1.375 -0.8125 1.78125 -1.421875q0.40625 -0.609375 0.40625 -1.34375q0 -0.875 -0.5625 -1.421875q-0.546875 -0.5625 -1.390625 -0.5625q-0.84375 0 -1.421875 0.546875q-0.5625 0.546875 -0.5625 1.34375q0 0.40625 0.203125 0.84375q0.203125 0.4375 0.609375 0.921875l0.9375 1.09375zm2.96875 7.296875l-3.859375 -4.796875q-1.71875 1.015625 -2.3125 1.890625q-0.59375 0.875 -0.59375 1.734375q0 1.03125 0.828125 2.15625q0.828125 1.125 2.359375 1.125q0.9375 0 1.953125 -0.578125q1.015625 -0.59375 1.625 -1.53125zm18.851578 3.6875l0 -7.28125l-6.6093903 -9.90625l2.7656403 0l3.375 5.1875q0.9375 1.453125 1.75 2.90625q0.78125 -1.34375 1.875 -3.03125l3.328125 -5.0625l2.65625 0l-6.859375 9.90625l0 7.28125l-2.28125 0z" fill-rule="nonzero"/><path fill="#000000" fill-opacity="0.0" d="m339.65878 298.43045l166.92914 0l0 43.02362l-166.92914 0z" fill-rule="evenodd"/><path fill="#000000" d="m349.81503 322.09546q0 -4.265625 2.296875 -6.6875q2.296875 -2.421875 5.9375 -2.421875q2.375 0 4.28125 1.140625q1.921875 1.125 2.921875 3.171875q1.0 2.03125 1.0 4.609375q0 2.609375 -1.0625 4.671875q-1.046875 2.0625 -2.984375 3.125q-1.9375 1.0625 -4.171875 1.0625q-2.421875 0 -4.34375 -1.171875q-1.90625 -1.171875 -2.890625 -3.203125q-0.984375 -2.03125 -0.984375 -4.296875zm2.34375 0.046875q0 3.09375 1.671875 4.890625q1.671875 1.78125 4.1875 1.78125q2.578125 0 4.234375 -1.796875q1.65625 -1.8125 1.65625 -5.125q0 -2.09375 -0.71875 -3.65625q-0.703125 -1.578125 -2.078125 -2.4375q-1.359375 -0.859375 -3.046875 -0.859375q-2.421875 0 -4.171875 1.65625q-1.734375 1.65625 -1.734375 5.546875zm34.523438 -1.78125l-11.34375 0l0 -1.96875l11.34375 0l0 1.96875zm0 5.21875l-11.34375 0l0 -1.96875l11.34375 0l0 1.96875zm8.105469 4.890625l6.640625 -8.953125l-5.859375 -8.234375l2.703125 0l3.125 4.40625q0.96875 1.375 1.375 2.109375q0.578125 -0.9375 1.359375 -1.953125l3.46875 -4.5625l2.46875 0l-6.03125 8.109375l6.5 9.078125l-2.8125 0l-4.328125 -6.125q-0.359375 -0.53125 -0.75 -1.15625q-0.578125 0.9375 -0.8125 1.296875l-4.3125 5.984375l-2.734375 0zm24.769531 5.046875l0 -22.515625l1.84375 0l0 22.515625l-1.84375 0zm6.234375 0l0 -22.515625l1.84375 0l0 22.515625l-1.84375 0zm16.953125 -5.046875l0 -7.28125l-6.609375 -9.90625l2.765625 0l3.375 5.1875q0.9375 1.453125 1.75 2.90625q0.78125 -1.34375 1.875 -3.03125l3.328125 -5.0625l2.65625 0l-6.859375 9.90625l0 7.28125l-2.28125 0z" fill-rule="nonzero"/></g></svg>