<?xml version="1.0" standalone="no"?>
<!DOCTYPE svg PUBLIC "-//W3C//DTD SVG 1.1//EN"
  "http://www.w3.org/Graphics/SVG/1.1/DTD/svg11.dtd">
<!-- Created with matplotlib (http://matplotlib.sourceforge.net/) -->
<svg width="576pt" height="216pt" viewBox="0 0 576 216"
   xmlns="http://www.w3.org/2000/svg"
   xmlns:xlink="http://www.w3.org/1999/xlink"
   version="1.1"
   id="svg1">
<g id="figure1">
<path style="fill: #ffffff; stroke: #ffffff; stroke-width: 1.0; stroke-linejoin: miter; stroke-linecap: square;  opacity: 1.0"  d="M0.0 216.0L576.0 216.0L576.0 0.0L0.0 0.0L0.0 216.0"/>
<g id="axes1">
<path style="fill: #ffffff; opacity: 1.0"  d="M34.56 194.4L264.96 194.4L264.96 21.6L34.56 21.6L34.56 194.4"/>
<g id="line2d1">
<defs><path id="m20ae8964a0d076a3bfa1ef94eb082b41" d="M0.0 3.0
C0.7956093 3.0 1.55873961235 2.68390107476 2.12132034356 2.12132034356
C2.68390107476 1.55873961235 3.0 0.7956093 3.0 0.0
C3.0 -0.7956093 2.68390107476 -1.55873961235 2.12132034356 -2.12132034356
C1.55873961235 -2.68390107476 0.7956093 -3.0 0.0 -3.0
C-0.7956093 -3.0 -1.55873961235 -2.68390107476 -2.12132034356 -2.12132034356
C-2.68390107476 -1.55873961235 -3.0 -0.7956093 -3.0 0.0
C-3.0 0.7956093 -2.68390107476 1.55873961235 -2.12132034356 2.12132034356
C-1.55873961235 2.68390107476 -0.7956093 3.0 0.0 3.0z"/></defs>
<defs>
  <clipPath id="p957fb0a461ac6969d74a0e603ca140af">
<rect x="34.56" y="21.6" width="230.4" height="172.8"/>
  </clipPath>
</defs><g clip-path="url(#p957fb0a461ac6969d74a0e603ca140af)"><use style="fill: #0000ff; stroke: #000000; stroke-width: 0.5; stroke-linejoin: miter; stroke-linecap: butt;  opacity: 1.0" xlink:href="#m20ae8964a0d076a3bfa1ef94eb082b41" x="34.560000" y="176.268801"/>
<use style="fill: #0000ff; stroke: #000000; stroke-width: 0.5; stroke-linejoin: miter; stroke-linecap: butt;  opacity: 1.0" xlink:href="#m20ae8964a0d076a3bfa1ef94eb082b41" x="46.080000" y="131.882797"/>
<use style="fill: #0000ff; stroke: #000000; stroke-width: 0.5; stroke-linejoin: miter; stroke-linecap: butt;  opacity: 1.0" xlink:href="#m20ae8964a0d076a3bfa1ef94eb082b41" x="57.600000" y="119.956688"/>
<use style="fill: #0000ff; stroke: #000000; stroke-width: 0.5; stroke-linejoin: miter; stroke-linecap: butt;  opacity: 1.0" xlink:href="#m20ae8964a0d076a3bfa1ef94eb082b41" x="69.120000" y="177.988490"/>
<use style="fill: #0000ff; stroke: #000000; stroke-width: 0.5; stroke-linejoin: miter; stroke-linecap: butt;  opacity: 1.0" xlink:href="#m20ae8964a0d076a3bfa1ef94eb082b41" x="80.640000" y="132.823725"/>
<use style="fill: #0000ff; stroke: #000000; stroke-width: 0.5; stroke-linejoin: miter; stroke-linecap: butt;  opacity: 1.0" xlink:href="#m20ae8964a0d076a3bfa1ef94eb082b41" x="92.160000" y="110.977651"/>
<use style="fill: #0000ff; stroke: #000000; stroke-width: 0.5; stroke-linejoin: miter; stroke-linecap: butt;  opacity: 1.0" xlink:href="#m20ae8964a0d076a3bfa1ef94eb082b41" x="103.680000" y="117.652120"/>
<use style="fill: #0000ff; stroke: #000000; stroke-width: 0.5; stroke-linejoin: miter; stroke-linecap: butt;  opacity: 1.0" xlink:href="#m20ae8964a0d076a3bfa1ef94eb082b41" x="115.200000" y="150.628983"/>
<use style="fill: #0000ff; stroke: #000000; stroke-width: 0.5; stroke-linejoin: miter; stroke-linecap: butt;  opacity: 1.0" xlink:href="#m20ae8964a0d076a3bfa1ef94eb082b41" x="126.720000" y="115.329839"/>
<use style="fill: #0000ff; stroke: #000000; stroke-width: 0.5; stroke-linejoin: miter; stroke-linecap: butt;  opacity: 1.0" xlink:href="#m20ae8964a0d076a3bfa1ef94eb082b41" x="138.240000" y="79.788979"/>
<use style="fill: #0000ff; stroke: #000000; stroke-width: 0.5; stroke-linejoin: miter; stroke-linecap: butt;  opacity: 1.0" xlink:href="#m20ae8964a0d076a3bfa1ef94eb082b41" x="149.760000" y="92.083328"/>
<use style="fill: #0000ff; stroke: #000000; stroke-width: 0.5; stroke-linejoin: miter; stroke-linecap: butt;  opacity: 1.0" xlink:href="#m20ae8964a0d076a3bfa1ef94eb082b41" x="161.280000" y="90.583338"/>
<use style="fill: #0000ff; stroke: #000000; stroke-width: 0.5; stroke-linejoin: miter; stroke-linecap: butt;  opacity: 1.0" xlink:href="#m20ae8964a0d076a3bfa1ef94eb082b41" x="172.800000" y="25.619320"/>
<use style="fill: #0000ff; stroke: #000000; stroke-width: 0.5; stroke-linejoin: miter; stroke-linecap: butt;  opacity: 1.0" xlink:href="#m20ae8964a0d076a3bfa1ef94eb082b41" x="184.320000" y="100.301456"/>
<use style="fill: #0000ff; stroke: #000000; stroke-width: 0.5; stroke-linejoin: miter; stroke-linecap: butt;  opacity: 1.0" xlink:href="#m20ae8964a0d076a3bfa1ef94eb082b41" x="195.840000" y="64.000774"/>
<use style="fill: #0000ff; stroke: #000000; stroke-width: 0.5; stroke-linejoin: miter; stroke-linecap: butt;  opacity: 1.0" xlink:href="#m20ae8964a0d076a3bfa1ef94eb082b41" x="207.360000" y="56.919828"/>
<use style="fill: #0000ff; stroke: #000000; stroke-width: 0.5; stroke-linejoin: miter; stroke-linecap: butt;  opacity: 1.0" xlink:href="#m20ae8964a0d076a3bfa1ef94eb082b41" x="218.880000" y="118.595819"/>
<use style="fill: #0000ff; stroke: #000000; stroke-width: 0.5; stroke-linejoin: miter; stroke-linecap: butt;  opacity: 1.0" xlink:href="#m20ae8964a0d076a3bfa1ef94eb082b41" x="230.400000" y="41.039749"/>
<use style="fill: #0000ff; stroke: #000000; stroke-width: 0.5; stroke-linejoin: miter; stroke-linecap: butt;  opacity: 1.0" xlink:href="#m20ae8964a0d076a3bfa1ef94eb082b41" x="241.920000" y="59.002943"/>
<use style="fill: #0000ff; stroke: #000000; stroke-width: 0.5; stroke-linejoin: miter; stroke-linecap: butt;  opacity: 1.0" xlink:href="#m20ae8964a0d076a3bfa1ef94eb082b41" x="253.440000" y="122.239622"/>
</g></g>
<g id="line2d2">
<path style="fill: none; stroke: #008000; stroke-width: 1.0; stroke-linejoin: miter; stroke-linecap: square;  opacity: 1.0" clip-path="url(#p957fb0a461ac6969d74a0e603ca140af)" d="M34.56 152.626264382L46.08 152.432470105L57.6 149.852023217
L69.12 145.254121624L80.64 139.007963232L92.16 131.482745946
L103.68 123.04766767L115.2 114.071926311L126.72 104.924719774
L138.24 95.9752459643L149.76 87.5927027868L161.28 80.1462881472
L172.8 74.0051999508L184.32 69.5386361029L195.84 67.1157945089
L207.36 67.1058730742L218.88 69.8780697041L230.4 75.801582304
L241.92 85.2456087791L253.44 98.5793470349"/>
</g>
<g id="line2d3">
<path style="fill: none; stroke: #ffa500; stroke-width: 1.0; stroke-linejoin: miter; stroke-linecap: square;  opacity: 1.0" clip-path="url(#p957fb0a461ac6969d74a0e603ca140af)" d="M34.56 176.362880351L46.08 130.993976073L57.6 123.437159781
L69.12 171.006665929L80.64 139.681092115L92.16 108.531294712
L103.68 121.041155436L115.2 138.463944015L126.72 124.573477583
L138.24 92.2848780314L149.76 73.7854995612L161.28 75.1468998745
L172.8 75.0156125941L184.32 62.9056351992L195.84 60.3598093288
L207.36 84.2976880123L218.88 95.9219585056L230.4 50.5649736978
L241.92 56.8652106327L253.44 122.444439187"/>
</g>
<g id="matplotlib.axis1">
<g id="xtick1">
<g id="line2d4">
<defs><path id="mffffbd93ab9c4a8848ec339ada90541e" d="M0.0 0.0L0.0 -4.0"/></defs>
<g ><use style="fill: none; stroke: #000000; stroke-width: 0.5; stroke-linejoin: miter; stroke-linecap: butt;  opacity: 1.0" xlink:href="#mffffbd93ab9c4a8848ec339ada90541e" x="34.560000" y="194.400000"/>
</g></g>
<g id="line2d5">
<defs><path id="m55446021c8a568fc6cf5567925c8a1ef" d="M0.0 0.0L0.0 4.0"/></defs>
<g ><use style="fill: none; stroke: #000000; stroke-width: 0.5; stroke-linejoin: miter; stroke-linecap: butt;  opacity: 1.0" xlink:href="#m55446021c8a568fc6cf5567925c8a1ef" x="34.560000" y="21.600000"/>
</g></g>
<defs>
<path id="c_139293c3576e2a5eaff9a02b9ab719e6" d="M10.59375 -35.5l62.59375 0.0l0.0 8.296875l-62.59375 0.0z"/>
<path id="c_eaed548a39c8bfc1ad9c7a767102867e" d="M19.1875 -8.296875l34.421875 0.0l0.0 8.296875l-46.28125 0.0l0.0 -8.296875q5.609375 -5.8125 15.296875 -15.59375q9.703125 -9.796875 12.1875 -12.640625q4.734375 -5.3125 6.609375 -9.0q1.890625 -3.6875 1.890625 -7.25q0.0 -5.8125 -4.078125 -9.46875q-4.078125 -3.671875 -10.625 -3.671875q-4.640625 0.0 -9.796875 1.609375q-5.140625 1.609375 -11.0 4.890625l0.0 -9.96875q5.953125 -2.390625 11.125 -3.609375q5.1875 -1.21875 9.484375 -1.21875q11.328125 0.0 18.0625 5.671875q6.734375 5.65625 6.734375 15.125q0.0 4.5 -1.6875 8.53125q-1.671875 4.015625 -6.125 9.484375q-1.21875 1.421875 -7.765625 8.1875q-6.53125 6.765625 -18.453125 18.921875"/>
</defs>
<g style="fill: #000000; opacity: 1.0" transform="translate(26.9428125,207.30625)scale(0.12)">
<use xlink:href="#c_139293c3576e2a5eaff9a02b9ab719e6"/>
<use xlink:href="#c_eaed548a39c8bfc1ad9c7a767102867e" x="83.7890625"/>
</g>
</g>
<g id="xtick2">
<g id="line2d6">
<g ><use style="fill: none; stroke: #000000; stroke-width: 0.5; stroke-linejoin: miter; stroke-linecap: butt;  opacity: 1.0" xlink:href="#mffffbd93ab9c4a8848ec339ada90541e" x="92.160000" y="194.400000"/>
</g></g>
<g id="line2d7">
<g ><use style="fill: none; stroke: #000000; stroke-width: 0.5; stroke-linejoin: miter; stroke-linecap: butt;  opacity: 1.0" xlink:href="#m55446021c8a568fc6cf5567925c8a1ef" x="92.160000" y="21.600000"/>
</g></g>
<defs>
<path id="c_2322e4f977aa11305e2465866d88750f" d="M12.40625 -8.296875l16.109375 0.0l0.0 -55.625l-17.53125 3.515625l0.0 -8.984375l17.4375 -3.515625l9.859375 0.0l0.0 64.609375l16.109375 0.0l0.0 8.296875l-41.984375 0.0z"/>
</defs>
<g style="fill: #000000; opacity: 1.0" transform="translate(84.4959375,207.15)scale(0.12)">
<use xlink:href="#c_139293c3576e2a5eaff9a02b9ab719e6"/>
<use xlink:href="#c_2322e4f977aa11305e2465866d88750f" x="83.7890625"/>
</g>
</g>
<g id="xtick3">
<g id="line2d8">
<g ><use style="fill: none; stroke: #000000; stroke-width: 0.5; stroke-linejoin: miter; stroke-linecap: butt;  opacity: 1.0" xlink:href="#mffffbd93ab9c4a8848ec339ada90541e" x="149.760000" y="194.400000"/>
</g></g>
<g id="line2d9">
<g ><use style="fill: none; stroke: #000000; stroke-width: 0.5; stroke-linejoin: miter; stroke-linecap: butt;  opacity: 1.0" xlink:href="#m55446021c8a568fc6cf5567925c8a1ef" x="149.760000" y="21.600000"/>
</g></g>
<defs>
<path id="c_95f14088edd5858aea2c3b4aa58e4de2" d="M31.78125 -66.40625q-7.609375 0.0 -11.453125 7.5q-3.828125 7.484375 -3.828125 22.53125q0.0 14.984375 3.828125 22.484375q3.84375 7.5 11.453125 7.5q7.671875 0.0 11.5 -7.5q3.84375 -7.5 3.84375 -22.484375q0.0 -15.046875 -3.84375 -22.53125q-3.828125 -7.5 -11.5 -7.5M31.78125 -74.21875q12.265625 0.0 18.734375 9.703125q6.46875 9.6875 6.46875 28.140625q0.0 18.40625 -6.46875 28.109375q-6.46875 9.6875 -18.734375 9.6875q-12.25 0.0 -18.71875 -9.6875q-6.46875 -9.703125 -6.46875 -28.109375q0.0 -18.453125 6.46875 -28.140625q6.46875 -9.703125 18.71875 -9.703125"/>
</defs>
<g style="fill: #000000; opacity: 1.0" transform="translate(146.7365625,207.30625)scale(0.12)">
<use xlink:href="#c_95f14088edd5858aea2c3b4aa58e4de2"/>
</g>
</g>
<g id="xtick4">
<g id="line2d10">
<g ><use style="fill: none; stroke: #000000; stroke-width: 0.5; stroke-linejoin: miter; stroke-linecap: butt;  opacity: 1.0" xlink:href="#mffffbd93ab9c4a8848ec339ada90541e" x="207.360000" y="194.400000"/>
</g></g>
<g id="line2d11">
<g ><use style="fill: none; stroke: #000000; stroke-width: 0.5; stroke-linejoin: miter; stroke-linecap: butt;  opacity: 1.0" xlink:href="#m55446021c8a568fc6cf5567925c8a1ef" x="207.360000" y="21.600000"/>
</g></g>
<g style="fill: #000000; opacity: 1.0" transform="translate(204.750625,207.15)scale(0.12)">
<use xlink:href="#c_2322e4f977aa11305e2465866d88750f"/>
</g>
</g>
<g id="xtick5">
<g id="line2d12">
<g ><use style="fill: none; stroke: #000000; stroke-width: 0.5; stroke-linejoin: miter; stroke-linecap: butt;  opacity: 1.0" xlink:href="#mffffbd93ab9c4a8848ec339ada90541e" x="264.960000" y="194.400000"/>
</g></g>
<g id="line2d13">
<g ><use style="fill: none; stroke: #000000; stroke-width: 0.5; stroke-linejoin: miter; stroke-linecap: butt;  opacity: 1.0" xlink:href="#m55446021c8a568fc6cf5567925c8a1ef" x="264.960000" y="21.600000"/>
</g></g>
<g style="fill: #000000; opacity: 1.0" transform="translate(262.17875,207.30625)scale(0.12)">
<use xlink:href="#c_eaed548a39c8bfc1ad9c7a767102867e"/>
</g>
</g>
</g>
<g id="matplotlib.axis2">
<g id="ytick1">
<g id="line2d14">
<defs><path id="m2d700b5b5d738bf2751cd81726959973" d="M0.0 0.0L4.0 0.0"/></defs>
<g ><use style="fill: none; stroke: #000000; stroke-width: 0.5; stroke-linejoin: miter; stroke-linecap: butt;  opacity: 1.0" xlink:href="#m2d700b5b5d738bf2751cd81726959973" x="34.560000" y="194.400000"/>
</g></g>
<g id="line2d15">
<defs><path id="mb380ebd9df8a07a3be12f7447ef9bdd8" d="M0.0 0.0L-4.0 0.0"/></defs>
<g ><use style="fill: none; stroke: #000000; stroke-width: 0.5; stroke-linejoin: miter; stroke-linecap: butt;  opacity: 1.0" xlink:href="#mb380ebd9df8a07a3be12f7447ef9bdd8" x="264.960000" y="194.400000"/>
</g></g>
<g style="fill: #000000; opacity: 1.0" transform="translate(7.27875,198.7671875)scale(0.12)">
<use xlink:href="#c_139293c3576e2a5eaff9a02b9ab719e6"/>
<use xlink:href="#c_2322e4f977aa11305e2465866d88750f" x="83.7890625"/>
<use xlink:href="#c_95f14088edd5858aea2c3b4aa58e4de2" x="147.412109375"/>
</g>
</g>
<g id="ytick2">
<g id="line2d16">
<g ><use style="fill: none; stroke: #000000; stroke-width: 0.5; stroke-linejoin: miter; stroke-linecap: butt;  opacity: 1.0" xlink:href="#m2d700b5b5d738bf2751cd81726959973" x="34.560000" y="151.200000"/>
</g></g>
<g id="line2d17">
<g ><use style="fill: none; stroke: #000000; stroke-width: 0.5; stroke-linejoin: miter; stroke-linecap: butt;  opacity: 1.0" xlink:href="#mb380ebd9df8a07a3be12f7447ef9bdd8" x="264.960000" y="151.200000"/>
</g></g>
<defs>
<path id="c_2f869442ca5f4cfa589132f61f547ba5" d="M10.796875 -72.90625l38.71875 0.0l0.0 8.3125l-29.6875 0.0l0.0 17.859375q2.140625 -0.734375 4.28125 -1.09375q2.15625 -0.359375 4.3125 -0.359375q12.203125 0.0 19.328125 6.6875q7.140625 6.6875 7.140625 18.109375q0.0 11.765625 -7.328125 18.296875q-7.328125 6.515625 -20.65625 6.515625q-4.59375 0.0 -9.359375 -0.78125q-4.75 -0.78125 -9.828125 -2.34375l0.0 -9.921875q4.390625 2.390625 9.078125 3.5625q4.6875 1.171875 9.90625 1.171875q8.453125 0.0 13.375 -4.4375q4.9375 -4.4375 4.9375 -12.0625q0.0 -7.609375 -4.9375 -12.046875q-4.921875 -4.453125 -13.375 -4.453125q-3.953125 0.0 -7.890625 0.875q-3.921875 0.875 -8.015625 2.734375z"/>
</defs>
<g style="fill: #000000; opacity: 1.0" transform="translate(15.169375,155.4890625)scale(0.12)">
<use xlink:href="#c_139293c3576e2a5eaff9a02b9ab719e6"/>
<use xlink:href="#c_2f869442ca5f4cfa589132f61f547ba5" x="83.7890625"/>
</g>
</g>
<g id="ytick3">
<g id="line2d18">
<g ><use style="fill: none; stroke: #000000; stroke-width: 0.5; stroke-linejoin: miter; stroke-linecap: butt;  opacity: 1.0" xlink:href="#m2d700b5b5d738bf2751cd81726959973" x="34.560000" y="108.000000"/>
</g></g>
<g id="line2d19">
<g ><use style="fill: none; stroke: #000000; stroke-width: 0.5; stroke-linejoin: miter; stroke-linecap: butt;  opacity: 1.0" xlink:href="#mb380ebd9df8a07a3be12f7447ef9bdd8" x="264.960000" y="108.000000"/>
</g></g>
<g style="fill: #000000; opacity: 1.0" transform="translate(24.513125,112.3671875)scale(0.12)">
<use xlink:href="#c_95f14088edd5858aea2c3b4aa58e4de2"/>
</g>
</g>
<g id="ytick4">
<g id="line2d20">
<g ><use style="fill: none; stroke: #000000; stroke-width: 0.5; stroke-linejoin: miter; stroke-linecap: butt;  opacity: 1.0" xlink:href="#m2d700b5b5d738bf2751cd81726959973" x="34.560000" y="64.800000"/>
</g></g>
<g id="line2d21">
<g ><use style="fill: none; stroke: #000000; stroke-width: 0.5; stroke-linejoin: miter; stroke-linecap: butt;  opacity: 1.0" xlink:href="#mb380ebd9df8a07a3be12f7447ef9bdd8" x="264.960000" y="64.800000"/>
</g></g>
<g style="fill: #000000; opacity: 1.0" transform="translate(24.888125,69.0890625)scale(0.12)">
<use xlink:href="#c_2f869442ca5f4cfa589132f61f547ba5"/>
</g>
</g>
<g id="ytick5">
<g id="line2d22">
<g ><use style="fill: none; stroke: #000000; stroke-width: 0.5; stroke-linejoin: miter; stroke-linecap: butt;  opacity: 1.0" xlink:href="#m2d700b5b5d738bf2751cd81726959973" x="34.560000" y="21.600000"/>
</g></g>
<g id="line2d23">
<g ><use style="fill: none; stroke: #000000; stroke-width: 0.5; stroke-linejoin: miter; stroke-linecap: butt;  opacity: 1.0" xlink:href="#mb380ebd9df8a07a3be12f7447ef9bdd8" x="264.960000" y="21.600000"/>
</g></g>
<g style="fill: #000000; opacity: 1.0" transform="translate(17.388125,25.9671875)scale(0.12)">
<use xlink:href="#c_2322e4f977aa11305e2465866d88750f"/>
<use xlink:href="#c_95f14088edd5858aea2c3b4aa58e4de2" x="63.623046875"/>
</g>
</g>
</g>
<path style="fill: none; stroke: #000000; stroke-width: 1.0; stroke-linejoin: miter; stroke-linecap: square;  opacity: 1.0"  d="M34.56 194.4L264.96 194.4L264.96 21.6L34.56 21.6L34.56 194.4"/>
<defs>
<path id="c_ed080b6b0a058be2fa17307500ef35a6" d="M-0.296875 -72.90625l61.671875 0.0l0.0 8.3125l-25.875 0.0l0.0 64.59375l-9.90625 0.0l0.0 -64.59375l-25.890625 0.0z"/>
<path id="c_4118e466f114a602b61b3a6298d386e9" d="M41.109375 -46.296875q-1.515625 -0.875 -3.296875 -1.28125q-1.78125 -0.421875 -3.921875 -0.421875q-7.625 0.0 -11.703125 4.953125q-4.078125 4.953125 -4.078125 14.234375l0.0 28.8125l-9.03125 0.0l0.0 -54.6875l9.03125 0.0l0.0 8.5q2.84375 -4.984375 7.375 -7.390625q4.546875 -2.421875 11.046875 -2.421875q0.921875 0.0 2.046875 0.125q1.125 0.109375 2.484375 0.359375z"/>
<path id="c_97cced06352dabd27facc1bd04e1f2f5" d="M34.28125 -27.484375q-10.890625 0.0 -15.09375 2.484375q-4.203125 2.484375 -4.203125 8.5q0.0 4.78125 3.15625 7.59375q3.15625 2.796875 8.5625 2.796875q7.484375 0.0 12.0 -5.296875q4.515625 -5.296875 4.515625 -14.078125l0.0 -2.0zM52.203125 -31.203125l0.0 31.203125l-8.984375 0.0l0.0 -8.296875q-3.078125 4.96875 -7.671875 7.34375q-4.59375 2.375 -11.234375 2.375q-8.390625 0.0 -13.359375 -4.71875q-4.953125 -4.71875 -4.953125 -12.625q0.0 -9.21875 6.171875 -13.90625q6.1875 -4.6875 18.4375 -4.6875l12.609375 0.0l0.0 -0.890625q0.0 -6.203125 -4.078125 -9.59375q-4.078125 -3.390625 -11.453125 -3.390625q-4.6875 0.0 -9.140625 1.125q-4.4375 1.125 -8.53125 3.375l0.0 -8.3125q4.921875 -1.90625 9.5625 -2.84375q4.640625 -0.953125 9.03125 -0.953125q11.875 0.0 17.734375 6.15625q5.859375 6.140625 5.859375 18.640625"/>
<path id="c_8d6ee5dadaaa9460f50eedd5d62d2be4" d="M9.421875 -54.6875l8.984375 0.0l0.0 54.6875l-8.984375 0.0zM9.421875 -75.984375l8.984375 0.0l0.0 11.390625l-8.984375 0.0z"/>
<path id="c_ea4b10e8bc619072d4c12d4803cf87f6" d="M54.890625 -33.015625l0.0 33.015625l-8.984375 0.0l0.0 -32.71875q0.0 -7.765625 -3.03125 -11.609375q-3.03125 -3.859375 -9.078125 -3.859375q-7.28125 0.0 -11.484375 4.640625q-4.203125 4.625 -4.203125 12.640625l0.0 30.90625l-9.03125 0.0l0.0 -54.6875l9.03125 0.0l0.0 8.5q3.234375 -4.9375 7.59375 -7.375q4.375 -2.4375 10.09375 -2.4375q9.421875 0.0 14.25 5.828125q4.84375 5.828125 4.84375 17.15625"/>
<path id="c_401cc870e2737ac21a21bd24c8b21204" d="M45.40625 -27.984375q0.0 -9.765625 -4.03125 -15.125q-4.015625 -5.375 -11.296875 -5.375q-7.21875 0.0 -11.25 5.375q-4.03125 5.359375 -4.03125 15.125q0.0 9.71875 4.03125 15.09375q4.03125 5.375 11.25 5.375q7.28125 0.0 11.296875 -5.375q4.03125 -5.375 4.03125 -15.09375M54.390625 -6.78125q0.0 13.953125 -6.203125 20.765625q-6.1875 6.8125 -18.984375 6.8125q-4.734375 0.0 -8.9375 -0.703125q-4.203125 -0.703125 -8.15625 -2.171875l0.0 -8.734375q3.953125 2.140625 7.8125 3.15625q3.859375 1.03125 7.859375 1.03125q8.84375 0.0 13.234375 -4.609375q4.390625 -4.609375 4.390625 -13.9375l0.0 -4.453125q-2.78125 4.84375 -7.125 7.234375q-4.34375 2.390625 -10.40625 2.390625q-10.046875 0.0 -16.203125 -7.65625q-6.15625 -7.671875 -6.15625 -20.328125q0.0 -12.6875 6.15625 -20.34375q6.15625 -7.671875 16.203125 -7.671875q6.0625 0.0 10.40625 2.390625q4.34375 2.390625 7.125 7.21875l0.0 -8.296875l8.984375 0.0z"/>
<path id="c_d41d8cd98f00b204e9800998ecf8427e" d=""/>
<path id="c_172c370045494a373b8cd42e76c2a247" d="M44.28125 -53.078125l0.0 8.5q-3.796875 -1.953125 -7.90625 -2.921875q-4.09375 -0.984375 -8.5 -0.984375q-6.6875 0.0 -10.03125 2.046875q-3.34375 2.046875 -3.34375 6.15625q0.0 3.125 2.390625 4.90625q2.390625 1.78125 9.625 3.390625l3.078125 0.6875q9.5625 2.046875 13.59375 5.78125q4.03125 3.734375 4.03125 10.421875q0.0 7.625 -6.03125 12.078125q-6.03125 4.4375 -16.578125 4.4375q-4.390625 0.0 -9.15625 -0.859375q-4.765625 -0.859375 -10.03125 -2.5625l0.0 -9.28125q4.984375 2.59375 9.8125 3.890625q4.828125 1.28125 9.578125 1.28125q6.34375 0.0 9.75 -2.171875q3.421875 -2.171875 3.421875 -6.125q0.0 -3.65625 -2.46875 -5.609375q-2.453125 -1.953125 -10.8125 -3.765625l-3.125 -0.734375q-8.34375 -1.75 -12.0625 -5.390625q-3.703125 -3.640625 -3.703125 -9.984375q0.0 -7.71875 5.46875 -11.90625q5.46875 -4.203125 15.53125 -4.203125q4.96875 0.0 9.359375 0.734375q4.40625 0.71875 8.109375 2.1875"/>
<path id="c_9ba5f7895f8afffb5c1e159e8b3594f8" d="M56.203125 -29.59375l0.0 4.390625l-41.3125 0.0q0.59375 9.28125 5.59375 14.140625q5.0 4.859375 13.9375 4.859375q5.171875 0.0 10.03125 -1.265625q4.859375 -1.265625 9.65625 -3.8125l0.0 8.5q-4.84375 2.046875 -9.921875 3.125q-5.078125 1.078125 -10.296875 1.078125q-13.09375 0.0 -20.734375 -7.609375q-7.640625 -7.625 -7.640625 -20.625q0.0 -13.421875 7.25 -21.296875q7.25 -7.890625 19.5625 -7.890625q11.03125 0.0 17.453125 7.109375q6.421875 7.09375 6.421875 19.296875M47.21875 -32.234375q-0.09375 -7.359375 -4.125 -11.75q-4.03125 -4.40625 -10.671875 -4.40625q-7.515625 0.0 -12.03125 4.25q-4.515625 4.25 -5.203125 11.96875z"/>
<path id="c_7719cac8f98cf2bca3e99fb2bb21e785" d="M18.3125 -70.21875l0.0 15.53125l18.5 0.0l0.0 6.984375l-18.5 0.0l0.0 29.6875q0.0 6.6875 1.828125 8.59375q1.828125 1.90625 7.453125 1.90625l9.21875 0.0l0.0 7.515625l-9.21875 0.0q-10.40625 0.0 -14.359375 -3.875q-3.953125 -3.890625 -3.953125 -14.140625l0.0 -29.6875l-6.59375 0.0l0.0 -6.984375l6.59375 0.0l0.0 -15.53125z"/>
</defs>
<g style="fill: #000000; opacity: 1.0" transform="translate(108.275625,13.69375)scale(0.144)">
<use xlink:href="#c_ed080b6b0a058be2fa17307500ef35a6"/>
<use xlink:href="#c_4118e466f114a602b61b3a6298d386e9" x="46.333984375"/>
<use xlink:href="#c_97cced06352dabd27facc1bd04e1f2f5" x="87.447265625"/>
<use xlink:href="#c_8d6ee5dadaaa9460f50eedd5d62d2be4" x="148.7265625"/>
<use xlink:href="#c_ea4b10e8bc619072d4c12d4803cf87f6" x="176.509765625"/>
<use xlink:href="#c_8d6ee5dadaaa9460f50eedd5d62d2be4" x="239.888671875"/>
<use xlink:href="#c_ea4b10e8bc619072d4c12d4803cf87f6" x="267.671875"/>
<use xlink:href="#c_401cc870e2737ac21a21bd24c8b21204" x="331.05078125"/>
<use xlink:href="#c_d41d8cd98f00b204e9800998ecf8427e" x="394.52734375"/>
<use xlink:href="#c_172c370045494a373b8cd42e76c2a247" x="426.314453125"/>
<use xlink:href="#c_9ba5f7895f8afffb5c1e159e8b3594f8" x="478.4140625"/>
<use xlink:href="#c_7719cac8f98cf2bca3e99fb2bb21e785" x="539.9375"/>
</g>
</g>
<g id="axes2">
<path style="fill: #ffffff; opacity: 1.0"  d="M322.56 194.4L552.96 194.4L552.96 21.6L322.56 21.6L322.56 194.4"/>
<g id="line2d24">
<defs>
  <clipPath id="pec998e6b42b4e4810c5472f41dadcb95">
<rect x="322.56" y="21.6" width="230.4" height="172.8"/>
  </clipPath>
</defs><g clip-path="url(#pec998e6b42b4e4810c5472f41dadcb95)"><use style="fill: #0000ff; stroke: #000000; stroke-width: 0.5; stroke-linejoin: miter; stroke-linecap: butt;  opacity: 1.0" xlink:href="#m20ae8964a0d076a3bfa1ef94eb082b41" x="322.560000" y="182.630107"/>
<use style="fill: #0000ff; stroke: #000000; stroke-width: 0.5; stroke-linejoin: miter; stroke-linecap: butt;  opacity: 1.0" xlink:href="#m20ae8964a0d076a3bfa1ef94eb082b41" x="334.080000" y="161.110785"/>
<use style="fill: #0000ff; stroke: #000000; stroke-width: 0.5; stroke-linejoin: miter; stroke-linecap: butt;  opacity: 1.0" xlink:href="#m20ae8964a0d076a3bfa1ef94eb082b41" x="345.600000" y="171.329906"/>
<use style="fill: #0000ff; stroke: #000000; stroke-width: 0.5; stroke-linejoin: miter; stroke-linecap: butt;  opacity: 1.0" xlink:href="#m20ae8964a0d076a3bfa1ef94eb082b41" x="357.120000" y="143.639886"/>
<use style="fill: #0000ff; stroke: #000000; stroke-width: 0.5; stroke-linejoin: miter; stroke-linecap: butt;  opacity: 1.0" xlink:href="#m20ae8964a0d076a3bfa1ef94eb082b41" x="368.640000" y="125.467941"/>
<use style="fill: #0000ff; stroke: #000000; stroke-width: 0.5; stroke-linejoin: miter; stroke-linecap: butt;  opacity: 1.0" xlink:href="#m20ae8964a0d076a3bfa1ef94eb082b41" x="380.160000" y="103.232176"/>
<use style="fill: #0000ff; stroke: #000000; stroke-width: 0.5; stroke-linejoin: miter; stroke-linecap: butt;  opacity: 1.0" xlink:href="#m20ae8964a0d076a3bfa1ef94eb082b41" x="391.680000" y="109.063429"/>
<use style="fill: #0000ff; stroke: #000000; stroke-width: 0.5; stroke-linejoin: miter; stroke-linecap: butt;  opacity: 1.0" xlink:href="#m20ae8964a0d076a3bfa1ef94eb082b41" x="403.200000" y="97.650277"/>
<use style="fill: #0000ff; stroke: #000000; stroke-width: 0.5; stroke-linejoin: miter; stroke-linecap: butt;  opacity: 1.0" xlink:href="#m20ae8964a0d076a3bfa1ef94eb082b41" x="414.720000" y="136.138012"/>
<use style="fill: #0000ff; stroke: #000000; stroke-width: 0.5; stroke-linejoin: miter; stroke-linecap: butt;  opacity: 1.0" xlink:href="#m20ae8964a0d076a3bfa1ef94eb082b41" x="426.240000" y="84.756454"/>
<use style="fill: #0000ff; stroke: #000000; stroke-width: 0.5; stroke-linejoin: miter; stroke-linecap: butt;  opacity: 1.0" xlink:href="#m20ae8964a0d076a3bfa1ef94eb082b41" x="437.760000" y="106.650324"/>
<use style="fill: #0000ff; stroke: #000000; stroke-width: 0.5; stroke-linejoin: miter; stroke-linecap: butt;  opacity: 1.0" xlink:href="#m20ae8964a0d076a3bfa1ef94eb082b41" x="449.280000" y="79.890291"/>
<use style="fill: #0000ff; stroke: #000000; stroke-width: 0.5; stroke-linejoin: miter; stroke-linecap: butt;  opacity: 1.0" xlink:href="#m20ae8964a0d076a3bfa1ef94eb082b41" x="460.800000" y="115.023058"/>
<use style="fill: #0000ff; stroke: #000000; stroke-width: 0.5; stroke-linejoin: miter; stroke-linecap: butt;  opacity: 1.0" xlink:href="#m20ae8964a0d076a3bfa1ef94eb082b41" x="472.320000" y="119.942163"/>
<use style="fill: #0000ff; stroke: #000000; stroke-width: 0.5; stroke-linejoin: miter; stroke-linecap: butt;  opacity: 1.0" xlink:href="#m20ae8964a0d076a3bfa1ef94eb082b41" x="483.840000" y="101.213656"/>
<use style="fill: #0000ff; stroke: #000000; stroke-width: 0.5; stroke-linejoin: miter; stroke-linecap: butt;  opacity: 1.0" xlink:href="#m20ae8964a0d076a3bfa1ef94eb082b41" x="495.360000" y="67.611536"/>
<use style="fill: #0000ff; stroke: #000000; stroke-width: 0.5; stroke-linejoin: miter; stroke-linecap: butt;  opacity: 1.0" xlink:href="#m20ae8964a0d076a3bfa1ef94eb082b41" x="506.880000" y="47.400015"/>
<use style="fill: #0000ff; stroke: #000000; stroke-width: 0.5; stroke-linejoin: miter; stroke-linecap: butt;  opacity: 1.0" xlink:href="#m20ae8964a0d076a3bfa1ef94eb082b41" x="518.400000" y="37.148476"/>
<use style="fill: #0000ff; stroke: #000000; stroke-width: 0.5; stroke-linejoin: miter; stroke-linecap: butt;  opacity: 1.0" xlink:href="#m20ae8964a0d076a3bfa1ef94eb082b41" x="529.920000" y="8.391999"/>
<use style="fill: #0000ff; stroke: #000000; stroke-width: 0.5; stroke-linejoin: miter; stroke-linecap: butt;  opacity: 1.0" xlink:href="#m20ae8964a0d076a3bfa1ef94eb082b41" x="541.440000" y="59.701583"/>
</g></g>
<g id="line2d25">
<path style="fill: none; stroke: #008000; stroke-width: 1.0; stroke-linejoin: miter; stroke-linecap: square;  opacity: 1.0" clip-path="url(#pec998e6b42b4e4810c5472f41dadcb95)" d="M322.56 152.626264382L334.08 152.432470105L345.6 149.852023217
L357.12 145.254121624L368.64 139.007963232L380.16 131.482745946
L391.68 123.04766767L403.2 114.071926311L414.72 104.924719774
L426.24 95.9752459643L437.76 87.5927027868L449.28 80.1462881472
L460.8 74.0051999508L472.32 69.5386361029L483.84 67.1157945089
L495.36 67.1058730742L506.88 69.8780697041L518.4 75.801582304
L529.92 85.2456087791L541.44 98.5793470349"/>
</g>
<g id="line2d26">
<path style="fill: none; stroke: #ffa500; stroke-width: 1.0; stroke-linejoin: miter; stroke-linecap: square;  opacity: 1.0" clip-path="url(#pec998e6b42b4e4810c5472f41dadcb95)" d="M322.56 176.362880351L334.08 130.993976073L345.6 123.437159781
L357.12 171.006665929L368.64 139.681092115L380.16 108.531294712
L391.68 121.041155436L403.2 138.463944015L414.72 124.573477583
L426.24 92.2848780314L437.76 73.7854995612L449.28 75.1468998745
L460.8 75.0156125941L472.32 62.9056351992L483.84 60.3598093288
L495.36 84.2976880123L506.88 95.9219585056L518.4 50.5649736978
L529.92 56.8652106327L541.44 122.444439187"/>
</g>
<g id="matplotlib.axis3">
<g id="xtick6">
<g id="line2d27">
<g ><use style="fill: none; stroke: #000000; stroke-width: 0.5; stroke-linejoin: miter; stroke-linecap: butt;  opacity: 1.0" xlink:href="#mffffbd93ab9c4a8848ec339ada90541e" x="322.560000" y="194.400000"/>
</g></g>
<g id="line2d28">
<g ><use style="fill: none; stroke: #000000; stroke-width: 0.5; stroke-linejoin: miter; stroke-linecap: butt;  opacity: 1.0" xlink:href="#m55446021c8a568fc6cf5567925c8a1ef" x="322.560000" y="21.600000"/>
</g></g>
<g style="fill: #000000; opacity: 1.0" transform="translate(314.9428125,207.30625)scale(0.12)">
<use xlink:href="#c_139293c3576e2a5eaff9a02b9ab719e6"/>
<use xlink:href="#c_eaed548a39c8bfc1ad9c7a767102867e" x="83.7890625"/>
</g>
</g>
<g id="xtick7">
<g id="line2d29">
<g ><use style="fill: none; stroke: #000000; stroke-width: 0.5; stroke-linejoin: miter; stroke-linecap: butt;  opacity: 1.0" xlink:href="#mffffbd93ab9c4a8848ec339ada90541e" x="380.160000" y="194.400000"/>
</g></g>
<g id="line2d30">
<g ><use style="fill: none; stroke: #000000; stroke-width: 0.5; stroke-linejoin: miter; stroke-linecap: butt;  opacity: 1.0" xlink:href="#m55446021c8a568fc6cf5567925c8a1ef" x="380.160000" y="21.600000"/>
</g></g>
<g style="fill: #000000; opacity: 1.0" transform="translate(372.4959375,207.15)scale(0.12)">
<use xlink:href="#c_139293c3576e2a5eaff9a02b9ab719e6"/>
<use xlink:href="#c_2322e4f977aa11305e2465866d88750f" x="83.7890625"/>
</g>
</g>
<g id="xtick8">
<g id="line2d31">
<g ><use style="fill: none; stroke: #000000; stroke-width: 0.5; stroke-linejoin: miter; stroke-linecap: butt;  opacity: 1.0" xlink:href="#mffffbd93ab9c4a8848ec339ada90541e" x="437.760000" y="194.400000"/>
</g></g>
<g id="line2d32">
<g ><use style="fill: none; stroke: #000000; stroke-width: 0.5; stroke-linejoin: miter; stroke-linecap: butt;  opacity: 1.0" xlink:href="#m55446021c8a568fc6cf5567925c8a1ef" x="437.760000" y="21.600000"/>
</g></g>
<g style="fill: #000000; opacity: 1.0" transform="translate(434.7365625,207.30625)scale(0.12)">
<use xlink:href="#c_95f14088edd5858aea2c3b4aa58e4de2"/>
</g>
</g>
<g id="xtick9">
<g id="line2d33">
<g ><use style="fill: none; stroke: #000000; stroke-width: 0.5; stroke-linejoin: miter; stroke-linecap: butt;  opacity: 1.0" xlink:href="#mffffbd93ab9c4a8848ec339ada90541e" x="495.360000" y="194.400000"/>
</g></g>
<g id="line2d34">
<g ><use style="fill: none; stroke: #000000; stroke-width: 0.5; stroke-linejoin: miter; stroke-linecap: butt;  opacity: 1.0" xlink:href="#m55446021c8a568fc6cf5567925c8a1ef" x="495.360000" y="21.600000"/>
</g></g>
<g style="fill: #000000; opacity: 1.0" transform="translate(492.750625,207.15)scale(0.12)">
<use xlink:href="#c_2322e4f977aa11305e2465866d88750f"/>
</g>
</g>
<g id="xtick10">
<g id="line2d35">
<g ><use style="fill: none; stroke: #000000; stroke-width: 0.5; stroke-linejoin: miter; stroke-linecap: butt;  opacity: 1.0" xlink:href="#mffffbd93ab9c4a8848ec339ada90541e" x="552.960000" y="194.400000"/>
</g></g>
<g id="line2d36">
<g ><use style="fill: none; stroke: #000000; stroke-width: 0.5; stroke-linejoin: miter; stroke-linecap: butt;  opacity: 1.0" xlink:href="#m55446021c8a568fc6cf5567925c8a1ef" x="552.960000" y="21.600000"/>
</g></g>
<g style="fill: #000000; opacity: 1.0" transform="translate(550.17875,207.30625)scale(0.12)">
<use xlink:href="#c_eaed548a39c8bfc1ad9c7a767102867e"/>
</g>
</g>
</g>
<g id="matplotlib.axis4">
<g id="ytick6">
<g id="line2d37">
<g ><use style="fill: none; stroke: #000000; stroke-width: 0.5; stroke-linejoin: miter; stroke-linecap: butt;  opacity: 1.0" xlink:href="#m2d700b5b5d738bf2751cd81726959973" x="322.560000" y="194.400000"/>
</g></g>
<g id="line2d38">
<g ><use style="fill: none; stroke: #000000; stroke-width: 0.5; stroke-linejoin: miter; stroke-linecap: butt;  opacity: 1.0" xlink:href="#mb380ebd9df8a07a3be12f7447ef9bdd8" x="552.960000" y="194.400000"/>
</g></g>
<g style="fill: #000000; opacity: 1.0" transform="translate(295.27875,198.7671875)scale(0.12)">
<use xlink:href="#c_139293c3576e2a5eaff9a02b9ab719e6"/>
<use xlink:href="#c_2322e4f977aa11305e2465866d88750f" x="83.7890625"/>
<use xlink:href="#c_95f14088edd5858aea2c3b4aa58e4de2" x="147.412109375"/>
</g>
</g>
<g id="ytick7">
<g id="line2d39">
<g ><use style="fill: none; stroke: #000000; stroke-width: 0.5; stroke-linejoin: miter; stroke-linecap: butt;  opacity: 1.0" xlink:href="#m2d700b5b5d738bf2751cd81726959973" x="322.560000" y="151.200000"/>
</g></g>
<g id="line2d40">
<g ><use style="fill: none; stroke: #000000; stroke-width: 0.5; stroke-linejoin: miter; stroke-linecap: butt;  opacity: 1.0" xlink:href="#mb380ebd9df8a07a3be12f7447ef9bdd8" x="552.960000" y="151.200000"/>
</g></g>
<g style="fill: #000000; opacity: 1.0" transform="translate(303.169375,155.4890625)scale(0.12)">
<use xlink:href="#c_139293c3576e2a5eaff9a02b9ab719e6"/>
<use xlink:href="#c_2f869442ca5f4cfa589132f61f547ba5" x="83.7890625"/>
</g>
</g>
<g id="ytick8">
<g id="line2d41">
<g ><use style="fill: none; stroke: #000000; stroke-width: 0.5; stroke-linejoin: miter; stroke-linecap: butt;  opacity: 1.0" xlink:href="#m2d700b5b5d738bf2751cd81726959973" x="322.560000" y="108.000000"/>
</g></g>
<g id="line2d42">
<g ><use style="fill: none; stroke: #000000; stroke-width: 0.5; stroke-linejoin: miter; stroke-linecap: butt;  opacity: 1.0" xlink:href="#mb380ebd9df8a07a3be12f7447ef9bdd8" x="552.960000" y="108.000000"/>
</g></g>
<g style="fill: #000000; opacity: 1.0" transform="translate(312.513125,112.3671875)scale(0.12)">
<use xlink:href="#c_95f14088edd5858aea2c3b4aa58e4de2"/>
</g>
</g>
<g id="ytick9">
<g id="line2d43">
<g ><use style="fill: none; stroke: #000000; stroke-width: 0.5; stroke-linejoin: miter; stroke-linecap: butt;  opacity: 1.0" xlink:href="#m2d700b5b5d738bf2751cd81726959973" x="322.560000" y="64.800000"/>
</g></g>
<g id="line2d44">
<g ><use style="fill: none; stroke: #000000; stroke-width: 0.5; stroke-linejoin: miter; stroke-linecap: butt;  opacity: 1.0" xlink:href="#mb380ebd9df8a07a3be12f7447ef9bdd8" x="552.960000" y="64.800000"/>
</g></g>
<g style="fill: #000000; opacity: 1.0" transform="translate(312.888125,69.0890625)scale(0.12)">
<use xlink:href="#c_2f869442ca5f4cfa589132f61f547ba5"/>
</g>
</g>
<g id="ytick10">
<g id="line2d45">
<g ><use style="fill: none; stroke: #000000; stroke-width: 0.5; stroke-linejoin: miter; stroke-linecap: butt;  opacity: 1.0" xlink:href="#m2d700b5b5d738bf2751cd81726959973" x="322.560000" y="21.600000"/>
</g></g>
<g id="line2d46">
<g ><use style="fill: none; stroke: #000000; stroke-width: 0.5; stroke-linejoin: miter; stroke-linecap: butt;  opacity: 1.0" xlink:href="#mb380ebd9df8a07a3be12f7447ef9bdd8" x="552.960000" y="21.600000"/>
</g></g>
<g style="fill: #000000; opacity: 1.0" transform="translate(305.388125,25.9671875)scale(0.12)">
<use xlink:href="#c_2322e4f977aa11305e2465866d88750f"/>
<use xlink:href="#c_95f14088edd5858aea2c3b4aa58e4de2" x="63.623046875"/>
</g>
</g>
</g>
<path style="fill: none; stroke: #000000; stroke-width: 1.0; stroke-linejoin: miter; stroke-linecap: square;  opacity: 1.0"  d="M322.56 194.4L552.96 194.4L552.96 21.6L322.56 21.6L322.56 194.4"/>
<g style="fill: #000000; opacity: 1.0" transform="translate(410.51,16.396875)scale(0.144)">
<use xlink:href="#c_ed080b6b0a058be2fa17307500ef35a6"/>
<use xlink:href="#c_9ba5f7895f8afffb5c1e159e8b3594f8" x="44.083984375"/>
<use xlink:href="#c_172c370045494a373b8cd42e76c2a247" x="105.607421875"/>
<use xlink:href="#c_7719cac8f98cf2bca3e99fb2bb21e785" x="157.70703125"/>
<use xlink:href="#c_d41d8cd98f00b204e9800998ecf8427e" x="196.916015625"/>
<use xlink:href="#c_172c370045494a373b8cd42e76c2a247" x="228.703125"/>
<use xlink:href="#c_9ba5f7895f8afffb5c1e159e8b3594f8" x="280.802734375"/>
<use xlink:href="#c_7719cac8f98cf2bca3e99fb2bb21e785" x="342.326171875"/>
</g>
</g>
</g>
</svg>
