<svg version="1.1" viewBox="0.0 0.0 1695.6010498687665 1092.0" fill="none" stroke="none" stroke-linecap="square" stroke-miterlimit="10" xmlns:xlink="http://www.w3.org/1999/xlink" xmlns="http://www.w3.org/2000/svg"><clipPath id="p.0"><path d="m0 0l1695.6011 0l0 1092.0l-1695.6011 0l0 -1092.0z" clip-rule="nonzero"/></clipPath><g clip-path="url(#p.0)"><path fill="#000000" fill-opacity="0.0" d="m0 0l1695.6011 0l0 1092.0l-1695.6011 0z" fill-rule="evenodd"/><path fill="#f9cb9c" d="m1045.3997 518.15497l388.75586 0l0 166.42517l-388.75586 0z" fill-rule="evenodd"/><path stroke="#595959" stroke-width="8.0" stroke-linejoin="round" stroke-linecap="butt" d="m1045.3997 518.15497l388.75586 0l0 166.42517l-388.75586 0z" fill-rule="evenodd"/><path fill="#000000" d="m1074.7122 605.2776l2.625 -0.21875q0.1875 1.5625 0.859375 2.578125q0.6875 1.015625 2.109375 1.640625q1.4375 0.609375 3.234375 0.609375q1.59375 0 2.796875 -0.46875q1.21875 -0.46875 1.8125 -1.28125q0.59375 -0.828125 0.59375 -1.8125q0 -0.984375 -0.578125 -1.71875q-0.5625 -0.734375 -1.875 -1.234375q-0.84375 -0.34375 -3.734375 -1.03125q-2.890625 -0.6875 -4.0625 -1.3125q-1.5 -0.78125 -2.234375 -1.953125q-0.734375 -1.171875 -0.734375 -2.609375q0 -1.59375 0.890625 -2.96875q0.90625 -1.390625 2.640625 -2.109375q1.734375 -0.71875 3.859375 -0.71875q2.328125 0 4.109375 0.765625q1.78125 0.75 2.734375 2.21875q0.96875 1.453125 1.046875 3.296875l-2.671875 0.203125q-0.21875 -2.0 -1.453125 -3.015625q-1.234375 -1.015625 -3.65625 -1.015625q-2.515625 0 -3.671875 0.921875q-1.15625 0.921875 -1.15625 2.234375q0 1.125 0.8125 1.859375q0.8125 0.734375 4.1875 1.5q3.390625 0.765625 4.65625 1.328125q1.828125 0.859375 2.703125 2.15625q0.875 1.28125 0.875 2.984375q0 1.671875 -0.96875 3.15625q-0.953125 1.484375 -2.75 2.3125q-1.796875 0.8125 -4.046875 0.8125q-2.84375 0 -4.78125 -0.828125q-1.921875 -0.828125 -3.015625 -2.5q-1.09375 -1.671875 -1.15625 -3.78125zm20.186523 12.578125l0 -21.03125l2.34375 0l0 1.96875q0.828125 -1.15625 1.875 -1.734375q1.046875 -0.578125 2.53125 -0.578125q1.953125 0 3.4375 1.0q1.5 1.0 2.25 2.828125q0.765625 1.828125 0.765625 4.0q0 2.328125 -0.84375 4.203125q-0.828125 1.875 -2.4375 2.875q-1.59375 0.984375 -3.359375 0.984375q-1.28125 0 -2.3125 -0.546875q-1.015625 -0.546875 -1.671875 -1.375l0 7.40625l-2.578125 0zm2.328125 -13.34375q0 2.9375 1.1875 4.34375q1.1875 1.390625 2.875 1.390625q1.71875 0 2.9375 -1.453125q1.234375 -1.453125 1.234375 -4.5q0 -2.90625 -1.203125 -4.34375q-1.1875 -1.453125 -2.84375 -1.453125q-1.65625 0 -2.921875 1.546875q-1.265625 1.53125 -1.265625 4.46875zm24.389038 2.625l2.65625 0.328125q-0.625 2.328125 -2.328125 3.625q-1.703125 1.28125 -4.359375 1.28125q-3.328125 0 -5.28125 -2.046875q-1.953125 -2.0625 -1.953125 -5.765625q0 -3.84375 1.96875 -5.953125q1.984375 -2.125 5.125 -2.125q3.0625 0 4.984375 2.078125q1.9375 2.0625 1.9375 5.84375q0 0.21875 -0.015625 0.671875l-11.34375 0q0.140625 2.515625 1.421875 3.84375q1.28125 1.328125 3.171875 1.328125q1.421875 0 2.421875 -0.734375q1.0 -0.75 1.59375 -2.375zm-8.46875 -4.171875l8.5 0q-0.171875 -1.921875 -0.96875 -2.875q-1.234375 -1.5 -3.203125 -1.5q-1.765625 0 -2.984375 1.1875q-1.203125 1.1875 -1.34375 3.1875zm24.779663 4.171875l2.65625 0.328125q-0.625 2.328125 -2.328125 3.625q-1.703125 1.28125 -4.359375 1.28125q-3.328125 0 -5.28125 -2.046875q-1.953125 -2.0625 -1.953125 -5.765625q0 -3.84375 1.96875 -5.953125q1.984375 -2.125 5.125 -2.125q3.0625 0 4.984375 2.078125q1.9375 2.0625 1.9375 5.84375q0 0.21875 -0.015625 0.671875l-11.34375 0q0.140625 2.515625 1.421875 3.84375q1.28125 1.328125 3.171875 1.328125q1.421875 0 2.421875 -0.734375q1.0 -0.75 1.59375 -2.375zm-8.46875 -4.171875l8.5 0q-0.171875 -1.921875 -0.96875 -2.875q-1.234375 -1.5 -3.203125 -1.5q-1.765625 0 -2.984375 1.1875q-1.203125 1.1875 -1.34375 3.1875zm24.295288 3.484375l2.53125 0.34375q-0.40625 2.609375 -2.125 4.09375q-1.71875 1.484375 -4.203125 1.484375q-3.125 0 -5.03125 -2.03125q-1.890625 -2.046875 -1.890625 -5.859375q0 -2.46875 0.8125 -4.3125q0.828125 -1.84375 2.484375 -2.765625q1.671875 -0.921875 3.640625 -0.921875q2.46875 0 4.046875 1.25q1.578125 1.25 2.03125 3.5625l-2.515625 0.375q-0.359375 -1.53125 -1.265625 -2.296875q-0.90625 -0.78125 -2.203125 -0.78125q-1.9375 0 -3.15625 1.40625q-1.21875 1.390625 -1.21875 4.40625q0 3.078125 1.171875 4.46875q1.171875 1.375 3.0625 1.375q1.515625 0 2.53125 -0.921875q1.015625 -0.9375 1.296875 -2.875zm4.7421875 5.578125l0 -21.0l2.578125 0l0 7.53125q1.796875 -2.078125 4.546875 -2.078125q1.6875 0 2.9375 0.671875q1.25 0.65625 1.78125 1.828125q0.546875 1.171875 0.546875 3.40625l0 9.640625l-2.578125 0l0 -9.640625q0 -1.9375 -0.84375 -2.8125q-0.84375 -0.875 -2.375 -0.875q-1.140625 0 -2.15625 0.59375q-1.0 0.59375 -1.4375 1.609375q-0.421875 1.015625 -0.421875 2.8125l0 8.3125l-2.578125 0zm24.834229 0l0 -21.0l9.296875 0q2.8125 0 4.265625 0.578125q1.46875 0.5625 2.34375 2.0q0.875 1.421875 0.875 3.15625q0 2.234375 -1.453125 3.765625q-1.4375 1.53125 -4.46875 1.953125q1.109375 0.53125 1.671875 1.046875q1.21875 1.109375 2.3125 2.78125l3.65625 5.71875l-3.5 0l-2.78125 -4.375q-1.21875 -1.890625 -2.0 -2.890625q-0.78125 -1.0 -1.40625 -1.390625q-0.625 -0.40625 -1.265625 -0.5625q-0.484375 -0.109375 -1.546875 -0.109375l-3.234375 0l0 9.328125l-2.765625 0zm2.765625 -11.734375l5.984375 0q1.890625 0 2.96875 -0.390625q1.078125 -0.390625 1.625 -1.25q0.5625 -0.875 0.5625 -1.890625q0 -1.484375 -1.078125 -2.4375q-1.078125 -0.96875 -3.40625 -0.96875l-6.65625 0l0 6.9375zm28.445557 6.84375l2.65625 0.328125q-0.625 2.328125 -2.328125 3.625q-1.703125 1.28125 -4.359375 1.28125q-3.328125 0 -5.28125 -2.046875q-1.953125 -2.0625 -1.953125 -5.765625q0 -3.84375 1.96875 -5.953125q1.984375 -2.125 5.125 -2.125q3.0625 0 4.984375 2.078125q1.9375 2.0625 1.9375 5.84375q0 0.21875 -0.015625 0.671875l-11.34375 0q0.140625 2.515625 1.421875 3.84375q1.28125 1.328125 3.171875 1.328125q1.421875 0 2.421875 -0.734375q1.0 -0.75 1.59375 -2.375zm-8.46875 -4.171875l8.5 0q-0.171875 -1.921875 -0.96875 -2.875q-1.234375 -1.5 -3.203125 -1.5q-1.765625 0 -2.984375 1.1875q-1.203125 1.1875 -1.34375 3.1875zm24.295288 3.484375l2.53125 0.34375q-0.40625 2.609375 -2.125 4.09375q-1.71875 1.484375 -4.203125 1.484375q-3.125 0 -5.03125 -2.03125q-1.890625 -2.046875 -1.890625 -5.859375q0 -2.46875 0.8125 -4.3125q0.828125 -1.84375 2.484375 -2.765625q1.671875 -0.921875 3.640625 -0.921875q2.46875 0 4.046875 1.25q1.578125 1.25 2.03125 3.5625l-2.515625 0.375q-0.359375 -1.53125 -1.265625 -2.296875q-0.90625 -0.78125 -2.203125 -0.78125q-1.9375 0 -3.15625 1.40625q-1.21875 1.390625 -1.21875 4.40625q0 3.078125 1.171875 4.46875q1.171875 1.375 3.0625 1.375q1.515625 0 2.53125 -0.921875q1.015625 -0.9375 1.296875 -2.875zm3.7734375 -2.03125q0 -4.21875 2.359375 -6.25q1.953125 -1.6875 4.78125 -1.6875q3.125 0 5.109375 2.0625q2.0 2.046875 2.0 5.671875q0 2.921875 -0.875 4.609375q-0.875 1.6875 -2.5625 2.625q-1.6875 0.921875 -3.671875 0.921875q-3.203125 0 -5.171875 -2.046875q-1.96875 -2.046875 -1.96875 -5.90625zm2.65625 0q0 2.921875 1.265625 4.375q1.28125 1.453125 3.21875 1.453125q1.921875 0 3.1875 -1.453125q1.28125 -1.46875 1.28125 -4.453125q0 -2.828125 -1.28125 -4.28125q-1.28125 -1.453125 -3.1875 -1.453125q-1.9375 0 -3.21875 1.453125q-1.265625 1.4375 -1.265625 4.359375zm14.139038 8.875l2.515625 0.359375q0.15625 1.171875 0.875 1.703125q0.953125 0.703125 2.609375 0.703125q1.796875 0 2.765625 -0.71875q0.984375 -0.703125 1.328125 -2.0q0.203125 -0.78125 0.1875 -3.296875q-1.703125 1.984375 -4.21875 1.984375q-3.140625 0 -4.859375 -2.265625q-1.71875 -2.265625 -1.71875 -5.421875q0 -2.171875 0.78125 -4.015625q0.796875 -1.84375 2.296875 -2.84375q1.5 -1.0 3.515625 -1.0q2.6875 0 4.4375 2.171875l0 -1.828125l2.375 0l0 13.140625q0 3.546875 -0.71875 5.03125q-0.71875 1.484375 -2.296875 2.34375q-1.5625 0.859375 -3.859375 0.859375q-2.71875 0 -4.390625 -1.234375q-1.671875 -1.21875 -1.625 -3.671875zm2.140625 -9.140625q0 2.984375 1.1875 4.359375q1.1875 1.375 2.984375 1.375q1.765625 0 2.96875 -1.359375q1.203125 -1.375 1.203125 -4.296875q0 -2.78125 -1.234375 -4.203125q-1.234375 -1.421875 -2.984375 -1.421875q-1.71875 0 -2.921875 1.40625q-1.203125 1.390625 -1.203125 4.140625zm14.654663 7.875l0 -15.203125l2.3125 0l0 2.15625q1.671875 -2.5 4.84375 -2.5q1.375 0 2.53125 0.5q1.15625 0.484375 1.71875 1.296875q0.578125 0.796875 0.8125 1.890625q0.140625 0.71875 0.140625 2.515625l0 9.34375l-2.578125 0l0 -9.25q0 -1.578125 -0.3125 -2.359375q-0.296875 -0.78125 -1.0625 -1.234375q-0.765625 -0.46875 -1.796875 -0.46875q-1.640625 0 -2.84375 1.046875q-1.1875 1.03125 -1.1875 3.953125l0 8.3125l-2.578125 0zm16.326538 -18.03125l0 -2.96875l2.578125 0l0 2.96875l-2.578125 0zm0 18.03125l0 -15.203125l2.578125 0l0 15.203125l-2.578125 0zm12.125122 -2.3125l0.375 2.28125q-1.09375 0.234375 -1.953125 0.234375q-1.40625 0 -2.1875 -0.4375q-0.765625 -0.453125 -1.078125 -1.171875q-0.3125 -0.734375 -0.3125 -3.046875l0 -8.75l-1.890625 0l0 -2.0l1.890625 0l0 -3.765625l2.5625 -1.546875l0 5.3125l2.59375 0l0 2.0l-2.59375 0l0 8.890625q0 1.109375 0.125 1.421875q0.140625 0.3125 0.453125 0.5q0.3125 0.1875 0.890625 0.1875q0.421875 0 1.125 -0.109375zm2.5389404 -15.71875l0 -2.96875l2.578125 0l0 2.96875l-2.578125 0zm0 18.03125l0 -15.203125l2.578125 0l0 15.203125l-2.578125 0zm5.531372 -7.609375q0 -4.21875 2.359375 -6.25q1.953125 -1.6875 4.78125 -1.6875q3.125 0 5.109375 2.0625q2.0 2.046875 2.0 5.671875q0 2.921875 -0.875 4.609375q-0.875 1.6875 -2.5625 2.625q-1.6875 0.921875 -3.671875 0.921875q-3.203125 0 -5.171875 -2.046875q-1.96875 -2.046875 -1.96875 -5.90625zm2.65625 0q0 2.921875 1.265625 4.375q1.28125 1.453125 3.21875 1.453125q1.921875 0 3.1875 -1.453125q1.28125 -1.46875 1.28125 -4.453125q0 -2.828125 -1.28125 -4.28125q-1.28125 -1.453125 -3.1875 -1.453125q-1.9375 0 -3.21875 1.453125q-1.265625 1.4375 -1.265625 4.359375zm14.623413 7.609375l0 -15.203125l2.3125 0l0 2.15625q1.671875 -2.5 4.84375 -2.5q1.375 0 2.53125 0.5q1.15625 0.484375 1.71875 1.296875q0.578125 0.796875 0.8125 1.890625q0.140625 0.71875 0.140625 2.515625l0 9.34375l-2.578125 0l0 -9.25q0 -1.578125 -0.3125 -2.359375q-0.296875 -0.78125 -1.0625 -1.234375q-0.765625 -0.46875 -1.796875 -0.46875q-1.640625 0 -2.84375 1.046875q-1.1875 1.03125 -1.1875 3.953125l0 8.3125l-2.578125 0z" fill-rule="nonzero"/><path fill="#eeeeee" d="m9.847769 911.3115l1424.3464 0l0 166.42517l-1424.3464 0z" fill-rule="evenodd"/><path stroke="#595959" stroke-width="8.0" stroke-linejoin="round" stroke-linecap="butt" d="m9.847769 911.3115l1424.3464 0l0 166.42517l-1424.3464 0z" fill-rule="evenodd"/><path fill="#000000" d="m40.113396 1005.18414l0 -21.0l7.234375 0q2.4375 0 3.734375 0.3125q1.796875 0.40625 3.078125 1.5q1.65625 1.40625 2.484375 3.59375q0.828125 2.171875 0.828125 4.984375q0 2.390625 -0.5625 4.234375q-0.5625 1.84375 -1.4375 3.0625q-0.875 1.203125 -1.921875 1.90625q-1.03125 0.6875 -2.5 1.046875q-1.453125 0.359375 -3.359375 0.359375l-7.578125 0zm2.78125 -2.484375l4.46875 0q2.078125 0 3.265625 -0.375q1.1875 -0.390625 1.890625 -1.09375q0.984375 -0.984375 1.53125 -2.65625q0.546875 -1.671875 0.546875 -4.046875q0 -3.296875 -1.078125 -5.0625q-1.078125 -1.765625 -2.625 -2.375q-1.125 -0.421875 -3.59375 -0.421875l-4.40625 0l0 16.03125zm27.99234 0.609375q-1.4375 1.21875 -2.765625 1.71875q-1.3125 0.5 -2.828125 0.5q-2.515625 0 -3.859375 -1.21875q-1.34375 -1.234375 -1.34375 -3.140625q0 -1.109375 0.5 -2.03125q0.515625 -0.921875 1.328125 -1.484375q0.828125 -0.5625 1.859375 -0.84375q0.765625 -0.203125 2.296875 -0.390625q3.125 -0.375 4.59375 -0.890625q0.015625 -0.53125 0.015625 -0.671875q0 -1.578125 -0.734375 -2.21875q-0.984375 -0.875 -2.9375 -0.875q-1.8125 0 -2.6875 0.640625q-0.859375 0.640625 -1.265625 2.25l-2.53125 -0.34375q0.34375 -1.609375 1.125 -2.609375q0.796875 -1.0 2.28125 -1.53125q1.5 -0.53125 3.453125 -0.53125q1.953125 0 3.171875 0.453125q1.21875 0.453125 1.78125 1.15625q0.578125 0.6875 0.8125 1.75q0.125 0.65625 0.125 2.375l0 3.4375q0 3.59375 0.15625 4.546875q0.171875 0.953125 0.65625 1.828125l-2.6875 0q-0.40625 -0.796875 -0.515625 -1.875zm-0.21875 -5.75q-1.40625 0.5625 -4.203125 0.96875q-1.59375 0.21875 -2.25 0.515625q-0.65625 0.28125 -1.015625 0.84375q-0.359375 0.546875 -0.359375 1.21875q0 1.03125 0.78125 1.71875q0.78125 0.6875 2.28125 0.6875q1.484375 0 2.640625 -0.65625q1.171875 -0.65625 1.71875 -1.78125q0.40625 -0.875 0.40625 -2.578125l0 -0.9375zm12.232788 5.3125l0.375 2.28125q-1.09375 0.234375 -1.953125 0.234375q-1.40625 0 -2.1875 -0.4375q-0.765625 -0.453125 -1.078125 -1.171875q-0.3125 -0.734375 -0.3125 -3.046875l0 -8.75l-1.890625 0l0 -2.0l1.890625 0l0 -3.765625l2.5625 -1.546875l0 5.3125l2.59375 0l0 2.0l-2.59375 0l0 8.890625q0 1.109375 0.125 1.421875q0.140625 0.3125 0.453125 0.5q0.3125 0.1875 0.890625 0.1875q0.421875 0 1.125 -0.109375zm12.445175 0.4375q-1.4375 1.21875 -2.765625 1.71875q-1.3125 0.5 -2.828125 0.5q-2.515625 0 -3.859375 -1.21875q-1.34375 -1.234375 -1.34375 -3.140625q0 -1.109375 0.5 -2.03125q0.515625 -0.921875 1.328125 -1.484375q0.828125 -0.5625 1.859375 -0.84375q0.765625 -0.203125 2.296875 -0.390625q3.125 -0.375 4.59375 -0.890625q0.015625 -0.53125 0.015625 -0.671875q0 -1.578125 -0.734375 -2.21875q-0.984375 -0.875 -2.9375 -0.875q-1.8125 0 -2.6875 0.640625q-0.859375 0.640625 -1.265625 2.25l-2.53125 -0.34375q0.34375 -1.609375 1.125 -2.609375q0.796875 -1.0 2.28125 -1.53125q1.5 -0.53125 3.453125 -0.53125q1.953125 0 3.171875 0.453125q1.21875 0.453125 1.78125 1.15625q0.578125 0.6875 0.8125 1.75q0.125 0.65625 0.125 2.375l0 3.4375q0 3.59375 0.15625 4.546875q0.171875 0.953125 0.65625 1.828125l-2.6875 0q-0.40625 -0.796875 -0.515625 -1.875zm-0.21875 -5.75q-1.40625 0.5625 -4.203125 0.96875q-1.59375 0.21875 -2.25 0.515625q-0.65625 0.28125 -1.015625 0.84375q-0.359375 0.546875 -0.359375 1.21875q0 1.03125 0.78125 1.71875q0.78125 0.6875 2.28125 0.6875q1.484375 0 2.640625 -0.65625q1.171875 -0.65625 1.71875 -1.78125q0.40625 -0.875 0.40625 -2.578125l0 -0.9375zm8.982788 7.625l-2.390625 0l0 -21.0l2.578125 0l0 7.5q1.625 -2.046875 4.15625 -2.046875q1.40625 0 2.65625 0.5625q1.265625 0.5625 2.0625 1.59375q0.8125 1.015625 1.265625 2.46875q0.46875 1.4375 0.46875 3.09375q0 3.90625 -1.9375 6.046875q-1.9375 2.125 -4.640625 2.125q-2.6875 0 -4.21875 -2.25l0 1.90625zm-0.03125 -7.71875q0 2.734375 0.75 3.953125q1.21875 1.984375 3.28125 1.984375q1.703125 0 2.921875 -1.46875q1.234375 -1.46875 1.234375 -4.375q0 -2.96875 -1.1875 -4.390625q-1.171875 -1.421875 -2.84375 -1.421875q-1.6875 0 -2.921875 1.46875q-1.234375 1.46875 -1.234375 4.25zm23.889038 5.84375q-1.4375 1.21875 -2.765625 1.71875q-1.3125 0.5 -2.828125 0.5q-2.515625 0 -3.859375 -1.21875q-1.34375 -1.234375 -1.34375 -3.140625q0 -1.109375 0.5 -2.03125q0.515625 -0.921875 1.328125 -1.484375q0.828125 -0.5625 1.859375 -0.84375q0.765625 -0.203125 2.296875 -0.390625q3.125 -0.375 4.59375 -0.890625q0.015625 -0.53125 0.015625 -0.671875q0 -1.578125 -0.734375 -2.21875q-0.984375 -0.875 -2.9375 -0.875q-1.8125 0 -2.6875 0.640625q-0.859375 0.640625 -1.265625 2.25l-2.53125 -0.34375q0.34375 -1.609375 1.125 -2.609375q0.796875 -1.0 2.28125 -1.53125q1.5 -0.53125 3.453125 -0.53125q1.953125 0 3.171875 0.453125q1.2187424 0.453125 1.7812424 1.15625q0.578125 0.6875 0.8125 1.75q0.125 0.65625 0.125 2.375l0 3.4375q0 3.59375 0.15625 4.546875q0.171875 0.953125 0.65625 1.828125l-2.6875 0q-0.40625 -0.796875 -0.5156174 -1.875zm-0.21875 -5.75q-1.40625 0.5625 -4.203125 0.96875q-1.59375 0.21875 -2.25 0.515625q-0.65625 0.28125 -1.015625 0.84375q-0.359375 0.546875 -0.359375 1.21875q0 1.03125 0.78125 1.71875q0.78125 0.6875 2.28125 0.6875q1.484375 0 2.640625 -0.65625q1.171875 -0.65625 1.71875 -1.78125q0.40625 -0.875 0.40625 -2.578125l0 -0.9375zm5.5765305 3.078125l2.546875 -0.390625q0.21875 1.53125 1.1875 2.34375q0.984375 0.8125 2.75 0.8125q1.78125 0 2.640625 -0.71875q0.859375 -0.71875 0.859375 -1.703125q0 -0.859375 -0.765625 -1.375q-0.53125 -0.34375 -2.640625 -0.859375q-2.828125 -0.71875 -3.921875 -1.234375q-1.09375 -0.53125 -1.671875 -1.453125q-0.5625 -0.921875 -0.5625 -2.046875q0 -1.015625 0.46875 -1.875q0.46875 -0.875 1.265625 -1.453125q0.609375 -0.4375 1.640625 -0.734375q1.046875 -0.3125 2.234375 -0.3125q1.78125 0 3.125 0.515625q1.359375 0.515625 2.0 1.390625q0.65625 0.875 0.890625 2.359375l-2.515625 0.34375q-0.171875 -1.171875 -1.0 -1.828125q-0.8125 -0.671875 -2.3125 -0.671875q-1.78125 0 -2.546875 0.59375q-0.75 0.578125 -0.75 1.375q0 0.5 0.3125 0.90625q0.3125 0.40625 0.984375 0.6875q0.390625 0.140625 2.28125 0.65625q2.734375 0.734375 3.8125 1.203125q1.078125 0.453125 1.6875 1.34375q0.625 0.890625 0.625 2.203125q0 1.296875 -0.75 2.4375q-0.75 1.125 -2.171875 1.75q-1.421875 0.625 -3.203125 0.625q-2.96875 0 -4.53125 -1.234375q-1.546875 -1.234375 -1.96875 -3.65625zm26.101562 -0.34375l2.65625 0.328125q-0.625 2.328125 -2.328125 3.625q-1.703125 1.28125 -4.359375 1.28125q-3.328125 0 -5.28125 -2.046875q-1.953125 -2.0625 -1.953125 -5.765625q0 -3.84375 1.96875 -5.953125q1.984375 -2.125 5.125 -2.125q3.0625 0 4.984375 2.078125q1.9375 2.0625 1.9375 5.84375q0 0.21875 -0.015625 0.671875l-11.34375 0q0.140625 2.515625 1.421875 3.84375q1.28125 1.328125 3.171875 1.328125q1.421875 0 2.421875 -0.734375q1.0 -0.75 1.59375 -2.375zm-8.46875 -4.171875l8.5 0q-0.171875 -1.921875 -0.96875 -2.875q-1.234375 -1.5 -3.203125 -1.5q-1.765625 0 -2.984375 1.1875q-1.203125 1.1875 -1.34375 3.1875zm15.045288 9.0625l0 -2.9375l2.9375 0l0 2.9375q0 1.625 -0.578125 2.609375q-0.578125 1.0 -1.8125 1.546875l-0.71875 -1.109375q0.8125 -0.359375 1.203125 -1.0625q0.390625 -0.6875 0.421875 -1.984375l-1.453125 0zm16.030975 0l0 -21.0l2.78125 0l0 8.625l10.90625 0l0 -8.625l2.78125 0l0 21.0l-2.78125 0l0 -9.890625l-10.90625 0l0 9.890625l-2.78125 0zm30.695465 -1.875q-1.4375 1.21875 -2.765625 1.71875q-1.3125 0.5 -2.828125 0.5q-2.515625 0 -3.859375 -1.21875q-1.34375 -1.234375 -1.34375 -3.140625q0 -1.109375 0.5 -2.03125q0.515625 -0.921875 1.328125 -1.484375q0.828125 -0.5625 1.859375 -0.84375q0.765625 -0.203125 2.296875 -0.390625q3.125 -0.375 4.59375 -0.890625q0.015625 -0.53125 0.015625 -0.671875q0 -1.578125 -0.734375 -2.21875q-0.984375 -0.875 -2.9375 -0.875q-1.8125 0 -2.6875 0.640625q-0.859375 0.640625 -1.265625 2.25l-2.53125 -0.34375q0.34375 -1.609375 1.125 -2.609375q0.796875 -1.0 2.28125 -1.53125q1.5 -0.53125 3.453125 -0.53125q1.953125 0 3.171875 0.453125q1.21875 0.453125 1.78125 1.15625q0.578125 0.6875 0.8125 1.75q0.125 0.65625 0.125 2.375l0 3.4375q0 3.59375 0.15625 4.546875q0.171875 0.953125 0.65625 1.828125l-2.6875 0q-0.40625 -0.796875 -0.515625 -1.875zm-0.21875 -5.75q-1.40625 0.5625 -4.203125 0.96875q-1.59375 0.21875 -2.25 0.515625q-0.65625 0.28125 -1.015625 0.84375q-0.359375 0.546875 -0.359375 1.21875q0 1.03125 0.78125 1.71875q0.78125 0.6875 2.28125 0.6875q1.484375 0 2.640625 -0.65625q1.171875 -0.65625 1.71875 -1.78125q0.40625 -0.875 0.40625 -2.578125l0 -0.9375zm16.467163 7.625l0 -1.921875q-1.4375 2.265625 -4.25 2.265625q-1.8125 0 -3.34375 -1.0q-1.53125 -1.0 -2.375 -2.796875q-0.828125 -1.796875 -0.828125 -4.140625q0 -2.265625 0.75 -4.125q0.765625 -1.859375 2.28125 -2.84375q1.53125 -0.984375 3.40625 -0.984375q1.375 0 2.4375 0.578125q1.078125 0.578125 1.75 1.5l0 -7.53125l2.5625 0l0 21.0l-2.390625 0zm-8.140625 -7.59375q0 2.921875 1.21875 4.375q1.234375 1.4375 2.921875 1.4375q1.6875 0 2.859375 -1.375q1.1875 -1.390625 1.1875 -4.21875q0 -3.125 -1.203125 -4.578125q-1.203125 -1.46875 -2.96875 -1.46875q-1.71875 0 -2.875 1.40625q-1.140625 1.40625 -1.140625 4.421875zm13.623413 -0.015625q0 -4.21875 2.359375 -6.25q1.953125 -1.6875 4.78125 -1.6875q3.125 0 5.109375 2.0625q2.0 2.046875 2.0 5.671875q0 2.921875 -0.875 4.609375q-0.875 1.6875 -2.5625 2.625q-1.6875 0.921875 -3.671875 0.921875q-3.203125 0 -5.171875 -2.046875q-1.96875 -2.046875 -1.96875 -5.90625zm2.65625 0q0 2.921875 1.265625 4.375q1.28125 1.453125 3.21875 1.453125q1.921875 0 3.1875 -1.453125q1.28125 -1.46875 1.28125 -4.453125q0 -2.828125 -1.28125 -4.28125q-1.28125 -1.453125 -3.1875 -1.453125q-1.9375 0 -3.21875 1.453125q-1.265625 1.4375 -1.265625 4.359375zm13.654663 0q0 -4.21875 2.359375 -6.25q1.953125 -1.6875 4.78125 -1.6875q3.125 0 5.109375 2.0625q2.0 2.046875 2.0 5.671875q0 2.921875 -0.875 4.609375q-0.875 1.6875 -2.5625 2.625q-1.6875 0.921875 -3.671875 0.921875q-3.203125 0 -5.171875 -2.046875q-1.96875 -2.046875 -1.96875 -5.90625zm2.65625 0q0 2.921875 1.265625 4.375q1.28125 1.453125 3.21875 1.453125q1.921875 0 3.1875 -1.453125q1.28125 -1.46875 1.28125 -4.453125q0 -2.828125 -1.28125 -4.28125q-1.28125 -1.453125 -3.1875 -1.453125q-1.9375 0 -3.21875 1.453125q-1.265625 1.4375 -1.265625 4.359375zm14.623413 13.4375l0 -21.03125l2.34375 0l0 1.96875q0.828125 -1.15625 1.875 -1.734375q1.046875 -0.578125 2.53125 -0.578125q1.953125 0 3.4375 1.0q1.5 1.0 2.25 2.828125q0.765625 1.828125 0.765625 4.0q0 2.328125 -0.84375 4.203125q-0.828125 1.875 -2.4375 2.875q-1.59375 0.984375 -3.359375 0.984375q-1.28125 0 -2.3125 -0.546875q-1.015625 -0.546875 -1.671875 -1.375l0 7.40625l-2.578125 0zm2.328125 -13.34375q0 2.9375 1.1875 4.34375q1.1875 1.390625 2.875 1.390625q1.71875 0 2.9375 -1.453125q1.234375 -1.453125 1.234375 -4.5q0 -2.90625 -1.203125 -4.34375q-1.1875 -1.453125 -2.84375 -1.453125q-1.65625 0 -2.921875 1.546875q-1.265625 1.53125 -1.265625 4.46875zm14.654663 7.515625l0 -2.9375l2.9375 0l0 2.9375q0 1.625 -0.578125 2.609375q-0.578125 1.0 -1.8125 1.546875l-0.71875 -1.109375q0.8125 -0.359375 1.203125 -1.0625q0.390625 -0.6875 0.421875 -1.984375l-1.453125 0zm15.827881 0l0 -21.0l2.78125 0l0 10.421875l10.421875 -10.421875l3.78125 0l-8.8125 8.515625l9.1875 12.484375l-3.65625 0l-7.484375 -10.625l-3.4375 3.34375l0 7.28125l-2.78125 0zm29.280396 -1.875q-1.4375 1.21875 -2.765625 1.71875q-1.3125 0.5 -2.828125 0.5q-2.515625 0 -3.859375 -1.21875q-1.34375 -1.234375 -1.34375 -3.140625q0 -1.109375 0.5 -2.03125q0.515625 -0.921875 1.328125 -1.484375q0.828125 -0.5625 1.859375 -0.84375q0.765625 -0.203125 2.296875 -0.390625q3.125 -0.375 4.59375 -0.890625q0.015625 -0.53125 0.015625 -0.671875q0 -1.578125 -0.734375 -2.21875q-0.984375 -0.875 -2.9375 -0.875q-1.8125 0 -2.6875 0.640625q-0.859375 0.640625 -1.265625 2.25l-2.53125 -0.34375q0.34375 -1.609375 1.125 -2.609375q0.796875 -1.0 2.28125 -1.53125q1.5 -0.53125 3.453125 -0.53125q1.953125 0 3.171875 0.453125q1.21875 0.453125 1.78125 1.15625q0.578125 0.6875 0.8125 1.75q0.125 0.65625 0.125 2.375l0 3.4375q0 3.59375 0.15625 4.546875q0.171875 0.953125 0.65625 1.828125l-2.6875 0q-0.40625 -0.796875 -0.515625 -1.875zm-0.21875 -5.75q-1.40625 0.5625 -4.203125 0.96875q-1.59375 0.21875 -2.25 0.515625q-0.65625 0.28125 -1.015625 0.84375q-0.359375 0.546875 -0.359375 1.21875q0 1.03125 0.78125 1.71875q0.78125 0.6875 2.28125 0.6875q1.484375 0 2.640625 -0.65625q1.171875 -0.65625 1.71875 -1.78125q0.40625 -0.875 0.40625 -2.578125l0 -0.9375zm7.217163 7.625l0 -13.203125l-2.28125 0l0 -2.0l2.28125 0l0 -1.625q0 -1.53125 0.28125 -2.28125q0.359375 -1.0 1.296875 -1.625q0.9375 -0.625 2.640625 -0.625q1.078125 0 2.40625 0.265625l-0.390625 2.25q-0.8125 -0.140625 -1.515625 -0.140625q-1.171875 0 -1.671875 0.5q-0.484375 0.5 -0.484375 1.875l0 1.40625l2.96875 0l0 2.0l-2.96875 0l0 13.203125l-2.5625 0zm7.5545654 0l0 -21.0l2.578125 0l0 11.984375l6.09375 -6.1875l3.34375 0l-5.828125 5.640625l6.40625 9.5625l-3.171875 0l-5.03125 -7.78125l-1.8125 1.75l0 6.03125l-2.578125 0zm24.570312 -1.875q-1.4375 1.21875 -2.765625 1.71875q-1.3125 0.5 -2.828125 0.5q-2.515625 0 -3.859375 -1.21875q-1.34375 -1.234375 -1.34375 -3.140625q0 -1.109375 0.5 -2.03125q0.515625 -0.921875 1.328125 -1.484375q0.828125 -0.5625 1.859375 -0.84375q0.765625 -0.203125 2.296875 -0.390625q3.125 -0.375 4.59375 -0.890625q0.015625 -0.53125 0.015625 -0.671875q0 -1.578125 -0.734375 -2.21875q-0.984375 -0.875 -2.9375 -0.875q-1.8125 0 -2.6875 0.640625q-0.859375 0.640625 -1.265625 2.25l-2.53125 -0.34375q0.34375 -1.609375 1.125 -2.609375q0.796875 -1.0 2.28125 -1.53125q1.5 -0.53125 3.453125 -0.53125q1.953125 0 3.171875 0.453125q1.21875 0.453125 1.78125 1.15625q0.578125 0.6875 0.8125 1.75q0.125 0.65625 0.125 2.375l0 3.4375q0 3.59375 0.15625 4.546875q0.171875 0.953125 0.65625 1.828125l-2.6875 0q-0.40625 -0.796875 -0.515625 -1.875zm-0.21875 -5.75q-1.40625 0.5625 -4.203125 0.96875q-1.59375 0.21875 -2.25 0.515625q-0.65625 0.28125 -1.015625 0.84375q-0.359375 0.546875 -0.359375 1.21875q0 1.03125 0.78125 1.71875q0.78125 0.6875 2.28125 0.6875q1.484375 0 2.640625 -0.65625q1.171875 -0.65625 1.71875 -1.78125q0.40625 -0.875 0.40625 -2.578125l0 -0.9375z" fill-rule="nonzero"/><path fill="#eeeeee" d="m268.73978 518.15497l233.38583 0l0 166.42517l-233.38583 0z" fill-rule="evenodd"/><path stroke="#595959" stroke-width="8.0" stroke-linejoin="round" stroke-linecap="butt" d="m268.73978 518.15497l233.38583 0l0 166.42517l-233.38583 0z" fill-rule="evenodd"/><path fill="#000000" d="m312.77103 573.5276l2.78125 0l0 12.140625q0 3.15625 -0.71875 5.03125q-0.703125 1.859375 -2.578125 3.03125q-1.875 1.15625 -4.90625 1.15625q-2.953125 0 -4.828125 -1.015625q-1.875 -1.015625 -2.671875 -2.9375q-0.796875 -1.9375 -0.796875 -5.265625l0 -12.140625l2.765625 0l0 12.125q0 2.734375 0.5 4.03125q0.515625 1.296875 1.75 2.0q1.25 0.703125 3.046875 0.703125q3.0625 0 4.359375 -1.390625q1.296875 -1.390625 1.296875 -5.34375l0 -12.125zm6.05484 16.453125l2.546875 -0.390625q0.21875 1.53125 1.1875 2.34375q0.984375 0.8125 2.75 0.8125q1.78125 0 2.640625 -0.71875q0.859375 -0.71875 0.859375 -1.703125q0 -0.859375 -0.765625 -1.375q-0.53125 -0.34375 -2.640625 -0.859375q-2.828125 -0.71875 -3.921875 -1.234375q-1.09375 -0.53125 -1.671875 -1.453125q-0.5625 -0.921875 -0.5625 -2.046875q0 -1.015625 0.46875 -1.875q0.46875 -0.875 1.265625 -1.453125q0.609375 -0.4375 1.640625 -0.734375q1.046875 -0.3125 2.234375 -0.3125q1.78125 0 3.125 0.515625q1.359375 0.515625 2.0 1.390625q0.65625 0.875 0.890625 2.359375l-2.515625 0.34375q-0.171875 -1.171875 -1.0 -1.828125q-0.8125 -0.671875 -2.3125 -0.671875q-1.78125 0 -2.546875 0.59375q-0.75 0.578125 -0.75 1.375q0 0.5 0.3125 0.90625q0.3125 0.40625 0.984375 0.6875q0.390625 0.140625 2.28125 0.65625q2.734375 0.734375 3.8125 1.203125q1.078125 0.453125 1.6875 1.34375q0.625 0.890625 0.625 2.203125q0 1.296875 -0.75 2.4375q-0.75 1.125 -2.171875 1.75q-1.421875 0.625 -3.203125 0.625q-2.96875 0 -4.53125 -1.234375q-1.546875 -1.234375 -1.96875 -3.65625zm26.101562 -0.34375l2.65625 0.328125q-0.625 2.328125 -2.328125 3.625q-1.703125 1.28125 -4.359375 1.28125q-3.328125 0 -5.28125 -2.046875q-1.953125 -2.0625 -1.953125 -5.765625q0 -3.84375 1.96875 -5.953125q1.984375 -2.125 5.125 -2.125q3.0625 0 4.984375 2.078125q1.9375 2.0625 1.9375 5.84375q0 0.21875 -0.015625 0.671875l-11.34375 0q0.140625 2.515625 1.421875 3.84375q1.28125 1.328125 3.171875 1.328125q1.421875 0 2.421875 -0.734375q1.0 -0.75 1.59375 -2.375zm-8.46875 -4.171875l8.5 0q-0.171875 -1.921875 -0.96875 -2.875q-1.234375 -1.5 -3.203125 -1.5q-1.765625 0 -2.984375 1.1875q-1.203125 1.1875 -1.34375 3.1875zm14.342163 9.0625l0 -15.203125l2.3125 0l0 2.296875q0.890625 -1.609375 1.640625 -2.125q0.75 -0.515625 1.65625 -0.515625q1.3125 0 2.65625 0.828125l-0.890625 2.390625q-0.953125 -0.5625 -1.890625 -0.5625q-0.84375 0 -1.515625 0.515625q-0.671875 0.5 -0.96875 1.40625q-0.421875 1.375 -0.421875 3.0l0 7.96875l-2.578125 0z" fill-rule="nonzero"/><path fill="#000000" d="m296.6929 629.5276l8.0625 -21.0l3.0 0l8.59375 21.0l-3.171875 0l-2.453125 -6.359375l-8.765625 0l-2.3125 6.359375l-2.953125 0zm6.0625 -8.625l7.109375 0l-2.1875 -5.8125q-1.0 -2.640625 -1.484375 -4.34375q-0.40625 2.015625 -1.140625 4.0l-2.296875 6.15625zm25.405396 3.046875l2.53125 0.34375q-0.40625 2.609375 -2.125 4.09375q-1.71875 1.484375 -4.203125 1.484375q-3.125 0 -5.03125 -2.03125q-1.890625 -2.046875 -1.890625 -5.859375q0 -2.46875 0.8125 -4.3125q0.828125 -1.84375 2.484375 -2.765625q1.671875 -0.921875 3.640625 -0.921875q2.46875 0 4.046875 1.25q1.578125 1.25 2.03125 3.5625l-2.515625 0.375q-0.359375 -1.53125 -1.265625 -2.296875q-0.90625 -0.78125 -2.203125 -0.78125q-1.9375 0 -3.15625 1.40625q-1.21875 1.390625 -1.21875 4.40625q0 3.078125 1.171875 4.46875q1.171875 1.375 3.0625 1.375q1.515625 0 2.53125 -0.921875q1.015625 -0.9375 1.296875 -2.875zm14.6640625 0l2.53125 0.34375q-0.40625 2.609375 -2.125 4.09375q-1.71875 1.484375 -4.203125 1.484375q-3.125 0 -5.03125 -2.03125q-1.890625 -2.046875 -1.890625 -5.859375q0 -2.46875 0.8125 -4.3125q0.828125 -1.84375 2.484375 -2.765625q1.671875 -0.921875 3.640625 -0.921875q2.46875 0 4.046875 1.25q1.578125 1.25 2.03125 3.5625l-2.515625 0.375q-0.359375 -1.53125 -1.265625 -2.296875q-0.90625 -0.78125 -2.203125 -0.78125q-1.9375 0 -3.15625 1.40625q-1.21875 1.390625 -1.21875 4.40625q0 3.078125 1.171875 4.46875q1.171875 1.375 3.0625 1.375q1.515625 0 2.53125 -0.921875q1.015625 -0.9375 1.296875 -2.875zm3.7734375 -2.03125q0 -4.21875 2.359375 -6.25q1.953125 -1.6875 4.78125 -1.6875q3.125 0 5.109375 2.0625q2.0 2.046875 2.0 5.671875q0 2.921875 -0.875 4.609375q-0.875 1.6875 -2.5625 2.625q-1.6875 0.921875 -3.671875 0.921875q-3.203125 0 -5.171875 -2.046875q-1.96875 -2.046875 -1.96875 -5.90625zm2.65625 0q0 2.921875 1.265625 4.375q1.28125 1.453125 3.21875 1.453125q1.921875 0 3.1875 -1.453125q1.28125 -1.46875 1.28125 -4.453125q0 -2.828125 -1.28125 -4.28125q-1.28125 -1.453125 -3.1875 -1.453125q-1.9375 0 -3.21875 1.453125q-1.265625 1.4375 -1.265625 4.359375zm24.592163 7.609375l0 -2.234375q-1.78125 2.578125 -4.828125 2.578125q-1.34375 0 -2.515625 -0.515625q-1.171875 -0.515625 -1.734375 -1.296875q-0.5625 -0.78125 -0.796875 -1.90625q-0.15625 -0.765625 -0.15625 -2.40625l0 -9.421875l2.578125 0l0 8.421875q0 2.03125 0.15625 2.734375q0.25 1.015625 1.03125 1.59375q0.796875 0.578125 1.953125 0.578125q1.15625 0 2.171875 -0.59375q1.015625 -0.59375 1.4375 -1.609375q0.421875 -1.03125 0.421875 -2.984375l0 -8.140625l2.578125 0l0 15.203125l-2.296875 0zm6.342163 0l0 -15.203125l2.3125 0l0 2.15625q1.671875 -2.5 4.84375 -2.5q1.375 0 2.53125 0.5q1.15625 0.484375 1.71875 1.296875q0.578125 0.796875 0.8125 1.890625q0.140625 0.71875 0.140625 2.515625l0 9.34375l-2.578125 0l0 -9.25q0 -1.578125 -0.3125 -2.359375q-0.296875 -0.78125 -1.0625 -1.234375q-0.765625 -0.46875 -1.796875 -0.46875q-1.640625 0 -2.84375 1.046875q-1.1875 1.03125 -1.1875 3.953125l0 8.3125l-2.578125 0zm21.935913 -2.3125l0.375 2.28125q-1.09375 0.234375 -1.953125 0.234375q-1.40625 0 -2.1875 -0.4375q-0.765625 -0.453125 -1.078125 -1.171875q-0.3125 -0.734375 -0.3125 -3.046875l0 -8.75l-1.890625 0l0 -2.0l1.890625 0l0 -3.765625l2.5625 -1.546875l0 5.3125l2.59375 0l0 2.0l-2.59375 0l0 8.890625q0 1.109375 0.125 1.421875q0.140625 0.3125 0.453125 0.5q0.3125 0.1875 0.890625 0.1875q0.421875 0 1.125 -0.109375zm1.4920349 -2.234375l2.546875 -0.390625q0.21875 1.53125 1.1875 2.34375q0.984375 0.8125 2.75 0.8125q1.78125 0 2.640625 -0.71875q0.859375 -0.71875 0.859375 -1.703125q0 -0.859375 -0.765625 -1.375q-0.53125 -0.34375 -2.640625 -0.859375q-2.828125 -0.71875 -3.921875 -1.234375q-1.09375 -0.53125 -1.671875 -1.453125q-0.5625 -0.921875 -0.5625 -2.046875q0 -1.015625 0.46875 -1.875q0.46875 -0.875 1.265625 -1.453125q0.609375 -0.4375 1.640625 -0.734375q1.046875 -0.3125 2.234375 -0.3125q1.78125 0 3.125 0.515625q1.359375 0.515625 2.0 1.390625q0.65625 0.875 0.890625 2.359375l-2.515625 0.34375q-0.171875 -1.171875 -1.0 -1.828125q-0.8125 -0.671875 -2.3125 -0.671875q-1.78125 0 -2.546875 0.59375q-0.75 0.578125 -0.75 1.375q0 0.5 0.3125 0.90625q0.3125 0.40625 0.984375 0.6875q0.390625 0.140625 2.28125 0.65625q2.734375 0.734375 3.8125 1.203125q1.078125 0.453125 1.6875 1.34375q0.625 0.890625 0.625 2.203125q0 1.296875 -0.75 2.4375q-0.75 1.125 -2.171875 1.75q-1.421875 0.625 -3.203125 0.625q-2.96875 0 -4.53125 -1.234375q-1.546875 -1.234375 -1.96875 -3.65625z" fill-rule="nonzero"/><path fill="#eeeeee" d="m527.6266 518.15497l233.3858 0l0 166.42517l-233.3858 0z" fill-rule="evenodd"/><path stroke="#595959" stroke-width="8.0" stroke-linejoin="round" stroke-linecap="butt" d="m527.6266 518.15497l233.3858 0l0 166.42517l-233.3858 0z" fill-rule="evenodd"/><path fill="#000000" d="m557.9391 594.5276l0 -21.0l9.296875 0q2.8125 0 4.265625 0.578125q1.46875 0.5625 2.34375 2.0q0.875 1.421875 0.875 3.15625q0 2.234375 -1.453125 3.765625q-1.4375 1.53125 -4.46875 1.953125q1.109375 0.53125 1.671875 1.046875q1.21875 1.109375 2.3125 2.78125l3.65625 5.71875l-3.5 0l-2.78125 -4.375q-1.21875 -1.890625 -2.0 -2.890625q-0.78125 -1.0 -1.40625 -1.390625q-0.625 -0.40625 -1.265625 -0.5625q-0.484375 -0.109375 -1.546875 -0.109375l-3.234375 0l0 9.328125l-2.765625 0zm2.765625 -11.734375l5.984375 0q1.890625 0 2.96875 -0.390625q1.078125 -0.390625 1.625 -1.25q0.5625 -0.875 0.5625 -1.890625q0 -1.484375 -1.078125 -2.4375q-1.078125 -0.96875 -3.40625 -0.96875l-6.65625 0l0 6.9375zm28.445435 6.84375l2.65625 0.328125q-0.625 2.328125 -2.328125 3.625q-1.703125 1.28125 -4.359375 1.28125q-3.328125 0 -5.28125 -2.046875q-1.953125 -2.0625 -1.953125 -5.765625q0 -3.84375 1.96875 -5.953125q1.984375 -2.125 5.125 -2.125q3.0625 0 4.984375 2.078125q1.9375 2.0625 1.9375 5.84375q0 0.21875 -0.015625 0.671875l-11.34375 0q0.140625 2.515625 1.421875 3.84375q1.28125 1.328125 3.171875 1.328125q1.421875 0 2.421875 -0.734375q1.0 -0.75 1.59375 -2.375zm-8.46875 -4.171875l8.5 0q-0.171875 -1.921875 -0.96875 -2.875q-1.234375 -1.5 -3.203125 -1.5q-1.765625 0 -2.984375 1.1875q-1.203125 1.1875 -1.34375 3.1875zm13.342163 4.515625l2.546875 -0.390625q0.21875 1.53125 1.1875 2.34375q0.984375 0.8125 2.75 0.8125q1.78125 0 2.640625 -0.71875q0.859375 -0.71875 0.859375 -1.703125q0 -0.859375 -0.765625 -1.375q-0.53125 -0.34375 -2.640625 -0.859375q-2.828125 -0.71875 -3.921875 -1.234375q-1.09375 -0.53125 -1.671875 -1.453125q-0.5625 -0.921875 -0.5625 -2.046875q0 -1.015625 0.46875 -1.875q0.46875 -0.875 1.265625 -1.453125q0.609375 -0.4375 1.640625 -0.734375q1.046875 -0.3125 2.234375 -0.3125q1.78125 0 3.125 0.515625q1.359375 0.515625 2.0 1.390625q0.65625 0.875 0.890625 2.359375l-2.515625 0.34375q-0.171875 -1.171875 -1.0 -1.828125q-0.8125 -0.671875 -2.3125 -0.671875q-1.78125 0 -2.546875 0.59375q-0.75 0.578125 -0.75 1.375q0 0.5 0.3125 0.90625q0.3125 0.40625 0.984375 0.6875q0.390625 0.140625 2.28125 0.65625q2.734375 0.734375 3.8125 1.203125q1.078125 0.453125 1.6875 1.34375q0.625 0.890625 0.625 2.203125q0 1.296875 -0.75 2.4375q-0.75 1.125 -2.171875 1.75q-1.421875 0.625 -3.203125 0.625q-2.96875 0 -4.53125 -1.234375q-1.546875 -1.234375 -1.96875 -3.65625zm25.664062 4.546875l0 -2.234375q-1.78125 2.578125 -4.828125 2.578125q-1.34375 0 -2.515625 -0.515625q-1.171875 -0.515625 -1.734375 -1.296875q-0.5625 -0.78125 -0.796875 -1.90625q-0.15625 -0.765625 -0.15625 -2.40625l0 -9.421875l2.578125 0l0 8.421875q0 2.03125 0.15625 2.734375q0.25 1.015625 1.03125 1.59375q0.796875 0.578125 1.953125 0.578125q1.15625 0 2.171875 -0.59375q1.015625 -0.59375 1.4375 -1.609375q0.421875 -1.03125 0.421875 -2.984375l0 -8.140625l2.578125 0l0 15.203125l-2.296875 0zm6.279663 0l0 -21.0l2.578125 0l0 21.0l-2.578125 0zm12.203308 -2.3125l0.375 2.28125q-1.09375 0.234375 -1.953125 0.234375q-1.40625 0 -2.1875 -0.4375q-0.765625 -0.453125 -1.078125 -1.171875q-0.3125 -0.734375 -0.3125 -3.046875l0 -8.75l-1.890625 0l0 -2.0l1.890625 0l0 -3.765625l2.5625 -1.546875l0 5.3125l2.59375 0l0 2.0l-2.59375 0l0 8.890625q0 1.109375 0.125 1.421875q0.140625 0.3125 0.453125 0.5q0.3125 0.1875 0.890625 0.1875q0.421875 0 1.125 -0.109375zm1.4920654 -2.234375l2.546875 -0.390625q0.21875 1.53125 1.1875 2.34375q0.984375 0.8125 2.75 0.8125q1.78125 0 2.640625 -0.71875q0.859375 -0.71875 0.859375 -1.703125q0 -0.859375 -0.765625 -1.375q-0.53125 -0.34375 -2.640625 -0.859375q-2.828125 -0.71875 -3.921875 -1.234375q-1.09375 -0.53125 -1.671875 -1.453125q-0.5625 -0.921875 -0.5625 -2.046875q0 -1.015625 0.46875 -1.875q0.46875 -0.875 1.265625 -1.453125q0.609375 -0.4375 1.640625 -0.734375q1.046875 -0.3125 2.234375 -0.3125q1.78125 0 3.125 0.515625q1.359375 0.515625 2.0 1.390625q0.65625 0.875 0.890625 2.359375l-2.515625 0.34375q-0.171875 -1.171875 -1.0 -1.828125q-0.8125 -0.671875 -2.3125 -0.671875q-1.78125 0 -2.546875 0.59375q-0.75 0.578125 -0.75 1.375q0 0.5 0.3125 0.90625q0.3125 0.40625 0.984375 0.6875q0.390625 0.140625 2.28125 0.65625q2.734375 0.734375 3.8125 1.203125q1.078125 0.453125 1.6875 1.34375q0.625 0.890625 0.625 2.203125q0 1.296875 -0.75 2.4375q-0.75 1.125 -2.171875 1.75q-1.421875 0.625 -3.203125 0.625q-2.96875 0 -4.53125 -1.234375q-1.546875 -1.234375 -1.96875 -3.65625zm35.843567 2.0625q-1.28125 1.421875 -2.78125 2.140625q-1.5 0.703125 -3.25 0.703125q-3.21875 0 -5.109375 -2.171875q-1.53125 -1.78125 -1.53125 -3.96875q0 -1.953125 1.25 -3.515625q1.25 -1.578125 3.75 -2.765625q-1.421875 -1.625 -1.90625 -2.640625q-0.46875 -1.015625 -0.46875 -1.96875q0 -1.890625 1.484375 -3.28125q1.484375 -1.40625 3.734375 -1.40625q2.140625 0 3.5 1.328125q1.375 1.3125 1.375 3.15625q0 3.0 -3.953125 5.125l3.765625 4.796875q0.640625 -1.265625 1.0 -2.921875l2.671875 0.5625q-0.6875 2.75 -1.859375 4.53125q1.453125 1.921875 3.28125 3.21875l-1.734375 2.046875q-1.5625 -1.0 -3.21875 -2.96875zm-5.25 -10.9375q1.6875 -0.984375 2.171875 -1.71875q0.5 -0.75 0.5 -1.65625q0 -1.078125 -0.6875 -1.75q-0.671875 -0.6875 -1.6875 -0.6875q-1.046875 0 -1.75 0.671875q-0.6875 0.671875 -0.6875 1.65625q0 0.484375 0.25 1.03125q0.25 0.53125 0.75 1.125l1.140625 1.328125zm3.625 8.90625l-4.71875 -5.859375q-2.09375 1.25 -2.828125 2.328125q-0.734375 1.0625 -0.734375 2.109375q0 1.265625 1.015625 2.640625q1.03125 1.375 2.890625 1.375q1.15625 0 2.390625 -0.71875q1.25 -0.71875 1.984375 -1.875z" fill-rule="nonzero"/><path fill="#000000" d="m557.9391 629.5276l0 -21.0l15.1875 0l0 2.484375l-12.40625 0l0 6.421875l11.625 0l0 2.46875l-11.625 0l0 7.140625l12.890625 0l0 2.484375l-15.671875 0zm29.04602 0l0 -1.921875q-1.4375 2.265625 -4.25 2.265625q-1.8125 0 -3.34375 -1.0q-1.53125 -1.0 -2.375 -2.796875q-0.828125 -1.796875 -0.828125 -4.140625q0 -2.265625 0.75 -4.125q0.765625 -1.859375 2.28125 -2.84375q1.53125 -0.984375 3.40625 -0.984375q1.375 0 2.4375 0.578125q1.078125 0.578125 1.75 1.5l0 -7.53125l2.5625 0l0 21.0l-2.390625 0zm-8.140625 -7.59375q0 2.921875 1.21875 4.375q1.234375 1.4375 2.921875 1.4375q1.6875 0 2.859375 -1.375q1.1875 -1.390625 1.1875 -4.21875q0 -3.125 -1.203125 -4.578125q-1.203125 -1.46875 -2.96875 -1.46875q-1.71875 0 -2.875 1.40625q-1.140625 1.40625 -1.140625 4.421875zm14.607788 -10.4375l0 -2.96875l2.578125 0l0 2.96875l-2.578125 0zm0 18.03125l0 -15.203125l2.578125 0l0 15.203125l-2.578125 0zm12.125122 -2.3125l0.375 2.28125q-1.09375 0.234375 -1.953125 0.234375q-1.40625 0 -2.1875 -0.4375q-0.765625 -0.453125 -1.078125 -1.171875q-0.3125 -0.734375 -0.3125 -3.046875l0 -8.75l-1.890625 0l0 -2.0l1.890625 0l0 -3.765625l2.5625 -1.546875l0 5.3125l2.59375 0l0 2.0l-2.59375 0l0 8.890625q0 1.109375 0.125 1.421875q0.140625 0.3125 0.453125 0.5q0.3125 0.1875 0.890625 0.1875q0.421875 0 1.125 -0.109375zm1.5545654 -5.296875q0 -4.21875 2.359375 -6.25q1.953125 -1.6875 4.78125 -1.6875q3.125 0 5.109375 2.0625q2.0 2.046875 2.0 5.671875q0 2.921875 -0.875 4.609375q-0.875 1.6875 -2.5625 2.625q-1.6875 0.921875 -3.671875 0.921875q-3.203125 0 -5.171875 -2.046875q-1.96875 -2.046875 -1.96875 -5.90625zm2.65625 0q0 2.921875 1.265625 4.375q1.28125 1.453125 3.21875 1.453125q1.921875 0 3.1875 -1.453125q1.28125 -1.46875 1.28125 -4.453125q0 -2.828125 -1.28125 -4.28125q-1.28125 -1.453125 -3.1875 -1.453125q-1.9375 0 -3.21875 1.453125q-1.265625 1.4375 -1.265625 4.359375zm14.592163 7.609375l0 -15.203125l2.3125 0l0 2.296875q0.890625 -1.609375 1.640625 -2.125q0.75 -0.515625 1.65625 -0.515625q1.3125 0 2.65625 0.828125l-0.890625 2.390625q-0.953125 -0.5625 -1.890625 -0.5625q-0.84375 0 -1.515625 0.515625q-0.671875 0.5 -0.96875 1.40625q-0.421875 1.375 -0.421875 3.0l0 7.96875l-2.578125 0z" fill-rule="nonzero"/><path fill="#eeeeee" d="m786.51337 518.15497l233.3858 0l0 166.42517l-233.3858 0z" fill-rule="evenodd"/><path stroke="#595959" stroke-width="8.0" stroke-linejoin="round" stroke-linecap="butt" d="m786.51337 518.15497l233.3858 0l0 166.42517l-233.3858 0z" fill-rule="evenodd"/><path fill="#000000" d="m814.4665 612.0276l8.0625 -21.0l3.0 0l8.59375 21.0l-3.171875 0l-2.453125 -6.359375l-8.765625 0l-2.3125 6.359375l-2.953125 0zm6.0625 -8.625l7.109375 0l-2.1875 -5.8125q-1.0 -2.640625 -1.484375 -4.34375q-0.40625 2.015625 -1.140625 4.0l-2.296875 6.15625zm25.45227 8.625l0 -2.234375q-1.78125 2.578125 -4.828125 2.578125q-1.34375 0 -2.515625 -0.515625q-1.171875 -0.515625 -1.734375 -1.296875q-0.5625 -0.78125 -0.796875 -1.90625q-0.15625 -0.765625 -0.15625 -2.40625l0 -9.421875l2.578125 0l0 8.421875q0 2.03125 0.15625 2.734375q0.25 1.015625 1.03125 1.59375q0.796875 0.578125 1.953125 0.578125q1.15625 0 2.171875 -0.59375q1.015625 -0.59375 1.4375 -1.609375q0.421875 -1.03125 0.421875 -2.984375l0 -8.140625l2.578125 0l0 15.203125l-2.296875 0zm16.201538 0l0 -1.921875q-1.4375 2.265625 -4.25 2.265625q-1.8125 0 -3.34375 -1.0q-1.53125 -1.0 -2.375 -2.796875q-0.828125 -1.796875 -0.828125 -4.140625q0 -2.265625 0.75 -4.125q0.765625 -1.859375 2.28125 -2.84375q1.53125 -0.984375 3.40625 -0.984375q1.375 0 2.4375 0.578125q1.078125 0.578125 1.75 1.5l0 -7.53125l2.5625 0l0 21.0l-2.390625 0zm-8.140625 -7.59375q0 2.921875 1.21875 4.375q1.234375 1.4375 2.921875 1.4375q1.6875 0 2.859375 -1.375q1.1875 -1.390625 1.1875 -4.21875q0 -3.125 -1.203125 -4.578125q-1.203125 -1.46875 -2.96875 -1.46875q-1.71875 0 -2.875 1.40625q-1.140625 1.40625 -1.140625 4.421875zm14.607788 -10.4375l0 -2.96875l2.578125 0l0 2.96875l-2.578125 0zm0 18.03125l0 -15.203125l2.578125 0l0 15.203125l-2.578125 0zm5.531372 -7.609375q0 -4.21875 2.359375 -6.25q1.953125 -1.6875 4.78125 -1.6875q3.125 0 5.109375 2.0625q2.0 2.046875 2.0 5.671875q0 2.921875 -0.875 4.609375q-0.875 1.6875 -2.5625 2.625q-1.6875 0.921875 -3.671875 0.921875q-3.203125 0 -5.171875 -2.046875q-1.96875 -2.046875 -1.96875 -5.90625zm2.65625 0q0 2.921875 1.265625 4.375q1.28125 1.453125 3.21875 1.453125q1.921875 0 3.1875 -1.453125q1.28125 -1.46875 1.28125 -4.453125q0 -2.828125 -1.28125 -4.28125q-1.28125 -1.453125 -3.1875 -1.453125q-1.9375 0 -3.21875 1.453125q-1.265625 1.4375 -1.265625 4.359375zm36.86548 -13.390625l2.78125 0l0 12.140625q0 3.15625 -0.71875 5.03125q-0.703125 1.859375 -2.578125 3.03125q-1.875 1.15625 -4.90625 1.15625q-2.953125 0 -4.828125 -1.015625q-1.875 -1.015625 -2.671875 -2.9375q-0.796875 -1.9375 -0.796875 -5.265625l0 -12.140625l2.765625 0l0 12.125q0 2.734375 0.5 4.03125q0.515625 1.296875 1.75 2.0q1.25 0.703125 3.046875 0.703125q3.0625 0 4.359375 -1.390625q1.296875 -1.390625 1.296875 -5.34375l0 -12.125zm7.0861206 26.828125l0 -21.03125l2.34375 0l0 1.96875q0.828125 -1.15625 1.875 -1.734375q1.046875 -0.578125 2.53125 -0.578125q1.953125 0 3.4375 1.0q1.5 1.0 2.25 2.828125q0.765625 1.828125 0.765625 4.0q0 2.328125 -0.84375 4.203125q-0.828125 1.875 -2.4375 2.875q-1.59375 0.984375 -3.359375 0.984375q-1.28125 0 -2.3125 -0.546875q-1.015625 -0.546875 -1.671875 -1.375l0 7.40625l-2.578125 0zm2.328125 -13.34375q0 2.9375 1.1875 4.34375q1.1875 1.390625 2.875 1.390625q1.71875 0 2.9375 -1.453125q1.234375 -1.453125 1.234375 -4.5q0 -2.90625 -1.203125 -4.34375q-1.1875 -1.453125 -2.84375 -1.453125q-1.65625 0 -2.921875 1.546875q-1.265625 1.53125 -1.265625 4.46875zm13.920288 7.515625l0 -21.0l2.578125 0l0 21.0l-2.578125 0zm5.609497 -7.609375q0 -4.21875 2.359375 -6.25q1.953125 -1.6875 4.78125 -1.6875q3.125 0 5.109375 2.0625q2.0 2.046875 2.0 5.671875q0 2.921875 -0.875 4.609375q-0.875 1.6875 -2.5625 2.625q-1.6875 0.921875 -3.671875 0.921875q-3.203125 0 -5.171875 -2.046875q-1.96875 -2.046875 -1.96875 -5.90625zm2.65625 0q0 2.921875 1.265625 4.375q1.28125 1.453125 3.21875 1.453125q1.921875 0 3.1875 -1.453125q1.28125 -1.46875 1.28125 -4.453125q0 -2.828125 -1.28125 -4.28125q-1.28125 -1.453125 -3.1875 -1.453125q-1.9375 0 -3.21875 1.453125q-1.265625 1.4375 -1.265625 4.359375zm24.545288 5.734375q-1.4375 1.21875 -2.765625 1.71875q-1.3125 0.5 -2.828125 0.5q-2.515625 0 -3.859375 -1.21875q-1.34375 -1.234375 -1.34375 -3.140625q0 -1.109375 0.5 -2.03125q0.515625 -0.921875 1.328125 -1.484375q0.828125 -0.5625 1.859375 -0.84375q0.765625 -0.203125 2.296875 -0.390625q3.125 -0.375 4.59375 -0.890625q0.015625 -0.53125 0.015625 -0.671875q0 -1.578125 -0.734375 -2.21875q-0.984375 -0.875 -2.9375 -0.875q-1.8125 0 -2.6875 0.640625q-0.859375 0.640625 -1.265625 2.25l-2.53125 -0.34375q0.34375 -1.609375 1.125 -2.609375q0.796875 -1.0 2.28125 -1.53125q1.5 -0.53125 3.453125 -0.53125q1.953125 0 3.171875 0.453125q1.21875 0.453125 1.78125 1.15625q0.578125 0.6875 0.8125 1.75q0.125 0.65625 0.125 2.375l0 3.4375q0 3.59375 0.15625 4.546875q0.171875 0.953125 0.65625 1.828125l-2.6875 0q-0.40625 -0.796875 -0.515625 -1.875zm-0.21875 -5.75q-1.40625 0.5625 -4.203125 0.96875q-1.59375 0.21875 -2.25 0.515625q-0.65625 0.28125 -1.015625 0.84375q-0.359375 0.546875 -0.359375 1.21875q0 1.03125 0.78125 1.71875q0.78125 0.6875 2.28125 0.6875q1.484375 0 2.640625 -0.65625q1.171875 -0.65625 1.71875 -1.78125q0.40625 -0.875 0.40625 -2.578125l0 -0.9375zm16.467163 7.625l0 -1.921875q-1.4375 2.265625 -4.25 2.265625q-1.8125 0 -3.34375 -1.0q-1.53125 -1.0 -2.375 -2.796875q-0.828125 -1.796875 -0.828125 -4.140625q0 -2.265625 0.75 -4.125q0.765625 -1.859375 2.28125 -2.84375q1.53125 -0.984375 3.40625 -0.984375q1.375 0 2.4375 0.578125q1.078125 0.578125 1.75 1.5l0 -7.53125l2.5625 0l0 21.0l-2.390625 0zm-8.140625 -7.59375q0 2.921875 1.21875 4.375q1.234375 1.4375 2.921875 1.4375q1.6875 0 2.859375 -1.375q1.1875 -1.390625 1.1875 -4.21875q0 -3.125 -1.203125 -4.578125q-1.203125 -1.46875 -2.96875 -1.46875q-1.71875 0 -2.875 1.40625q-1.140625 1.40625 -1.140625 4.421875z" fill-rule="nonzero"/><path fill="#eeeeee" d="m9.852987 518.15497l233.38583 0l0 166.42517l-233.38583 0z" fill-rule="evenodd"/><path stroke="#595959" stroke-width="8.0" stroke-linejoin="round" stroke-linecap="butt" d="m9.852987 518.15497l233.38583 0l0 166.42517l-233.38583 0z" fill-rule="evenodd"/><path fill="#000000" d="m40.11861 612.0276l0 -21.0l7.921875 0q2.078125 0 3.1875 0.203125q1.546875 0.265625 2.59375 0.984375q1.046875 0.71875 1.671875 2.03125q0.640625 1.296875 0.640625 2.859375q0 2.671875 -1.703125 4.53125q-1.703125 1.859375 -6.15625 1.859375l-5.375 0l0 8.53125l-2.78125 0zm2.78125 -11.015625l5.421875 0q2.6875 0 3.8125 -1.0q1.140625 -1.0 1.140625 -2.8125q0 -1.328125 -0.671875 -2.265625q-0.65625 -0.9375 -1.75 -1.234375q-0.703125 -0.1875 -2.59375 -0.1875l-5.359375 0l0 7.5zm26.374134 9.140625q-1.4375 1.21875 -2.765625 1.71875q-1.3125 0.5 -2.8281288 0.5q-2.515625 0 -3.859375 -1.21875q-1.34375 -1.234375 -1.34375 -3.140625q0 -1.109375 0.5 -2.03125q0.515625 -0.921875 1.328125 -1.484375q0.828125 -0.5625 1.859375 -0.84375q0.765625 -0.203125 2.2968788 -0.390625q3.125 -0.375 4.59375 -0.890625q0.015625 -0.53125 0.015625 -0.671875q0 -1.578125 -0.734375 -2.21875q-0.984375 -0.875 -2.9375 -0.875q-1.8125038 0 -2.6875038 0.640625q-0.859375 0.640625 -1.265625 2.25l-2.53125 -0.34375q0.34375 -1.609375 1.125 -2.609375q0.796875 -1.0 2.28125 -1.53125q1.5 -0.53125 3.4531288 -0.53125q1.953125 0 3.171875 0.453125q1.21875 0.453125 1.78125 1.15625q0.578125 0.6875 0.8125 1.75q0.125 0.65625 0.125 2.375l0 3.4375q0 3.59375 0.15625 4.546875q0.171875 0.953125 0.65625 1.828125l-2.6875 0q-0.40625 -0.796875 -0.515625 -1.875zm-0.21875 -5.75q-1.40625 0.5625 -4.203125 0.96875q-1.5937538 0.21875 -2.2500038 0.515625q-0.65625 0.28125 -1.015625 0.84375q-0.359375 0.546875 -0.359375 1.21875q0 1.03125 0.78125 1.71875q0.78125 0.6875 2.2812538 0.6875q1.484375 0 2.640625 -0.65625q1.171875 -0.65625 1.71875 -1.78125q0.40625 -0.875 0.40625 -2.578125l0 -0.9375zm6.482788 13.484375l-0.28125 -2.421875q0.84375 0.234375 1.46875 0.234375q0.859375 0 1.375 -0.296875q0.515625 -0.28125 0.859375 -0.796875q0.234375 -0.390625 0.78125 -1.921875q0.078125 -0.21875 0.234375 -0.625l-5.78125 -15.234375l2.78125 0l3.171875 8.796875q0.609375 1.6875 1.09375 3.53125q0.453125 -1.78125 1.0625 -3.46875l3.25 -8.859375l2.578125 0l-5.78125 15.453125q-0.9375 2.515625 -1.453125 3.453125q-0.6875 1.28125 -1.578125 1.875q-0.875 0.59375 -2.109375 0.59375q-0.75 0 -1.671875 -0.3125zm14.7890625 -5.859375l0 -15.203125l2.296875 0l0 2.125q0.71875 -1.109375 1.90625 -1.78125q1.1875 -0.6875 2.703125 -0.6875q1.703125 0 2.78125 0.703125q1.078125 0.6875 1.515625 1.953125q1.8125 -2.65625 4.703125 -2.65625q2.265625 0 3.484375 1.25q1.21875 1.25 1.21875 3.859375l0 10.4375l-2.5625 0l0 -9.578125q0 -1.546875 -0.265625 -2.21875q-0.25 -0.6875 -0.90625 -1.09375q-0.65625 -0.421875 -1.546875 -0.421875q-1.59375 0 -2.65625 1.0625q-1.0625 1.0625 -1.0625 3.421875l0 8.828125l-2.578125 0l0 -9.875q0 -1.71875 -0.640625 -2.578125q-0.625 -0.859375 -2.046875 -0.859375q-1.09375 0 -2.015625 0.578125q-0.921875 0.5625 -1.34375 1.671875q-0.40625 1.09375 -0.40625 3.171875l0 7.890625l-2.578125 0zm34.836807 -4.890625l2.65625 0.328125q-0.625 2.328125 -2.328125 3.625q-1.703125 1.28125 -4.359375 1.28125q-3.328125 0 -5.28125 -2.046875q-1.953125 -2.0625 -1.953125 -5.765625q0 -3.84375 1.96875 -5.953125q1.984375 -2.125 5.125 -2.125q3.0625 0 4.984375 2.078125q1.9375 2.0625 1.9375 5.84375q0 0.21875 -0.015625 0.671875l-11.34375 0q0.140625 2.515625 1.421875 3.84375q1.28125 1.328125 3.171875 1.328125q1.421875 0 2.421875 -0.734375q1.0 -0.75 1.59375 -2.375zm-8.46875 -4.171875l8.5 0q-0.171875 -1.921875 -0.96875 -2.875q-1.234375 -1.5 -3.203125 -1.5q-1.765625 0 -2.984375 1.1875q-1.203125 1.1875 -1.34375 3.1875zm14.373405 9.0625l0 -15.203125l2.3125 0l0 2.15625q1.671875 -2.5 4.84375 -2.5q1.375 0 2.53125 0.5q1.15625 0.484375 1.71875 1.296875q0.578125 0.796875 0.8125 1.890625q0.140625 0.71875 0.140625 2.515625l0 9.34375l-2.578125 0l0 -9.25q0 -1.578125 -0.3125 -2.359375q-0.296875 -0.78125 -1.0625 -1.234375q-0.765625 -0.46875 -1.796875 -0.46875q-1.640625 0 -2.84375 1.046875q-1.1875 1.03125 -1.1875 3.953125l0 8.3125l-2.578125 0zm21.935913 -2.3125l0.375 2.28125q-1.09375 0.234375 -1.953125 0.234375q-1.40625 0 -2.1875 -0.4375q-0.765625 -0.453125 -1.078125 -1.171875q-0.3125 -0.734375 -0.3125 -3.046875l0 -8.75l-1.890625 0l0 -2.0l1.890625 0l0 -3.765625l2.5625 -1.546875l0 5.3125l2.59375 0l0 2.0l-2.59375 0l0 8.890625q0 1.109375 0.125 1.421875q0.140625 0.3125 0.453125 0.5q0.3125 0.1875 0.890625 0.1875q0.421875 0 1.125 -0.109375z" fill-rule="nonzero"/><path fill="#eeeeee" d="m9.848405 284.84778l1424.3464 0l0 166.4252l-1424.3464 0z" fill-rule="evenodd"/><path stroke="#595959" stroke-width="8.0" stroke-linejoin="round" stroke-linecap="butt" d="m9.848405 284.84778l1424.3464 0l0 166.4252l-1424.3464 0z" fill-rule="evenodd"/><path fill="#000000" d="m53.879654 357.72037l2.78125 0l0 12.140625q0 3.15625 -0.71875 5.03125q-0.703125 1.859375 -2.578125 3.03125q-1.875 1.15625 -4.90625 1.15625q-2.953125 0 -4.828125 -1.015625q-1.875 -1.015625 -2.671875 -2.9375q-0.796875 -1.9375 -0.796875 -5.265625l0 -12.140625l2.765625 0l0 12.125q0 2.734375 0.5 4.03125q0.515625 1.296875 1.75 2.0q1.25 0.703125 3.046875 0.703125q3.0625 0 4.359375 -1.390625q1.296875 -1.390625 1.296875 -5.34375l0 -12.125zm6.05484 16.453125l2.546875 -0.390625q0.21875 1.53125 1.1875 2.34375q0.984375 0.8125 2.75 0.8125q1.78125 0 2.640625 -0.71875q0.859375 -0.71875 0.859375 -1.703125q0 -0.859375 -0.765625 -1.375q-0.53125 -0.34375 -2.640625 -0.859375q-2.828125 -0.71875 -3.921875 -1.234375q-1.09375 -0.53125 -1.671875 -1.453125q-0.5625 -0.921875 -0.5625 -2.046875q0 -1.015625 0.46875 -1.875q0.46875 -0.875 1.265625 -1.453125q0.609375 -0.4375 1.640625 -0.734375q1.046875 -0.3125 2.234375 -0.3125q1.78125 0 3.125 0.515625q1.359375 0.515625 2.0 1.390625q0.65625 0.875 0.890625 2.359375l-2.515625 0.34375q-0.171875 -1.171875 -1.0 -1.828125q-0.8125 -0.671875 -2.3125 -0.671875q-1.78125 0 -2.546875 0.59375q-0.75 0.578125 -0.75 1.375q0 0.5 0.3125 0.90625q0.3125 0.40625 0.984375 0.6875q0.390625 0.140625 2.28125 0.65625q2.734375 0.734375 3.8125 1.203125q1.078125 0.453125 1.6875 1.34375q0.625 0.890625 0.625 2.203125q0 1.296875 -0.75 2.4375q-0.75 1.125 -2.171875 1.75q-1.421875 0.625 -3.203125 0.625q-2.96875 0 -4.53125 -1.234375q-1.546875 -1.234375 -1.96875 -3.65625zm26.101562 -0.34375l2.65625 0.328125q-0.625 2.328125 -2.328125 3.625q-1.703125 1.28125 -4.359375 1.28125q-3.328125 0 -5.28125 -2.046875q-1.953125 -2.0625 -1.953125 -5.765625q0 -3.84375 1.96875 -5.953125q1.984375 -2.125 5.125 -2.125q3.0625 0 4.984375 2.078125q1.9375 2.0625 1.9375 5.84375q0 0.21875 -0.015625 0.671875l-11.34375 0q0.140625 2.515625 1.421875 3.84375q1.28125 1.328125 3.171875 1.328125q1.421875 0 2.421875 -0.734375q1.0 -0.75 1.59375 -2.375zm-8.46875 -4.171875l8.5 0q-0.171875 -1.921875 -0.96875 -2.875q-1.234375 -1.5 -3.203125 -1.5q-1.765625 0 -2.984375 1.1875q-1.203125 1.1875 -1.34375 3.1875zm14.342163 9.0625l0 -15.203125l2.3125 0l0 2.296875q0.890625 -1.609375 1.640625 -2.125q0.75 -0.515625 1.65625 -0.515625q1.3125 0 2.65625 0.828125l-0.890625 2.390625q-0.953125 -0.5625 -1.890625 -0.5625q-0.84375 0 -1.515625 0.515625q-0.671875 0.5 -0.96875 1.40625q-0.421875 1.375 -0.421875 3.0l0 7.96875l-2.578125 0zm18.74292 0l0 -21.0l2.78125 0l0 21.0l-2.78125 0zm7.351425 0l0 -15.203125l2.3125 0l0 2.15625q1.671875 -2.5 4.84375 -2.5q1.375 0 2.53125 0.5q1.15625 0.484375 1.71875 1.296875q0.578125 0.796875 0.8125 1.890625q0.140625 0.71875 0.140625 2.515625l0 9.34375l-2.578125 0l0 -9.25q0 -1.578125 -0.3125 -2.359375q-0.296875 -0.78125 -1.0625 -1.234375q-0.765625 -0.46875 -1.796875 -0.46875q-1.640625 0 -2.84375 1.046875q-1.1875 1.03125 -1.1875 3.953125l0 8.3125l-2.578125 0zm21.935913 -2.3125l0.375 2.28125q-1.09375 0.234375 -1.953125 0.234375q-1.40625 0 -2.1875 -0.4375q-0.765625 -0.453125 -1.078125 -1.171875q-0.3125 -0.734375 -0.3125 -3.046875l0 -8.75l-1.890625 0l0 -2.0l1.890625 0l0 -3.765625l2.5625 -1.546875l0 5.3125l2.59375 0l0 2.0l-2.59375 0l0 8.890625q0 1.109375 0.125 1.421875q0.140625 0.3125 0.453125 0.5q0.3125 0.1875 0.890625 0.1875q0.421875 0 1.125 -0.109375zm12.92955 -2.578125l2.65625 0.328125q-0.625 2.328125 -2.328125 3.625q-1.703125 1.28125 -4.359375 1.28125q-3.328125 0 -5.28125 -2.046875q-1.953125 -2.0625 -1.953125 -5.765625q0 -3.84375 1.96875 -5.953125q1.984375 -2.125 5.125 -2.125q3.0625 0 4.984375 2.078125q1.9375 2.0625 1.9375 5.84375q0 0.21875 -0.015625 0.671875l-11.34375 0q0.140625 2.515625 1.421875 3.84375q1.28125 1.328125 3.171875 1.328125q1.421875 0 2.421875 -0.734375q1.0 -0.75 1.59375 -2.375zm-8.46875 -4.171875l8.5 0q-0.171875 -1.921875 -0.96875 -2.875q-1.234375 -1.5 -3.203125 -1.5q-1.765625 0 -2.984375 1.1875q-1.203125 1.1875 -1.34375 3.1875zm14.342163 9.0625l0 -15.203125l2.3125 0l0 2.296875q0.890625 -1.609375 1.640625 -2.125q0.75 -0.515625 1.65625 -0.515625q1.3125 0 2.65625 0.828125l-0.890625 2.390625q-0.953125 -0.5625 -1.890625 -0.5625q-0.84375 0 -1.515625 0.515625q-0.671875 0.5 -0.96875 1.40625q-0.421875 1.375 -0.421875 3.0l0 7.96875l-2.578125 0zm10.40712 0l0 -13.203125l-2.28125 0l0 -2.0l2.28125 0l0 -1.625q0 -1.53125 0.28125 -2.28125q0.359375 -1.0 1.296875 -1.625q0.9375 -0.625 2.640625 -0.625q1.078125 0 2.40625 0.265625l-0.390625 2.25q-0.8125 -0.140625 -1.515625 -0.140625q-1.171875 0 -1.671875 0.5q-0.484375 0.5 -0.484375 1.875l0 1.40625l2.96875 0l0 2.0l-2.96875 0l0 13.203125l-2.5625 0zm17.4608 -1.875q-1.4375 1.21875 -2.765625 1.71875q-1.3125 0.5 -2.828125 0.5q-2.515625 0 -3.859375 -1.21875q-1.34375 -1.234375 -1.34375 -3.140625q0 -1.109375 0.5 -2.03125q0.515625 -0.921875 1.328125 -1.484375q0.828125 -0.5625 1.859375 -0.84375q0.765625 -0.203125 2.296875 -0.390625q3.125 -0.375 4.59375 -0.890625q0.015625 -0.53125 0.015625 -0.671875q0 -1.578125 -0.734375 -2.21875q-0.984375 -0.875 -2.9375 -0.875q-1.8125 0 -2.6875 0.640625q-0.859375 0.640625 -1.265625 2.25l-2.53125 -0.34375q0.34375 -1.609375 1.125 -2.609375q0.796875 -1.0 2.28125 -1.53125q1.5 -0.53125 3.453125 -0.53125q1.953125 0 3.171875 0.453125q1.21875 0.453125 1.78125 1.15625q0.578125 0.6875 0.8125 1.75q0.125 0.65625 0.125 2.375l0 3.4375q0 3.59375 0.15625 4.546875q0.171875 0.953125 0.65625 1.828125l-2.6875 0q-0.40625 -0.796875 -0.515625 -1.875zm-0.21875 -5.75q-1.40625 0.5625 -4.203125 0.96875q-1.59375 0.21875 -2.25 0.515625q-0.65625 0.28125 -1.015625 0.84375q-0.359375 0.546875 -0.359375 1.21875q0 1.03125 0.78125 1.71875q0.78125 0.6875 2.28125 0.6875q1.484375 0 2.640625 -0.65625q1.171875 -0.65625 1.71875 -1.78125q0.40625 -0.875 0.40625 -2.578125l0 -0.9375zm16.529663 2.046875l2.53125 0.34375q-0.40625 2.609375 -2.125 4.09375q-1.71875 1.484375 -4.203125 1.484375q-3.125 0 -5.03125 -2.03125q-1.890625 -2.046875 -1.890625 -5.859375q0 -2.46875 0.8125 -4.3125q0.828125 -1.84375 2.484375 -2.765625q1.671875 -0.921875 3.640625 -0.921875q2.46875 0 4.046875 1.25q1.578125 1.25 2.03125 3.5625l-2.515625 0.375q-0.359375 -1.53125 -1.265625 -2.296875q-0.90625 -0.78125 -2.203125 -0.78125q-1.9375 0 -3.15625 1.40625q-1.21875 1.390625 -1.21875 4.40625q0 3.078125 1.171875 4.46875q1.171875 1.375 3.0625 1.375q1.515625 0 2.53125 -0.921875q1.015625 -0.9375 1.296875 -2.875zm15.1484375 0.6875l2.65625 0.328125q-0.625 2.328125 -2.328125 3.625q-1.703125 1.28125 -4.359375 1.28125q-3.328125 0 -5.28125 -2.046875q-1.953125 -2.0625 -1.953125 -5.765625q0 -3.84375 1.96875 -5.953125q1.984375 -2.125 5.125 -2.125q3.0625 0 4.984375 2.078125q1.9375 2.0625 1.9375 5.84375q0 0.21875 -0.015625 0.671875l-11.34375 0q0.140625 2.515625 1.421875 3.84375q1.28125 1.328125 3.171875 1.328125q1.421875 0 2.421875 -0.734375q1.0 -0.75 1.59375 -2.375zm-8.46875 -4.171875l8.5 0q-0.171875 -1.921875 -0.96875 -2.875q-1.234375 -1.5 -3.203125 -1.5q-1.765625 0 -2.984375 1.1875q-1.203125 1.1875 -1.34375 3.1875z" fill-rule="nonzero"/><path fill="#000000" fill-opacity="0.0" d="m1301.7015 716.4546l-28.440918 -30.078735" fill-rule="evenodd"/><path stroke="#999999" stroke-width="4.0" stroke-linejoin="round" stroke-linecap="butt" d="m1301.7017 716.4546l-11.951782 -12.640015" fill-rule="evenodd"/><path fill="#999999" stroke="#999999" stroke-width="4.0" stroke-linecap="butt" d="m1294.5505 699.27527l-17.272339 -8.650452l7.6708984 17.729004z" fill-rule="evenodd"/><path fill="#000000" fill-opacity="0.0" d="m1305.2277 679.5348l168.78735 0l0 60.125977l-168.78735 0z" fill-rule="evenodd"/><path fill="#666666" d="m1315.3214 701.4692l0 -1.640625l9.484375 -4.0l0 1.75l-7.515625 3.078125l7.515625 3.125l0 1.75l-9.484375 -4.0625zm11.8984375 10.234375l0 -14.34375l1.609375 0l0 1.34375q0.5625 -0.78125 1.265625 -1.171875q0.71875 -0.40625 1.734375 -0.40625q1.328125 0 2.34375 0.6875q1.015625 0.6875 1.53125 1.9375q0.53125 1.234375 0.53125 2.71875q0 1.59375 -0.578125 2.875q-0.5625 1.265625 -1.65625 1.953125q-1.09375 0.671875 -2.296875 0.671875q-0.875 0 -1.578125 -0.375q-0.6875 -0.375 -1.140625 -0.9375l0 5.046875l-1.765625 0zm1.59375 -9.09375q0 2.0 0.8125 2.953125q0.8125 0.953125 1.96875 0.953125q1.171875 0 2.0 -0.984375q0.84375 -0.984375 0.84375 -3.078125q0 -1.96875 -0.828125 -2.953125q-0.8125 -1.0 -1.9375 -1.0q-1.125 0 -2.0 1.0625q-0.859375 1.046875 -0.859375 3.046875zm9.513672 5.125l0 -10.375l1.578125 0l0 1.578125q0.609375 -1.109375 1.125 -1.453125q0.515625 -0.359375 1.125 -0.359375q0.890625 0 1.8125 0.5625l-0.609375 1.640625q-0.640625 -0.390625 -1.28125 -0.390625q-0.578125 0 -1.046875 0.359375q-0.453125 0.34375 -0.65625 0.953125q-0.28125 0.9375 -0.28125 2.046875l0 5.4375l-1.765625 0zm6.0351562 -5.1875q0 -2.875 1.59375 -4.265625q1.34375 -1.15625 3.265625 -1.15625q2.140625 0 3.484375 1.40625q1.359375 1.40625 1.359375 3.875q0 2.0 -0.59375 3.15625q-0.59375 1.140625 -1.75 1.78125q-1.140625 0.625 -2.5 0.625q-2.1875 0 -3.53125 -1.390625q-1.328125 -1.40625 -1.328125 -4.03125zm1.796875 0q0 2.0 0.859375 2.984375q0.875 0.984375 2.203125 0.984375q1.3125 0 2.171875 -0.984375q0.875 -1.0 0.875 -3.046875q0 -1.921875 -0.875 -2.90625q-0.875 -1.0 -2.171875 -1.0q-1.328125 0 -2.203125 1.0q-0.859375 0.984375 -0.859375 2.96875zm16.701172 5.1875l0 -1.3125q-0.984375 1.546875 -2.90625 1.546875q-1.234375 0 -2.28125 -0.6875q-1.03125 -0.6875 -1.609375 -1.90625q-0.5625 -1.21875 -0.5625 -2.8125q0 -1.5625 0.515625 -2.828125q0.515625 -1.265625 1.546875 -1.9375q1.046875 -0.671875 2.3125 -0.671875q0.9375 0 1.671875 0.40625q0.734375 0.390625 1.203125 1.015625l0 -5.125l1.734375 0l0 14.3125l-1.625 0zm-5.5625 -5.171875q0 1.984375 0.84375 2.96875q0.84375 0.984375 1.984375 0.984375q1.15625 0 1.953125 -0.9375q0.8125 -0.9375 0.8125 -2.875q0 -2.125 -0.828125 -3.125q-0.8125 -1.0 -2.015625 -1.0q-1.171875 0 -1.96875 0.96875q-0.78125 0.953125 -0.78125 3.015625zm16.748047 5.171875l0 -1.53125q-1.203125 1.765625 -3.28125 1.765625q-0.921875 0 -1.71875 -0.34375q-0.796875 -0.359375 -1.1875 -0.890625q-0.375 -0.53125 -0.53125 -1.3125q-0.109375 -0.515625 -0.109375 -1.640625l0 -6.421875l1.75 0l0 5.75q0 1.375 0.109375 1.859375q0.171875 0.6875 0.703125 1.09375q0.546875 0.390625 1.328125 0.390625q0.796875 0 1.484375 -0.40625q0.703125 -0.40625 0.984375 -1.09375q0.296875 -0.703125 0.296875 -2.03125l0 -5.5625l1.75 0l0 10.375l-1.578125 0zm11.107422 -3.796875l1.71875 0.21875q-0.28125 1.796875 -1.453125 2.8125q-1.15625 1.0 -2.859375 1.0q-2.125 0 -3.421875 -1.390625q-1.296875 -1.390625 -1.296875 -3.984375q0 -1.6875 0.546875 -2.9375q0.5625 -1.265625 1.703125 -1.890625q1.140625 -0.640625 2.484375 -0.640625q1.6875 0 2.75 0.859375q1.078125 0.859375 1.390625 2.421875l-1.71875 0.265625q-0.234375 -1.046875 -0.859375 -1.5625q-0.625 -0.53125 -1.5 -0.53125q-1.328125 0 -2.15625 0.953125q-0.828125 0.953125 -0.828125 3.0q0 2.09375 0.796875 3.046875q0.796875 0.9375 2.09375 0.9375q1.03125 0 1.71875 -0.625q0.703125 -0.640625 0.890625 -1.953125zm10.328125 0.453125l1.8125 0.234375q-0.421875 1.578125 -1.59375 2.46875q-1.15625 0.875 -2.96875 0.875q-2.265625 0 -3.609375 -1.390625q-1.328125 -1.40625 -1.328125 -3.9375q0 -2.625 1.34375 -4.0625q1.34375 -1.453125 3.5 -1.453125q2.078125 0 3.390625 1.421875q1.328125 1.40625 1.328125 3.984375q0 0.15625 -0.015625 0.46875l-7.734375 0q0.09375 1.703125 0.96875 2.609375q0.875 0.90625 2.171875 0.90625q0.96875 0 1.640625 -0.5q0.6875 -0.515625 1.09375 -1.625zm-5.78125 -2.84375l5.796875 0q-0.109375 -1.296875 -0.65625 -1.953125q-0.84375 -1.015625 -2.1875 -1.015625q-1.203125 0 -2.03125 0.8125q-0.828125 0.796875 -0.921875 2.15625zm9.091797 3.09375l1.75 -0.28125q0.140625 1.046875 0.8125 1.609375q0.671875 0.546875 1.875 0.546875q1.203125 0 1.78125 -0.484375q0.59375 -0.5 0.59375 -1.15625q0 -0.59375 -0.515625 -0.9375q-0.359375 -0.234375 -1.796875 -0.59375q-1.9375 -0.5 -2.6875 -0.84375q-0.734375 -0.359375 -1.125 -0.984375q-0.390625 -0.640625 -0.390625 -1.40625q0 -0.6875 0.3125 -1.28125q0.328125 -0.59375 0.875 -0.984375q0.40625 -0.296875 1.109375 -0.5q0.71875 -0.21875 1.53125 -0.21875q1.21875 0 2.140625 0.359375q0.921875 0.34375 1.359375 0.953125q0.4375 0.59375 0.609375 1.59375l-1.71875 0.234375q-0.125 -0.796875 -0.6875 -1.234375q-0.5625 -0.453125 -1.578125 -0.453125q-1.21875 0 -1.734375 0.40625q-0.515625 0.390625 -0.515625 0.921875q0 0.34375 0.21875 0.625q0.203125 0.28125 0.671875 0.46875q0.265625 0.09375 1.546875 0.4375q1.875 0.5 2.609375 0.828125q0.734375 0.3125 1.15625 0.921875q0.421875 0.59375 0.421875 1.5q0 0.875 -0.515625 1.65625q-0.515625 0.78125 -1.484375 1.203125q-0.96875 0.421875 -2.1875 0.421875q-2.015625 0 -3.078125 -0.84375q-1.0625 -0.84375 -1.359375 -2.484375zm19.96875 -3.171875l-9.484375 4.0625l0 -1.75l7.515625 -3.125l-7.515625 -3.078125l0 -1.75l9.484375 4.0l0 1.640625z" fill-rule="nonzero"/><path fill="#000000" fill-opacity="0.0" d="m1181.3811 771.4213l33.41736 0" fill-rule="evenodd"/><path stroke="#999999" stroke-width="4.0" stroke-linejoin="round" stroke-linecap="butt" d="m1181.3811 771.4213l9.417236 0" fill-rule="evenodd"/><path fill="#999999" stroke="#999999" stroke-width="4.0" stroke-linecap="butt" d="m1190.7983 778.02826l18.152466 -6.6069336l-18.152466 -6.6069336z" fill-rule="evenodd"/><path fill="#000000" fill-opacity="0.0" d="m1220.0992 784.6746l0 168.78741l-60.125977 0l0 -168.78741z" fill-rule="evenodd"/><path fill="#666666" d="m1198.1648 794.7684l1.640625 0l4.0 9.484375l-1.75 0l-3.078125 -7.515625l-3.125 7.515625l-1.75 0l4.0625 -9.484375zm-4.6875 15.7421875l-1.5625 0.25q-0.15625 -0.734375 -0.15625 -1.328125q0 -0.953125 0.296875 -1.484375q0.3125 -0.515625 0.796875 -0.734375q0.5 -0.21875 2.078125 -0.21875l5.96875 0l0 -1.28125l1.375 0l0 1.28125l2.5625 0l1.0625 1.75l-3.625 0l0 1.765625l-1.375 0l0 -1.765625l-6.0625 0q-0.75 0 -0.96875 0.09375q-0.203125 0.09375 -0.34375 0.296875q-0.125 0.21875 -0.125 0.609375q0 0.28125 0.078125 0.765625zm-1.578125 1.6972656l10.375 0l0 1.578125l-1.578125 0q1.109375 0.609375 1.453125 1.125q0.359375 0.515625 0.359375 1.125q0 0.890625 -0.5625 1.8125l-1.640625 -0.609375q0.390625 -0.640625 0.390625 -1.28125q0 -0.578125 -0.359375 -1.046875q-0.34375 -0.453125 -0.953125 -0.65625q-0.9375 -0.28125 -2.046875 -0.28125l-5.4375 0l0 -1.765625zm12.296875 6.6914062l2.015625 0l0 1.765625l-2.015625 0l0 -1.765625zm-12.296875 0l10.375 0l0 1.765625l-10.375 0l0 -1.765625zm-0.859375 4.1152344l-0.25 1.703125q-0.796875 0.109375 -1.15625 0.59375q-0.484375 0.65625 -0.484375 1.796875q0 1.21875 0.484375 1.875q0.484375 0.671875 1.359375 0.90625q0.546875 0.140625 2.265625 0.125q-1.359375 -1.15625 -1.359375 -2.875q0 -2.140625 1.546875 -3.3125q1.546875 -1.171875 3.703125 -1.171875q1.484375 0 2.734375 0.53125q1.25 0.546875 1.9375 1.5625q0.6875 1.03125 0.6875 2.40625q0 1.828125 -1.484375 3.03125l1.25 0l0 1.609375l-8.96875 0q-2.421875 0 -3.421875 -0.5q-1.015625 -0.484375 -1.59375 -1.5625q-0.59375 -1.0625 -0.59375 -2.625q0 -1.84375 0.828125 -3.0q0.828125 -1.140625 2.515625 -1.09375zm6.234375 1.453125q-2.046875 0 -2.984375 0.8125q-0.9375 0.8125 -0.9375 2.03125q0 1.203125 0.9375 2.015625q0.9375 0.828125 2.921875 0.828125q1.90625 0 2.875 -0.84375q0.96875 -0.84375 0.96875 -2.03125q0 -1.171875 -0.953125 -2.0q-0.953125 -0.8125 -2.828125 -0.8125zm-6.234375 9.669922l-0.25 1.703125q-0.796875 0.109375 -1.15625 0.59375q-0.484375 0.65625 -0.484375 1.796875q0 1.21875 0.484375 1.875q0.484375 0.671875 1.359375 0.90625q0.546875 0.140625 2.265625 0.125q-1.359375 -1.15625 -1.359375 -2.875q0 -2.140625 1.546875 -3.3125q1.546875 -1.171875 3.703125 -1.171875q1.484375 0 2.734375 0.53125q1.25 0.546875 1.9375 1.5625q0.6875 1.03125 0.6875 2.40625q0 1.828125 -1.484375 3.03125l1.25 0l0 1.609375l-8.96875 0q-2.421875 0 -3.421875 -0.5q-1.015625 -0.484375 -1.59375 -1.5625q-0.59375 -1.0625 -0.59375 -2.625q0 -1.84375 0.828125 -3.0q0.828125 -1.140625 2.515625 -1.09375zm6.234375 1.453125q-2.046875 0 -2.984375 0.8125q-0.9375 0.8125 -0.9375 2.03125q0 1.203125 0.9375 2.015625q0.9375 0.828125 2.921875 0.828125q1.90625 0 2.875 -0.84375q0.96875 -0.84375 0.96875 -2.03125q0 -1.171875 -0.953125 -2.0q-0.953125 -0.8125 -2.828125 -0.8125zm-2.03125 17.091797l-0.234375 1.8125q-1.578125 -0.421875 -2.46875 -1.59375q-0.875 -1.15625 -0.875 -2.96875q0 -2.265625 1.390625 -3.609375q1.40625 -1.328125 3.9375 -1.328125q2.625 0 4.0625 1.34375q1.453125 1.34375 1.453125 3.5q0 2.078125 -1.421875 3.390625q-1.40625 1.328125 -3.984375 1.328125q-0.15625 0 -0.46875 -0.015625l0 -7.734375q-1.703125 0.09375 -2.609375 0.96875q-0.90625 0.875 -0.90625 2.171875q0 0.96875 0.5 1.640625q0.515625 0.6875 1.625 1.09375zm2.84375 -5.78125l0 5.796875q1.296875 -0.109375 1.953125 -0.65625q1.015625 -0.84375 1.015625 -2.1875q0 -1.203125 -0.8125 -2.03125q-0.796875 -0.828125 -2.15625 -0.921875zm-6.1875 9.779297l10.375 0l0 1.578125l-1.578125 0q1.109375 0.609375 1.453125 1.125q0.359375 0.515625 0.359375 1.125q0 0.890625 -0.5625 1.8125l-1.640625 -0.609375q0.390625 -0.640625 0.390625 -1.28125q0 -0.578125 -0.359375 -1.046875q-0.34375 -0.453125 -0.953125 -0.65625q-0.9375 -0.28125 -2.046875 -0.28125l-5.4375 0l0 -1.765625zm3.09375 5.9726562l0.28125 1.75q-1.046875 0.140625 -1.609375 0.8125q-0.546875 0.671875 -0.546875 1.875q0 1.203125 0.484375 1.78125q0.5 0.59375 1.15625 0.59375q0.59375 0 0.9375 -0.515625q0.234375 -0.359375 0.59375 -1.796875q0.5 -1.9375 0.84375 -2.6875q0.359375 -0.734375 0.984375 -1.125q0.640625 -0.390625 1.40625 -0.390625q0.6875 0 1.28125 0.3125q0.59375 0.328125 0.984375 0.875q0.296875 0.40625 0.5 1.109375q0.21875 0.71875 0.21875 1.53125q0 1.21875 -0.359375 2.140625q-0.34375 0.921875 -0.953125 1.359375q-0.59375 0.4375 -1.59375 0.609375l-0.234375 -1.71875q0.796875 -0.125 1.234375 -0.6875q0.453125 -0.5625 0.453125 -1.578125q0 -1.21875 -0.40625 -1.734375q-0.390625 -0.515625 -0.921875 -0.515625q-0.34375 0 -0.625 0.21875q-0.28125 0.203125 -0.46875 0.671875q-0.09375 0.265625 -0.4375 1.546875q-0.5 1.875 -0.828125 2.609375q-0.3125 0.734375 -0.921875 1.15625q-0.59375 0.421875 -1.5 0.421875q-0.875 0 -1.65625 -0.515625q-0.78125 -0.515625 -1.203125 -1.484375q-0.421875 -0.96875 -0.421875 -2.1875q0 -2.015625 0.84375 -3.078125q0.84375 -1.0625 2.484375 -1.359375zm3.171875 19.96875l-4.0625 -9.484375l1.75 0l3.125 7.515625l3.078125 -7.515625l1.75 0l-4.0 9.484375l-1.640625 0z" fill-rule="nonzero"/><path fill="#f9cb9c" d="m1045.3997 714.73267l135.9685 0l0 166.42517l-135.9685 0z" fill-rule="evenodd"/><path stroke="#595959" stroke-width="8.0" stroke-linejoin="round" stroke-linecap="butt" d="m1045.3997 714.73267l135.9685 0l0 166.42517l-135.9685 0z" fill-rule="evenodd"/><path fill="#000000" d="m1075.5715 791.1052l0 -21.0l4.1875 0l4.96875 14.875q0.6875 2.078125 1.0 3.109375q0.359375 -1.15625 1.125 -3.375l5.015625 -14.609375l3.734375 0l0 21.0l-2.671875 0l0 -17.578125l-6.09375 17.578125l-2.515625 0l-6.0625 -17.875l0 17.875l-2.6875 0zm23.227417 -7.609375q0 -4.21875 2.359375 -6.25q1.953125 -1.6875 4.78125 -1.6875q3.125 0 5.109375 2.0625q2.0 2.046875 2.0 5.671875q0 2.921875 -0.875 4.609375q-0.875 1.6875 -2.5625 2.625q-1.6875 0.921875 -3.671875 0.921875q-3.203125 0 -5.171875 -2.046875q-1.96875 -2.046875 -1.96875 -5.90625zm2.65625 0q0 2.921875 1.265625 4.375q1.28125 1.453125 3.21875 1.453125q1.921875 0 3.1875 -1.453125q1.28125 -1.46875 1.28125 -4.453125q0 -2.828125 -1.28125 -4.28125q-1.28125 -1.453125 -3.1875 -1.453125q-1.9375 0 -3.21875 1.453125q-1.265625 1.4375 -1.265625 4.359375zm14.623413 7.609375l0 -15.203125l2.3125 0l0 2.15625q1.671875 -2.5 4.84375 -2.5q1.375 0 2.53125 0.5q1.15625 0.484375 1.71875 1.296875q0.578125 0.796875 0.8125 1.890625q0.140625 0.71875 0.140625 2.515625l0 9.34375l-2.578125 0l0 -9.25q0 -1.578125 -0.3125 -2.359375q-0.296875 -0.78125 -1.0625 -1.234375q-0.765625 -0.46875 -1.796875 -0.46875q-1.640625 0 -2.84375 1.046875q-1.1875 1.03125 -1.1875 3.953125l0 8.3125l-2.578125 0zm16.326538 -18.03125l0 -2.96875l2.578125 0l0 2.96875l-2.578125 0zm0 18.03125l0 -15.203125l2.578125 0l0 15.203125l-2.578125 0zm5.500122 -6.296875l0 -2.59375l7.90625 0l0 2.59375l-7.90625 0z" fill-rule="nonzero"/><path fill="#000000" d="m1080.9622 823.7928l0.375 2.28125q-1.09375 0.234375 -1.953125 0.234375q-1.40625 0 -2.1875 -0.4375q-0.765625 -0.453125 -1.078125 -1.171875q-0.3125 -0.734375 -0.3125 -3.046875l0 -8.75l-1.890625 0l0 -2.0l1.890625 0l0 -3.765625l2.5625 -1.546875l0 5.3125l2.59375 0l0 2.0l-2.59375 0l0 8.890625q0 1.109375 0.125 1.421875q0.140625 0.3125 0.453125 0.5q0.3125 0.1875 0.890625 0.1875q0.421875 0 1.125 -0.109375zm1.5544434 -5.296875q0 -4.21875 2.359375 -6.25q1.953125 -1.6875 4.78125 -1.6875q3.125 0 5.109375 2.0625q2.0 2.046875 2.0 5.671875q0 2.921875 -0.875 4.609375q-0.875 1.6875 -2.5625 2.625q-1.6875 0.921875 -3.671875 0.921875q-3.203125 0 -5.171875 -2.046875q-1.96875 -2.046875 -1.96875 -5.90625zm2.65625 0q0 2.921875 1.265625 4.375q1.28125 1.453125 3.21875 1.453125q1.921875 0 3.1875 -1.453125q1.28125 -1.46875 1.28125 -4.453125q0 -2.828125 -1.28125 -4.28125q-1.28125 -1.453125 -3.1875 -1.453125q-1.9375 0 -3.21875 1.453125q-1.265625 1.4375 -1.265625 4.359375zm14.592163 7.609375l0 -15.203125l2.3125 0l0 2.296875q0.890625 -1.609375 1.640625 -2.125q0.75 -0.515625 1.65625 -0.515625q1.3125 0 2.65625 0.828125l-0.890625 2.390625q-0.953125 -0.5625 -1.890625 -0.5625q-0.84375 0 -1.515625 0.515625q-0.671875 0.5 -0.96875 1.40625q-0.421875 1.375 -0.421875 3.0l0 7.96875l-2.578125 0zm9.813477 -18.03125l0 -2.96875l2.578125 0l0 2.96875l-2.578125 0zm0 18.03125l0 -15.203125l2.578125 0l0 15.203125l-2.578125 0zm6.500122 0l0 -15.203125l2.3125 0l0 2.15625q1.671875 -2.5 4.84375 -2.5q1.375 0 2.53125 0.5q1.15625 0.484375 1.71875 1.296875q0.578125 0.796875 0.8125 1.890625q0.140625 0.71875 0.140625 2.515625l0 9.34375l-2.578125 0l0 -9.25q0 -1.578125 -0.3125 -2.359375q-0.296875 -0.78125 -1.0625 -1.234375q-0.765625 -0.46875 -1.796875 -0.46875q-1.640625 0 -2.84375 1.046875q-1.1875 1.03125 -1.1875 3.953125l0 8.3125l-2.578125 0zm15.826538 1.265625l2.515625 0.359375q0.15625 1.171875 0.875 1.703125q0.953125 0.703125 2.609375 0.703125q1.796875 0 2.765625 -0.71875q0.984375 -0.703125 1.328125 -2.0q0.203125 -0.78125 0.1875 -3.296875q-1.703125 1.984375 -4.21875 1.984375q-3.140625 0 -4.859375 -2.265625q-1.71875 -2.265625 -1.71875 -5.421875q0 -2.171875 0.78125 -4.015625q0.796875 -1.84375 2.296875 -2.84375q1.5 -1.0 3.515625 -1.0q2.6875 0 4.4375 2.171875l0 -1.828125l2.375 0l0 13.140625q0 3.546875 -0.71875 5.03125q-0.71875 1.484375 -2.296875 2.34375q-1.5625 0.859375 -3.859375 0.859375q-2.71875 0 -4.390625 -1.234375q-1.671875 -1.21875 -1.625 -3.671875zm2.140625 -9.140625q0 2.984375 1.1875 4.359375q1.1875 1.375 2.984375 1.375q1.765625 0 2.96875 -1.359375q1.203125 -1.375 1.203125 -4.296875q0 -2.78125 -1.234375 -4.203125q-1.234375 -1.421875 -2.984375 -1.421875q-1.71875 0 -2.921875 1.40625q-1.203125 1.390625 -1.203125 4.140625z" fill-rule="nonzero"/><path fill="#f9cb9c" d="m1214.8042 714.73267l219.37012 0l0 166.42517l-219.37012 0z" fill-rule="evenodd"/><path stroke="#595959" stroke-width="8.0" stroke-linejoin="round" stroke-linecap="butt" d="m1214.8042 714.73267l219.37012 0l0 166.42517l-219.37012 0z" fill-rule="evenodd"/><path fill="#000000" d="m1244.9761 808.6053l0 -21.0l4.1875 0l4.96875 14.875q0.6875 2.078125 1.0 3.109375q0.359375 -1.15625 1.125 -3.375l5.015625 -14.609375l3.734375 0l0 21.0l-2.671875 0l0 -17.578125l-6.09375 17.578125l-2.515625 0l-6.0625 -17.875l0 17.875l-2.6875 0zm24.399292 0l0 -21.0l2.78125 0l0 18.515625l10.34375 0l0 2.484375l-13.125 0zm23.495728 0l0 -21.0l7.921875 0q2.078125 0 3.1875 0.203125q1.546875 0.265625 2.59375 0.984375q1.046875 0.71875 1.671875 2.03125q0.640625 1.296875 0.640625 2.859375q0 2.671875 -1.703125 4.53125q-1.703125 1.859375 -6.15625 1.859375l-5.375 0l0 8.53125l-2.78125 0zm2.78125 -11.015625l5.421875 0q2.6875 0 3.8125 -1.0q1.140625 -1.0 1.140625 -2.8125q0 -1.328125 -0.671875 -2.265625q-0.65625 -0.9375 -1.75 -1.234375q-0.703125 -0.1875 -2.59375 -0.1875l-5.359375 0l0 7.5zm16.467896 -7.015625l0 -2.96875l2.578125 0l0 2.96875l-2.578125 0zm0 18.03125l0 -15.203125l2.578125 0l0 15.203125l-2.578125 0zm6.500122 5.828125l0 -21.03125l2.34375 0l0 1.96875q0.828125 -1.15625 1.875 -1.734375q1.046875 -0.578125 2.53125 -0.578125q1.953125 0 3.4375 1.0q1.5 1.0 2.25 2.828125q0.765625 1.828125 0.765625 4.0q0 2.328125 -0.84375 4.203125q-0.828125 1.875 -2.4375 2.875q-1.59375 0.984375 -3.359375 0.984375q-1.28125 0 -2.3125 -0.546875q-1.015625 -0.546875 -1.671875 -1.375l0 7.40625l-2.578125 0zm2.328125 -13.34375q0 2.9375 1.1875 4.34375q1.1875 1.390625 2.875 1.390625q1.71875 0 2.9375 -1.453125q1.234375 -1.453125 1.234375 -4.5q0 -2.90625 -1.203125 -4.34375q-1.1875 -1.453125 -2.84375 -1.453125q-1.65625 0 -2.921875 1.546875q-1.265625 1.53125 -1.265625 4.46875zm24.389038 2.625l2.65625 0.328125q-0.625 2.328125 -2.328125 3.625q-1.703125 1.28125 -4.359375 1.28125q-3.328125 0 -5.28125 -2.046875q-1.953125 -2.0625 -1.953125 -5.765625q0 -3.84375 1.96875 -5.953125q1.984375 -2.125 5.125 -2.125q3.0625 0 4.984375 2.078125q1.9375 2.0625 1.9375 5.84375q0 0.21875 -0.015625 0.671875l-11.34375 0q0.140625 2.515625 1.421875 3.84375q1.28125 1.328125 3.171875 1.328125q1.421875 0 2.421875 -0.734375q1.0 -0.75 1.59375 -2.375zm-8.46875 -4.171875l8.5 0q-0.171875 -1.921875 -0.96875 -2.875q-1.234375 -1.5 -3.203125 -1.5q-1.765625 0 -2.984375 1.1875q-1.203125 1.1875 -1.34375 3.1875zm14.310913 9.0625l0 -21.0l2.578125 0l0 21.0l-2.578125 0zm6.593872 -18.03125l0 -2.96875l2.578125 0l0 2.96875l-2.578125 0zm0 18.03125l0 -15.203125l2.578125 0l0 15.203125l-2.578125 0zm6.500244 0l0 -15.203125l2.3125 0l0 2.15625q1.671875 -2.5 4.84375 -2.5q1.375 0 2.53125 0.5q1.15625 0.484375 1.71875 1.296875q0.578125 0.796875 0.8125 1.890625q0.140625 0.71875 0.140625 2.515625l0 9.34375l-2.578125 0l0 -9.25q0 -1.578125 -0.3125 -2.359375q-0.296875 -0.78125 -1.0625 -1.234375q-0.765625 -0.46875 -1.796875 -0.46875q-1.640625 0 -2.84375 1.046875q-1.1875 1.03125 -1.1875 3.953125l0 8.3125l-2.578125 0zm26.717163 -4.890625l2.65625 0.328125q-0.625 2.328125 -2.328125 3.625q-1.703125 1.28125 -4.359375 1.28125q-3.328125 0 -5.28125 -2.046875q-1.953125 -2.0625 -1.953125 -5.765625q0 -3.84375 1.96875 -5.953125q1.984375 -2.125 5.125 -2.125q3.0625 0 4.984375 2.078125q1.9375 2.0625 1.9375 5.84375q0 0.21875 -0.015625 0.671875l-11.34375 0q0.140625 2.515625 1.421875 3.84375q1.28125 1.328125 3.171875 1.328125q1.421875 0 2.421875 -0.734375q1.0 -0.75 1.59375 -2.375zm-8.46875 -4.171875l8.5 0q-0.171875 -1.921875 -0.96875 -2.875q-1.234375 -1.5 -3.203125 -1.5q-1.765625 0 -2.984375 1.1875q-1.203125 1.1875 -1.34375 3.1875z" fill-rule="nonzero"/></g></svg>