<svg version="1.1" viewBox="0.0 0.0 559.2440944881889 258.1128608923884" fill="none" stroke="none" stroke-linecap="square" stroke-miterlimit="10" xmlns:xlink="http://www.w3.org/1999/xlink" xmlns="http://www.w3.org/2000/svg"><clipPath id="p.0"><path d="m0 0l559.2441 0l0 258.11285l-559.2441 0l0 -258.11285z" clip-rule="nonzero"/></clipPath><g clip-path="url(#p.0)"><path fill="#000000" fill-opacity="0.0" d="m0 0l559.2441 0l0 258.11285l-559.2441 0z" fill-rule="evenodd"/><path fill="#ea9999" d="m151.67717 95.53018l0 0c0 -12.202446 9.892029 -22.09449 22.094482 -22.09449l0 0c5.8598175 0 11.479645 2.3278122 15.623169 6.4713287c4.143509 4.143524 6.4713135 9.763344 6.4713135 15.623161l0 0c0 12.202454 -9.892029 22.09449 -22.094482 22.09449l0 0c-12.202454 0 -22.094482 -9.892036 -22.094482 -22.09449z" fill-rule="evenodd"/><path stroke="#000000" stroke-width="1.0" stroke-linejoin="round" stroke-linecap="butt" d="m151.67717 95.53018l0 0c0 -12.202446 9.892029 -22.09449 22.094482 -22.09449l0 0c5.8598175 0 11.479645 2.3278122 15.623169 6.4713287c4.143509 4.143524 6.4713135 9.763344 6.4713135 15.623161l0 0c0 12.202454 -9.892029 22.09449 -22.094482 22.09449l0 0c-12.202454 0 -22.094482 -9.892036 -22.094482 -22.09449z" fill-rule="evenodd"/><path fill="#000000" d="m171.25906 98.434555l0 -1.640625l5.03125 0l0 1.640625l-5.03125 0z" fill-rule="nonzero"/><path fill="#b6d7a8" d="m23.081366 45.83727l0 0c0 -12.202446 9.892038 -22.094486 22.094488 -22.094486l0 0c5.8598213 0 11.479641 2.3278046 15.623161 6.471325c4.1435204 4.1435204 6.471325 9.76334 6.471325 15.623161l0 0c0 12.20245 -9.892036 22.094486 -22.094486 22.094486l0 0c-12.20245 0 -22.094488 -9.892036 -22.094488 -22.094486z" fill-rule="evenodd"/><path stroke="#000000" stroke-width="1.0" stroke-linejoin="round" stroke-linecap="butt" d="m23.081366 45.83727l0 0c0 -12.202446 9.892038 -22.094486 22.094488 -22.094486l0 0c5.8598213 0 11.479641 2.3278046 15.623161 6.471325c4.1435204 4.1435204 6.471325 9.76334 6.471325 15.623161l0 0c0 12.20245 -9.892036 22.094486 -22.094486 22.094486l0 0c-12.20245 0 -22.094488 -9.892036 -22.094488 -22.094486z" fill-rule="evenodd"/><path fill="#000000" d="m43.224567 50.601017l0 -3.671875l-3.640625 0l0 -1.515625l3.640625 0l0 -3.640625l1.546875 0l0 3.640625l3.640625 0l0 1.515625l-3.640625 0l0 3.671875l-1.546875 0z" fill-rule="nonzero"/><path fill="#b6d7a8" d="m117.561676 39.4147l0 0c0 -12.20245 9.892044 -22.09449 22.094498 -22.09449l0 0c5.8598175 0 11.4796295 2.3278065 15.623154 6.471327c4.143524 4.1435204 6.4713287 9.763338 6.4713287 15.623163l0 0c0 12.202446 -9.892044 22.094486 -22.094482 22.094486l0 0c-12.202454 0 -22.094498 -9.89204 -22.094498 -22.094486z" fill-rule="evenodd"/><path stroke="#000000" stroke-width="1.0" stroke-linejoin="round" stroke-linecap="butt" d="m117.561676 39.4147l0 0c0 -12.20245 9.892044 -22.09449 22.094498 -22.09449l0 0c5.8598175 0 11.4796295 2.3278065 15.623154 6.471327c4.143524 4.1435204 6.4713287 9.763338 6.4713287 15.623163l0 0c0 12.202446 -9.892044 22.094486 -22.094482 22.094486l0 0c-12.202454 0 -22.094498 -9.89204 -22.094498 -22.094486z" fill-rule="evenodd"/><path fill="#000000" d="m137.70488 44.178444l0 -3.671875l-3.640625 0l0 -1.515625l3.640625 0l0 -3.640625l1.546875 0l0 3.640625l3.640625 0l0 1.515625l-3.640625 0l0 3.671875l-1.546875 0z" fill-rule="nonzero"/><path fill="#b6d7a8" d="m62.99475 110.15223l0 0c0 -12.202446 9.892036 -22.09449 22.09449 -22.09449l0 0c5.8598175 0 11.479637 2.3278122 15.623161 6.4713287c4.1435165 4.143524 6.471321 9.763344 6.471321 15.623161l0 0c0 12.202454 -9.892036 22.09449 -22.094482 22.09449l0 0c-12.202454 0 -22.09449 -9.892036 -22.09449 -22.09449z" fill-rule="evenodd"/><path stroke="#000000" stroke-width="1.0" stroke-linejoin="round" stroke-linecap="butt" d="m62.99475 110.15223l0 0c0 -12.202446 9.892036 -22.09449 22.09449 -22.09449l0 0c5.8598175 0 11.479637 2.3278122 15.623161 6.4713287c4.1435165 4.143524 6.471321 9.763344 6.471321 15.623161l0 0c0 12.202454 -9.892036 22.09449 -22.094482 22.09449l0 0c-12.202454 0 -22.09449 -9.892036 -22.09449 -22.09449z" fill-rule="evenodd"/><path fill="#000000" d="m83.137955 114.91598l0 -3.671875l-3.640625 0l0 -1.515625l3.640625 0l0 -3.640625l1.546875 0l0 3.640625l3.640625 0l0 1.515625l-3.640625 0l0 3.671875l-1.546875 0z" fill-rule="nonzero"/><path fill="#b6d7a8" d="m107.44109 164.5748l0 0c0 -12.202438 9.892036 -22.094482 22.09449 -22.094482l0 0c5.8598175 0 11.479645 2.3278046 15.623154 6.4713287c4.143524 4.143509 6.4713287 9.763336 6.4713287 15.623154l0 0c0 12.202454 -9.892029 22.094498 -22.094482 22.094498l0 0c-12.202454 0 -22.09449 -9.892044 -22.09449 -22.094498z" fill-rule="evenodd"/><path stroke="#000000" stroke-width="1.0" stroke-linejoin="round" stroke-linecap="butt" d="m107.44109 164.5748l0 0c0 -12.202438 9.892036 -22.094482 22.09449 -22.094482l0 0c5.8598175 0 11.479645 2.3278046 15.623154 6.4713287c4.143524 4.143509 6.4713287 9.763336 6.4713287 15.623154l0 0c0 12.202454 -9.892029 22.094498 -22.094482 22.094498l0 0c-12.202454 0 -22.09449 -9.892044 -22.09449 -22.094498z" fill-rule="evenodd"/><path fill="#000000" d="m127.5843 169.33855l0 -3.671875l-3.640625 0l0 -1.515625l3.640625 0l0 -3.640625l1.5468674 0l0 3.640625l3.640625 0l0 1.515625l-3.640625 0l0 3.671875l-1.5468674 0z" fill-rule="nonzero"/><path fill="#b6d7a8" d="m18.805775 164.5748l0 0c0 -12.202438 9.892038 -22.094482 22.094486 -22.094482l0 0c5.859825 0 11.479645 2.3278046 15.623165 6.4713287c4.1435204 4.143509 6.471325 9.763336 6.471325 15.623154l0 0c0 12.202454 -9.89204 22.094498 -22.09449 22.094498l0 0c-12.202448 0 -22.094486 -9.892044 -22.094486 -22.094498z" fill-rule="evenodd"/><path stroke="#000000" stroke-width="1.0" stroke-linejoin="round" stroke-linecap="butt" d="m18.805775 164.5748l0 0c0 -12.202438 9.892038 -22.094482 22.094486 -22.094482l0 0c5.859825 0 11.479645 2.3278046 15.623165 6.4713287c4.1435204 4.143509 6.471325 9.763336 6.471325 15.623154l0 0c0 12.202454 -9.89204 22.094498 -22.09449 22.094498l0 0c-12.202448 0 -22.094486 -9.892044 -22.094486 -22.094498z" fill-rule="evenodd"/><path fill="#000000" d="m38.948975 169.33855l0 -3.671875l-3.640625 0l0 -1.515625l3.640625 0l0 -3.640625l1.546875 0l0 3.640625l3.640625 0l0 1.515625l-3.640625 0l0 3.671875l-1.546875 0z" fill-rule="nonzero"/><path fill="#b6d7a8" d="m73.3727 221.95276l0 0c0 -12.202454 9.892036 -22.094498 22.09449 -22.094498l0 0c5.8598175 0 11.479637 2.3278046 15.623161 6.4713287c4.1435165 4.143524 6.471321 9.763336 6.471321 15.623169l0 0c0 12.202454 -9.892036 22.094482 -22.094482 22.094482l0 0c-12.202454 0 -22.09449 -9.892029 -22.09449 -22.094482z" fill-rule="evenodd"/><path stroke="#000000" stroke-width="1.0" stroke-linejoin="round" stroke-linecap="butt" d="m73.3727 221.95276l0 0c0 -12.202454 9.892036 -22.094498 22.09449 -22.094498l0 0c5.8598175 0 11.479637 2.3278046 15.623161 6.4713287c4.1435165 4.143524 6.471321 9.763336 6.471321 15.623169l0 0c0 12.202454 -9.892036 22.094482 -22.094482 22.094482l0 0c-12.202454 0 -22.09449 -9.892029 -22.09449 -22.094482z" fill-rule="evenodd"/><path fill="#000000" d="m93.51591 226.7165l0 -3.671875l-3.640625 0l0 -1.515625l3.640625 0l0 -3.640625l1.546875 0l0 3.640625l3.640625 0l0 1.515625l-3.640625 0l0 3.671875l-1.546875 0z" fill-rule="nonzero"/><path fill="#ea9999" d="m174.80052 143.81627l0 0c0 -12.202438 9.892044 -22.094482 22.094498 -22.094482l0 0c5.8598175 0 11.4796295 2.3278046 15.623154 6.4713287c4.143524 4.143509 6.4713287 9.763336 6.4713287 15.623154l0 0c0 12.202454 -9.892044 22.094498 -22.094482 22.094498l0 0c-12.202454 0 -22.094498 -9.892044 -22.094498 -22.094498z" fill-rule="evenodd"/><path stroke="#000000" stroke-width="1.0" stroke-linejoin="round" stroke-linecap="butt" d="m174.80052 143.81627l0 0c0 -12.202438 9.892044 -22.094482 22.094498 -22.094482l0 0c5.8598175 0 11.4796295 2.3278046 15.623154 6.4713287c4.143524 4.143509 6.4713287 9.763336 6.4713287 15.623154l0 0c0 12.202454 -9.892044 22.094498 -22.094482 22.094498l0 0c-12.202454 0 -22.094498 -9.892044 -22.094498 -22.094498z" fill-rule="evenodd"/><path fill="#000000" d="m194.38243 146.72064l0 -1.640625l5.03125 0l0 1.640625l-5.03125 0z" fill-rule="nonzero"/><path fill="#ea9999" d="m130.61154 221.95276l0 0c0 -12.202454 9.892044 -22.094498 22.094498 -22.094498l0 0c5.8598175 0 11.479645 2.3278046 15.623154 6.4713287c4.143524 4.143524 6.4713287 9.763336 6.4713287 15.623169l0 0c0 12.202454 -9.892029 22.094482 -22.094482 22.094482l0 0c-12.202454 0 -22.094498 -9.892029 -22.094498 -22.094482z" fill-rule="evenodd"/><path stroke="#000000" stroke-width="1.0" stroke-linejoin="round" stroke-linecap="butt" d="m130.61154 221.95276l0 0c0 -12.202454 9.892044 -22.094498 22.094498 -22.094498l0 0c5.8598175 0 11.479645 2.3278046 15.623154 6.4713287c4.143524 4.143524 6.4713287 9.763336 6.4713287 15.623169l0 0c0 12.202454 -9.892029 22.094482 -22.094482 22.094482l0 0c-12.202454 0 -22.094498 -9.892029 -22.094498 -22.094482z" fill-rule="evenodd"/><path fill="#000000" d="m150.19345 224.85713l0 -1.640625l5.03125 0l0 1.640625l-5.03125 0z" fill-rule="nonzero"/><path fill="#ea9999" d="m201.52493 54.46982l0 0c0 -12.20245 9.892044 -22.09449 22.094482 -22.09449l0 0c5.859833 0 11.479645 2.3278046 15.623169 6.471325c4.143524 4.1435204 6.4713287 9.76334 6.4713287 15.623165l0 0c0 12.202446 -9.892044 22.09449 -22.094498 22.09449l0 0c-12.202438 0 -22.094482 -9.892044 -22.094482 -22.09449z" fill-rule="evenodd"/><path stroke="#000000" stroke-width="1.0" stroke-linejoin="round" stroke-linecap="butt" d="m201.52493 54.46982l0 0c0 -12.20245 9.892044 -22.09449 22.094482 -22.09449l0 0c5.859833 0 11.479645 2.3278046 15.623169 6.471325c4.143524 4.1435204 6.4713287 9.76334 6.4713287 15.623165l0 0c0 12.202446 -9.892044 22.09449 -22.094498 22.09449l0 0c-12.202438 0 -22.094482 -9.892044 -22.094482 -22.09449z" fill-rule="evenodd"/><path fill="#000000" d="m221.10683 57.374187l0 -1.640625l5.03125 0l0 1.640625l-5.03125 0z" fill-rule="nonzero"/><path fill="#000000" fill-opacity="0.0" d="m195.86613 7.2545934l-83.08661 250.61418" fill-rule="evenodd"/><path stroke="#000000" stroke-width="12.0" stroke-linejoin="round" stroke-linecap="butt" d="m195.86613 7.2545934l-83.08661 250.61418" fill-rule="evenodd"/><path fill="#ea9999" d="m251.3727 25.136482l0 0c0 -12.202448 9.892044 -22.094488 22.094498 -22.094488l0 0c5.859833 0 11.479645 2.3278053 15.623169 6.471326c4.143524 4.1435204 6.4713135 9.76334 6.4713135 15.623161l0 0c0 12.20245 -9.892029 22.09449 -22.094482 22.09449l0 0c-12.202454 0 -22.094498 -9.89204 -22.094498 -22.09449z" fill-rule="evenodd"/><path stroke="#000000" stroke-width="1.0" stroke-linejoin="round" stroke-linecap="butt" d="m251.3727 25.136482l0 0c0 -12.202448 9.892044 -22.094488 22.094498 -22.094488l0 0c5.859833 0 11.479645 2.3278053 15.623169 6.471326c4.143524 4.1435204 6.4713135 9.76334 6.4713135 15.623161l0 0c0 12.20245 -9.892029 22.09449 -22.094482 22.09449l0 0c-12.202454 0 -22.094498 -9.89204 -22.094498 -22.09449z" fill-rule="evenodd"/><path fill="#000000" d="m270.9546 28.040855l0 -1.640625l5.03125 0l0 1.640625l-5.03125 0z" fill-rule="nonzero"/><path fill="#ea9999" d="m249.52493 102.46982l0 0c0 -12.202454 9.892029 -22.09449 22.094482 -22.09449l0 0c5.859833 0 11.479645 2.3278046 15.623169 6.4713287c4.143524 4.1435165 6.4713135 9.763336 6.4713135 15.623161l0 0c0 12.202446 -9.892029 22.09449 -22.094482 22.09449l0 0c-12.202454 0 -22.094482 -9.892044 -22.094482 -22.09449z" fill-rule="evenodd"/><path stroke="#000000" stroke-width="1.0" stroke-linejoin="round" stroke-linecap="butt" d="m249.52493 102.46982l0 0c0 -12.202454 9.892029 -22.09449 22.094482 -22.09449l0 0c5.859833 0 11.479645 2.3278046 15.623169 6.4713287c4.143524 4.1435165 6.4713135 9.763336 6.4713135 15.623161l0 0c0 12.202446 -9.892029 22.09449 -22.094482 22.09449l0 0c-12.202454 0 -22.094482 -9.892044 -22.094482 -22.09449z" fill-rule="evenodd"/><path fill="#000000" d="m269.10684 105.37419l0 -1.640625l5.03125 0l0 1.640625l-5.03125 0z" fill-rule="nonzero"/><path fill="#ea9999" d="m233.86876 183.09973l0 0c0 -12.202438 9.892044 -22.094482 22.094498 -22.094482l0 0c5.859833 0 11.479645 2.3278046 15.623169 6.4713287c4.143524 4.143524 6.4713135 9.763336 6.4713135 15.623154l0 0c0 12.202454 -9.892029 22.094498 -22.094482 22.094498l0 0c-12.202454 0 -22.094498 -9.892044 -22.094498 -22.094498z" fill-rule="evenodd"/><path stroke="#000000" stroke-width="1.0" stroke-linejoin="round" stroke-linecap="butt" d="m233.86876 183.09973l0 0c0 -12.202438 9.892044 -22.094482 22.094498 -22.094482l0 0c5.859833 0 11.479645 2.3278046 15.623169 6.4713287c4.143524 4.143524 6.4713135 9.763336 6.4713135 15.623154l0 0c0 12.202454 -9.892029 22.094498 -22.094482 22.094498l0 0c-12.202454 0 -22.094498 -9.892044 -22.094498 -22.094498z" fill-rule="evenodd"/><path fill="#000000" d="m253.45067 186.0041l0 -1.640625l5.0312347 0l0 1.640625l-5.0312347 0z" fill-rule="nonzero"/><path fill="#ea9999" d="m295.56168 158.2126l0 0c0 -12.202454 9.892029 -22.094498 22.094482 -22.094498l0 0c5.859833 0 11.479645 2.3278198 15.623169 6.4713287c4.143524 4.143524 6.471344 9.763351 6.471344 15.623169l0 0c0 12.202454 -9.892059 22.094482 -22.094513 22.094482l0 0c-12.202454 0 -22.094482 -9.892029 -22.094482 -22.094482z" fill-rule="evenodd"/><path stroke="#000000" stroke-width="1.0" stroke-linejoin="round" stroke-linecap="butt" d="m295.56168 158.2126l0 0c0 -12.202454 9.892029 -22.094498 22.094482 -22.094498l0 0c5.859833 0 11.479645 2.3278198 15.623169 6.4713287c4.143524 4.143524 6.471344 9.763351 6.471344 15.623169l0 0c0 12.202454 -9.892059 22.094482 -22.094513 22.094482l0 0c-12.202454 0 -22.094482 -9.892029 -22.094482 -22.094482z" fill-rule="evenodd"/><path fill="#000000" d="m315.1436 161.11697l0 -1.640625l5.03125 0l0 1.640625l-5.03125 0z" fill-rule="nonzero"/><path fill="#ea9999" d="m332.4777 83.603676l0 0c0 -12.202454 9.892029 -22.09449 22.094482 -22.09449l0 0c5.859833 0 11.479645 2.3278046 15.623169 6.4713287c4.143524 4.1435165 6.4713135 9.763336 6.4713135 15.623161l0 0c0 12.202446 -9.892029 22.09449 -22.094482 22.09449l0 0c-12.202454 0 -22.094482 -9.892044 -22.094482 -22.09449z" fill-rule="evenodd"/><path stroke="#000000" stroke-width="1.0" stroke-linejoin="round" stroke-linecap="butt" d="m332.4777 83.603676l0 0c0 -12.202454 9.892029 -22.09449 22.094482 -22.09449l0 0c5.859833 0 11.479645 2.3278046 15.623169 6.4713287c4.143524 4.1435165 6.4713135 9.763336 6.4713135 15.623161l0 0c0 12.202446 -9.892029 22.09449 -22.094482 22.09449l0 0c-12.202454 0 -22.094482 -9.892044 -22.094482 -22.09449z" fill-rule="evenodd"/><path fill="#000000" d="m352.0596 86.50805l0 -1.640625l5.03125 0l0 1.640625l-5.03125 0z" fill-rule="nonzero"/><path fill="#ea9999" d="m379.9685 29.349081l0 0c0 -12.202448 9.892029 -22.094488 22.094482 -22.094488l0 0c5.859833 0 11.479645 2.327805 15.623169 6.4713254c4.143524 4.1435213 6.4713135 9.763339 6.4713135 15.623162l0 0c0 12.202448 -9.892029 22.094488 -22.094482 22.094488l0 0c-12.202454 0 -22.094482 -9.89204 -22.094482 -22.094488z" fill-rule="evenodd"/><path stroke="#000000" stroke-width="1.0" stroke-linejoin="round" stroke-linecap="butt" d="m379.9685 29.349081l0 0c0 -12.202448 9.892029 -22.094488 22.094482 -22.094488l0 0c5.859833 0 11.479645 2.327805 15.623169 6.4713254c4.143524 4.1435213 6.4713135 9.763339 6.4713135 15.623162l0 0c0 12.202448 -9.892029 22.094488 -22.094482 22.094488l0 0c-12.202454 0 -22.094482 -9.89204 -22.094482 -22.094488z" fill-rule="evenodd"/><path fill="#000000" d="m399.5504 32.253452l0 -1.6406231l5.03125 0l0 1.6406231l-5.03125 0z" fill-rule="nonzero"/><path fill="#ea9999" d="m257.40814 227.28871l0 0c0 -12.202454 9.892029 -22.094482 22.094482 -22.094482l0 0c5.859833 0 11.479645 2.3278046 15.623169 6.4713287c4.143524 4.143509 6.4713135 9.763336 6.4713135 15.623154l0 0c0 12.202454 -9.892029 22.094498 -22.094482 22.094498l0 0c-12.202454 0 -22.094482 -9.892044 -22.094482 -22.094498z" fill-rule="evenodd"/><path stroke="#000000" stroke-width="1.0" stroke-linejoin="round" stroke-linecap="butt" d="m257.40814 227.28871l0 0c0 -12.202454 9.892029 -22.094482 22.094482 -22.094482l0 0c5.859833 0 11.479645 2.3278046 15.623169 6.4713287c4.143524 4.143509 6.4713135 9.763336 6.4713135 15.623154l0 0c0 12.202454 -9.892029 22.094498 -22.094482 22.094498l0 0c-12.202454 0 -22.094482 -9.892044 -22.094482 -22.094498z" fill-rule="evenodd"/><path fill="#000000" d="m276.99005 230.19308l0 -1.640625l5.0312195 0l0 1.640625l-5.0312195 0z" fill-rule="nonzero"/><path fill="#ea9999" d="m432.74277 60.92126l0 0c0 -12.20245 9.892059 -22.09449 22.094513 -22.09449l0 0c5.8598022 0 11.479645 2.3278046 15.623138 6.471325c4.143524 4.1435204 6.471344 9.76334 6.471344 15.623165l0 0c0 12.20245 -9.892029 22.094486 -22.094482 22.094486l0 0c-12.202454 0 -22.094513 -9.892036 -22.094513 -22.094486z" fill-rule="evenodd"/><path stroke="#000000" stroke-width="1.0" stroke-linejoin="round" stroke-linecap="butt" d="m432.74277 60.92126l0 0c0 -12.20245 9.892059 -22.09449 22.094513 -22.09449l0 0c5.8598022 0 11.479645 2.3278046 15.623138 6.471325c4.143524 4.1435204 6.471344 9.76334 6.471344 15.623165l0 0c0 12.20245 -9.892029 22.094486 -22.094482 22.094486l0 0c-12.202454 0 -22.094513 -9.892036 -22.094513 -22.094486z" fill-rule="evenodd"/><path fill="#000000" d="m452.32468 63.82563l0 -1.640625l5.03125 0l0 1.640625l-5.03125 0z" fill-rule="nonzero"/><path fill="#ea9999" d="m378.7953 138.2546l0 0c0 -12.202446 9.892029 -22.09449 22.094482 -22.09449l0 0c5.8598022 0 11.479645 2.3278046 15.623169 6.4713287c4.1434937 4.1435165 6.4713135 9.763344 6.4713135 15.623161l0 0c0 12.202454 -9.892029 22.094482 -22.094482 22.094482l0 0c-12.202454 0 -22.094482 -9.892029 -22.094482 -22.094482z" fill-rule="evenodd"/><path stroke="#000000" stroke-width="1.0" stroke-linejoin="round" stroke-linecap="butt" d="m378.7953 138.2546l0 0c0 -12.202446 9.892029 -22.09449 22.094482 -22.09449l0 0c5.8598022 0 11.479645 2.3278046 15.623169 6.4713287c4.1434937 4.1435165 6.4713135 9.763344 6.4713135 15.623161l0 0c0 12.202454 -9.892029 22.094482 -22.094482 22.094482l0 0c-12.202454 0 -22.094482 -9.892029 -22.094482 -22.094482z" fill-rule="evenodd"/><path fill="#000000" d="m398.37717 141.15897l0 -1.640625l5.03125 0l0 1.640625l-5.03125 0z" fill-rule="nonzero"/><path fill="#ea9999" d="m363.1391 218.88452l0 0c0 -12.202454 9.892059 -22.094498 22.094482 -22.094498l0 0c5.859833 0 11.479645 2.3278046 15.623169 6.4713287c4.143524 4.143524 6.471344 9.763336 6.471344 15.623169l0 0c0 12.202438 -9.892059 22.094482 -22.094513 22.094482l0 0c-12.202423 0 -22.094482 -9.892044 -22.094482 -22.094482z" fill-rule="evenodd"/><path stroke="#000000" stroke-width="1.0" stroke-linejoin="round" stroke-linecap="butt" d="m363.1391 218.88452l0 0c0 -12.202454 9.892059 -22.094498 22.094482 -22.094498l0 0c5.859833 0 11.479645 2.3278046 15.623169 6.4713287c4.143524 4.143524 6.471344 9.763336 6.471344 15.623169l0 0c0 12.202438 -9.892059 22.094482 -22.094513 22.094482l0 0c-12.202423 0 -22.094482 -9.892044 -22.094482 -22.094482z" fill-rule="evenodd"/><path fill="#000000" d="m382.721 221.78888l0 -1.640625l5.03125 0l0 1.640625l-5.03125 0z" fill-rule="nonzero"/><path fill="#ea9999" d="m424.83203 193.99738l0 0c0 -12.202454 9.892029 -22.094482 22.094482 -22.094482l0 0c5.859833 0 11.479645 2.3278046 15.623169 6.4713135c4.143524 4.143524 6.4713135 9.763351 6.4713135 15.623169l0 0c0 12.202454 -9.892029 22.094482 -22.094482 22.094482l0 0c-12.202454 0 -22.094482 -9.892029 -22.094482 -22.094482z" fill-rule="evenodd"/><path stroke="#000000" stroke-width="1.0" stroke-linejoin="round" stroke-linecap="butt" d="m424.83203 193.99738l0 0c0 -12.202454 9.892029 -22.094482 22.094482 -22.094482l0 0c5.859833 0 11.479645 2.3278046 15.623169 6.4713135c4.143524 4.143524 6.4713135 9.763351 6.4713135 15.623169l0 0c0 12.202454 -9.892029 22.094482 -22.094482 22.094482l0 0c-12.202454 0 -22.094482 -9.892029 -22.094482 -22.094482z" fill-rule="evenodd"/><path fill="#000000" d="m444.4139 196.90175l0 -1.640625l5.03125 0l0 1.640625l-5.03125 0z" fill-rule="nonzero"/><path fill="#ea9999" d="m461.74802 119.38845l0 0c0 -12.202446 9.892059 -22.09449 22.094513 -22.09449l0 0c5.8598022 0 11.479645 2.3278046 15.623138 6.4713287c4.143524 4.1435165 6.471344 9.763336 6.471344 15.623161l0 0c0 12.202446 -9.892029 22.09449 -22.094482 22.09449l0 0c-12.202454 0 -22.094513 -9.892044 -22.094513 -22.09449z" fill-rule="evenodd"/><path stroke="#000000" stroke-width="1.0" stroke-linejoin="round" stroke-linecap="butt" d="m461.74802 119.38845l0 0c0 -12.202446 9.892059 -22.09449 22.094513 -22.09449l0 0c5.8598022 0 11.479645 2.3278046 15.623138 6.4713287c4.143524 4.1435165 6.471344 9.763336 6.471344 15.623161l0 0c0 12.202446 -9.892029 22.09449 -22.094482 22.09449l0 0c-12.202454 0 -22.094513 -9.892044 -22.094513 -22.09449z" fill-rule="evenodd"/><path fill="#000000" d="m481.32993 122.29282l0 -1.640625l5.03125 0l0 1.640625l-5.03125 0z" fill-rule="nonzero"/><path fill="#ea9999" d="m509.23883 65.13386l0 0c0 -12.20245 9.892029 -22.094486 22.094482 -22.094486l0 0c5.8598633 0 11.479675 2.3278046 15.623169 6.471325c4.1435547 4.1435204 6.4713135 9.76334 6.4713135 15.623161l0 0c0 12.202446 -9.892029 22.09449 -22.094482 22.09449l0 0c-12.202454 0 -22.094482 -9.892044 -22.094482 -22.09449z" fill-rule="evenodd"/><path stroke="#000000" stroke-width="1.0" stroke-linejoin="round" stroke-linecap="butt" d="m509.23883 65.13386l0 0c0 -12.20245 9.892029 -22.094486 22.094482 -22.094486l0 0c5.8598633 0 11.479675 2.3278046 15.623169 6.471325c4.1435547 4.1435204 6.4713135 9.76334 6.4713135 15.623161l0 0c0 12.202446 -9.892029 22.09449 -22.094482 22.09449l0 0c-12.202454 0 -22.094482 -9.892044 -22.094482 -22.09449z" fill-rule="evenodd"/><path fill="#000000" d="m528.82074 68.03823l0 -1.640625l5.03125 0l0 1.640625l-5.03125 0z" fill-rule="nonzero"/><path fill="#b6d7a8" d="m112.3033 90.026245l0 0c0 -12.202446 9.892036 -22.09449 22.094482 -22.09449l0 0c5.859833 0 11.479645 2.3278122 15.623169 6.4713287c4.143524 4.143524 6.4713287 9.763344 6.4713287 15.623161l0 0c0 12.202454 -9.892044 22.09449 -22.094498 22.09449l0 0c-12.202446 0 -22.094482 -9.892036 -22.094482 -22.09449z" fill-rule="evenodd"/><path stroke="#000000" stroke-width="1.0" stroke-linejoin="round" stroke-linecap="butt" d="m112.3033 90.026245l0 0c0 -12.202446 9.892036 -22.09449 22.094482 -22.09449l0 0c5.859833 0 11.479645 2.3278122 15.623169 6.4713287c4.143524 4.143524 6.4713287 9.763344 6.4713287 15.623161l0 0c0 12.202454 -9.892044 22.09449 -22.094498 22.09449l0 0c-12.202446 0 -22.094482 -9.892036 -22.094482 -22.09449z" fill-rule="evenodd"/><path fill="#000000" d="m132.4465 94.78999l0 -3.671875l-3.640625 0l0 -1.515625l3.640625 0l0 -3.640625l1.546875 0l0 3.640625l3.640625 0l0 1.515625l-3.640625 0l0 3.671875l-1.546875 0z" fill-rule="nonzero"/></g></svg>