<?xml version="1.0" encoding="utf-8" standalone="no"?>
<!DOCTYPE svg PUBLIC "-//W3C//DTD SVG 1.1//EN"
  "http://www.w3.org/Graphics/SVG/1.1/DTD/svg11.dtd">
<!-- Created with matplotlib (http://matplotlib.org/) -->
<svg height="288pt" version="1.1" viewBox="0 0 288 288" width="288pt" xmlns="http://www.w3.org/2000/svg" xmlns:xlink="http://www.w3.org/1999/xlink">
 <defs>
  <style type="text/css">
*{stroke-linecap:butt;stroke-linejoin:round;}
  </style>
 </defs>
 <g id="figure_1">
  <g id="patch_1">
   <path d="M 0 288 
L 288 288 
L 288 0 
L 0 0 
z
" style="fill:#ffffff;"/>
  </g>
  <g id="axes_1">
   <g id="patch_2">
    <path d="M 54.92 238.84 
L 269.28 238.84 
L 269.28 30.48 
L 54.92 30.48 
z
" style="fill:#ffffff;"/>
   </g>
   <g id="PolyCollection_1">
    <defs>
     <path d="M 54.92 -49.16 
L 54.92 -49.16 
L 55.997186 -52.629298 
L 57.074372 -56.058293 
L 58.151558 -59.447153 
L 59.228744 -62.795962 
L 60.30593 -66.104453 
L 61.383116 -69.373509 
L 62.460302 -72.60335 
L 63.537487 -75.794212 
L 64.614673 -78.946344 
L 65.691859 -82.060012 
L 66.769045 -85.135499 
L 67.846231 -88.173105 
L 68.923417 -91.173153 
L 70.000603 -94.135776 
L 71.077789 -97.060764 
L 72.154975 -99.94908 
L 73.232161 -102.801126 
L 74.309347 -105.616935 
L 75.386533 -108.395978 
L 76.463719 -111.139883 
L 77.540905 -113.847999 
L 78.61809 -116.520734 
L 79.695276 -119.158881 
L 80.772462 -121.761732 
L 81.849648 -124.330561 
L 82.926834 -126.864985 
L 84.00402 -129.365259 
L 85.081206 -131.832658 
L 86.158392 -134.265516 
L 87.235578 -136.665573 
L 88.312764 -139.033195 
L 89.38995 -141.368071 
L 90.467136 -143.669862 
L 91.544322 -145.939785 
L 92.621508 -148.178003 
L 93.698693 -150.384696 
L 94.775879 -152.560054 
L 95.853065 -154.704285 
L 96.930251 -156.817612 
L 98.007437 -158.900273 
L 99.084623 -160.952527 
L 100.161809 -162.974653 
L 101.238995 -164.966951 
L 102.316181 -166.929743 
L 103.393367 -168.863381 
L 104.470553 -170.76824 
L 105.547739 -172.644161 
L 106.624925 -174.490522 
L 107.702111 -176.309064 
L 108.779296 -178.100283 
L 109.856482 -179.86305 
L 110.933668 -181.597745 
L 112.010854 -183.3064 
L 113.08804 -184.986763 
L 114.165226 -186.640695 
L 115.242412 -188.268627 
L 116.319598 -189.869049 
L 117.396784 -191.444861 
L 118.47397 -192.993182 
L 119.551156 -194.517268 
L 120.628342 -195.296054 
L 121.705528 -196.01067 
L 122.782714 -196.717263 
L 123.859899 -197.416048 
L 124.937085 -198.107231 
L 126.014271 -198.79101 
L 127.091457 -199.467574 
L 128.168643 -200.137107 
L 129.245829 -200.799783 
L 130.323015 -201.455769 
L 131.400201 -202.105228 
L 132.477387 -202.748315 
L 133.554573 -203.385179 
L 134.631759 -204.015966 
L 135.708945 -204.640814 
L 136.786131 -205.259856 
L 137.863317 -205.873223 
L 138.940503 -206.481039 
L 140.017688 -207.083425 
L 141.094874 -207.680496 
L 142.17206 -208.272365 
L 143.249246 -208.859142 
L 144.326432 -209.44093 
L 145.403618 -210.017832 
L 146.480804 -210.589947 
L 147.55799 -211.157369 
L 148.635176 -211.720191 
L 149.712362 -212.278503 
L 150.789548 -212.832391 
L 151.866734 -213.38194 
L 152.94392 -213.927231 
L 154.021106 -214.468344 
L 155.098291 -215.005354 
L 156.175477 -215.538338 
L 157.252663 -216.067368 
L 158.329849 -216.592513 
L 159.407035 -217.113843 
L 160.484221 -217.631425 
L 161.561407 -218.145322 
L 162.638593 -218.655599 
L 163.715779 -219.162316 
L 164.792965 -219.665533 
L 165.870151 -220.165309 
L 166.947337 -220.661699 
L 168.024523 -221.15476 
L 169.101709 -221.644544 
L 170.178894 -222.131105 
L 171.25608 -222.614492 
L 172.333266 -223.094757 
L 173.410452 -223.571947 
L 174.487638 -224.046111 
L 175.564824 -224.517293 
L 176.64201 -224.98554 
L 177.719196 -225.450894 
L 178.796382 -225.913401 
L 179.873568 -226.3731 
L 180.950754 -226.830034 
L 182.02794 -227.284242 
L 183.105126 -227.735763 
L 184.182312 -228.184636 
L 185.259497 -228.630898 
L 186.336683 -229.074587 
L 187.413869 -229.515736 
L 188.491055 -229.954382 
L 189.568241 -230.390559 
L 190.645427 -230.8243 
L 191.722613 -231.255638 
L 192.799799 -231.684605 
L 193.876985 -232.111232 
L 194.954171 -232.535551 
L 196.031357 -232.957591 
L 197.108543 -233.377382 
L 198.185729 -233.794952 
L 199.262915 -234.210331 
L 200.340101 -234.623545 
L 201.417286 -235.034622 
L 202.494472 -235.443589 
L 203.571658 -235.850471 
L 204.648844 -236.255295 
L 205.72603 -236.658085 
L 206.803216 -237.058866 
L 207.880402 -237.457663 
L 208.957588 -237.854498 
L 210.034774 -238.249396 
L 211.11196 -238.642378 
L 212.189146 -239.033468 
L 213.266332 -239.422687 
L 214.343518 -239.810057 
L 215.420704 -240.1956 
L 216.497889 -240.579335 
L 217.575075 -240.961284 
L 218.652261 -241.341466 
L 219.729447 -241.719901 
L 220.806633 -242.096609 
L 221.883819 -242.471609 
L 222.961005 -242.844919 
L 224.038191 -243.216557 
L 225.115377 -243.586542 
L 226.192563 -243.954891 
L 227.269749 -244.321623 
L 228.346935 -244.686753 
L 229.424121 -245.050299 
L 230.501307 -245.412278 
L 231.578492 -245.772706 
L 232.655678 -246.131598 
L 233.732864 -246.488971 
L 234.81005 -246.844841 
L 235.887236 -247.199221 
L 236.964422 -247.552129 
L 238.041608 -247.903577 
L 239.118794 -248.253581 
L 240.19598 -248.602156 
L 241.273166 -248.949315 
L 242.350352 -249.295071 
L 243.427538 -249.63944 
L 244.504724 -249.982434 
L 245.58191 -250.324066 
L 246.659095 -250.66435 
L 247.736281 -251.003299 
L 248.813467 -251.340924 
L 249.890653 -251.677239 
L 250.967839 -252.012256 
L 252.045025 -252.345987 
L 253.122211 -252.678444 
L 254.199397 -253.009638 
L 255.276583 -253.339581 
L 256.353769 -253.668285 
L 257.430955 -253.995761 
L 258.508141 -254.32202 
L 259.585327 -254.647073 
L 260.662513 -254.97093 
L 261.739698 -255.293603 
L 262.816884 -255.615101 
L 263.89407 -255.935436 
L 264.971256 -256.254616 
L 266.048442 -256.572653 
L 267.125628 -256.889556 
L 268.202814 -257.205335 
L 269.28 -257.52 
L 269.28 -49.16 
L 269.28 -49.16 
L 268.202814 -49.16 
L 267.125628 -49.16 
L 266.048442 -49.16 
L 264.971256 -49.16 
L 263.89407 -49.16 
L 262.816884 -49.16 
L 261.739698 -49.16 
L 260.662513 -49.16 
L 259.585327 -49.16 
L 258.508141 -49.16 
L 257.430955 -49.16 
L 256.353769 -49.16 
L 255.276583 -49.16 
L 254.199397 -49.16 
L 253.122211 -49.16 
L 252.045025 -49.16 
L 250.967839 -49.16 
L 249.890653 -49.16 
L 248.813467 -49.16 
L 247.736281 -49.16 
L 246.659095 -49.16 
L 245.58191 -49.16 
L 244.504724 -49.16 
L 243.427538 -49.16 
L 242.350352 -49.16 
L 241.273166 -49.16 
L 240.19598 -49.16 
L 239.118794 -49.16 
L 238.041608 -49.16 
L 236.964422 -49.16 
L 235.887236 -49.16 
L 234.81005 -49.16 
L 233.732864 -49.16 
L 232.655678 -49.16 
L 231.578492 -49.16 
L 230.501307 -49.16 
L 229.424121 -49.16 
L 228.346935 -49.16 
L 227.269749 -49.16 
L 226.192563 -49.16 
L 225.115377 -49.16 
L 224.038191 -49.16 
L 222.961005 -49.16 
L 221.883819 -49.16 
L 220.806633 -49.16 
L 219.729447 -49.16 
L 218.652261 -49.16 
L 217.575075 -49.16 
L 216.497889 -49.16 
L 215.420704 -49.16 
L 214.343518 -49.16 
L 213.266332 -49.16 
L 212.189146 -49.16 
L 211.11196 -49.16 
L 210.034774 -49.16 
L 208.957588 -49.16 
L 207.880402 -49.16 
L 206.803216 -49.16 
L 205.72603 -49.16 
L 204.648844 -49.16 
L 203.571658 -49.16 
L 202.494472 -49.16 
L 201.417286 -49.16 
L 200.340101 -49.16 
L 199.262915 -49.16 
L 198.185729 -49.16 
L 197.108543 -49.16 
L 196.031357 -49.16 
L 194.954171 -49.16 
L 193.876985 -49.16 
L 192.799799 -49.16 
L 191.722613 -49.16 
L 190.645427 -49.16 
L 189.568241 -49.16 
L 188.491055 -49.16 
L 187.413869 -49.16 
L 186.336683 -49.16 
L 185.259497 -49.16 
L 184.182312 -49.16 
L 183.105126 -49.16 
L 182.02794 -49.16 
L 180.950754 -49.16 
L 179.873568 -49.16 
L 178.796382 -49.16 
L 177.719196 -49.16 
L 176.64201 -49.16 
L 175.564824 -49.16 
L 174.487638 -49.16 
L 173.410452 -49.16 
L 172.333266 -49.16 
L 171.25608 -49.16 
L 170.178894 -49.16 
L 169.101709 -49.16 
L 168.024523 -49.16 
L 166.947337 -49.16 
L 165.870151 -49.16 
L 164.792965 -49.16 
L 163.715779 -49.16 
L 162.638593 -49.16 
L 161.561407 -49.16 
L 160.484221 -49.16 
L 159.407035 -49.16 
L 158.329849 -49.16 
L 157.252663 -49.16 
L 156.175477 -49.16 
L 155.098291 -49.16 
L 154.021106 -49.16 
L 152.94392 -49.16 
L 151.866734 -49.16 
L 150.789548 -49.16 
L 149.712362 -49.16 
L 148.635176 -49.16 
L 147.55799 -49.16 
L 146.480804 -49.16 
L 145.403618 -49.16 
L 144.326432 -49.16 
L 143.249246 -49.16 
L 142.17206 -49.16 
L 141.094874 -49.16 
L 140.017688 -49.16 
L 138.940503 -49.16 
L 137.863317 -49.16 
L 136.786131 -49.16 
L 135.708945 -49.16 
L 134.631759 -49.16 
L 133.554573 -49.16 
L 132.477387 -49.16 
L 131.400201 -49.16 
L 130.323015 -49.16 
L 129.245829 -49.16 
L 128.168643 -49.16 
L 127.091457 -49.16 
L 126.014271 -49.16 
L 124.937085 -49.16 
L 123.859899 -49.16 
L 122.782714 -49.16 
L 121.705528 -49.16 
L 120.628342 -49.16 
L 119.551156 -49.16 
L 118.47397 -49.16 
L 117.396784 -49.16 
L 116.319598 -49.16 
L 115.242412 -49.16 
L 114.165226 -49.16 
L 113.08804 -49.16 
L 112.010854 -49.16 
L 110.933668 -49.16 
L 109.856482 -49.16 
L 108.779296 -49.16 
L 107.702111 -49.16 
L 106.624925 -49.16 
L 105.547739 -49.16 
L 104.470553 -49.16 
L 103.393367 -49.16 
L 102.316181 -49.16 
L 101.238995 -49.16 
L 100.161809 -49.16 
L 99.084623 -49.16 
L 98.007437 -49.16 
L 96.930251 -49.16 
L 95.853065 -49.16 
L 94.775879 -49.16 
L 93.698693 -49.16 
L 92.621508 -49.16 
L 91.544322 -49.16 
L 90.467136 -49.16 
L 89.38995 -49.16 
L 88.312764 -49.16 
L 87.235578 -49.16 
L 86.158392 -49.16 
L 85.081206 -49.16 
L 84.00402 -49.16 
L 82.926834 -49.16 
L 81.849648 -49.16 
L 80.772462 -49.16 
L 79.695276 -49.16 
L 78.61809 -49.16 
L 77.540905 -49.16 
L 76.463719 -49.16 
L 75.386533 -49.16 
L 74.309347 -49.16 
L 73.232161 -49.16 
L 72.154975 -49.16 
L 71.077789 -49.16 
L 70.000603 -49.16 
L 68.923417 -49.16 
L 67.846231 -49.16 
L 66.769045 -49.16 
L 65.691859 -49.16 
L 64.614673 -49.16 
L 63.537487 -49.16 
L 62.460302 -49.16 
L 61.383116 -49.16 
L 60.30593 -49.16 
L 59.228744 -49.16 
L 58.151558 -49.16 
L 57.074372 -49.16 
L 55.997186 -49.16 
L 54.92 -49.16 
z
" id="m3775c5ab0a" style="stroke:#eecccc;"/>
    </defs>
    <g clip-path="url(#p42cfe37417)">
     <use style="fill:#eecccc;stroke:#eecccc;" x="0" xlink:href="#m3775c5ab0a" y="288"/>
    </g>
   </g>
   <g id="matplotlib.axis_1">
    <g id="xtick_1">
     <g id="line2d_1">
      <defs>
       <path d="M 0 0 
L 0 3.5 
" id="m2e56d5c216" style="stroke:#000000;stroke-width:0.8;"/>
      </defs>
      <g>
       <use style="stroke:#000000;stroke-width:0.8;" x="54.92" xlink:href="#m2e56d5c216" y="238.84"/>
      </g>
     </g>
     <g id="text_1">
      <!-- 0.0 -->
      <defs>
       <path d="M 31.78125 66.40625 
Q 24.171875 66.40625 20.328125 58.90625 
Q 16.5 51.421875 16.5 36.375 
Q 16.5 21.390625 20.328125 13.890625 
Q 24.171875 6.390625 31.78125 6.390625 
Q 39.453125 6.390625 43.28125 13.890625 
Q 47.125 21.390625 47.125 36.375 
Q 47.125 51.421875 43.28125 58.90625 
Q 39.453125 66.40625 31.78125 66.40625 
z
M 31.78125 74.21875 
Q 44.046875 74.21875 50.515625 64.515625 
Q 56.984375 54.828125 56.984375 36.375 
Q 56.984375 17.96875 50.515625 8.265625 
Q 44.046875 -1.421875 31.78125 -1.421875 
Q 19.53125 -1.421875 13.0625 8.265625 
Q 6.59375 17.96875 6.59375 36.375 
Q 6.59375 54.828125 13.0625 64.515625 
Q 19.53125 74.21875 31.78125 74.21875 
z
" id="DejaVuSans-30"/>
       <path d="M 10.6875 12.40625 
L 21 12.40625 
L 21 0 
L 10.6875 0 
z
" id="DejaVuSans-2e"/>
      </defs>
      <g transform="translate(46.968438 253.438437)scale(0.1 -0.1)">
       <use xlink:href="#DejaVuSans-30"/>
       <use x="63.623047" xlink:href="#DejaVuSans-2e"/>
       <use x="95.410156" xlink:href="#DejaVuSans-30"/>
      </g>
     </g>
    </g>
    <g id="xtick_2">
     <g id="line2d_2">
      <g>
       <use style="stroke:#000000;stroke-width:0.8;" x="162.1" xlink:href="#m2e56d5c216" y="238.84"/>
      </g>
     </g>
     <g id="text_2">
      <!-- 0.5 -->
      <defs>
       <path d="M 10.796875 72.90625 
L 49.515625 72.90625 
L 49.515625 64.59375 
L 19.828125 64.59375 
L 19.828125 46.734375 
Q 21.96875 47.46875 24.109375 47.828125 
Q 26.265625 48.1875 28.421875 48.1875 
Q 40.625 48.1875 47.75 41.5 
Q 54.890625 34.8125 54.890625 23.390625 
Q 54.890625 11.625 47.5625 5.09375 
Q 40.234375 -1.421875 26.90625 -1.421875 
Q 22.3125 -1.421875 17.546875 -0.640625 
Q 12.796875 0.140625 7.71875 1.703125 
L 7.71875 11.625 
Q 12.109375 9.234375 16.796875 8.0625 
Q 21.484375 6.890625 26.703125 6.890625 
Q 35.15625 6.890625 40.078125 11.328125 
Q 45.015625 15.765625 45.015625 23.390625 
Q 45.015625 31 40.078125 35.4375 
Q 35.15625 39.890625 26.703125 39.890625 
Q 22.75 39.890625 18.8125 39.015625 
Q 14.890625 38.140625 10.796875 36.28125 
z
" id="DejaVuSans-35"/>
      </defs>
      <g transform="translate(154.148438 253.438437)scale(0.1 -0.1)">
       <use xlink:href="#DejaVuSans-30"/>
       <use x="63.623047" xlink:href="#DejaVuSans-2e"/>
       <use x="95.410156" xlink:href="#DejaVuSans-35"/>
      </g>
     </g>
    </g>
    <g id="xtick_3">
     <g id="line2d_3">
      <g>
       <use style="stroke:#000000;stroke-width:0.8;" x="269.28" xlink:href="#m2e56d5c216" y="238.84"/>
      </g>
     </g>
     <g id="text_3">
      <!-- 1.0 -->
      <defs>
       <path d="M 12.40625 8.296875 
L 28.515625 8.296875 
L 28.515625 63.921875 
L 10.984375 60.40625 
L 10.984375 69.390625 
L 28.421875 72.90625 
L 38.28125 72.90625 
L 38.28125 8.296875 
L 54.390625 8.296875 
L 54.390625 0 
L 12.40625 0 
z
" id="DejaVuSans-31"/>
      </defs>
      <g transform="translate(261.328438 253.438437)scale(0.1 -0.1)">
       <use xlink:href="#DejaVuSans-31"/>
       <use x="63.623047" xlink:href="#DejaVuSans-2e"/>
       <use x="95.410156" xlink:href="#DejaVuSans-30"/>
      </g>
     </g>
    </g>
    <g id="text_4">
     <!-- False positive rate -->
     <defs>
      <path d="M 9.8125 72.90625 
L 51.703125 72.90625 
L 51.703125 64.59375 
L 19.671875 64.59375 
L 19.671875 43.109375 
L 48.578125 43.109375 
L 48.578125 34.8125 
L 19.671875 34.8125 
L 19.671875 0 
L 9.8125 0 
z
" id="DejaVuSans-46"/>
      <path d="M 34.28125 27.484375 
Q 23.390625 27.484375 19.1875 25 
Q 14.984375 22.515625 14.984375 16.5 
Q 14.984375 11.71875 18.140625 8.90625 
Q 21.296875 6.109375 26.703125 6.109375 
Q 34.1875 6.109375 38.703125 11.40625 
Q 43.21875 16.703125 43.21875 25.484375 
L 43.21875 27.484375 
z
M 52.203125 31.203125 
L 52.203125 0 
L 43.21875 0 
L 43.21875 8.296875 
Q 40.140625 3.328125 35.546875 0.953125 
Q 30.953125 -1.421875 24.3125 -1.421875 
Q 15.921875 -1.421875 10.953125 3.296875 
Q 6 8.015625 6 15.921875 
Q 6 25.140625 12.171875 29.828125 
Q 18.359375 34.515625 30.609375 34.515625 
L 43.21875 34.515625 
L 43.21875 35.40625 
Q 43.21875 41.609375 39.140625 45 
Q 35.0625 48.390625 27.6875 48.390625 
Q 23 48.390625 18.546875 47.265625 
Q 14.109375 46.140625 10.015625 43.890625 
L 10.015625 52.203125 
Q 14.9375 54.109375 19.578125 55.046875 
Q 24.21875 56 28.609375 56 
Q 40.484375 56 46.34375 49.84375 
Q 52.203125 43.703125 52.203125 31.203125 
z
" id="DejaVuSans-61"/>
      <path d="M 9.421875 75.984375 
L 18.40625 75.984375 
L 18.40625 0 
L 9.421875 0 
z
" id="DejaVuSans-6c"/>
      <path d="M 44.28125 53.078125 
L 44.28125 44.578125 
Q 40.484375 46.53125 36.375 47.5 
Q 32.28125 48.484375 27.875 48.484375 
Q 21.1875 48.484375 17.84375 46.4375 
Q 14.5 44.390625 14.5 40.28125 
Q 14.5 37.15625 16.890625 35.375 
Q 19.28125 33.59375 26.515625 31.984375 
L 29.59375 31.296875 
Q 39.15625 29.25 43.1875 25.515625 
Q 47.21875 21.78125 47.21875 15.09375 
Q 47.21875 7.46875 41.1875 3.015625 
Q 35.15625 -1.421875 24.609375 -1.421875 
Q 20.21875 -1.421875 15.453125 -0.5625 
Q 10.6875 0.296875 5.421875 2 
L 5.421875 11.28125 
Q 10.40625 8.6875 15.234375 7.390625 
Q 20.0625 6.109375 24.8125 6.109375 
Q 31.15625 6.109375 34.5625 8.28125 
Q 37.984375 10.453125 37.984375 14.40625 
Q 37.984375 18.0625 35.515625 20.015625 
Q 33.0625 21.96875 24.703125 23.78125 
L 21.578125 24.515625 
Q 13.234375 26.265625 9.515625 29.90625 
Q 5.8125 33.546875 5.8125 39.890625 
Q 5.8125 47.609375 11.28125 51.796875 
Q 16.75 56 26.8125 56 
Q 31.78125 56 36.171875 55.265625 
Q 40.578125 54.546875 44.28125 53.078125 
z
" id="DejaVuSans-73"/>
      <path d="M 56.203125 29.59375 
L 56.203125 25.203125 
L 14.890625 25.203125 
Q 15.484375 15.921875 20.484375 11.0625 
Q 25.484375 6.203125 34.421875 6.203125 
Q 39.59375 6.203125 44.453125 7.46875 
Q 49.3125 8.734375 54.109375 11.28125 
L 54.109375 2.78125 
Q 49.265625 0.734375 44.1875 -0.34375 
Q 39.109375 -1.421875 33.890625 -1.421875 
Q 20.796875 -1.421875 13.15625 6.1875 
Q 5.515625 13.8125 5.515625 26.8125 
Q 5.515625 40.234375 12.765625 48.109375 
Q 20.015625 56 32.328125 56 
Q 43.359375 56 49.78125 48.890625 
Q 56.203125 41.796875 56.203125 29.59375 
z
M 47.21875 32.234375 
Q 47.125 39.59375 43.09375 43.984375 
Q 39.0625 48.390625 32.421875 48.390625 
Q 24.90625 48.390625 20.390625 44.140625 
Q 15.875 39.890625 15.1875 32.171875 
z
" id="DejaVuSans-65"/>
      <path id="DejaVuSans-20"/>
      <path d="M 18.109375 8.203125 
L 18.109375 -20.796875 
L 9.078125 -20.796875 
L 9.078125 54.6875 
L 18.109375 54.6875 
L 18.109375 46.390625 
Q 20.953125 51.265625 25.265625 53.625 
Q 29.59375 56 35.59375 56 
Q 45.5625 56 51.78125 48.09375 
Q 58.015625 40.1875 58.015625 27.296875 
Q 58.015625 14.40625 51.78125 6.484375 
Q 45.5625 -1.421875 35.59375 -1.421875 
Q 29.59375 -1.421875 25.265625 0.953125 
Q 20.953125 3.328125 18.109375 8.203125 
z
M 48.6875 27.296875 
Q 48.6875 37.203125 44.609375 42.84375 
Q 40.53125 48.484375 33.40625 48.484375 
Q 26.265625 48.484375 22.1875 42.84375 
Q 18.109375 37.203125 18.109375 27.296875 
Q 18.109375 17.390625 22.1875 11.75 
Q 26.265625 6.109375 33.40625 6.109375 
Q 40.53125 6.109375 44.609375 11.75 
Q 48.6875 17.390625 48.6875 27.296875 
z
" id="DejaVuSans-70"/>
      <path d="M 30.609375 48.390625 
Q 23.390625 48.390625 19.1875 42.75 
Q 14.984375 37.109375 14.984375 27.296875 
Q 14.984375 17.484375 19.15625 11.84375 
Q 23.34375 6.203125 30.609375 6.203125 
Q 37.796875 6.203125 41.984375 11.859375 
Q 46.1875 17.53125 46.1875 27.296875 
Q 46.1875 37.015625 41.984375 42.703125 
Q 37.796875 48.390625 30.609375 48.390625 
z
M 30.609375 56 
Q 42.328125 56 49.015625 48.375 
Q 55.71875 40.765625 55.71875 27.296875 
Q 55.71875 13.875 49.015625 6.21875 
Q 42.328125 -1.421875 30.609375 -1.421875 
Q 18.84375 -1.421875 12.171875 6.21875 
Q 5.515625 13.875 5.515625 27.296875 
Q 5.515625 40.765625 12.171875 48.375 
Q 18.84375 56 30.609375 56 
z
" id="DejaVuSans-6f"/>
      <path d="M 9.421875 54.6875 
L 18.40625 54.6875 
L 18.40625 0 
L 9.421875 0 
z
M 9.421875 75.984375 
L 18.40625 75.984375 
L 18.40625 64.59375 
L 9.421875 64.59375 
z
" id="DejaVuSans-69"/>
      <path d="M 18.3125 70.21875 
L 18.3125 54.6875 
L 36.8125 54.6875 
L 36.8125 47.703125 
L 18.3125 47.703125 
L 18.3125 18.015625 
Q 18.3125 11.328125 20.140625 9.421875 
Q 21.96875 7.515625 27.59375 7.515625 
L 36.8125 7.515625 
L 36.8125 0 
L 27.59375 0 
Q 17.1875 0 13.234375 3.875 
Q 9.28125 7.765625 9.28125 18.015625 
L 9.28125 47.703125 
L 2.6875 47.703125 
L 2.6875 54.6875 
L 9.28125 54.6875 
L 9.28125 70.21875 
z
" id="DejaVuSans-74"/>
      <path d="M 2.984375 54.6875 
L 12.5 54.6875 
L 29.59375 8.796875 
L 46.6875 54.6875 
L 56.203125 54.6875 
L 35.6875 0 
L 23.484375 0 
z
" id="DejaVuSans-76"/>
      <path d="M 41.109375 46.296875 
Q 39.59375 47.171875 37.8125 47.578125 
Q 36.03125 48 33.890625 48 
Q 26.265625 48 22.1875 43.046875 
Q 18.109375 38.09375 18.109375 28.8125 
L 18.109375 0 
L 9.078125 0 
L 9.078125 54.6875 
L 18.109375 54.6875 
L 18.109375 46.1875 
Q 20.953125 51.171875 25.484375 53.578125 
Q 30.03125 56 36.53125 56 
Q 37.453125 56 38.578125 55.875 
Q 39.703125 55.765625 41.0625 55.515625 
z
" id="DejaVuSans-72"/>
     </defs>
     <g transform="translate(79.39 273.195312)scale(0.18 -0.18)">
      <use xlink:href="#DejaVuSans-46"/>
      <use x="57.378906" xlink:href="#DejaVuSans-61"/>
      <use x="118.658203" xlink:href="#DejaVuSans-6c"/>
      <use x="146.441406" xlink:href="#DejaVuSans-73"/>
      <use x="198.541016" xlink:href="#DejaVuSans-65"/>
      <use x="260.064453" xlink:href="#DejaVuSans-20"/>
      <use x="291.851562" xlink:href="#DejaVuSans-70"/>
      <use x="355.328125" xlink:href="#DejaVuSans-6f"/>
      <use x="416.509766" xlink:href="#DejaVuSans-73"/>
      <use x="468.609375" xlink:href="#DejaVuSans-69"/>
      <use x="496.392578" xlink:href="#DejaVuSans-74"/>
      <use x="535.601562" xlink:href="#DejaVuSans-69"/>
      <use x="563.384766" xlink:href="#DejaVuSans-76"/>
      <use x="622.564453" xlink:href="#DejaVuSans-65"/>
      <use x="684.087891" xlink:href="#DejaVuSans-20"/>
      <use x="715.875" xlink:href="#DejaVuSans-72"/>
      <use x="756.988281" xlink:href="#DejaVuSans-61"/>
      <use x="818.267578" xlink:href="#DejaVuSans-74"/>
      <use x="857.476562" xlink:href="#DejaVuSans-65"/>
     </g>
    </g>
   </g>
   <g id="matplotlib.axis_2">
    <g id="ytick_1">
     <g id="line2d_4">
      <defs>
       <path d="M 0 0 
L -3.5 0 
" id="me740b77a77" style="stroke:#000000;stroke-width:0.8;"/>
      </defs>
      <g>
       <use style="stroke:#000000;stroke-width:0.8;" x="54.92" xlink:href="#me740b77a77" y="238.84"/>
      </g>
     </g>
     <g id="text_5">
      <!-- 0.0 -->
      <g transform="translate(32.016875 242.639219)scale(0.1 -0.1)">
       <use xlink:href="#DejaVuSans-30"/>
       <use x="63.623047" xlink:href="#DejaVuSans-2e"/>
       <use x="95.410156" xlink:href="#DejaVuSans-30"/>
      </g>
     </g>
    </g>
    <g id="ytick_2">
     <g id="line2d_5">
      <g>
       <use style="stroke:#000000;stroke-width:0.8;" x="54.92" xlink:href="#me740b77a77" y="134.66"/>
      </g>
     </g>
     <g id="text_6">
      <!-- 0.5 -->
      <g transform="translate(32.016875 138.459219)scale(0.1 -0.1)">
       <use xlink:href="#DejaVuSans-30"/>
       <use x="63.623047" xlink:href="#DejaVuSans-2e"/>
       <use x="95.410156" xlink:href="#DejaVuSans-35"/>
      </g>
     </g>
    </g>
    <g id="ytick_3">
     <g id="line2d_6">
      <g>
       <use style="stroke:#000000;stroke-width:0.8;" x="54.92" xlink:href="#me740b77a77" y="30.48"/>
      </g>
     </g>
     <g id="text_7">
      <!-- 1.0 -->
      <g transform="translate(32.016875 34.279219)scale(0.1 -0.1)">
       <use xlink:href="#DejaVuSans-31"/>
       <use x="63.623047" xlink:href="#DejaVuSans-2e"/>
       <use x="95.410156" xlink:href="#DejaVuSans-30"/>
      </g>
     </g>
    </g>
    <g id="text_8">
     <!-- True positive rate -->
     <defs>
      <path d="M -0.296875 72.90625 
L 61.375 72.90625 
L 61.375 64.59375 
L 35.5 64.59375 
L 35.5 0 
L 25.59375 0 
L 25.59375 64.59375 
L -0.296875 64.59375 
z
" id="DejaVuSans-54"/>
      <path d="M 8.5 21.578125 
L 8.5 54.6875 
L 17.484375 54.6875 
L 17.484375 21.921875 
Q 17.484375 14.15625 20.5 10.265625 
Q 23.53125 6.390625 29.59375 6.390625 
Q 36.859375 6.390625 41.078125 11.03125 
Q 45.3125 15.671875 45.3125 23.6875 
L 45.3125 54.6875 
L 54.296875 54.6875 
L 54.296875 0 
L 45.3125 0 
L 45.3125 8.40625 
Q 42.046875 3.421875 37.71875 1 
Q 33.40625 -1.421875 27.6875 -1.421875 
Q 18.265625 -1.421875 13.375 4.4375 
Q 8.5 10.296875 8.5 21.578125 
z
M 31.109375 56 
z
" id="DejaVuSans-75"/>
     </defs>
     <g transform="translate(24.273438 214.383125)rotate(-90)scale(0.18 -0.18)">
      <use xlink:href="#DejaVuSans-54"/>
      <use x="60.865234" xlink:href="#DejaVuSans-72"/>
      <use x="101.978516" xlink:href="#DejaVuSans-75"/>
      <use x="165.357422" xlink:href="#DejaVuSans-65"/>
      <use x="226.880859" xlink:href="#DejaVuSans-20"/>
      <use x="258.667969" xlink:href="#DejaVuSans-70"/>
      <use x="322.144531" xlink:href="#DejaVuSans-6f"/>
      <use x="383.326172" xlink:href="#DejaVuSans-73"/>
      <use x="435.425781" xlink:href="#DejaVuSans-69"/>
      <use x="463.208984" xlink:href="#DejaVuSans-74"/>
      <use x="502.417969" xlink:href="#DejaVuSans-69"/>
      <use x="530.201172" xlink:href="#DejaVuSans-76"/>
      <use x="589.380859" xlink:href="#DejaVuSans-65"/>
      <use x="650.904297" xlink:href="#DejaVuSans-20"/>
      <use x="682.691406" xlink:href="#DejaVuSans-72"/>
      <use x="723.804688" xlink:href="#DejaVuSans-61"/>
      <use x="785.083984" xlink:href="#DejaVuSans-74"/>
      <use x="824.292969" xlink:href="#DejaVuSans-65"/>
     </g>
    </g>
   </g>
   <g id="line2d_7">
    <path clip-path="url(#p42cfe37417)" d="M 54.92 238.84 
L 269.28 30.48 
L 269.28 30.48 
" style="fill:none;stroke:#000000;stroke-dasharray:5.55,2.4;stroke-dashoffset:0;stroke-width:1.5;"/>
   </g>
   <g id="line2d_8">
    <path clip-path="url(#p42cfe37417)" d="M 54.92 238.84 
L 55.997186 196.26463 
L 57.074372 186.423572 
L 58.151558 179.643667 
L 59.228744 174.307807 
L 60.30593 169.839947 
L 61.383116 165.960766 
L 63.537487 159.391551 
L 65.691859 153.89097 
L 67.846231 149.115138 
L 70.000603 144.868353 
L 72.154975 141.027486 
L 75.386533 135.852502 
L 78.61809 131.221922 
L 81.849648 127.014608 
L 85.081206 123.147332 
L 88.312764 119.560191 
L 92.621508 115.137397 
L 96.930251 111.055609 
L 101.238995 107.257249 
L 106.624925 102.84254 
L 112.010854 98.739016 
L 117.396784 94.898235 
L 123.859899 90.583952 
L 130.323015 86.544231 
L 137.863317 82.126777 
L 145.403618 77.982168 
L 152.94392 74.072769 
L 161.561407 69.854678 
L 170.178894 65.868895 
L 179.873568 61.6269 
L 190.645427 57.1757 
L 201.417286 52.965378 
L 213.266332 48.577313 
L 226.192563 44.045109 
L 239.118794 39.746419 
L 253.122211 35.321556 
L 268.202814 30.794665 
L 269.28 30.48 
L 269.28 30.48 
" style="fill:none;stroke:#008000;stroke-linecap:square;stroke-width:1.5;"/>
   </g>
   <g id="line2d_9">
    <path clip-path="url(#p42cfe37417)" d="M 54.92 238.84 
L 59.560244 224.181508 
L 64.094645 210.57005 
L 68.498442 198.005628 
L 73.139924 185.441206 
L 77.632131 173.923819 
L 81.940679 163.453467 
L 86.493724 152.983116 
L 90.830658 143.559799 
L 95.428523 134.136482 
L 99.76808 125.760201 
L 103.790055 118.430955 
L 108.054013 111.101709 
L 112.598674 103.772462 
L 116.754725 97.490251 
L 121.193243 91.20804 
L 125.144624 85.972864 
L 129.366314 80.737688 
L 133.908151 75.502513 
L 137.815889 71.314372 
L 142.015218 67.126231 
L 146.565372 62.93809 
L 150.25581 59.796985 
L 154.234449 56.655879 
L 158.562918 53.514774 
L 163.326842 50.373668 
L 168.650846 47.232563 
L 172.602316 45.138492 
L 176.971393 43.044422 
L 181.884751 40.950352 
L 187.543729 38.856281 
L 194.302112 36.762211 
L 198.292999 35.715176 
L 202.889518 34.668141 
L 208.379031 33.621106 
L 215.354172 32.57407 
L 225.478617 31.527035 
L 269.28 30.48 
L 269.28 30.48 
" style="fill:none;stroke:#0000ff;stroke-linecap:square;stroke-width:1.5;"/>
   </g>
   <g id="patch_3">
    <path d="M 54.92 238.84 
L 54.92 30.48 
" style="fill:none;stroke:#000000;stroke-linecap:square;stroke-linejoin:miter;stroke-width:0.8;"/>
   </g>
   <g id="patch_4">
    <path d="M 269.28 238.84 
L 269.28 30.48 
" style="fill:none;stroke:#000000;stroke-linecap:square;stroke-linejoin:miter;stroke-width:0.8;"/>
   </g>
   <g id="patch_5">
    <path d="M 54.92 238.84 
L 269.28 238.84 
" style="fill:none;stroke:#000000;stroke-linecap:square;stroke-linejoin:miter;stroke-width:0.8;"/>
   </g>
   <g id="patch_6">
    <path d="M 54.92 30.48 
L 269.28 30.48 
" style="fill:none;stroke:#000000;stroke-linecap:square;stroke-linejoin:miter;stroke-width:0.8;"/>
   </g>
   <g id="text_9">
    <!-- ROC curve -->
    <defs>
     <path d="M 44.390625 34.1875 
Q 47.5625 33.109375 50.5625 29.59375 
Q 53.5625 26.078125 56.59375 19.921875 
L 66.609375 0 
L 56 0 
L 46.6875 18.703125 
Q 43.0625 26.03125 39.671875 28.421875 
Q 36.28125 30.8125 30.421875 30.8125 
L 19.671875 30.8125 
L 19.671875 0 
L 9.8125 0 
L 9.8125 72.90625 
L 32.078125 72.90625 
Q 44.578125 72.90625 50.734375 67.671875 
Q 56.890625 62.453125 56.890625 51.90625 
Q 56.890625 45.015625 53.6875 40.46875 
Q 50.484375 35.9375 44.390625 34.1875 
z
M 19.671875 64.796875 
L 19.671875 38.921875 
L 32.078125 38.921875 
Q 39.203125 38.921875 42.84375 42.21875 
Q 46.484375 45.515625 46.484375 51.90625 
Q 46.484375 58.296875 42.84375 61.546875 
Q 39.203125 64.796875 32.078125 64.796875 
z
" id="DejaVuSans-52"/>
     <path d="M 39.40625 66.21875 
Q 28.65625 66.21875 22.328125 58.203125 
Q 16.015625 50.203125 16.015625 36.375 
Q 16.015625 22.609375 22.328125 14.59375 
Q 28.65625 6.59375 39.40625 6.59375 
Q 50.140625 6.59375 56.421875 14.59375 
Q 62.703125 22.609375 62.703125 36.375 
Q 62.703125 50.203125 56.421875 58.203125 
Q 50.140625 66.21875 39.40625 66.21875 
z
M 39.40625 74.21875 
Q 54.734375 74.21875 63.90625 63.9375 
Q 73.09375 53.65625 73.09375 36.375 
Q 73.09375 19.140625 63.90625 8.859375 
Q 54.734375 -1.421875 39.40625 -1.421875 
Q 24.03125 -1.421875 14.8125 8.828125 
Q 5.609375 19.09375 5.609375 36.375 
Q 5.609375 53.65625 14.8125 63.9375 
Q 24.03125 74.21875 39.40625 74.21875 
z
" id="DejaVuSans-4f"/>
     <path d="M 64.40625 67.28125 
L 64.40625 56.890625 
Q 59.421875 61.53125 53.78125 63.8125 
Q 48.140625 66.109375 41.796875 66.109375 
Q 29.296875 66.109375 22.65625 58.46875 
Q 16.015625 50.828125 16.015625 36.375 
Q 16.015625 21.96875 22.65625 14.328125 
Q 29.296875 6.6875 41.796875 6.6875 
Q 48.140625 6.6875 53.78125 8.984375 
Q 59.421875 11.28125 64.40625 15.921875 
L 64.40625 5.609375 
Q 59.234375 2.09375 53.4375 0.328125 
Q 47.65625 -1.421875 41.21875 -1.421875 
Q 24.65625 -1.421875 15.125 8.703125 
Q 5.609375 18.84375 5.609375 36.375 
Q 5.609375 53.953125 15.125 64.078125 
Q 24.65625 74.21875 41.21875 74.21875 
Q 47.75 74.21875 53.53125 72.484375 
Q 59.328125 70.75 64.40625 67.28125 
z
" id="DejaVuSans-43"/>
     <path d="M 48.78125 52.59375 
L 48.78125 44.1875 
Q 44.96875 46.296875 41.140625 47.34375 
Q 37.3125 48.390625 33.40625 48.390625 
Q 24.65625 48.390625 19.8125 42.84375 
Q 14.984375 37.3125 14.984375 27.296875 
Q 14.984375 17.28125 19.8125 11.734375 
Q 24.65625 6.203125 33.40625 6.203125 
Q 37.3125 6.203125 41.140625 7.25 
Q 44.96875 8.296875 48.78125 10.40625 
L 48.78125 2.09375 
Q 45.015625 0.34375 40.984375 -0.53125 
Q 36.96875 -1.421875 32.421875 -1.421875 
Q 20.0625 -1.421875 12.78125 6.34375 
Q 5.515625 14.109375 5.515625 27.296875 
Q 5.515625 40.671875 12.859375 48.328125 
Q 20.21875 56 33.015625 56 
Q 37.15625 56 41.109375 55.140625 
Q 45.0625 54.296875 48.78125 52.59375 
z
" id="DejaVuSans-63"/>
    </defs>
    <g transform="translate(114.4 24.48)scale(0.18 -0.18)">
     <use xlink:href="#DejaVuSans-52"/>
     <use x="69.482422" xlink:href="#DejaVuSans-4f"/>
     <use x="148.193359" xlink:href="#DejaVuSans-43"/>
     <use x="218.017578" xlink:href="#DejaVuSans-20"/>
     <use x="249.804688" xlink:href="#DejaVuSans-63"/>
     <use x="304.785156" xlink:href="#DejaVuSans-75"/>
     <use x="368.164062" xlink:href="#DejaVuSans-72"/>
     <use x="409.277344" xlink:href="#DejaVuSans-76"/>
     <use x="468.457031" xlink:href="#DejaVuSans-65"/>
    </g>
   </g>
   <g id="legend_1">
    <g id="patch_7">
     <path d="M 223.931563 233.84 
L 262.28 233.84 
Q 264.28 233.84 264.28 231.84 
L 264.28 188.805625 
Q 264.28 186.805625 262.28 186.805625 
L 223.931563 186.805625 
Q 221.931563 186.805625 221.931563 188.805625 
L 221.931563 231.84 
Q 221.931563 233.84 223.931563 233.84 
z
" style="fill:#ffffff;opacity:0.8;stroke:#cccccc;stroke-linejoin:miter;"/>
    </g>
    <g id="text_10">
     <!-- Group -->
     <defs>
      <path d="M 59.515625 10.40625 
L 59.515625 29.984375 
L 43.40625 29.984375 
L 43.40625 38.09375 
L 69.28125 38.09375 
L 69.28125 6.78125 
Q 63.578125 2.734375 56.6875 0.65625 
Q 49.8125 -1.421875 42 -1.421875 
Q 24.90625 -1.421875 15.25 8.5625 
Q 5.609375 18.5625 5.609375 36.375 
Q 5.609375 54.25 15.25 64.234375 
Q 24.90625 74.21875 42 74.21875 
Q 49.125 74.21875 55.546875 72.453125 
Q 61.96875 70.703125 67.390625 67.28125 
L 67.390625 56.78125 
Q 61.921875 61.421875 55.765625 63.765625 
Q 49.609375 66.109375 42.828125 66.109375 
Q 29.4375 66.109375 22.71875 58.640625 
Q 16.015625 51.171875 16.015625 36.375 
Q 16.015625 21.625 22.71875 14.15625 
Q 29.4375 6.6875 42.828125 6.6875 
Q 48.046875 6.6875 52.140625 7.59375 
Q 56.25 8.5 59.515625 10.40625 
z
" id="DejaVuSans-47"/>
     </defs>
     <g transform="translate(227.775313 198.404062)scale(0.1 -0.1)">
      <use xlink:href="#DejaVuSans-47"/>
      <use x="77.490234" xlink:href="#DejaVuSans-72"/>
      <use x="118.572266" xlink:href="#DejaVuSans-6f"/>
      <use x="179.753906" xlink:href="#DejaVuSans-75"/>
      <use x="243.132812" xlink:href="#DejaVuSans-70"/>
     </g>
    </g>
    <g id="line2d_10">
     <path d="M 225.931563 209.582187 
L 245.931563 209.582187 
" style="fill:none;stroke:#008000;stroke-linecap:square;stroke-width:1.5;"/>
    </g>
    <g id="line2d_11"/>
    <g id="text_11">
     <!-- a -->
     <g transform="translate(253.931563 213.082187)scale(0.1 -0.1)">
      <use xlink:href="#DejaVuSans-61"/>
     </g>
    </g>
    <g id="line2d_12">
     <path d="M 225.931563 224.260312 
L 245.931563 224.260312 
" style="fill:none;stroke:#0000ff;stroke-linecap:square;stroke-width:1.5;"/>
    </g>
    <g id="line2d_13"/>
    <g id="text_12">
     <!-- b -->
     <defs>
      <path d="M 48.6875 27.296875 
Q 48.6875 37.203125 44.609375 42.84375 
Q 40.53125 48.484375 33.40625 48.484375 
Q 26.265625 48.484375 22.1875 42.84375 
Q 18.109375 37.203125 18.109375 27.296875 
Q 18.109375 17.390625 22.1875 11.75 
Q 26.265625 6.109375 33.40625 6.109375 
Q 40.53125 6.109375 44.609375 11.75 
Q 48.6875 17.390625 48.6875 27.296875 
z
M 18.109375 46.390625 
Q 20.953125 51.265625 25.265625 53.625 
Q 29.59375 56 35.59375 56 
Q 45.5625 56 51.78125 48.09375 
Q 58.015625 40.1875 58.015625 27.296875 
Q 58.015625 14.40625 51.78125 6.484375 
Q 45.5625 -1.421875 35.59375 -1.421875 
Q 29.59375 -1.421875 25.265625 0.953125 
Q 20.953125 3.328125 18.109375 8.203125 
L 18.109375 0 
L 9.078125 0 
L 9.078125 75.984375 
L 18.109375 75.984375 
z
" id="DejaVuSans-62"/>
     </defs>
     <g transform="translate(253.931563 227.760312)scale(0.1 -0.1)">
      <use xlink:href="#DejaVuSans-62"/>
     </g>
    </g>
   </g>
  </g>
 </g>
 <defs>
  <clipPath id="p42cfe37417">
   <rect height="208.36" width="214.36" x="54.92" y="30.48"/>
  </clipPath>
 </defs>
</svg>
