<svg version="1.1" viewBox="0.0 0.0 548.4383202099738 414.63254593175856" fill="none" stroke="none" stroke-linecap="square" stroke-miterlimit="10" xmlns:xlink="http://www.w3.org/1999/xlink" xmlns="http://www.w3.org/2000/svg"><clipPath id="p.0"><path d="m0 0l548.4383 0l0 414.63254l-548.4383 0l0 -414.63254z" clip-rule="nonzero"/></clipPath><g clip-path="url(#p.0)"><path fill="#000000" fill-opacity="0.0" d="m0 0l548.4383 0l0 414.63254l-548.4383 0z" fill-rule="evenodd"/><path fill="#000000" fill-opacity="0.0" d="m9.0078745 8.0l0 185.13387" fill-rule="evenodd"/><path stroke="#000000" stroke-width="1.0" stroke-linejoin="round" stroke-linecap="butt" d="m9.0078745 14.0l0 179.13387" fill-rule="evenodd"/><path fill="#000000" stroke="#000000" stroke-width="1.0" stroke-linecap="butt" d="m10.659606 14.0l-1.6517315 -4.5380974l-1.6517329 4.5380974z" fill-rule="evenodd"/><path fill="#000000" fill-opacity="0.0" d="m10.011811 192.14961l521.2598 0" fill-rule="evenodd"/><path stroke="#000000" stroke-width="1.0" stroke-linejoin="round" stroke-linecap="butt" d="m10.011811 192.14961l515.2598 0" fill-rule="evenodd"/><path fill="#000000" stroke="#000000" stroke-width="1.0" stroke-linecap="butt" d="m525.27167 193.80135l4.538086 -1.6517334l-4.538086 -1.6517334z" fill-rule="evenodd"/><path fill="#000000" fill-opacity="0.0" d="m8.0 128.75212c17.106737 -15.094055 71.27778 -84.359146 102.64042 -90.56431c31.362648 -6.20516 66.0805 30.69204 85.53544 53.333336c19.45494 22.641296 14.423004 92.40988 31.194214 82.514435c16.771225 -9.895447 38.741043 -120.587494 69.43309 -141.88715c30.692017 -21.299652 75.305756 0.50437546 114.71915 14.089237c39.41339 13.584866 101.46762 56.183292 121.76114 67.41995" fill-rule="evenodd"/><path stroke="#000000" stroke-width="2.0" stroke-linejoin="round" stroke-linecap="butt" d="m8.0 128.75212c17.106737 -15.094055 71.27778 -84.359146 102.64042 -90.56431c31.362648 -6.20516 66.0805 30.69204 85.53544 53.333336c19.45494 22.641296 14.423004 92.40988 31.194214 82.514435c16.771225 -9.895447 38.741043 -120.587494 69.43309 -141.88715c30.692017 -21.299652 75.305756 0.50437546 114.71915 14.089237c39.41339 13.584866 101.46762 56.183292 121.76114 67.41995" fill-rule="evenodd"/><path fill="#ff0000" d="m26.112862 101.580055l0 0c0 -4.444374 3.6028728 -8.047249 8.047245 -8.047249l0 0c2.1342583 0 4.1811066 0.8478317 5.690258 2.356987c1.5091515 1.5091476 2.3569832 3.5559998 2.3569832 5.690262l0 0c0 4.4443665 -3.602871 8.047241 -8.047241 8.047241l0 0c-4.444372 0 -8.047245 -3.6028748 -8.047245 -8.047241z" fill-rule="evenodd"/><path stroke="#000000" stroke-width="1.0" stroke-linejoin="round" stroke-linecap="butt" d="m26.112862 101.580055l0 0c0 -4.444374 3.6028728 -8.047249 8.047245 -8.047249l0 0c2.1342583 0 4.1811066 0.8478317 5.690258 2.356987c1.5091515 1.5091476 2.3569832 3.5559998 2.3569832 5.690262l0 0c0 4.4443665 -3.602871 8.047241 -8.047241 8.047241l0 0c-4.444372 0 -8.047245 -3.6028748 -8.047245 -8.047241z" fill-rule="evenodd"/><path fill="#ff0000" d="m82.36483 48.14698l0 0c0 -4.4443703 3.6028748 -8.047241 8.047241 -8.047241l0 0c2.134262 0 4.181114 0.8478317 5.690262 2.3569832c1.5091553 1.5091476 2.356987 3.555996 2.356987 5.690258l0 0c0 4.4443703 -3.6028748 8.047245 -8.047249 8.047245l0 0c-4.4443665 0 -8.047241 -3.6028748 -8.047241 -8.047245z" fill-rule="evenodd"/><path stroke="#000000" stroke-width="1.0" stroke-linejoin="round" stroke-linecap="butt" d="m82.36483 48.14698l0 0c0 -4.4443703 3.6028748 -8.047241 8.047241 -8.047241l0 0c2.134262 0 4.181114 0.8478317 5.690262 2.3569832c1.5091553 1.5091476 2.356987 3.555996 2.356987 5.690258l0 0c0 4.4443703 -3.6028748 8.047245 -8.047249 8.047245l0 0c-4.4443665 0 -8.047241 -3.6028748 -8.047241 -8.047245z" fill-rule="evenodd"/><path fill="#ff0000" d="m167.7979 70.18372l0 0c0 -4.4443665 3.6028748 -8.047241 8.047241 -8.047241l0 0c2.134262 0 4.181122 0.8478317 5.690262 2.356987c1.5091553 1.5091476 2.3569946 3.5559998 2.3569946 5.690254l0 0c0 4.444374 -3.6028748 8.047249 -8.047256 8.047249l0 0c-4.4443665 0 -8.047241 -3.6028748 -8.047241 -8.047249z" fill-rule="evenodd"/><path stroke="#000000" stroke-width="1.0" stroke-linejoin="round" stroke-linecap="butt" d="m167.7979 70.18372l0 0c0 -4.4443665 3.6028748 -8.047241 8.047241 -8.047241l0 0c2.134262 0 4.181122 0.8478317 5.690262 2.356987c1.5091553 1.5091476 2.3569946 3.5559998 2.3569946 5.690254l0 0c0 4.444374 -3.6028748 8.047249 -8.047256 8.047249l0 0c-4.4443665 0 -8.047241 -3.6028748 -8.047241 -8.047249z" fill-rule="evenodd"/><path fill="#ff0000" d="m231.09448 155.61942l0 0c0 -4.4443665 3.6028748 -8.047241 8.047256 -8.047241l0 0c2.134262 0 4.1811066 0.84783936 5.690262 2.3569946c1.50914 1.50914 2.3569794 3.5559845 2.3569794 5.6902466l0 0c0 4.4443817 -3.6028748 8.047256 -8.047241 8.047256l0 0c-4.4443817 0 -8.047256 -3.6028748 -8.047256 -8.047256z" fill-rule="evenodd"/><path stroke="#000000" stroke-width="1.0" stroke-linejoin="round" stroke-linecap="butt" d="m231.09448 155.61942l0 0c0 -4.4443665 3.6028748 -8.047241 8.047256 -8.047241l0 0c2.134262 0 4.1811066 0.84783936 5.690262 2.3569946c1.50914 1.50914 2.3569794 3.5559845 2.3569794 5.6902466l0 0c0 4.4443817 -3.6028748 8.047256 -8.047241 8.047256l0 0c-4.4443817 0 -8.047256 -3.6028748 -8.047256 -8.047256z" fill-rule="evenodd"/><path fill="#ff0000" d="m273.25986 48.14698l0 0c0 -4.4443703 3.6028442 -8.047241 8.047241 -8.047241l0 0c2.1342468 0 4.1810913 0.8478317 5.6902466 2.3569832c1.5091553 1.5091476 2.3569946 3.555996 2.3569946 5.690258l0 0c0 4.4443703 -3.6028748 8.047245 -8.047241 8.047245l0 0c-4.444397 0 -8.047241 -3.6028748 -8.047241 -8.047245z" fill-rule="evenodd"/><path stroke="#000000" stroke-width="1.0" stroke-linejoin="round" stroke-linecap="butt" d="m273.25986 48.14698l0 0c0 -4.4443703 3.6028442 -8.047241 8.047241 -8.047241l0 0c2.1342468 0 4.1810913 0.8478317 5.6902466 2.3569832c1.5091553 1.5091476 2.3569946 3.555996 2.3569946 5.690258l0 0c0 4.4443703 -3.6028748 8.047245 -8.047241 8.047245l0 0c-4.444397 0 -8.047241 -3.6028748 -8.047241 -8.047245z" fill-rule="evenodd"/><path fill="#ff0000" d="m382.8399 36.67454l0 0c0 -4.4443703 3.6028748 -8.047245 8.047241 -8.047245l0 0c2.1342468 0 4.1810913 0.8478317 5.6902466 2.3569832c1.5091553 1.5091515 2.3569946 3.5559998 2.3569946 5.690262l0 0c0 4.4443703 -3.6028748 8.047245 -8.047241 8.047245l0 0c-4.4443665 0 -8.047241 -3.6028748 -8.047241 -8.047245z" fill-rule="evenodd"/><path stroke="#000000" stroke-width="1.0" stroke-linejoin="round" stroke-linecap="butt" d="m382.8399 36.67454l0 0c0 -4.4443703 3.6028748 -8.047245 8.047241 -8.047245l0 0c2.1342468 0 4.1810913 0.8478317 5.6902466 2.3569832c1.5091553 1.5091515 2.3569946 3.5559998 2.3569946 5.690262l0 0c0 4.4443703 -3.6028748 8.047245 -8.047241 8.047245l0 0c-4.4443665 0 -8.047241 -3.6028748 -8.047241 -8.047245z" fill-rule="evenodd"/><path fill="#ff0000" d="m506.51706 101.580055l0 0c0 -4.444374 3.6028748 -8.047249 8.047272 -8.047249l0 0c2.1342163 0 4.1810913 0.8478317 5.6902466 2.356987c1.5091553 1.5091476 2.3569946 3.5559998 2.3569946 5.690262l0 0c0 4.4443665 -3.6029053 8.047241 -8.047241 8.047241l0 0c-4.444397 0 -8.047272 -3.6028748 -8.047272 -8.047241z" fill-rule="evenodd"/><path stroke="#000000" stroke-width="1.0" stroke-linejoin="round" stroke-linecap="butt" d="m506.51706 101.580055l0 0c0 -4.444374 3.6028748 -8.047249 8.047272 -8.047249l0 0c2.1342163 0 4.1810913 0.8478317 5.6902466 2.356987c1.5091553 1.5091476 2.3569946 3.5559998 2.3569946 5.690262l0 0c0 4.4443665 -3.6029053 8.047241 -8.047241 8.047241l0 0c-4.444397 0 -8.047272 -3.6028748 -8.047272 -8.047241z" fill-rule="evenodd"/><path fill="#6aa84f" d="m332.3281 25.4042l0 0c0 -4.4443703 3.6028748 -8.047245 8.047241 -8.047245l0 0c2.1342468 0 4.1810913 0.84783363 5.6902466 2.3569832c1.5091553 1.5091515 2.3569946 3.5559998 2.3569946 5.690262l0 0c0 4.4443703 -3.6028748 8.047243 -8.047241 8.047243l0 0c-4.4443665 0 -8.047241 -3.6028728 -8.047241 -8.047243z" fill-rule="evenodd"/><path stroke="#000000" stroke-width="1.0" stroke-linejoin="round" stroke-linecap="butt" d="m332.3281 25.4042l0 0c0 -4.4443703 3.6028748 -8.047245 8.047241 -8.047245l0 0c2.1342468 0 4.1810913 0.84783363 5.6902466 2.3569832c1.5091553 1.5091515 2.3569946 3.5559998 2.3569946 5.690262l0 0c0 4.4443703 -3.6028748 8.047243 -8.047241 8.047243l0 0c-4.4443665 0 -8.047241 -3.6028728 -8.047241 -8.047243z" fill-rule="evenodd"/><path fill="#6aa84f" d="m197.38583 108.826775l0 0c0 -4.444374 3.6028595 -8.047249 8.047241 -8.047249l0 0c2.134262 0 4.1811066 0.8478317 5.690262 2.356987c1.50914 1.5091476 2.3569794 3.5559998 2.3569794 5.690262l0 0c0 4.4443665 -3.6028748 8.047241 -8.047241 8.047241l0 0c-4.4443817 0 -8.047241 -3.6028748 -8.047241 -8.047241z" fill-rule="evenodd"/><path stroke="#000000" stroke-width="1.0" stroke-linejoin="round" stroke-linecap="butt" d="m197.38583 108.826775l0 0c0 -4.444374 3.6028595 -8.047249 8.047241 -8.047249l0 0c2.134262 0 4.1811066 0.8478317 5.690262 2.356987c1.50914 1.5091476 2.3569794 3.5559998 2.3569794 5.690262l0 0c0 4.4443665 -3.6028748 8.047241 -8.047241 8.047241l0 0c-4.4443817 0 -8.047241 -3.6028748 -8.047241 -8.047241z" fill-rule="evenodd"/><path fill="#6aa84f" d="m52.377953 74.509186l0 0c0 -4.4443665 3.6028748 -8.047241 8.047245 -8.047241l0 0c2.134262 0 4.1811104 0.8478317 5.690258 2.3569794c1.5091553 1.5091553 2.356987 3.5559998 2.356987 5.690262l0 0c0 4.444374 -3.6028748 8.047241 -8.047245 8.047241l0 0c-4.4443703 0 -8.047245 -3.6028671 -8.047245 -8.047241z" fill-rule="evenodd"/><path stroke="#000000" stroke-width="1.0" stroke-linejoin="round" stroke-linecap="butt" d="m52.377953 74.509186l0 0c0 -4.4443665 3.6028748 -8.047241 8.047245 -8.047241l0 0c2.134262 0 4.1811104 0.8478317 5.690258 2.3569794c1.5091553 1.5091553 2.356987 3.5559998 2.356987 5.690262l0 0c0 4.444374 -3.6028748 8.047241 -8.047245 8.047241l0 0c-4.4443703 0 -8.047245 -3.6028671 -8.047245 -8.047241z" fill-rule="evenodd"/><path fill="#000000" fill-opacity="0.0" d="m11.020997 209.28084l0 185.13387" fill-rule="evenodd"/><path stroke="#000000" stroke-width="1.0" stroke-linejoin="round" stroke-linecap="butt" d="m11.020997 215.28084l0 179.13387" fill-rule="evenodd"/><path fill="#000000" stroke="#000000" stroke-width="1.0" stroke-linecap="butt" d="m12.6727295 215.28084l-1.6517324 -4.538101l-1.6517324 4.538101z" fill-rule="evenodd"/><path fill="#000000" fill-opacity="0.0" d="m12.024935 393.43045l521.2598 0" fill-rule="evenodd"/><path stroke="#000000" stroke-width="1.0" stroke-linejoin="round" stroke-linecap="butt" d="m12.024935 393.43045l515.2598 0" fill-rule="evenodd"/><path fill="#000000" stroke="#000000" stroke-width="1.0" stroke-linecap="butt" d="m527.2848 395.08218l4.538086 -1.6517334l-4.538086 -1.6517334z" fill-rule="evenodd"/><path fill="#000000" fill-opacity="0.0" d="m10.0131235 330.03296c17.106735 -15.094055 71.27778 -84.359146 102.64042 -90.5643c31.362648 -6.2051697 66.0805 30.692047 85.53544 53.333344c19.45494 22.641266 14.423004 92.40988 31.19423 82.514435c16.77121 -9.895477 38.741028 -120.58751 69.433075 -141.88715c30.692017 -21.299652 75.305756 0.504364 114.71915 14.089233c39.41339 13.584869 101.46762 56.18329 121.76114 67.41995" fill-rule="evenodd"/><path stroke="#000000" stroke-width="2.0" stroke-linejoin="round" stroke-linecap="butt" d="m10.0131235 330.03296c17.106735 -15.094055 71.27778 -84.359146 102.64042 -90.5643c31.362648 -6.2051697 66.0805 30.692047 85.53544 53.333344c19.45494 22.641266 14.423004 92.40988 31.19423 82.514435c16.77121 -9.895477 38.741028 -120.58751 69.433075 -141.88715c30.692017 -21.299652 75.305756 0.504364 114.71915 14.089233c39.41339 13.584869 101.46762 56.18329 121.76114 67.41995" fill-rule="evenodd"/><path fill="#ff0000" d="m28.125984 302.8609l0 0c0 -4.4443665 3.6028748 -8.047241 8.047245 -8.047241l0 0c2.134262 0 4.1811104 0.84780884 5.690262 2.356964c1.5091476 1.5091553 2.3569832 3.5559998 2.3569832 5.690277l0 0c0 4.4443665 -3.6028748 8.047241 -8.047245 8.047241l0 0c-4.4443703 0 -8.047245 -3.6028748 -8.047245 -8.047241z" fill-rule="evenodd"/><path stroke="#000000" stroke-width="1.0" stroke-linejoin="round" stroke-linecap="butt" d="m28.125984 302.8609l0 0c0 -4.4443665 3.6028748 -8.047241 8.047245 -8.047241l0 0c2.134262 0 4.1811104 0.84780884 5.690262 2.356964c1.5091476 1.5091553 2.3569832 3.5559998 2.3569832 5.690277l0 0c0 4.4443665 -3.6028748 8.047241 -8.047245 8.047241l0 0c-4.4443703 0 -8.047245 -3.6028748 -8.047245 -8.047241z" fill-rule="evenodd"/><path fill="#ff0000" d="m84.37795 249.42783l0 0c0 -4.4443817 3.6028748 -8.047241 8.047241 -8.047241l0 0c2.134262 0 4.181114 0.8478241 5.690262 2.3569794c1.5091553 1.50914 2.356987 3.5559998 2.356987 5.690262l0 0c0 4.4443665 -3.6028748 8.047241 -8.047249 8.047241l0 0c-4.4443665 0 -8.047241 -3.6028748 -8.047241 -8.047241z" fill-rule="evenodd"/><path stroke="#000000" stroke-width="1.0" stroke-linejoin="round" stroke-linecap="butt" d="m84.37795 249.42783l0 0c0 -4.4443817 3.6028748 -8.047241 8.047241 -8.047241l0 0c2.134262 0 4.181114 0.8478241 5.690262 2.3569794c1.5091553 1.50914 2.356987 3.5559998 2.356987 5.690262l0 0c0 4.4443665 -3.6028748 8.047241 -8.047249 8.047241l0 0c-4.4443665 0 -8.047241 -3.6028748 -8.047241 -8.047241z" fill-rule="evenodd"/><path fill="#ff0000" d="m169.81102 271.46457l0 0c0 -4.4443665 3.6028748 -8.047241 8.047241 -8.047241l0 0c2.134262 0 4.181122 0.84783936 5.690262 2.356964c1.5091553 1.5091553 2.3569946 3.5559998 2.3569946 5.690277l0 0c0 4.4443665 -3.6028748 8.047241 -8.047256 8.047241l0 0c-4.4443665 0 -8.047241 -3.6028748 -8.047241 -8.047241z" fill-rule="evenodd"/><path stroke="#000000" stroke-width="1.0" stroke-linejoin="round" stroke-linecap="butt" d="m169.81102 271.46457l0 0c0 -4.4443665 3.6028748 -8.047241 8.047241 -8.047241l0 0c2.134262 0 4.181122 0.84783936 5.690262 2.356964c1.5091553 1.5091553 2.3569946 3.5559998 2.3569946 5.690277l0 0c0 4.4443665 -3.6028748 8.047241 -8.047256 8.047241l0 0c-4.4443665 0 -8.047241 -3.6028748 -8.047241 -8.047241z" fill-rule="evenodd"/><path fill="#ff0000" d="m233.1076 356.90027l0 0c0 -4.4443665 3.6028748 -8.047241 8.047256 -8.047241l0 0c2.134262 0 4.1811066 0.84780884 5.690262 2.356964c1.50914 1.5091553 2.3569794 3.5559998 2.3569794 5.690277l0 0c0 4.4443665 -3.6028748 8.047241 -8.047241 8.047241l0 0c-4.4443817 0 -8.047256 -3.6028748 -8.047256 -8.047241z" fill-rule="evenodd"/><path stroke="#000000" stroke-width="1.0" stroke-linejoin="round" stroke-linecap="butt" d="m233.1076 356.90027l0 0c0 -4.4443665 3.6028748 -8.047241 8.047256 -8.047241l0 0c2.134262 0 4.1811066 0.84780884 5.690262 2.356964c1.50914 1.5091553 2.3569794 3.5559998 2.3569794 5.690277l0 0c0 4.4443665 -3.6028748 8.047241 -8.047241 8.047241l0 0c-4.4443817 0 -8.047256 -3.6028748 -8.047256 -8.047241z" fill-rule="evenodd"/><path fill="#ff0000" d="m275.27298 249.42783l0 0c0 -4.4443817 3.6028748 -8.047241 8.047241 -8.047241l0 0c2.1342468 0 4.1810913 0.8478241 5.6902466 2.3569794c1.5091553 1.50914 2.3569946 3.5559998 2.3569946 5.690262l0 0c0 4.4443665 -3.6028748 8.047241 -8.047241 8.047241l0 0c-4.4443665 0 -8.047241 -3.6028748 -8.047241 -8.047241z" fill-rule="evenodd"/><path stroke="#000000" stroke-width="1.0" stroke-linejoin="round" stroke-linecap="butt" d="m275.27298 249.42783l0 0c0 -4.4443817 3.6028748 -8.047241 8.047241 -8.047241l0 0c2.1342468 0 4.1810913 0.8478241 5.6902466 2.3569794c1.5091553 1.50914 2.3569946 3.5559998 2.3569946 5.690262l0 0c0 4.4443665 -3.6028748 8.047241 -8.047241 8.047241l0 0c-4.4443665 0 -8.047241 -3.6028748 -8.047241 -8.047241z" fill-rule="evenodd"/><path fill="#6aa84f" d="m384.85303 237.95538l0 0c0 -4.4443665 3.6028748 -8.047241 8.047241 -8.047241l0 0c2.1342468 0 4.1810913 0.8478241 5.6902466 2.3569794c1.5091553 1.5091553 2.3569946 3.5559998 2.3569946 5.690262l0 0c0 4.4443665 -3.6028748 8.047241 -8.047241 8.047241l0 0c-4.4443665 0 -8.047241 -3.6028748 -8.047241 -8.047241z" fill-rule="evenodd"/><path stroke="#000000" stroke-width="1.0" stroke-linejoin="round" stroke-linecap="butt" d="m384.85303 237.95538l0 0c0 -4.4443665 3.6028748 -8.047241 8.047241 -8.047241l0 0c2.1342468 0 4.1810913 0.8478241 5.6902466 2.3569794c1.5091553 1.5091553 2.3569946 3.5559998 2.3569946 5.690262l0 0c0 4.4443665 -3.6028748 8.047241 -8.047241 8.047241l0 0c-4.4443665 0 -8.047241 -3.6028748 -8.047241 -8.047241z" fill-rule="evenodd"/><path fill="#6aa84f" d="m508.53018 302.8609l0 0c0 -4.4443665 3.6028748 -8.047241 8.047272 -8.047241l0 0c2.1342163 0 4.1810913 0.84780884 5.6902466 2.356964c1.5091553 1.5091553 2.3569946 3.5559998 2.3569946 5.690277l0 0c0 4.4443665 -3.6029053 8.047241 -8.047241 8.047241l0 0c-4.444397 0 -8.047272 -3.6028748 -8.047272 -8.047241z" fill-rule="evenodd"/><path stroke="#000000" stroke-width="1.0" stroke-linejoin="round" stroke-linecap="butt" d="m508.53018 302.8609l0 0c0 -4.4443665 3.6028748 -8.047241 8.047272 -8.047241l0 0c2.1342163 0 4.1810913 0.84780884 5.6902466 2.356964c1.5091553 1.5091553 2.3569946 3.5559998 2.3569946 5.690277l0 0c0 4.4443665 -3.6029053 8.047241 -8.047241 8.047241l0 0c-4.444397 0 -8.047272 -3.6028748 -8.047272 -8.047241z" fill-rule="evenodd"/><path fill="#6aa84f" d="m334.34122 226.68504l0 0c0 -4.4443817 3.6028748 -8.047241 8.047241 -8.047241l0 0c2.1342468 0 4.1810913 0.8478241 5.6902466 2.3569794c1.5091553 1.5091553 2.3569946 3.5559998 2.3569946 5.690262l0 0c0 4.4443665 -3.6028748 8.047241 -8.047241 8.047241l0 0c-4.4443665 0 -8.047241 -3.6028748 -8.047241 -8.047241z" fill-rule="evenodd"/><path stroke="#000000" stroke-width="1.0" stroke-linejoin="round" stroke-linecap="butt" d="m334.34122 226.68504l0 0c0 -4.4443817 3.6028748 -8.047241 8.047241 -8.047241l0 0c2.1342468 0 4.1810913 0.8478241 5.6902466 2.3569794c1.5091553 1.5091553 2.3569946 3.5559998 2.3569946 5.690262l0 0c0 4.4443665 -3.6028748 8.047241 -8.047241 8.047241l0 0c-4.4443665 0 -8.047241 -3.6028748 -8.047241 -8.047241z" fill-rule="evenodd"/><path fill="#ff0000" d="m199.39896 310.1076l0 0c0 -4.4443665 3.6028748 -8.047241 8.047241 -8.047241l0 0c2.134262 0 4.1811066 0.84783936 5.690262 2.3569946c1.50914 1.5091553 2.3569794 3.5559998 2.3569794 5.6902466l0 0c0 4.4443665 -3.6028748 8.047241 -8.047241 8.047241l0 0c-4.4443665 0 -8.047241 -3.6028748 -8.047241 -8.047241z" fill-rule="evenodd"/><path stroke="#000000" stroke-width="1.0" stroke-linejoin="round" stroke-linecap="butt" d="m199.39896 310.1076l0 0c0 -4.4443665 3.6028748 -8.047241 8.047241 -8.047241l0 0c2.134262 0 4.1811066 0.84783936 5.690262 2.3569946c1.50914 1.5091553 2.3569794 3.5559998 2.3569794 5.6902466l0 0c0 4.4443665 -3.6028748 8.047241 -8.047241 8.047241l0 0c-4.4443665 0 -8.047241 -3.6028748 -8.047241 -8.047241z" fill-rule="evenodd"/><path fill="#ff0000" d="m54.391075 275.79004l0 0c0 -4.444397 3.6028748 -8.047272 8.047245 -8.047272l0 0c2.1342583 0 4.1811104 0.84783936 5.690258 2.3569946c1.5091553 1.5091553 2.356987 3.5559998 2.356987 5.690277l0 0c0 4.4443665 -3.6028748 8.047241 -8.047245 8.047241l0 0c-4.4443703 0 -8.047245 -3.6028748 -8.047245 -8.047241z" fill-rule="evenodd"/><path stroke="#000000" stroke-width="1.0" stroke-linejoin="round" stroke-linecap="butt" d="m54.391075 275.79004l0 0c0 -4.444397 3.6028748 -8.047272 8.047245 -8.047272l0 0c2.1342583 0 4.1811104 0.84783936 5.690258 2.3569946c1.5091553 1.5091553 2.356987 3.5559998 2.356987 5.690277l0 0c0 4.4443665 -3.6028748 8.047241 -8.047245 8.047241l0 0c-4.4443703 0 -8.047245 -3.6028748 -8.047245 -8.047241z" fill-rule="evenodd"/></g></svg>